<svg xmlns="http://www.w3.org/2000/svg" viewBox="0 0 591 115">
  <g fill="none" fill-rule="evenodd">
    <path fill="#F7DFB1" fill-rule="nonzero" d="M70.417 33.808c-2.953 0-5.352-1.266-7.198-3.797-1.846-2.532-2.768-5.819-2.768-9.862 0-4.09.925-7.388 2.777-9.896 1.851-2.508 4.289-3.762 7.312-3.762 3 0 5.43 1.251 7.286 3.753 1.858 2.502 2.787 5.78 2.787 9.835 0 4.16-.93 7.488-2.787 9.984-1.857 2.497-4.327 3.745-7.409 3.745Zm.053-3.252c3.082 0 4.623-3.47 4.623-10.407 0-6.937-1.517-10.406-4.553-10.406-3.035 0-4.552 3.463-4.552 10.389 0 6.949 1.494 10.424 4.482 10.424Zm16.398 2.601v-3.04h5.203V10.92l-5.203 1.3V9.093l10.424-2.602v23.625h5.203v3.041zm23.148 0v-3.04h5.203V10.92l-5.203 1.3V9.093l10.424-2.602v23.625h5.203v3.041zm29.845.651c-2.953 0-5.352-1.266-7.198-3.797-1.845-2.532-2.768-5.819-2.768-9.862 0-4.09.925-7.388 2.777-9.896 1.852-2.508 4.29-3.762 7.312-3.762 3 0 5.43 1.251 7.287 3.753 1.857 2.502 2.786 5.78 2.786 9.835 0 4.16-.929 7.488-2.786 9.984-1.858 2.497-4.328 3.745-7.41 3.745Zm.053-3.252c3.082 0 4.623-3.47 4.623-10.407 0-6.937-1.517-10.406-4.553-10.406-3.035 0-4.552 3.463-4.552 10.389 0 6.949 1.494 10.424 4.482 10.424Zm23.096 3.252c-2.954 0-5.353-1.266-7.199-3.797-1.845-2.532-2.768-5.819-2.768-9.862 0-4.09.925-7.388 2.777-9.896 1.852-2.508 4.29-3.762 7.313-3.762 3 0 5.428 1.251 7.286 3.753 1.857 2.502 2.786 5.78 2.786 9.835 0 4.16-.929 7.488-2.786 9.984-1.858 2.497-4.327 3.745-7.41 3.745Zm.052-3.252c3.082 0 4.623-3.47 4.623-10.407 0-6.937-1.517-10.406-4.552-10.406-3.036 0-4.553 3.463-4.553 10.389 0 6.949 1.494 10.424 4.482 10.424Zm16.398 2.601v-3.04h5.203V10.92l-5.203 1.3V9.093l10.424-2.602v23.625h5.203v3.041zm23.148 0v-3.04h5.203V10.92l-5.203 1.3V9.093l10.424-2.602v23.625h5.203v3.041zm41.111.651c-2.953 0-5.353-1.266-7.198-3.797-1.846-2.532-2.769-5.819-2.769-9.862 0-4.09.926-7.388 2.777-9.896 1.852-2.508 4.29-3.762 7.313-3.762 3 0 5.429 1.251 7.286 3.753 1.857 2.502 2.786 5.78 2.786 9.835 0 4.16-.929 7.488-2.786 9.984-1.857 2.497-4.327 3.745-7.41 3.745Zm.053-3.252c3.082 0 4.623-3.47 4.623-10.407 0-6.937-1.518-10.406-4.553-10.406s-4.553 3.463-4.553 10.389c0 6.949 1.494 10.424 4.483 10.424Zm16.398 2.601v-3.04h5.202V10.92l-5.203 1.3V9.093l10.424-2.602v23.625h5.203v3.041zm23.147 0v-3.04h5.203V10.92l-5.203 1.3V9.093l10.424-2.602v23.625h5.203v3.041zm29.846.651c-2.953 0-5.353-1.266-7.198-3.797-1.846-2.532-2.769-5.819-2.769-9.862 0-4.09.926-7.388 2.778-9.896 1.851-2.508 4.289-3.762 7.312-3.762 3 0 5.429 1.251 7.286 3.753 1.858 2.502 2.786 5.78 2.786 9.835 0 4.16-.928 7.488-2.786 9.984-1.857 2.497-4.327 3.745-7.409 3.745Zm.053-3.252c3.082 0 4.623-3.47 4.623-10.407 0-6.937-1.518-10.406-4.553-10.406s-4.553 3.463-4.553 10.389c0 6.949 1.494 10.424 4.483 10.424Zm16.397 2.601v-3.04h5.204V10.92l-5.204 1.3V9.093l10.424-2.602v23.625h5.203v3.041zm23.148 0v-3.04h5.204V10.92l-5.204 1.3V9.093l10.424-2.602v23.625h5.203v3.041zm29.846.651c-2.953 0-5.352-1.266-7.198-3.797-1.846-2.532-2.769-5.819-2.769-9.862 0-4.09.926-7.388 2.778-9.896 1.851-2.508 4.289-3.762 7.312-3.762 3 0 5.429 1.251 7.286 3.753 1.858 2.502 2.786 5.78 2.786 9.835 0 4.16-.928 7.488-2.786 9.984-1.857 2.497-4.327 3.745-7.409 3.745Zm.053-3.252c3.082 0 4.623-3.47 4.623-10.407 0-6.937-1.518-10.406-4.553-10.406s-4.553 3.463-4.553 10.389c0 6.949 1.495 10.424 4.483 10.424Zm23.095 3.252c-2.953 0-5.352-1.266-7.198-3.797-1.846-2.532-2.769-5.819-2.769-9.862 0-4.09.926-7.388 2.778-9.896 1.851-2.508 4.289-3.762 7.312-3.762 3 0 5.429 1.251 7.286 3.753 1.858 2.502 2.787 5.78 2.787 9.835 0 4.16-.93 7.488-2.787 9.984-1.857 2.497-4.327 3.745-7.409 3.745Zm.053-3.252c3.082 0 4.623-3.47 4.623-10.407 0-6.937-1.518-10.406-4.553-10.406s-4.552 3.463-4.552 10.389c0 6.949 1.494 10.424 4.482 10.424Zm34.36 3.252c-2.953 0-5.352-1.266-7.198-3.797-1.845-2.532-2.768-5.819-2.768-9.862 0-4.09.925-7.388 2.777-9.896 1.852-2.508 4.29-3.762 7.313-3.762 3 0 5.428 1.251 7.286 3.753 1.857 2.502 2.786 5.78 2.786 9.835 0 4.16-.929 7.488-2.786 9.984-1.858 2.497-4.327 3.745-7.41 3.745Zm.053-3.252c3.082 0 4.623-3.47 4.623-10.407 0-6.937-1.517-10.406-4.552-10.406-3.036 0-4.553 3.463-4.553 10.389 0 6.949 1.494 10.424 4.482 10.424Zm23.096 3.252c-2.954 0-5.353-1.266-7.199-3.797-1.845-2.532-2.768-5.819-2.768-9.862 0-4.09.926-7.388 2.777-9.896 1.852-2.508 4.29-3.762 7.313-3.762 3 0 5.428 1.251 7.286 3.753 1.857 2.502 2.786 5.78 2.786 9.835 0 4.16-.929 7.488-2.786 9.984-1.858 2.497-4.327 3.745-7.41 3.745Zm.052-3.252c3.082 0 4.623-3.47 4.623-10.407 0-6.937-1.517-10.406-4.552-10.406-3.036 0-4.553 3.463-4.553 10.389 0 6.949 1.494 10.424 4.482 10.424Zm16.398 2.601v-3.04h5.203V10.92l-5.203 1.3V9.093l10.424-2.602v23.625h5.203v3.041zm23.148 0v-3.04h5.203V10.92l-5.203 1.3V9.093l10.424-2.602v23.625h5.203v3.041zm29.845.651c-2.952 0-5.352-1.266-7.198-3.797-1.845-2.532-2.768-5.819-2.768-9.862 0-4.09.926-7.388 2.777-9.896 1.852-2.508 4.29-3.762 7.313-3.762 3 0 5.428 1.251 7.286 3.753 1.857 2.502 2.786 5.78 2.786 9.835 0 4.16-.929 7.488-2.786 9.984-1.858 2.497-4.327 3.745-7.41 3.745Zm.053-3.252c3.082 0 4.623-3.47 4.623-10.407 0-6.937-1.517-10.406-4.552-10.406-3.035 0-4.553 3.463-4.553 10.389 0 6.949 1.494 10.424 4.482 10.424Zm23.096 3.252c-2.953 0-5.353-1.266-7.199-3.797-1.845-2.532-2.768-5.819-2.768-9.862 0-4.09.926-7.388 2.777-9.896 1.852-2.508 4.29-3.762 7.313-3.762 3 0 5.428 1.251 7.286 3.753 1.857 2.502 2.786 5.78 2.786 9.835 0 4.16-.929 7.488-2.786 9.984-1.858 2.497-4.327 3.745-7.41 3.745Zm.052-3.252c3.082 0 4.623-3.47 4.623-10.407 0-6.937-1.517-10.406-4.552-10.406-3.035 0-4.553 3.463-4.553 10.389 0 6.949 1.494 10.424 4.482 10.424Zm16.399 2.601v-3.04h5.202V10.92l-5.203 1.3V9.093l10.424-2.602v23.625h5.203v3.041zM47.27 76.808c-2.954 0-5.353-1.266-7.199-3.797-1.846-2.532-2.769-5.819-2.769-9.862 0-4.09.926-7.388 2.778-9.896 1.851-2.508 4.289-3.762 7.312-3.762 3 0 5.429 1.251 7.286 3.753 1.858 2.502 2.787 5.78 2.787 9.835 0 4.16-.93 7.488-2.787 9.984-1.857 2.497-4.327 3.745-7.409 3.745Zm.052-3.252c3.082 0 4.623-3.47 4.623-10.407 0-6.937-1.518-10.406-4.553-10.406s-4.552 3.463-4.552 10.389c0 6.949 1.494 10.424 4.482 10.424Zm16.398 2.601v-3.04h5.203V53.92l-5.203 1.3v-3.128l10.423-2.602v23.625h5.204v3.041zm23.148 0v-3.04h5.203V53.92l-5.203 1.3v-3.128l10.424-2.602v23.625h5.203v3.041zm23.148 0v-3.04h5.203V53.92l-5.203 1.3v-3.128l10.424-2.602v23.625h5.203v3.041zm29.845.651c-2.953 0-5.352-1.266-7.198-3.797-1.845-2.532-2.768-5.819-2.768-9.862 0-4.09.925-7.388 2.777-9.896 1.852-2.508 4.29-3.762 7.312-3.762 3 0 5.43 1.251 7.287 3.753 1.857 2.502 2.786 5.78 2.786 9.835 0 4.16-.929 7.488-2.786 9.984-1.858 2.497-4.328 3.745-7.41 3.745Zm.053-3.252c3.082 0 4.623-3.47 4.623-10.407 0-6.937-1.517-10.406-4.553-10.406-3.035 0-4.552 3.463-4.552 10.389 0 6.949 1.494 10.424 4.482 10.424Zm16.398 2.601v-3.04h5.203V53.92l-5.203 1.3v-3.128l10.424-2.602v23.625h5.203v3.041zm29.846.651c-2.954 0-5.353-1.266-7.199-3.797-1.845-2.532-2.768-5.819-2.768-9.862 0-4.09.926-7.388 2.777-9.896 1.852-2.508 4.29-3.762 7.313-3.762 3 0 5.428 1.251 7.286 3.753 1.857 2.502 2.786 5.78 2.786 9.835 0 4.16-.929 7.488-2.786 9.984-1.858 2.497-4.327 3.745-7.41 3.745Zm.052-3.252c3.082 0 4.623-3.47 4.623-10.407 0-6.937-1.517-10.406-4.552-10.406-3.036 0-4.553 3.463-4.553 10.389 0 6.949 1.494 10.424 4.482 10.424Zm23.096 3.252c-2.954 0-5.353-1.266-7.199-3.797-1.845-2.532-2.768-5.819-2.768-9.862 0-4.09.926-7.388 2.777-9.896 1.852-2.508 4.29-3.762 7.313-3.762 3 0 5.428 1.251 7.286 3.753 1.857 2.502 2.786 5.78 2.786 9.835 0 4.16-.929 7.488-2.786 9.984-1.858 2.497-4.327 3.745-7.41 3.745Zm.052-3.252c3.082 0 4.623-3.47 4.623-10.407 0-6.937-1.517-10.406-4.552-10.406-3.036 0-4.553 3.463-4.553 10.389 0 6.949 1.494 10.424 4.482 10.424Zm34.361 3.252c-2.953 0-5.353-1.266-7.198-3.797-1.846-2.532-2.769-5.819-2.769-9.862 0-4.09.926-7.388 2.777-9.896 1.852-2.508 4.29-3.762 7.313-3.762 3 0 5.429 1.251 7.286 3.753 1.857 2.502 2.786 5.78 2.786 9.835 0 4.16-.929 7.488-2.786 9.984-1.857 2.497-4.327 3.745-7.41 3.745Zm.053-3.252c3.082 0 4.623-3.47 4.623-10.407 0-6.937-1.518-10.406-4.553-10.406s-4.553 3.463-4.553 10.389c0 6.949 1.494 10.424 4.483 10.424Zm23.095 3.252c-2.953 0-5.353-1.266-7.198-3.797-1.846-2.532-2.769-5.819-2.769-9.862 0-4.09.926-7.388 2.777-9.896 1.852-2.508 4.29-3.762 7.313-3.762 3 0 5.429 1.251 7.286 3.753 1.858 2.502 2.786 5.78 2.786 9.835 0 4.16-.928 7.488-2.786 9.984-1.857 2.497-4.327 3.745-7.41 3.745Zm.053-3.252c3.082 0 4.623-3.47 4.623-10.407 0-6.937-1.518-10.406-4.553-10.406s-4.553 3.463-4.553 10.389c0 6.949 1.494 10.424 4.483 10.424Zm16.397 2.601v-3.04h5.203V53.92l-5.203 1.3v-3.128l10.424-2.602v23.625h5.203v3.041zm23.148 0v-3.04h5.203V53.92l-5.203 1.3v-3.128l10.424-2.602v23.625h5.203v3.041zm29.846.651c-2.953 0-5.352-1.266-7.198-3.797-1.846-2.532-2.769-5.819-2.769-9.862 0-4.09.926-7.388 2.778-9.896 1.851-2.508 4.289-3.762 7.312-3.762 3 0 5.429 1.251 7.286 3.753 1.858 2.502 2.786 5.78 2.786 9.835 0 4.16-.928 7.488-2.786 9.984-1.857 2.497-4.327 3.745-7.409 3.745Zm.053-3.252c3.082 0 4.623-3.47 4.623-10.407 0-6.937-1.518-10.406-4.553-10.406s-4.553 3.463-4.553 10.389c0 6.949 1.495 10.424 4.483 10.424Zm23.096 3.252c-2.954 0-5.353-1.266-7.2-3.797-1.845-2.532-2.768-5.819-2.768-9.862 0-4.09.926-7.388 2.778-9.896 1.851-2.508 4.289-3.762 7.312-3.762 3 0 5.429 1.251 7.286 3.753 1.858 2.502 2.786 5.78 2.786 9.835 0 4.16-.928 7.488-2.786 9.984-1.857 2.497-4.327 3.745-7.409 3.745Zm.052-3.252c3.082 0 4.623-3.47 4.623-10.407 0-6.937-1.518-10.406-4.553-10.406s-4.553 3.463-4.553 10.389c0 6.949 1.495 10.424 4.483 10.424Zm16.398 2.601v-3.04h5.203V53.92l-5.204 1.3v-3.128l10.424-2.602v23.625h5.203v3.041zm23.148 0v-3.04h5.203V53.92l-5.203 1.3v-3.128l10.423-2.602v23.625h5.203v3.041zm41.11.651c-2.953 0-5.352-1.266-7.198-3.797-1.845-2.532-2.768-5.819-2.768-9.862 0-4.09.925-7.388 2.777-9.896 1.852-2.508 4.29-3.762 7.313-3.762 3 0 5.428 1.251 7.286 3.753 1.857 2.502 2.786 5.78 2.786 9.835 0 4.16-.929 7.488-2.786 9.984-1.858 2.497-4.327 3.745-7.41 3.745Zm.053-3.252c3.082 0 4.623-3.47 4.623-10.407 0-6.937-1.517-10.406-4.552-10.406-3.036 0-4.553 3.463-4.553 10.389 0 6.949 1.494 10.424 4.482 10.424Zm16.399 2.601v-3.04h5.202V53.92l-5.203 1.3v-3.128l10.424-2.602v23.625h5.203v3.041zm23.147 0v-3.04h5.203V53.92l-5.203 1.3v-3.128l10.424-2.602v23.625h5.203v3.041zm23.148 0v-3.04h5.203V53.92l-5.203 1.3v-3.128l10.424-2.602v23.625h5.203v3.041zm29.845.651c-2.952 0-5.352-1.266-7.198-3.797-1.845-2.532-2.768-5.819-2.768-9.862 0-4.09.926-7.388 2.777-9.896 1.852-2.508 4.29-3.762 7.313-3.762 3 0 5.428 1.251 7.286 3.753 1.857 2.502 2.786 5.78 2.786 9.835 0 4.16-.929 7.488-2.786 9.984-1.858 2.497-4.327 3.745-7.41 3.745Zm.053-3.252c3.082 0 4.623-3.47 4.623-10.407 0-6.937-1.517-10.406-4.552-10.406-3.035 0-4.553 3.463-4.553 10.389 0 6.949 1.494 10.424 4.482 10.424Zm16.398 2.601v-3.04h5.203V53.92l-5.203 1.3v-3.128l10.424-2.602v23.625h5.203v3.041zm29.846.651c-2.953 0-5.353-1.266-7.198-3.797-1.846-2.532-2.769-5.819-2.769-9.862 0-4.09.926-7.388 2.777-9.896 1.852-2.508 4.29-3.762 7.313-3.762 3 0 5.429 1.251 7.286 3.753 1.857 2.502 2.786 5.78 2.786 9.835 0 4.16-.929 7.488-2.786 9.984-1.857 2.497-4.327 3.745-7.41 3.745Zm.052-3.252c3.083 0 4.624-3.47 4.624-10.407 0-6.937-1.518-10.406-4.553-10.406s-4.553 3.463-4.553 10.389c0 6.949 1.494 10.424 4.482 10.424ZM24.121 119.808c-2.953 0-5.352-1.266-7.198-3.797-1.846-2.532-2.769-5.819-2.769-9.862 0-4.09.926-7.388 2.778-9.896 1.851-2.508 4.289-3.762 7.312-3.762 3 0 5.429 1.251 7.286 3.753 1.858 2.502 2.787 5.78 2.787 9.835 0 4.16-.93 7.488-2.787 9.984-1.857 2.497-4.327 3.745-7.409 3.745Zm.053-3.252c3.082 0 4.623-3.47 4.623-10.407 0-6.937-1.518-10.406-4.553-10.406s-4.552 3.463-4.552 10.389c0 6.949 1.494 10.424 4.482 10.424Zm23.096 3.252c-2.954 0-5.353-1.266-7.199-3.797-1.846-2.532-2.769-5.819-2.769-9.862 0-4.09.926-7.388 2.778-9.896 1.851-2.508 4.289-3.762 7.312-3.762 3 0 5.429 1.251 7.286 3.753 1.858 2.502 2.787 5.78 2.787 9.835 0 4.16-.93 7.488-2.787 9.984-1.857 2.497-4.327 3.745-7.409 3.745Zm.052-3.252c3.082 0 4.623-3.47 4.623-10.407 0-6.937-1.518-10.406-4.553-10.406s-4.552 3.463-4.552 10.389c0 6.949 1.494 10.424 4.482 10.424Zm23.095 3.252c-2.953 0-5.352-1.266-7.198-3.797-1.846-2.532-2.768-5.819-2.768-9.862 0-4.09.925-7.388 2.777-9.896 1.851-2.508 4.289-3.762 7.312-3.762 3 0 5.43 1.251 7.286 3.753 1.858 2.502 2.787 5.78 2.787 9.835 0 4.16-.93 7.488-2.787 9.984-1.857 2.497-4.327 3.745-7.409 3.745Zm.053-3.252c3.082 0 4.623-3.47 4.623-10.407 0-6.937-1.517-10.406-4.553-10.406-3.035 0-4.552 3.463-4.552 10.389 0 6.949 1.494 10.424 4.482 10.424Zm16.398 2.601v-3.04h5.203V96.92l-5.203 1.3v-3.128l10.424-2.602v23.625h5.203v3.041zm23.148 0v-3.04h5.203V96.92l-5.203 1.3v-3.128l10.424-2.602v23.625h5.203v3.041zm29.845.651c-2.953 0-5.352-1.266-7.198-3.797-1.845-2.532-2.768-5.819-2.768-9.862 0-4.09.925-7.388 2.777-9.896 1.852-2.508 4.29-3.762 7.312-3.762 3 0 5.43 1.251 7.287 3.753 1.857 2.502 2.786 5.78 2.786 9.835 0 4.16-.929 7.488-2.786 9.984-1.858 2.497-4.328 3.745-7.41 3.745Zm.053-3.252c3.082 0 4.623-3.47 4.623-10.407 0-6.937-1.517-10.406-4.553-10.406-3.035 0-4.552 3.463-4.552 10.389 0 6.949 1.494 10.424 4.482 10.424Zm23.096 3.252c-2.954 0-5.353-1.266-7.199-3.797-1.845-2.532-2.768-5.819-2.768-9.862 0-4.09.925-7.388 2.777-9.896 1.852-2.508 4.29-3.762 7.313-3.762 3 0 5.428 1.251 7.286 3.753 1.857 2.502 2.786 5.78 2.786 9.835 0 4.16-.929 7.488-2.786 9.984-1.858 2.497-4.327 3.745-7.41 3.745Zm.052-3.252c3.082 0 4.623-3.47 4.623-10.407 0-6.937-1.517-10.406-4.552-10.406-3.036 0-4.553 3.463-4.553 10.389 0 6.949 1.494 10.424 4.482 10.424Zm16.398 2.601v-3.04h5.203V96.92l-5.203 1.3v-3.128l10.424-2.602v23.625h5.203v3.041zm23.148 0v-3.04h5.203V96.92l-5.203 1.3v-3.128l10.424-2.602v23.625h5.203v3.041zm41.111.651c-2.953 0-5.353-1.266-7.198-3.797-1.846-2.532-2.769-5.819-2.769-9.862 0-4.09.926-7.388 2.777-9.896 1.852-2.508 4.29-3.762 7.313-3.762 3 0 5.429 1.251 7.286 3.753 1.857 2.502 2.786 5.78 2.786 9.835 0 4.16-.929 7.488-2.786 9.984-1.857 2.497-4.327 3.745-7.41 3.745Zm.053-3.252c3.082 0 4.623-3.47 4.623-10.407 0-6.937-1.518-10.406-4.553-10.406s-4.553 3.463-4.553 10.389c0 6.949 1.494 10.424 4.483 10.424Zm16.398 2.601v-3.04h5.202V96.92l-5.203 1.3v-3.128l10.424-2.602v23.625h5.203v3.041zm23.147 0v-3.04h5.203V96.92l-5.203 1.3v-3.128l10.424-2.602v23.625h5.203v3.041zm29.846.651c-2.953 0-5.353-1.266-7.198-3.797-1.846-2.532-2.769-5.819-2.769-9.862 0-4.09.926-7.388 2.778-9.896 1.851-2.508 4.289-3.762 7.312-3.762 3 0 5.429 1.251 7.286 3.753 1.858 2.502 2.786 5.78 2.786 9.835 0 4.16-.928 7.488-2.786 9.984-1.857 2.497-4.327 3.745-7.409 3.745Zm.053-3.252c3.082 0 4.623-3.47 4.623-10.407 0-6.937-1.518-10.406-4.553-10.406s-4.553 3.463-4.553 10.389c0 6.949 1.494 10.424 4.483 10.424Zm16.397 2.601v-3.04h5.204V96.92l-5.204 1.3v-3.128l10.424-2.602v23.625h5.203v3.041zm23.148 0v-3.04h5.204V96.92l-5.204 1.3v-3.128l10.424-2.602v23.625h5.203v3.041zm29.846.651c-2.953 0-5.352-1.266-7.198-3.797-1.846-2.532-2.769-5.819-2.769-9.862 0-4.09.926-7.388 2.778-9.896 1.851-2.508 4.289-3.762 7.312-3.762 3 0 5.429 1.251 7.286 3.753 1.858 2.502 2.786 5.78 2.786 9.835 0 4.16-.928 7.488-2.786 9.984-1.857 2.497-4.327 3.745-7.409 3.745Zm.053-3.252c3.082 0 4.623-3.47 4.623-10.407 0-6.937-1.518-10.406-4.553-10.406s-4.553 3.463-4.553 10.389c0 6.949 1.495 10.424 4.483 10.424Zm23.095 3.252c-2.953 0-5.352-1.266-7.198-3.797-1.846-2.532-2.769-5.819-2.769-9.862 0-4.09.926-7.388 2.778-9.896 1.851-2.508 4.289-3.762 7.312-3.762 3 0 5.429 1.251 7.286 3.753 1.858 2.502 2.787 5.78 2.787 9.835 0 4.16-.93 7.488-2.787 9.984-1.857 2.497-4.327 3.745-7.409 3.745Zm.053-3.252c3.082 0 4.623-3.47 4.623-10.407 0-6.937-1.518-10.406-4.553-10.406s-4.552 3.463-4.552 10.389c0 6.949 1.494 10.424 4.482 10.424Zm34.36 3.252c-2.953 0-5.352-1.266-7.198-3.797-1.845-2.532-2.768-5.819-2.768-9.862 0-4.09.925-7.388 2.777-9.896 1.852-2.508 4.29-3.762 7.313-3.762 3 0 5.428 1.251 7.286 3.753 1.857 2.502 2.786 5.78 2.786 9.835 0 4.16-.929 7.488-2.786 9.984-1.858 2.497-4.327 3.745-7.41 3.745Zm.053-3.252c3.082 0 4.623-3.47 4.623-10.407 0-6.937-1.517-10.406-4.552-10.406-3.036 0-4.553 3.463-4.553 10.389 0 6.949 1.494 10.424 4.482 10.424Zm23.096 3.252c-2.954 0-5.353-1.266-7.199-3.797-1.845-2.532-2.768-5.819-2.768-9.862 0-4.09.926-7.388 2.777-9.896 1.852-2.508 4.29-3.762 7.313-3.762 3 0 5.428 1.251 7.286 3.753 1.857 2.502 2.786 5.78 2.786 9.835 0 4.16-.929 7.488-2.786 9.984-1.858 2.497-4.327 3.745-7.41 3.745Zm.052-3.252c3.082 0 4.623-3.47 4.623-10.407 0-6.937-1.517-10.406-4.552-10.406-3.036 0-4.553 3.463-4.553 10.389 0 6.949 1.494 10.424 4.482 10.424Zm16.398 2.601v-3.04h5.203V96.92l-5.203 1.3v-3.128l10.424-2.602v23.625h5.203v3.041zm23.148 0v-3.04h5.203V96.92l-5.203 1.3v-3.128l10.424-2.602v23.625h5.203v3.041zm29.845.651c-2.952 0-5.352-1.266-7.198-3.797-1.845-2.532-2.768-5.819-2.768-9.862 0-4.09.926-7.388 2.777-9.896 1.852-2.508 4.29-3.762 7.313-3.762 3 0 5.428 1.251 7.286 3.753 1.857 2.502 2.786 5.78 2.786 9.835 0 4.16-.929 7.488-2.786 9.984-1.858 2.497-4.327 3.745-7.41 3.745Zm.053-3.252c3.082 0 4.623-3.47 4.623-10.407 0-6.937-1.517-10.406-4.552-10.406-3.035 0-4.553 3.463-4.553 10.389 0 6.949 1.494 10.424 4.482 10.424Zm23.096 3.252c-2.953 0-5.353-1.266-7.199-3.797-1.845-2.532-2.768-5.819-2.768-9.862 0-4.09.926-7.388 2.777-9.896 1.852-2.508 4.29-3.762 7.313-3.762 3 0 5.428 1.251 7.286 3.753 1.857 2.502 2.786 5.78 2.786 9.835 0 4.16-.929 7.488-2.786 9.984-1.858 2.497-4.327 3.745-7.41 3.745Zm.052-3.252c3.082 0 4.623-3.47 4.623-10.407 0-6.937-1.517-10.406-4.552-10.406-3.035 0-4.553 3.463-4.553 10.389 0 6.949 1.494 10.424 4.482 10.424Zm16.399 2.601v-3.04h5.202V96.92l-5.203 1.3v-3.128l10.424-2.602v23.625h5.203v3.041z" opacity=".447"/>
    <path fill="#F9D18C" fill-rule="nonzero" d="m262.882 17.472 1.02-8.307 1.697.208-.075.607c.167-.173.335-.31.504-.41.17-.1.344-.166.523-.198a1.76 1.76 0 0 1 .52-.018c.202.025.388.081.559.169.17.087.321.214.452.381.13.168.223.375.277.624.159-.21.33-.38.516-.508.185-.128.392-.215.62-.26.23-.044.476-.05.738-.018.31.038.565.124.766.258.201.133.358.31.47.529.112.22.18.481.203.786a5.16 5.16 0 0 1-.034 1.012l-.752 6.128-1.751-.215.7-5.7c.043-.357.06-.636.048-.837-.012-.2-.048-.344-.11-.43a.373.373 0 0 0-.272-.152c-.155-.019-.313.038-.474.169a1.66 1.66 0 0 0-.423.565c-.12.245-.202.54-.245.885l-.653 5.324-1.644-.201.693-5.646c.07-.572.075-.958.015-1.159-.06-.2-.203-.315-.429-.343a.54.54 0 0 0-.326.07.946.946 0 0 0-.306.279 1.947 1.947 0 0 0-.251.495 3.202 3.202 0 0 0-.159.697l-.666 5.431-1.751-.215Zm11.61 1.643c-.917-.112-1.602-.417-2.055-.914-.453-.497-.637-1.09-.552-1.781.054-.441.203-.837.445-1.188.243-.351.577-.64 1.004-.865.427-.226.941-.377 1.543-.455.602-.077 1.278-.07 2.028.023l.358.044c.143.017.297.04.463.066.166.026.32.06.46.101l-.118 1.4a6.907 6.907 0 0 0-.426-.079l-.507-.08a13.133 13.133 0 0 0-.436-.063 5.806 5.806 0 0 0-1.22-.04 2.574 2.574 0 0 0-.83.196 1.23 1.23 0 0 0-.502.392 1.155 1.155 0 0 0-.212.545c-.024.19-.01.356.039.495.05.139.126.254.23.345.103.092.23.165.38.22.15.054.315.092.494.114.357.044.677.026.959-.054.282-.08.53-.234.746-.462a2.58 2.58 0 0 0 .526-.887 5.88 5.88 0 0 0 .297-1.315c.085-.69.079-1.23-.019-1.616-.097-.387-.274-.672-.53-.854-.255-.183-.592-.3-1.009-.35a3.125 3.125 0 0 0-1.103.054c-.355.084-.714.272-1.077.566l-.958-1.35a4.18 4.18 0 0 1 1.67-.757 5.436 5.436 0 0 1 1.75-.075 5.785 5.785 0 0 1 1.444.359c.438.174.81.422 1.114.744.306.322.527.736.664 1.242.137.507.162 1.117.074 1.832l-.588 4.788-2.09-.257.11-.893c-.18.183-.368.336-.564.457-.196.12-.4.21-.613.269a3.237 3.237 0 0 1-.667.109 3.97 3.97 0 0 1-.722-.026Zm6.25.55.195-1.59 2.34.287 1.082-8.808-2.233-.274.195-1.59 4.27.525-1.277 10.397 2.323.286-.196 1.59zm8.635 1.06.195-1.59 2.34.288 1.082-8.808-2.233-.274.195-1.59 4.27.524-1.277 10.398 2.323.285-.196 1.59zm11.936 1.647a3.841 3.841 0 0 1-1.943-.791 3.855 3.855 0 0 1-1.233-1.702c-.265-.698-.345-1.475-.24-2.333.102-.822.365-1.539.79-2.152a4.053 4.053 0 0 1 1.612-1.38 3.705 3.705 0 0 1 2.08-.325c.75.093 1.403.366 1.958.821a4.121 4.121 0 0 1 1.238 1.73c.271.698.356 1.458.255 2.28-.105.858-.374 1.592-.805 2.204a3.919 3.919 0 0 1-1.617 1.352 3.874 3.874 0 0 1-2.095.296Zm.197-1.608c.394.049.747-.026 1.062-.223.314-.197.583-.49.806-.88.223-.39.368-.853.433-1.389.07-.56.042-1.053-.081-1.479-.123-.426-.314-.767-.573-1.022a1.631 1.631 0 0 0-.977-.456 1.59 1.59 0 0 0-1.015.211c-.319.185-.59.469-.812.853-.222.383-.368.855-.436 1.415-.066.536-.041 1.02.075 1.451.117.431.306.781.57 1.05.263.267.58.424.948.47Zm8.952 2.768a4.405 4.405 0 0 1-1.649-.529 4.238 4.238 0 0 1-1.248-1.06 4.045 4.045 0 0 1-.736-1.469 4.57 4.57 0 0 1-.108-1.772 4.61 4.61 0 0 1 .532-1.676c.28-.51.638-.94 1.074-1.291a4.387 4.387 0 0 1 1.474-.78 4.154 4.154 0 0 1 1.75-.14c.762.094 1.411.319 1.948.675.536.356.94.805 1.213 1.346l-1.277 1.094-.123.112-.13-.124a1.295 1.295 0 0 0 0-.3c-.01-.104-.073-.235-.186-.394a1.73 1.73 0 0 0-.695-.548 3.518 3.518 0 0 0-.932-.232 1.998 1.998 0 0 0-.872.083 2.328 2.328 0 0 0-.79.447 2.44 2.44 0 0 0-.606.805c-.162.33-.27.723-.326 1.175-.05.405-.032.78.053 1.122.085.343.217.643.397.901a2.174 2.174 0 0 0 1.528.922c.25.03.499.025.746-.017a2.791 2.791 0 0 0 1.472-.762l.967 1.424c-.5.434-1.056.726-1.667.875a5.01 5.01 0 0 1-1.81.113Zm10.533 3.034c-1.07-.64-1.95-1.397-2.64-2.274a7.819 7.819 0 0 1-1.445-2.861 8.284 8.284 0 0 1-.211-3.154 7.945 7.945 0 0 1 .962-2.965 7.907 7.907 0 0 1 2.05-2.36c.855-.669 1.867-1.18 3.034-1.531l.295 1.74a7.546 7.546 0 0 0-1.693.863c-.508.348-.95.744-1.325 1.188a5.673 5.673 0 0 0-.91 1.511 7.09 7.09 0 0 0-.472 1.846 6.792 6.792 0 0 0 .028 1.908 6.3 6.3 0 0 0 1.574 3.276c.422.463.917.887 1.486 1.271l-.733 1.542Zm6.4-.973a7.706 7.706 0 0 1-1.43-.312 4.99 4.99 0 0 1-1.234-.587 4.693 4.693 0 0 1-.997-.893l1.095-1.534.09-.134.131.107c.026.088.05.185.073.29.024.106.099.233.225.381.268.287.583.525.946.715.364.19.808.317 1.332.381.333.041.621.037.863-.012s.433-.134.575-.256a.687.687 0 0 0 .246-.45.665.665 0 0 0-.061-.388.927.927 0 0 0-.304-.328 4.55 4.55 0 0 0-.576-.333c-.24-.12-.525-.255-.857-.405a7.44 7.44 0 0 1-1.51-.775c-.418-.287-.726-.612-.923-.974a1.96 1.96 0 0 1-.215-1.206c.057-.464.242-.859.553-1.183.312-.324.725-.56 1.24-.71.513-.148 1.104-.181 1.77-.1.346.043.67.11.973.202.303.091.589.205.856.34.268.136.514.3.738.49.224.191.43.407.619.647l-1.152 1.255-.142.128-.112-.122a.929.929 0 0 0-.047-.287c-.03-.095-.11-.216-.236-.365a2.417 2.417 0 0 0-.765-.493 3.418 3.418 0 0 0-.887-.235c-.405-.05-.761-.027-1.069.068-.308.095-.479.28-.512.553a.573.573 0 0 0 .145.444c.115.142.318.287.608.438.29.15.677.322 1.161.514.645.26 1.165.533 1.56.817.393.284.67.6.826.945.157.346.21.733.157 1.162a2.375 2.375 0 0 1-.554 1.256c-.311.372-.735.647-1.27.823-.536.176-1.179.218-1.929.126Zm5.533.48.195-1.59 2.037.25.63-5.128-1.93-.237.195-1.59 3.966.487-.825 6.718 1.858.228-.195 1.59-5.931-.728Zm4.154-9.32a1.26 1.26 0 0 1-.849-.466 1.16 1.16 0 0 1-.27-.904c.044-.357.199-.635.465-.832.266-.197.584-.273.953-.227.333.04.613.196.84.466.227.27.32.57.28.904a1.14 1.14 0 0 1-.49.81 1.27 1.27 0 0 1-.929.25Zm3.844 9.069 5.258-4.868-4.234-.52.204-1.661 6.736.827-.156 1.268-5.163 4.825 4.092.502c.202.025.346.03.433.017a.541.541 0 0 0 .25-.114l.16.02-.022.178-.204 1.662-7.503-.922.149-1.214Zm12.589 2.978a4.689 4.689 0 0 1-1.618-.489 3.832 3.832 0 0 1-1.22-.993 3.66 3.66 0 0 1-.7-1.455c-.137-.561-.164-1.18-.08-1.86.084-.69.262-1.298.531-1.82.27-.524.604-.954 1.002-1.292a3.495 3.495 0 0 1 1.348-.714 4.02 4.02 0 0 1 1.573-.106c.488.06.937.2 1.345.419.408.22.755.519 1.041.898.286.38.493.835.621 1.364.129.53.152 1.128.07 1.795-.014.12-.035.262-.061.428a6.907 6.907 0 0 1-.08.425l-5.502-.675a2.77 2.77 0 0 0 .108 1.038c.097.296.241.546.434.751.192.205.414.368.665.49.25.121.52.2.805.235.25.03.494.036.733.017.238-.019.468-.075.691-.169a2.87 2.87 0 0 0 .656-.39l.913 1.127c-.3.277-.626.5-.98.668a3.456 3.456 0 0 1-1.109.318c-.386.043-.781.04-1.186-.01Zm-1.508-5.59 3.537.435a2.384 2.384 0 0 0-.022-.783 1.6 1.6 0 0 0-.26-.612 1.35 1.35 0 0 0-.484-.413 2.088 2.088 0 0 0-.71-.205 2.178 2.178 0 0 0-.664.018c-.216.04-.417.127-.603.262a1.864 1.864 0 0 0-.481.52c-.135.214-.24.473-.313.779Zm9.753 6.584a3.841 3.841 0 0 1-1.944-.792 3.855 3.855 0 0 1-1.233-1.702c-.265-.697-.344-1.475-.24-2.332.102-.822.365-1.54.79-2.152a4.053 4.053 0 0 1 1.612-1.38 3.705 3.705 0 0 1 2.08-.325 3.74 3.74 0 0 1 1.958.821 4.121 4.121 0 0 1 1.238 1.73c.271.698.356 1.458.255 2.28-.105.857-.374 1.592-.805 2.204a3.919 3.919 0 0 1-1.617 1.352 3.874 3.874 0 0 1-2.095.296Zm.197-1.608c.393.048.746-.026 1.06-.223.315-.197.584-.49.807-.88.223-.39.368-.853.433-1.389.07-.56.042-1.053-.081-1.479-.123-.426-.314-.767-.573-1.022a1.631 1.631 0 0 0-.977-.456 1.59 1.59 0 0 0-1.015.211c-.319.185-.59.469-.812.852-.222.384-.368.856-.436 1.416-.066.536-.04 1.02.075 1.45.117.432.306.782.57 1.05.263.268.58.425.949.47Zm7.321-4.487-1.804-.222.193-1.572 1.804.222.061-.5c.094-.763.328-1.366.703-1.81a2.942 2.942 0 0 1 1.392-.926 4.083 4.083 0 0 1 1.741-.148c.56.068 1.07.23 1.528.486.458.256.831.589 1.12 1l-.92 1.283-.107.132-.132-.107a11.59 11.59 0 0 1-.075-.272c-.025-.094-.107-.216-.246-.366a2.287 2.287 0 0 0-.569-.387 2.28 2.28 0 0 0-.684-.184 1.69 1.69 0 0 0-.846.096c-.255.101-.457.27-.606.505-.15.236-.249.544-.295.925l-.064.518 2.501.308-.193 1.572-2.501-.307-.827 6.735-2.001-.246.827-6.735Zm12.162 10.289c-1.07-.64-1.95-1.397-2.64-2.274a7.819 7.819 0 0 1-1.444-2.861 8.284 8.284 0 0 1-.211-3.154 7.945 7.945 0 0 1 .962-2.965 7.907 7.907 0 0 1 2.05-2.36c.855-.669 1.867-1.18 3.035-1.532l.294 1.741a7.546 7.546 0 0 0-1.693.862 6.65 6.65 0 0 0-1.325 1.189 5.673 5.673 0 0 0-.91 1.511 7.09 7.09 0 0 0-.472 1.846 6.793 6.793 0 0 0 .028 1.908 6.3 6.3 0 0 0 1.574 3.276c.422.463.917.887 1.486 1.27l-.733 1.543Zm6.738-.914a4.405 4.405 0 0 1-1.649-.529 4.238 4.238 0 0 1-1.248-1.06 4.045 4.045 0 0 1-.735-1.468 4.57 4.57 0 0 1-.109-1.773 4.61 4.61 0 0 1 .532-1.675c.28-.51.639-.94 1.075-1.292a4.387 4.387 0 0 1 1.474-.78 4.154 4.154 0 0 1 1.749-.14c.762.094 1.411.32 1.948.675.537.356.94.805 1.213 1.346l-1.277 1.095-.122.112-.13-.125a1.295 1.295 0 0 0 0-.3c-.011-.103-.074-.235-.187-.394a1.73 1.73 0 0 0-.694-.548 3.518 3.518 0 0 0-.933-.232 1.998 1.998 0 0 0-.872.083 2.328 2.328 0 0 0-.79.447 2.44 2.44 0 0 0-.606.805c-.161.331-.27.723-.325 1.176a3.07 3.07 0 0 0 .052 1.121c.085.343.218.644.397.901a2.174 2.174 0 0 0 1.528.923c.25.03.5.024.746-.018a2.791 2.791 0 0 0 1.472-.762l.968 1.425a3.953 3.953 0 0 1-1.667.874 5.01 5.01 0 0 1-1.81.113Zm6.15-11.631 2.018.248.161.02-.02.16a.54.54 0 0 0-.144.218 2.355 2.355 0 0 0-.08.426l-.484 3.948c.239-.273.5-.485.785-.638.285-.152.585-.257.9-.315a2.97 2.97 0 0 1 .902-.035c.536.066.99.24 1.36.52.37.282.634.695.79 1.24.158.546.185 1.23.085 2.05l-.617 5.021-2.037-.25.612-4.984c.06-.489.06-.885.001-1.188-.06-.304-.168-.526-.326-.666a1.067 1.067 0 0 0-.595-.254 1.98 1.98 0 0 0-.6.017 1.567 1.567 0 0 0-.552.213c-.17.106-.329.24-.476.404a1.9 1.9 0 0 0-.351.573 2.968 2.968 0 0 0-.182.74l-.586 4.77-2.036-.25 1.472-11.988Zm9.692 13.577c-.918-.113-1.603-.418-2.056-.915-.452-.497-.636-1.09-.552-1.782.055-.44.203-.836.445-1.187.243-.351.578-.64 1.004-.865.427-.226.941-.377 1.543-.455.602-.077 1.278-.07 2.029.023l.357.044c.143.017.297.04.463.066.166.026.32.06.46.101l-.118 1.4a6.907 6.907 0 0 0-.426-.079l-.507-.08a13.133 13.133 0 0 0-.436-.063 5.806 5.806 0 0 0-1.22-.041 2.574 2.574 0 0 0-.83.197c-.218.1-.386.231-.502.392a1.155 1.155 0 0 0-.212.545c-.023.19-.01.356.039.495.05.139.126.254.23.345.103.092.23.165.38.22.151.054.316.092.494.114.358.044.677.026.96-.054.281-.08.53-.234.745-.462a2.58 2.58 0 0 0 .526-.887c.135-.364.235-.803.298-1.315.084-.69.078-1.23-.02-1.616-.097-.387-.274-.672-.53-.854-.255-.183-.591-.3-1.008-.35a3.125 3.125 0 0 0-1.104.054c-.355.084-.714.272-1.076.566l-.959-1.35a4.18 4.18 0 0 1 1.67-.757 5.436 5.436 0 0 1 1.751-.075 5.785 5.785 0 0 1 1.443.359c.438.174.81.422 1.115.744.305.322.526.736.663 1.242.138.507.162 1.117.075 1.832l-.588 4.788-2.09-.257.11-.893a3.03 3.03 0 0 1-.565.457c-.196.12-.4.21-.613.269a3.237 3.237 0 0 1-.666.108 3.97 3.97 0 0 1-.723-.025Zm7.733-7.702 2.09.257-.302 2.32-.215-.171a2.705 2.705 0 0 1 1.133-1.62 2.573 2.573 0 0 1 1.785-.434c.465.057.875.183 1.232.378s.676.48.956.852l-1.065 1.592-.072.136-.152-.09a14.54 14.54 0 0 1-.07-.309c-.024-.105-.099-.232-.226-.381a2.064 2.064 0 0 0-.49-.368 1.656 1.656 0 0 0-.585-.181 2.404 2.404 0 0 0-.84.042 1.822 1.822 0 0 0-.742.362 2.144 2.144 0 0 0-.56.72 3.336 3.336 0 0 0-.307 1.096l-.535 4.36-2.055-.253 1.02-8.308ZM419.9 38.71l-.339-1.674a8.173 8.173 0 0 0 1.749-.873 6.3 6.3 0 0 0 2.32-2.798 6.752 6.752 0 0 0 .49-1.844 7.09 7.09 0 0 0-.011-1.906 5.673 5.673 0 0 0-.519-1.686 6.636 6.636 0 0 0-.997-1.474 7.546 7.546 0 0 0-1.434-1.246l.706-1.618c1.048.624 1.906 1.364 2.575 2.22a7.907 7.907 0 0 1 1.417 2.786 7.945 7.945 0 0 1 .216 3.11 8.284 8.284 0 0 1-.968 3.009 7.88 7.88 0 0 1-2.084 2.428c-.876.684-1.916 1.206-3.121 1.566Zm18.155-1.688-1.45-1.484 2.465-2.055-2.689-1.146.939-1.734 2.319 1.644-.04-2.924 2.376.292-.854 2.815 2.562-.92.515 1.86-2.857.374 1.82 2.6-1.78 1.068-1.298-2.88zm15.247 3.831 1.02-8.308 2.019.248-.14 1.143c.234-.237.483-.442.746-.615a2.78 2.78 0 0 1 .853-.376c.306-.077.625-.095.959-.055.488.06.92.231 1.297.513.376.282.658.695.845 1.238.188.542.23 1.23.128 2.065l-.617 5.02-2.018-.248.612-4.985c.057-.464.055-.845-.005-1.143-.06-.297-.174-.526-.342-.686a1.072 1.072 0 0 0-.627-.285 1.81 1.81 0 0 0-1.334.38c-.2.157-.37.35-.507.582a2.062 2.062 0 0 0-.263.81l-.607 4.95-2.02-.248Zm11.414 1.619a3.303 3.303 0 0 1-.93-.25 2.467 2.467 0 0 1-.754-.51 2.563 2.563 0 0 1-.53-.781 3.618 3.618 0 0 1-.276-1.077 5.954 5.954 0 0 1 .025-1.384l.599-4.878 2.036.25-.598 4.878a4.24 4.24 0 0 0-.026.949c.028.263.092.482.191.658.1.175.225.309.377.4.152.091.317.148.496.17.25.03.485.014.704-.05.22-.064.415-.176.586-.336.17-.16.314-.37.43-.627a3.26 3.26 0 0 0 .243-.94l.581-4.735 2.019.248-.858 6.985a8.4 8.4 0 0 0-.06.71c-.007.21.018.421.077.634l-1.84-.226a1.433 1.433 0 0 1-.082-.373 2.48 2.48 0 0 1 0-.371c.01-.126.021-.243.034-.35-.156.187-.327.35-.513.49-.187.14-.385.252-.595.335a2.88 2.88 0 0 1-.656.174 2.576 2.576 0 0 1-.68.007Zm5.409.446 1.02-8.307 1.698.208-.075.608c.166-.173.334-.31.504-.41.17-.1.344-.166.523-.199.18-.032.352-.038.519-.018.202.025.389.081.56.169.17.087.32.215.451.382s.223.375.278.623c.158-.21.33-.38.515-.508s.392-.215.621-.259c.23-.044.475-.05.737-.018.31.038.565.123.767.257.2.133.357.31.47.53.112.219.18.48.202.786a5.16 5.16 0 0 1-.033 1.011l-.753 6.128-1.75-.215.7-5.699c.043-.357.06-.636.048-.837-.012-.201-.049-.345-.11-.431a.373.373 0 0 0-.272-.151c-.155-.02-.313.037-.474.168a1.66 1.66 0 0 0-.423.565c-.121.245-.203.54-.245.886l-.654 5.324-1.643-.202.693-5.646c.07-.571.075-.958.015-1.158-.06-.201-.203-.316-.43-.343a.54.54 0 0 0-.325.068.946.946 0 0 0-.307.28 1.947 1.947 0 0 0-.25.495 3.202 3.202 0 0 0-.159.697l-.667 5.431-1.75-.215Zm8.432 2.867.197-1.608 7.826.961-.198 1.608zm13.243.012a4.405 4.405 0 0 1-1.649-.529 4.238 4.238 0 0 1-1.248-1.06 4.045 4.045 0 0 1-.735-1.468 4.57 4.57 0 0 1-.11-1.773 4.61 4.61 0 0 1 .533-1.675A4.3 4.3 0 0 1 489.665 38a4.387 4.387 0 0 1 1.475-.78 4.154 4.154 0 0 1 1.748-.139c.763.094 1.412.318 1.949.675.536.356.94.804 1.213 1.345l-1.277 1.095-.123.112-.13-.125a1.295 1.295 0 0 0 .001-.3c-.011-.103-.074-.235-.187-.394a1.73 1.73 0 0 0-.695-.548 3.518 3.518 0 0 0-.932-.232 1.998 1.998 0 0 0-.872.083 2.328 2.328 0 0 0-.79.448 2.44 2.44 0 0 0-.606.805 3.71 3.71 0 0 0-.326 1.175c-.05.405-.032.779.053 1.121.085.343.217.644.397.902a2.174 2.174 0 0 0 1.528.922c.25.03.499.025.746-.018a2.791 2.791 0 0 0 1.472-.762l.967 1.425c-.5.434-1.056.725-1.667.874a5.01 5.01 0 0 1-1.809.113Zm6.15-11.631 2.018.248.161.02-.02.16a.54.54 0 0 0-.144.219 2.355 2.355 0 0 0-.08.425l-.485 3.948c.24-.273.501-.485.786-.638.285-.152.585-.257.9-.315a2.97 2.97 0 0 1 .902-.035c.536.066.99.24 1.36.52.37.282.634.695.79 1.24.157.546.185 1.23.084 2.051l-.616 5.02-2.037-.25.612-4.984c.06-.489.06-.885.001-1.188-.06-.304-.168-.525-.326-.666a1.067 1.067 0 0 0-.595-.254 1.98 1.98 0 0 0-.6.017 1.567 1.567 0 0 0-.552.213c-.17.106-.33.24-.476.404a1.9 1.9 0 0 0-.352.574 2.968 2.968 0 0 0-.181.739l-.586 4.77-2.036-.25 1.471-11.988Zm9.691 13.576c-.917-.112-1.602-.417-2.055-.914-.453-.497-.637-1.09-.552-1.781.054-.441.203-.837.445-1.188.243-.351.578-.64 1.004-.865.427-.226.941-.377 1.543-.454.602-.078 1.278-.07 2.028.022l.358.044c.143.017.297.04.463.066.166.026.32.06.46.101l-.118 1.4a6.907 6.907 0 0 0-.426-.079l-.507-.08a13.133 13.133 0 0 0-.436-.063 5.806 5.806 0 0 0-1.22-.04 2.574 2.574 0 0 0-.83.196 1.23 1.23 0 0 0-.502.392 1.155 1.155 0 0 0-.212.545c-.024.191-.01.356.039.495.05.139.126.254.23.345.103.092.23.165.38.22.151.054.316.093.494.114.358.044.677.026.959-.054.282-.08.53-.234.746-.462a2.58 2.58 0 0 0 .526-.887 5.88 5.88 0 0 0 .297-1.315c.085-.69.079-1.23-.019-1.616-.097-.387-.274-.671-.53-.854-.255-.183-.592-.3-1.008-.35a3.125 3.125 0 0 0-1.104.054c-.355.084-.714.272-1.076.566l-.959-1.35a4.18 4.18 0 0 1 1.67-.757 5.436 5.436 0 0 1 1.75-.075 5.785 5.785 0 0 1 1.444.359c.438.174.81.423 1.115.744.305.322.526.736.663 1.242.137.507.162 1.117.074 1.832l-.587 4.788-2.09-.257.109-.893c-.18.184-.368.336-.564.457-.196.12-.4.21-.613.269a3.237 3.237 0 0 1-.667.109 3.97 3.97 0 0 1-.722-.026Zm7.734-7.7 2.09.256-.302 2.32-.215-.17a2.705 2.705 0 0 1 1.133-1.62 2.556 2.556 0 0 1 1.785-.435c.464.057.875.183 1.232.378s.676.48.956.852l-1.066 1.592-.07.137-.153-.092c-.024-.1-.048-.202-.07-.308-.024-.105-.1-.232-.226-.38a2.064 2.064 0 0 0-.49-.37 1.656 1.656 0 0 0-.585-.18 2.404 2.404 0 0 0-.84.042 1.822 1.822 0 0 0-.742.362 2.144 2.144 0 0 0-.56.72 3.336 3.336 0 0 0-.307 1.096l-.535 4.36-2.055-.253 1.02-8.307Zm10.628 9.937a7.706 7.706 0 0 1-1.43-.312 4.99 4.99 0 0 1-1.234-.587 4.693 4.693 0 0 1-.996-.893l1.095-1.534.089-.134.132.107c.025.088.05.185.073.29.023.106.098.233.225.382.267.286.582.524.946.714.364.19.807.317 1.331.381.334.041.622.037.863-.012.242-.049.434-.134.576-.255a.687.687 0 0 0 .245-.45.665.665 0 0 0-.06-.39.927.927 0 0 0-.305-.327 4.55 4.55 0 0 0-.576-.333c-.239-.12-.524-.255-.857-.405a7.44 7.44 0 0 1-1.51-.775c-.418-.287-.725-.612-.923-.974a1.96 1.96 0 0 1-.214-1.206c.057-.464.241-.859.553-1.183.312-.324.725-.56 1.239-.71.514-.148 1.104-.181 1.771-.1.345.043.67.11.973.202.303.092.588.205.856.34.267.136.513.3.737.49.225.191.431.407.62.648l-1.152 1.255-.143.127-.112-.122a.929.929 0 0 0-.046-.287c-.031-.095-.11-.216-.237-.365a2.417 2.417 0 0 0-.764-.493 3.439 3.439 0 0 0-.887-.235c-.405-.05-.761-.027-1.07.068-.307.095-.478.28-.512.553a.573.573 0 0 0 .145.444c.116.142.319.287.609.438.29.15.676.322 1.16.514.646.26 1.165.533 1.56.817.394.284.67.6.827.945.157.346.209.733.156 1.162a2.375 2.375 0 0 1-.553 1.256c-.312.373-.735.647-1.27.823-.536.176-1.18.218-1.93.126Zm6.154 2.515-.339-1.674a8.173 8.173 0 0 0 1.749-.874 6.3 6.3 0 0 0 2.32-2.798 6.752 6.752 0 0 0 .49-1.844 7.09 7.09 0 0 0-.011-1.905 5.673 5.673 0 0 0-.519-1.687 6.636 6.636 0 0 0-.998-1.474 7.546 7.546 0 0 0-1.433-1.246l.706-1.618c1.048.625 1.906 1.365 2.575 2.22a7.907 7.907 0 0 1 1.417 2.786 7.945 7.945 0 0 1 .216 3.11 8.284 8.284 0 0 1-.968 3.01 7.88 7.88 0 0 1-2.084 2.427c-.876.685-1.916 1.207-3.121 1.567Zm9.946 2.346-.996-1.048c.372-.269.666-.544.882-.826.215-.282.336-.524.36-.726a.61.61 0 0 0-.08-.382 6.293 6.293 0 0 0-.241-.392 2.544 2.544 0 0 1-.236-.446 1.109 1.109 0 0 1-.058-.56c.034-.274.124-.493.271-.656.147-.164.33-.28.55-.35.22-.07.456-.089.706-.058.453.055.799.264 1.039.626.24.362.326.81.26 1.347a3.329 3.329 0 0 1-.364 1.125c-.198.38-.47.764-.813 1.151-.344.387-.77.785-1.28 1.194Zm1.404-8.189a1.273 1.273 0 0 1-.896-.527c-.228-.306-.321-.632-.279-.977a1.34 1.34 0 0 1 .51-.899c.295-.242.627-.34.997-.294.345.042.642.211.89.508.247.296.348.635.3 1.016a1.31 1.31 0 0 1-.506.88c-.296.243-.634.34-1.016.293Z"/>
    <path fill="#F3D295" stroke="#000" d="M483.763 5.697a2.494 2.494 0 0 1 1.78.286c.462.27.839.688 1.052 1.21l.072.2 1.606 5.103c2.673.027 5.278.494 7.73 1.344l.523.188 3.328-4.191c.401-.505.96-.816 1.555-.913a2.494 2.494 0 0 1 1.582.262l.183.109 3.964 2.574a2.498 2.498 0 0 1 .946 3.061l-.09.192-2.476 4.746a24.362 24.362 0 0 1 4.512 6.399l.244.517 5.316-.61a2.494 2.494 0 0 1 1.745.455c.434.313.77.764.932 1.304l.053.206.983 4.624a2.497 2.497 0 0 1-1.496 2.832l-.2.072-5.103 1.606a24.347 24.347 0 0 1-1.344 7.73l-.188.523 4.191 3.328c.505.401.816.96.913 1.555a2.494 2.494 0 0 1-.262 1.582l-.109.183-2.574 3.964c-.351.54-.879.904-1.461 1.057a2.494 2.494 0 0 1-1.6-.111l-.192-.09-4.746-2.476a24.362 24.362 0 0 1-6.399 4.512l-.517.244.61 5.316a2.494 2.494 0 0 1-.455 1.745 2.49 2.49 0 0 1-1.304.932l-.206.053-4.624.983c-.63.134-1.26.017-1.78-.286a2.494 2.494 0 0 1-1.052-1.21l-.072-.2-1.606-5.103a24.347 24.347 0 0 1-7.73-1.344l-.523-.188-3.328 4.191c-.401.505-.96.816-1.555.913a2.494 2.494 0 0 1-1.582-.262l-.183-.109-3.964-2.574a2.494 2.494 0 0 1-1.057-1.461 2.494 2.494 0 0 1 .111-1.6l.09-.192 2.476-4.746a24.362 24.362 0 0 1-4.512-6.399l-.244-.517-5.316.61a2.494 2.494 0 0 1-1.745-.455 2.494 2.494 0 0 1-.932-1.304l-.053-.206-.983-4.624a2.494 2.494 0 0 1 .286-1.78c.27-.462.688-.839 1.21-1.052l.2-.072 5.103-1.606a24.347 24.347 0 0 1 1.344-7.73l.188-.523-4.191-3.328a2.492 2.492 0 0 1-.913-1.555 2.494 2.494 0 0 1 .262-1.582l.109-.183 2.574-3.964c.351-.54.879-.904 1.461-1.057a2.494 2.494 0 0 1 1.6.111l.192.09 4.746 2.476a24.362 24.362 0 0 1 6.399-4.512l.517-.244-.61-5.316a2.494 2.494 0 0 1 .455-1.745 2.49 2.49 0 0 1 1.304-.932l.206-.053 4.624-.983Zm1.638 19.076a12.46 12.46 0 0 0-7.884 5.419 12.46 12.46 0 0 0-1.744 9.407 12.46 12.46 0 0 0 5.419 7.884 12.46 12.46 0 0 0 9.407 1.744 12.46 12.46 0 0 0 7.884-5.419 12.46 12.46 0 0 0 1.744-9.407 12.46 12.46 0 0 0-5.419-7.884 12.46 12.46 0 0 0-9.407-1.744Z"/>
    <path fill="#FDF5D0" stroke="#000" d="M537.75 16.5a2.497 2.497 0 0 1 2.46 2.052l.029.21.853 8.926a35.994 35.994 0 0 1 10.586 4.275l.568.349 6.916-5.711a2.494 2.494 0 0 1 1.71-.57 2.494 2.494 0 0 1 1.493.586l.157.144 6.717 6.717c.456.456.701 1.047.73 1.65a2.494 2.494 0 0 1-.441 1.54l-.129.17-5.711 6.916a36.013 36.013 0 0 1 4.465 10.488l.159.666 8.926.853a2.494 2.494 0 0 1 1.612.807c.36.397.594.908.641 1.47l.009.212v9.5a2.497 2.497 0 0 1-2.052 2.46l-.21.029-8.926.853a35.994 35.994 0 0 1-4.275 10.586l-.349.568 5.711 6.916a2.494 2.494 0 0 1-.016 3.203l-.144.157-6.717 6.717a2.495 2.495 0 0 1-1.65.73 2.494 2.494 0 0 1-1.54-.441l-.17-.129-6.916-5.711a36.013 36.013 0 0 1-10.488 4.465l-.666.159-.853 8.926a2.494 2.494 0 0 1-.807 1.612c-.397.36-.908.594-1.47.641l-.212.009h-9.5a2.494 2.494 0 0 1-1.682-.65 2.494 2.494 0 0 1-.778-1.402l-.029-.21-.853-8.926a35.994 35.994 0 0 1-10.586-4.275l-.568-.349-6.916 5.711a2.494 2.494 0 0 1-1.71.57 2.494 2.494 0 0 1-1.493-.586l-.157-.144-6.717-6.717a2.494 2.494 0 0 1-.73-1.65 2.494 2.494 0 0 1 .441-1.54l.129-.17 5.711-6.916a36.013 36.013 0 0 1-4.465-10.488l-.159-.666-8.926-.853a2.494 2.494 0 0 1-1.612-.807 2.494 2.494 0 0 1-.641-1.47l-.009-.212v-9.5a2.497 2.497 0 0 1 2.052-2.46l.21-.029 8.926-.853a35.994 35.994 0 0 1 4.275-10.586l.349-.568-5.711-6.916a2.494 2.494 0 0 1-.57-1.71 2.494 2.494 0 0 1 .586-1.493l.144-.157 6.717-6.717a2.494 2.494 0 0 1 1.65-.73 2.494 2.494 0 0 1 1.54.441l.17.129 6.916 5.711a36.013 36.013 0 0 1 10.488-4.465l.666-.159.853-8.926a2.494 2.494 0 0 1 .807-1.612c.397-.36.908-.594 1.47-.641l.212-.009h9.5Zm-4.25 29c-4.97 0-9.47 2.015-12.728 5.272A17.944 17.944 0 0 0 515.5 63.5c0 4.97 2.015 9.47 5.272 12.728A17.944 17.944 0 0 0 533.5 81.5c4.97 0 9.47-2.015 12.728-5.272A17.944 17.944 0 0 0 551.5 63.5c0-4.97-2.015-9.47-5.272-12.728A17.944 17.944 0 0 0 533.5 45.5Z"/>
    <g stroke="#000">
      <path stroke-linecap="square" d="M197.146 43.252c4.634-13.105 11.945-19.933 21.933-20.485 20.467-1.13 31.919 16.568 48.964 16.568 18.827 0 26.61-23.854 43.501-21.475 16.8 2.365 20.687 11.795 11.663 28.287m-66.092 119.449c-13.857-1.084-22.345-6.379-25.463-15.884-6.389-19.476 7.743-35.118 3.33-51.584-4.872-18.184-29.928-19.528-32.002-36.46"/>
      <g transform="rotate(-13 392.786 -1085.165)">
        <rect width="140" height="64" x=".5" y=".5" fill="#EEDBA6" rx="2"/>
        <rect width="140" height="57" x=".5" y="7.5" fill="#F4E7BA" rx="2"/>
        <rect width="73" height="8" x="35.5" y="50.5" fill="#FFF" rx="2"/>
        <rect width="8" height="8" x="11.5" y="50.5" fill="#FFF" rx="2"/>
        <rect width="8" height="8" x="23.5" y="50.5" fill="#FFF" rx="2"/>
        <rect width="20" height="8" x="11.5" y="38.5" fill="#FFF" rx="2"/>
        <rect width="14" height="8" x="11.5" y="26.5" fill="#FFF" rx="2"/>
        <rect width="8" height="8" x="35.5" y="38.5" fill="#FFF" rx="2"/>
        <rect width="8" height="8" x="47.5" y="38.5" fill="#FFF" rx="2"/>
        <rect width="8" height="8" x="59.5" y="38.5" fill="#FFF" rx="2"/>
        <rect width="8" height="8" x="71.5" y="38.5" fill="#FFF" rx="2"/>
        <rect width="8" height="8" x="83.5" y="38.5" fill="#FFF" rx="2"/>
        <rect width="8" height="8" x="95.5" y="38.5" fill="#FFF" rx="2"/>
        <rect width="8" height="8" x="30.5" y="26.5" fill="#FFF" rx="2"/>
        <rect width="8" height="8" x="42.5" y="26.5" fill="#FFF" rx="2"/>
        <rect width="8" height="8" x="54.5" y="26.5" fill="#FFF" rx="2"/>
        <rect width="8" height="8" x="65.5" y="26.5" fill="#FFF" rx="2"/>
        <rect width="8" height="8" x="77.5" y="26.5" fill="#FFF" rx="2"/>
        <rect width="8" height="8" x="89.5" y="26.5" fill="#FFF" rx="2"/>
        <rect width="8" height="8" x="101.5" y="26.5" fill="#FFF" rx="2"/>
        <rect width="8" height="8" x="119.5" y="14.5" fill="#FFF" rx="2"/>
        <rect width="8" height="8" x="107.5" y="14.5" fill="#FFF" rx="2"/>
        <rect width="8" height="8" x="95.5" y="14.5" fill="#FFF" rx="2"/>
        <rect width="8" height="8" x="83.5" y="14.5" fill="#FFF" rx="2"/>
        <rect width="8" height="8" x="71.5" y="14.5" fill="#FFF" rx="2"/>
        <rect width="8" height="8" x="59.5" y="14.5" fill="#FFF" rx="2"/>
        <rect width="8" height="8" x="47.5" y="14.5" fill="#FFF" rx="2"/>
        <rect width="8" height="8" x="35.5" y="14.5" fill="#FFF" rx="2"/>
        <rect width="8" height="8" x="23.5" y="14.5" fill="#FFF" rx="2"/>
        <rect width="8" height="8" x="11.5" y="14.5" fill="#FFF" rx="2"/>
        <rect width="13" height="8" x="113.5" y="26.5" fill="#FFF" rx="2"/>
        <rect width="14" height="8" x="112.5" y="50.5" fill="#FFF" rx="2"/>
        <rect width="20" height="8" x="107.5" y="38.5" fill="#FFF" rx="2"/>
      </g>
    </g>
    <g stroke="#000" transform="rotate(-52 205.428 -331.217)">
      <path stroke-linecap="square" d="M110.556 0c-15.03 13.937-7.525 35.273-19.366 47.535-13.078 13.542-45.145 5.268-55.168 19.071-9.967 13.728-12.248 30.435-6.842 50.123"/>
      <ellipse cx="24.53" cy="113.975" fill="#F4E7BA" rx="16.5" ry="23.5" transform="rotate(6 24.53 113.975)"/>
      <path fill="#F3D295" d="M17.161 93.823c2.931-2.363 6.329-3.586 9.825-3.219 3.496.368 6.565 2.27 8.94 5.191 2.37 2.913 4.05 6.836 4.785 11.286l-30.576-3.214c1.644-4.2 4.103-7.687 7.026-10.044Z"/>
      <path stroke-linecap="square" d="m26.794 90.145-1.426 15.065"/>
    </g>
    <path stroke="#000" stroke-linecap="square" d="m79.5 100.5 54-21m31 23-38-23m57-41-57 17"/>
    <path fill="#F4E7BA" stroke="#000" d="M105.5 54.5h49v27h-49zm30 45h49v27h-49zm-76-1h49v27h-49zm96-86h49v27h-49z"/>
    <g stroke="#000">
      <path fill="#FFF" d="M201.103 29.06a24.423 24.423 0 0 1 14.675 11.673 24.423 24.423 0 0 1 2.123 18.631c-1.848 6.442-6.31 9.721-10.717 12.773l-.614.425-.979.678-.646.454c-3.858 2.732-7.34 5.659-8.771 10.65l-6.471 22.568-20.885-6.984 6.208-21.649c1.629-5.68-.192-10.432-2.11-15.353-1.976-5.068-4.052-10.322-2.117-17.068a24.423 24.423 0 0 1 11.673-14.675 24.423 24.423 0 0 1 18.63-2.123Z"/>
      <path fill="#FDF5D0" d="m174.888 78.76 21.148 6.064-6.378 22.245c-5.044.226-8.792-.003-11.242-.706-2.449-.702-5.749-2.493-9.906-5.358l6.378-22.245Z"/>
      <path stroke-linecap="square" d="m173.28 84.54 20.23 8.922m-19.127-12.766 20.229 8.921m-22.434-1.231 20.229 8.921m-21.331-5.077 20.228 8.922m-21.331-5.076 20.229 8.921m-11.469-25.134 6.064-21.148c1.326-3.922 2.879-5.627 4.657-5.117 2.668.765 1.925 7.561 1.675 8.43-1.045 3.646-5.79 2.294-4.743-1.36 1.048-3.652 4.258-6.73 6.85-5.986 2.592.743 3.043 5.062 2.047 8.538-.997 3.476-5.284 2.52-4.154-1.191 1.13-3.712 3.547-6.934 6.26-6.156 1.81.519 2.144 2.765 1.004 6.74l-5.926 20.667"/>
    </g>
  </g>
</svg>
