<svg xmlns="http://www.w3.org/2000/svg" viewBox="0 0 591 115">
  <g fill="none" fill-rule="evenodd">
    <path fill="#9ED89D" fill-rule="nonzero" d="m447.067 31.245 3.937-26.416 5.888 2.621-2.706 18.524 12.255-14.272 5.481 2.44-2.936 18.524 12.358-14.33 4.41 1.965-17.447 20.401-6.08-2.707 2.896-18.029-11.974 13.987zm37.103 16.52 3.937-26.417 5.888 2.621-2.706 18.525 12.256-14.273 5.481 2.44-2.937 18.525 12.358-14.33 4.41 1.964-17.446 20.402-6.082-2.708 2.896-18.029-11.974 13.987zm37.103 16.519 3.936-26.417 5.888 2.622-2.705 18.524 12.255-14.272 5.482 2.44-2.937 18.524 12.357-14.33 4.41 1.964-17.446 20.402-6.081-2.708 2.896-18.029-11.974 13.987z" opacity=".447"/>
    <g opacity=".7" transform="translate(41 5)">
      <rect width="17" height="17" x="44" y="44" fill="#D4F3D3" rx="2"/>
      <rect width="17" height="17" x="44" y="66" fill="#D4F3D3" rx="2"/>
      <rect width="17" height="17" x="44" y="88" fill="#C0EDC0" rx="2"/>
      <rect width="17" height="17" y="88" fill="#C0EDC0" rx="2"/>
      <rect width="17" height="17" x="22" y="88" fill="#D4F3D3" rx="2"/>
      <rect width="17" height="17" x="66" y="22" fill="#9ED89D" rx="2"/>
      <rect width="17" height="17" x="66" y="44" fill="#9ED89D" rx="2"/>
      <rect width="17" height="17" x="66" y="66" fill="#C0EDC0" rx="2"/>
      <rect width="17" height="17" x="66" y="88" fill="#D4F3D3" rx="2"/>
      <rect width="17" height="17" x="88" fill="#D4F3D3" rx="2"/>
      <rect width="17" height="17" x="88" y="22" fill="#C0EDC0" rx="2"/>
      <rect width="17" height="17" x="88" y="44" fill="#9ED89D" rx="2"/>
      <rect width="17" height="17" x="22" y="66" fill="#9ED89D" rx="2"/>
      <rect width="17" height="17" x="88" y="66" fill="#D4F3D3" rx="2"/>
      <rect width="17" height="17" x="88" y="88" fill="#9ED89D" rx="2"/>
      <rect width="17" height="17" x="110" fill="#C0EDC0" rx="2"/>
      <rect width="17" height="17" x="110" y="22" fill="#D4F3D3" rx="2"/>
      <rect width="17" height="17" x="110" y="44" fill="#D4F3D3" rx="2"/>
      <rect width="17" height="17" x="110" y="66" fill="#C0EDC0" rx="2"/>
      <rect width="17" height="17" x="110" y="88" fill="#C0EDC0" rx="2"/>
      <rect width="17" height="17" x="132" fill="#D4F3D3" rx="2"/>
      <rect width="17" height="17" x="132" y="22" fill="#C0EDC0" rx="2"/>
      <rect width="17" height="17" x="132" y="44" fill="#D4F3D3" rx="2"/>
      <rect width="17" height="17" x="132" y="66" fill="#9ED89D" rx="2"/>
      <rect width="17" height="17" x="132" y="88" fill="#C0EDC0" rx="2"/>
      <rect width="17" height="17" x="154" fill="#C0EDC0" rx="2"/>
      <rect width="17" height="17" x="154" y="22" fill="#D4F3D3" rx="2"/>
      <rect width="17" height="17" x="154" y="44" fill="#9ED89D" rx="2"/>
      <rect width="17" height="17" x="154" y="66" fill="#D4F3D3" rx="2"/>
      <rect width="17" height="17" x="154" y="88" fill="#D4F3D3" rx="2"/>
      <rect width="17" height="17" x="176" fill="#D4F3D3" rx="2"/>
      <rect width="17" height="17" x="176" y="22" fill="#C0EDC0" rx="2"/>
      <rect width="17" height="17" x="176" y="44" fill="#D4F3D3" rx="2"/>
      <rect width="17" height="17" x="176" y="66" fill="#D4F3D3" rx="2"/>
      <rect width="17" height="17" x="176" y="88" fill="#9ED89D" rx="2"/>
      <rect width="17" height="17" x="198" fill="#D4F3D3" rx="2"/>
      <rect width="17" height="17" x="220" fill="#C0EDC0" rx="2"/>
      <rect width="17" height="17" x="220" y="22" fill="#9ED89D" rx="2"/>
      <rect width="17" height="17" x="220" y="88" fill="#C0EDC0" rx="2"/>
      <rect width="17" height="17" x="198" y="88" fill="#9ED89D" rx="2"/>
      <rect width="17" height="17" x="198" y="66" fill="#9ED89D" rx="2"/>
    </g>
    <g stroke="#000" transform="matrix(-1 0 0 1 432 5)">
      <path fill="#B0E6AF" d="M126.221.5c8.675 0 16.528 3.516 22.213 9.2 5.685 5.686 9.2 13.539 9.2 22.214a31.27 31.27 0 0 1-4.055 15.45l13.926 15.704-22.259-6.155a31.275 31.275 0 0 1-19.025 6.414H31.914c-8.675 0-16.528-3.516-22.213-9.2C4.016 48.441.5 40.587.5 31.913S4.016 15.386 9.7 9.7C15.387 4.016 23.24.5 31.915.5h94.307Z"/>
      <circle cx="81" cy="32" r="7.5" fill="#D4F3D3"/>
      <circle cx="53" cy="32" r="7.5" fill="#D4F3D3"/>
      <circle cx="108" cy="32" r="7.5" fill="#D4F3D3"/>
    </g>
    <g stroke="#000" transform="translate(333 46)">
      <path fill="#D4F3D3" d="M126.221.5c8.675 0 16.528 3.516 22.213 9.2 5.685 5.686 9.2 13.539 9.2 22.214a31.27 31.27 0 0 1-4.055 15.45l13.926 15.704-22.259-6.155a31.275 31.275 0 0 1-19.025 6.414H31.914c-8.675 0-16.528-3.516-22.213-9.2C4.016 48.441.5 40.587.5 31.913S4.016 15.386 9.7 9.7C15.387 4.016 23.24.5 31.915.5h94.307Z"/>
      <circle cx="81" cy="32" r="7.5" fill="#FFF"/>
      <circle cx="53" cy="32" r="7.5" fill="#FFF"/>
      <circle cx="108" cy="32" r="7.5" fill="#FFF"/>
    </g>
    <path fill="#9ED89D" stroke="#000" d="M548 27.5c4.832 0 9.207 1.959 12.374 5.126A17.445 17.445 0 0 1 565.5 45c0 3.391-.964 6.557-2.634 9.238a17.58 17.58 0 0 1-8.406 7.032c.448.114.891.237 1.33.37 7.241 2.191 14.22 7.313 19.08 13.432 4.643 5.846 7.368 12.612 6.456 18.606-.71 4.664-3.647 8.831-9.555 11.712-5.258 2.564-12.838 4.11-23.271 4.11-10.365 0-17.916-1.526-23.169-4.06-5.898-2.845-8.865-6.962-9.628-11.58-.976-5.91 1.623-12.593 6.132-18.412 4.74-6.118 11.608-11.29 18.784-13.624.44-.143.884-.276 1.332-.401a17.561 17.561 0 0 1-8.702-7.003A17.415 17.415 0 0 1 530.5 45c0-4.832 1.959-9.207 5.126-12.374A17.445 17.445 0 0 1 548 27.5Z"/>
    <g fill="#E8FDE8" stroke="#000">
      <path d="M229.83 14.239 332.004 57.61l-23.834 56.151L205.995 70.39z"/>
      <path d="M267.279 68.055 230.936 14.71l99.962 42.431-63.62 10.915Z"/>
    </g>
    <path fill="#9ED89D" fill-rule="nonzero" d="m255.225 76.622 10.166-23.948 14.967 6.353-1.394 3.284-9.984-4.238-2.837 6.683 8.188 3.476-1.36 3.204-8.188-3.475-3.131 7.377 10.744 4.561-1.443 3.399z"/>
    <path fill="#9ED89D" fill-rule="nonzero" stroke="#000" d="M110 16.062a43.193 43.193 0 0 1-12.372 3.379c4.447-2.656 7.863-6.861 9.471-11.872a43.226 43.226 0 0 1-13.68 5.207A21.55 21.55 0 0 0 77.696 6c-11.897 0-21.543 9.607-21.543 21.458 0 1.682.19 3.32.558 4.89-17.903-.895-33.776-9.438-44.401-22.42a21.293 21.293 0 0 0-2.917 10.787c0 7.445 3.803 14.013 9.583 17.861a21.52 21.52 0 0 1-9.757-2.684c-.002.09-.002.18-.002.27 0 10.396 7.425 19.069 17.28 21.041a21.644 21.644 0 0 1-9.728.368C19.51 66.096 27.466 72.3 36.893 72.472a43.327 43.327 0 0 1-26.754 9.187 44.01 44.01 0 0 1-5.139-.3A61.143 61.143 0 0 0 38.022 91c39.623 0 61.292-32.697 61.292-61.055 0-.93-.021-1.855-.063-2.776A43.677 43.677 0 0 0 110 16.062Z"/>
  </g>
</svg>
