<svg xmlns="http://www.w3.org/2000/svg" xmlns:xlink="http://www.w3.org/1999/xlink" viewBox="0 0 1045 531">
  <defs>
    <path id="a" d="M357.36 370.72c192.747 0 349-48.13 349-107.5s-156.253-107.5-349-107.5c-192.748 0-349 48.13-349 107.5s156.252 107.5 349 107.5Z"/>
    <mask id="b" width="698" height="215" x="0" y="0" fill="#fff" maskContentUnits="userSpaceOnUse" maskUnits="objectBoundingBox">
      <use xlink:href="#a"/>
    </mask>
  </defs>
  <g fill="none" fill-rule="evenodd">
    <g stroke="#000" transform="translate(536.993 178)">
      <path fill="#FFF" d="M74.2 235.148c7.377-2.685 13.815-1.952 19.047.7 6.489 3.289 11.12 9.51 13.398 15.771 2.046 5.621.537 11.913-3.5 17.547-4.094 5.715-10.79 10.757-19.108 13.784-8.885 3.234-17.454 4.568-24.346 2.8-5.933-1.52-10.597-5.362-13.11-12.269-2.528-6.942-.307-14.39 4.408-20.972 5.47-7.635 14.308-14.12 23.212-17.361ZM318.928 65.893c2.25-1.824 5.913-2.249 9.664-2.476l.834-.048 1.25-.066c3.21-.167 6.317-.34 8.571-1.16 7.333-2.669 12.508-3.17 16.296-1.918 4.235 1.399 6.676 5 8.505 10.024 1.73 4.754.11 10.188-3.822 15.137-4.012 5.05-10.44 9.603-18.322 12.472-8.42 3.065-16.484 4.483-22.88 3.178-5.475-1.117-9.705-4.254-11.83-10.094-1.423-3.908-.867-8.077 1.016-12.133 2.148-4.625 6.017-9.105 10.718-12.916Zm95.461-13.433c2.17-.462 4.635 1.263 6.993 2.829 1.79 1.188 3.527 2.322 5.05 2.646 4.793 1.019 7.68 2.7 9.19 5.075 1.708 2.691 1.634 6.23.718 10.539-.864 4.065-3.734 7.293-7.654 9.241-3.973 1.975-9.025 2.639-14.211 1.537-5.541-1.178-10.292-3.372-13.154-6.835-2.465-2.983-3.5-6.909-2.437-11.905.712-3.353 2.562-6.106 5.075-8.243 2.848-2.421 6.546-4.055 10.43-4.883ZM170.762 178.542c1.075-1.941 3.994-2.67 6.723-3.422 2.07-.571 4.067-1.139 5.31-2.076 3.913-2.949 7.077-4.025 9.859-3.605 3.152.475 5.774 2.853 8.425 6.371 2.502 3.32 3.055 7.603 1.954 11.84-1.117 4.294-3.93 8.542-8.165 11.733-4.524 3.41-9.296 5.555-13.787 5.443-3.87-.096-7.51-1.891-10.584-5.97-2.063-2.738-2.927-5.94-2.891-9.238.04-3.739 1.233-7.602 3.156-11.076Zm210.477-88.707c1.992-.734 4.874-.472 7.627-.243 2.002.167 3.942.324 5.466.137 4.931-.606 8.177-.444 10.286.376 1.054.41 1.808.985 2.334 1.715.593.823.897 1.836 1.04 3 .12.984-.254 1.972-.994 2.928-.833 1.074-2.123 2.102-3.762 3.035-3.302 1.88-8 3.365-13.31 4.017-5.673.696-10.85.712-14.553-.327-1.6-.448-2.917-1.091-3.859-1.977a4.827 4.827 0 0 1-1.53-3.01c-.21-1.713.823-3.369 2.558-4.895 2.082-1.83 5.191-3.466 8.697-4.756Zm66.201-53.163c-1.265-.11-2.76-.983-4.195-1.798-1.075-.61-2.118-1.198-3.017-1.49-2.833-.92-4.563-1.82-5.504-2.791-.447-.461-.702-.933-.8-1.43-.111-.569-.022-1.163.184-1.795.169-.52.597-.918 1.193-1.22.714-.36 1.664-.58 2.776-.664 2.281-.175 5.226.221 8.295 1.218 3.281 1.066 6.121 2.37 7.886 3.87.74.63 1.288 1.291 1.572 1.988.247.606.286 1.237.074 1.89-.303.932-1.26 1.511-2.523 1.872-1.596.456-3.705.545-5.942.35ZM52.334 350.046c-1.74-1.247-2.674-4.001-3.6-6.605-.687-1.932-1.361-3.799-2.263-5.04-2.876-3.959-4.11-6.972-4.056-9.439.06-2.73 1.727-4.737 4.308-6.612 2.453-1.782 5.895-1.658 9.458-.116 3.692 1.6 7.524 4.732 10.63 9.006 3.319 4.568 5.611 9.184 5.995 13.24.325 3.42-.738 6.426-3.747 8.613-2.013 1.462-4.53 1.785-7.213 1.313-3.103-.546-6.429-2.151-9.512-4.36ZM386.398 47.33c-1.316.519-3.114-.173-4.823-.771-1.337-.468-2.634-.908-3.676-.908-3.19 0-5.263-.588-6.547-1.746-1.435-1.296-1.845-3.282-1.845-5.78 0-2.369 1.392-4.497 3.595-6.043 2.28-1.6 5.43-2.582 8.905-2.582 3.715 0 7.064.665 9.372 2.285 1.951 1.37 3.128 3.432 3.128 6.34 0 1.952-.801 3.7-2.096 5.187-1.494 1.714-3.64 3.081-6.013 4.017Zm-169.394 63.845c7.844-.273 13.741 2.413 17.897 6.551 5.155 5.134 7.636 12.482 7.869 19.14.209 5.978-3.17 11.496-8.75 15.607-5.66 4.17-13.587 6.896-22.433 7.205-9.45.33-18.012-1.05-24.02-4.86-5.172-3.28-8.421-8.375-8.678-15.72-.258-7.384 4.156-13.781 10.674-18.584 7.561-5.571 17.971-9.008 27.44-9.339ZM157.1 162.113a10.22 10.22 0 0 1 .434 6.06c-.502 2.188-1.67 4.29-3.287 6.254-3.898 4.736-10.386 8.67-16.637 11.069-5.603 2.15-11.448 2.093-16.369.254-4.89-1.828-8.867-5.42-10.76-10.35-2.02-5.264-2.298-10.6.144-15.29 2.144-4.116 6.37-7.718 13.262-10.364 6.917-2.655 13.78-2.298 19.524-.151 6.552 2.449 11.657 7.224 13.689 12.518Zm-55.252 47.159c-2.549 3.926-6.006 5.805-9.638 6.297-4.536.614-9.333-.915-12.983-3.286-3.262-2.118-5.041-5.82-5.314-10.072-.278-4.328 1.003-9.229 3.893-13.68 3.089-4.755 6.781-8.446 10.9-9.972 3.532-1.309 7.37-.994 11.377 1.609 4.037 2.622 5.933 7.166 6.252 12.144.372 5.792-1.387 12.187-4.487 16.96Zm185.841-66.227c-4.67.327-8.25-1.303-10.829-3.908-3.22-3.253-4.886-8.004-5.19-12.346-.271-3.88 1.615-7.529 4.846-10.306 3.29-2.826 7.975-4.753 13.269-5.123 5.656-.396 10.826.333 14.523 2.703 3.172 2.034 5.23 5.288 5.562 10.055.336 4.802-2.152 9.05-5.935 12.301-4.403 3.783-10.568 6.227-16.246 6.624Zm177.744-57.938c3.842-.134 6.731 1.134 8.765 3.1 2.525 2.441 3.735 5.938 3.846 9.107.098 2.823-1.566 5.419-4.276 7.358-2.798 2.003-6.717 3.31-11.086 3.463-4.67.163-8.902-.485-11.87-2.31-2.513-1.545-4.088-3.948-4.209-7.413-.122-3.503 2.058-6.528 5.24-8.805 3.746-2.68 8.902-4.336 13.59-4.5ZM153.646 200.744c2.775-.097 4.867 1.087 6.348 2.888 1.881 2.287 2.793 5.55 2.896 8.498.091 2.615-1.102 5.022-3.088 6.805-2.02 1.814-4.858 2.986-8.032 3.097-3.391.119-6.476-.498-8.646-2.189-1.864-1.452-3.026-3.7-3.138-6.914-.113-3.246 1.458-6.047 3.789-8.14 2.711-2.436 6.456-3.925 9.871-4.045ZM354.363 98.657c2.776-.097 4.867 1.086 6.348 2.887 1.882 2.288 2.793 5.55 2.896 8.498.092 2.615-1.102 5.022-3.088 6.805-2.02 1.814-4.858 2.987-8.032 3.097-3.391.119-6.476-.497-8.646-2.188-1.863-1.452-3.025-3.7-3.138-6.914-.113-3.247 1.458-6.048 3.789-8.141 2.711-2.436 6.456-3.925 9.871-4.044ZM68.932 293.163c2.776-.097 4.867 1.086 6.348 2.887 1.882 2.288 2.793 5.55 2.896 8.498.092 2.616-1.102 5.022-3.088 6.806-2.02 1.814-4.858 2.986-8.032 3.097-3.391.118-6.476-.498-8.646-2.19-1.863-1.451-3.025-3.7-3.137-6.913-.114-3.247 1.457-6.048 3.788-8.141 2.711-2.436 6.456-3.925 9.871-4.044Zm79.508-49.654c1.768.786 2.728 2.14 3.122 3.684.504 1.977.101 4.252-.715 6.086-.718 1.613-2.182 2.703-3.952 3.178-1.822.49-3.969.333-6.01-.576-2.182-.972-3.955-2.294-4.822-4-.736-1.447-.792-3.164.09-5.144.896-2.011 2.721-3.23 4.808-3.791 2.453-.66 5.276-.418 7.48.563Zm32.689-19.895c.802 1.028.97 2.12.748 3.14-.288 1.316-1.2 2.506-2.224 3.305-.888.694-2.057.838-3.22.54-1.23-.313-2.458-1.116-3.4-2.321-1.007-1.29-1.674-2.649-1.681-3.937-.006-1.067.466-2.067 1.554-2.917 1.115-.872 2.543-.972 3.927-.619 1.661.424 3.274 1.502 4.296 2.809Zm83.711-83.712c.803 1.028.972 2.12.749 3.14-.288 1.316-1.201 2.506-2.224 3.305-.888.694-2.057.838-3.221.54-1.23-.313-2.457-1.115-3.399-2.321-1.007-1.29-1.674-2.649-1.681-3.937-.006-1.067.466-2.067 1.554-2.917 1.115-.872 2.543-.972 3.927-.619 1.661.424 3.274 1.502 4.296 2.81ZM115.29 275.985c.539.691.593 1.463.373 2.2-.3 1.009-1.085 1.955-1.932 2.617-.724.566-1.635.747-2.52.591-.911-.16-1.796-.675-2.44-1.501-.69-.883-1.126-1.836-1.06-2.775.056-.796.487-1.564 1.377-2.259.914-.714 2.027-.877 3.082-.691 1.242.218 2.414.915 3.12 1.818ZM334.245 56.147c.061.874-.326 1.545-.92 2.033-.813.668-1.993 1.014-3.064 1.089-.918.064-1.774-.296-2.421-.92-.666-.642-1.11-1.563-1.184-2.608-.078-1.118.094-2.152.674-2.893.492-.63 1.278-1.024 2.404-1.103 1.157-.08 2.171.406 2.942 1.15.908.875 1.49 2.109 1.57 3.252ZM72.58 219.608c.539.69.593 1.463.373 2.2-.3 1.008-1.086 1.955-1.932 2.616-.724.566-1.635.747-2.52.592-.912-.16-1.796-.676-2.44-1.501-.69-.883-1.126-1.836-1.06-2.775.056-.797.487-1.564 1.377-2.26.914-.713 2.027-.876 3.082-.69 1.242.217 2.413.915 3.12 1.818ZM409.134 37.11c-.652.897-1.42 1.361-2.184 1.508-.933.178-1.85-.108-2.508-.587-.565-.41-.75-1.18-.675-2.046.088-1.001.535-2.15 1.307-3.212.826-1.137 1.739-2.044 2.678-2.443.714-.303 1.439-.283 2.127.218.721.523.905 1.496.814 2.542-.119 1.353-.723 2.869-1.559 4.02ZM499 106.54c-.97-.538-1.523-1.243-1.762-1.985-.29-.904-.118-1.848.276-2.56.34-.611 1.08-.89 1.95-.92 1.004-.035 2.198.27 3.346.906 1.23.682 2.241 1.477 2.752 2.36.387.672.456 1.394.043 2.139-.432.779-1.375 1.08-2.424 1.117-1.358.047-2.936-.368-4.18-1.058ZM93.41 316.653c.539.69.593 1.462.373 2.2-.3 1.008-1.085 1.955-1.932 2.616-.724.566-1.635.747-2.52.591-.911-.16-1.796-.675-2.44-1.5-.69-.884-1.126-1.836-1.06-2.776.056-.796.487-1.563 1.377-2.258.914-.714 2.027-.878 3.082-.692 1.242.218 2.414.915 3.12 1.819Zm233.722-204.675c.54.69.593 1.463.373 2.2-.3 1.009-1.085 1.955-1.931 2.616-.725.567-1.636.748-2.52.592-.912-.16-1.796-.675-2.441-1.501-.69-.883-1.125-1.836-1.06-2.775.057-.797.488-1.564 1.378-2.259.913-.714 2.027-.877 3.082-.692 1.242.219 2.413.916 3.119 1.82ZM8.5 349.23c-.153.863-.69 1.42-1.386 1.75-.95.451-2.179.501-3.236.315-.906-.16-1.65-.716-2.127-1.477-.49-.785-.699-1.787-.517-2.818.195-1.104.611-2.065 1.353-2.644.63-.492 1.489-.685 2.6-.489 1.142.202 2.009.92 2.577 1.828.669 1.07.934 2.406.735 3.535ZM504.81 62.178c-.152.863-.69 1.42-1.385 1.75-.95.452-2.179.502-3.236.315-.906-.16-1.65-.715-2.127-1.477-.49-.785-.699-1.786-.517-2.818.195-1.103.611-2.065 1.353-2.644.63-.491 1.489-.684 2.6-.488 1.142.201 2.009.92 2.577 1.827.669 1.07.934 2.407.735 3.535ZM115.024 228.526c-1.265.316-2.332.025-3.173-.594-1.085-.797-1.8-2.116-2.115-3.376-.272-1.093.072-2.219.817-3.162.786-.995 2.019-1.79 3.503-2.16 1.588-.396 3.101-.453 4.28.065.978.428 1.7 1.266 2.034 2.606.342 1.374-.147 2.719-1.033 3.84-1.063 1.345-2.703 2.38-4.313 2.781Zm343.39-152.048c-1.265.315-2.332.025-3.173-.594-1.085-.797-1.8-2.116-2.115-3.376-.272-1.093.071-2.219.816-3.162.787-.995 2.02-1.79 3.504-2.16 1.588-.396 3.1-.453 4.28.065.977.428 1.7 1.266 2.033 2.606.343 1.373-.146 2.719-1.032 3.84-1.063 1.345-2.703 2.38-4.313 2.781ZM29.71 310.645c-1.26-.338-2.051-1.11-2.487-2.058-.562-1.224-.55-2.724-.213-3.978.292-1.088 1.138-1.906 2.247-2.37 1.17-.49 2.634-.587 4.112-.19 1.58.423 2.931 1.107 3.712 2.131.647.849.872 1.931.514 3.265-.366 1.368-1.446 2.307-2.764 2.858-1.582.661-3.518.771-5.12.342Zm131.862-179.659c1.226.446 1.947 1.284 2.299 2.266.453 1.269.31 2.762-.135 3.982-.385 1.058-1.3 1.8-2.445 2.165-1.208.385-2.675.355-4.113-.168-1.537-.56-2.823-1.359-3.512-2.447-.57-.902-.7-2-.228-3.298.484-1.33 1.642-2.172 3.003-2.606 1.633-.52 3.572-.461 5.131.106Zm96.95-41.654c1.302.069 2.238.659 2.861 1.496.805 1.08 1.104 2.55 1.036 3.847-.06 1.125-.717 2.101-1.706 2.785-1.043.722-2.454 1.122-3.982 1.042-1.634-.086-3.097-.474-4.074-1.314-.81-.695-1.255-1.708-1.182-3.087.074-1.413.935-2.557 2.11-3.37 1.41-.975 3.28-1.485 4.937-1.399Z"/>
      <path fill="#FFF" d="M181.129 223.614c.802 1.028.97 2.12.748 3.14-.288 1.316-1.2 2.506-2.224 3.305-.888.694-2.057.838-3.22.54-1.23-.313-2.458-1.116-3.4-2.321-1.007-1.29-1.674-2.649-1.681-3.937-.006-1.067.466-2.067 1.554-2.917 1.115-.872 2.543-.972 3.927-.619 1.661.424 3.274 1.502 4.296 2.809ZM433.14 46.298c1.093.71 1.608 1.689 1.729 2.726.156 1.337-.32 2.76-1.027 3.849-.613.944-1.672 1.461-2.87 1.56-1.263.103-2.686-.256-3.969-1.09-1.372-.891-2.445-1.959-2.871-3.174-.353-1.007-.233-2.107.52-3.265.77-1.187 2.088-1.746 3.511-1.863 1.709-.14 3.585.354 4.976 1.257Zm-48.711 16.726c.803 1.027.971 2.12.748 3.14-.287 1.316-1.2 2.506-2.224 3.305-.887.694-2.056.838-3.22.54-1.23-.313-2.457-1.116-3.4-2.322-1.007-1.29-1.674-2.648-1.68-3.936-.007-1.067.465-2.067 1.553-2.918 1.116-.871 2.543-.971 3.927-.618 1.662.424 3.275 1.502 4.296 2.809ZM78.603 152.297c1.768.787 2.728 2.141 3.122 3.685.504 1.977.1 4.252-.715 6.086-.719 1.613-2.182 2.703-3.952 3.178-1.822.49-3.969.332-6.01-.576-2.182-.972-3.955-2.294-4.822-4-.736-1.447-.792-3.164.09-5.144.895-2.012 2.72-3.23 4.808-3.791 2.452-.66 5.276-.418 7.48.562ZM29.1 329.01c1.768.786 2.729 2.14 3.122 3.684.504 1.977.101 4.252-.715 6.086-.718 1.613-2.182 2.703-3.952 3.178-1.821.49-3.969.332-6.01-.576-2.182-.972-3.955-2.294-4.822-4-.736-1.447-.791-3.164.09-5.144.896-2.012 2.721-3.23 4.808-3.791 2.453-.66 5.277-.419 7.48.562Zm224.211-156.486c-.967 1.675-2.414 2.49-3.99 2.72-2.02.294-4.24-.345-5.978-1.348-1.529-.883-2.46-2.452-2.748-4.262-.297-1.863.084-3.982 1.202-5.917 1.194-2.068 2.694-3.694 4.481-4.378 1.517-.58 3.23-.456 5.107.628 1.907 1.1 2.928 3.043 3.268 5.177.4 2.508-.136 5.292-1.342 7.38Zm179.009-69.998c1.913.372 3.208 1.289 4 2.443.978 1.427 1.19 3.199.9 4.693-.255 1.312-1.359 2.304-2.873 2.893-1.629.633-3.742.802-5.954.372-2.365-.46-4.425-1.249-5.715-2.462-1.05-.988-1.559-2.266-1.246-3.872.32-1.644 1.735-2.785 3.531-3.484 2.189-.85 4.974-1.046 7.357-.583Zm-144.74 1.9c-1.674.967-3.335.949-4.815.36-1.896-.755-3.5-2.418-4.503-4.156-.883-1.53-.904-3.354-.249-5.065.675-1.762 2.064-3.407 4-4.524 2.068-1.194 4.18-1.85 6.07-1.55 1.603.255 3.024 1.22 4.109 3.097 1.1 1.906 1.013 4.1.24 6.117-.908 2.372-2.763 4.515-4.851 5.721Z"/>
      <circle cx="335.507" cy="134.5" r="1" fill="#D8D8D8"/>
      <circle cx="424.507" cy="91.5" r="1" fill="#D8D8D8"/>
      <circle cx="480.507" cy="119.5" r="1" fill="#D8D8D8"/>
      <circle cx="480.507" cy="76.5" r="1" fill="#D8D8D8"/>
      <circle cx="446.507" cy="49.5" r="1" fill="#D8D8D8"/>
      <circle cx="466.507" cy="13.5" r="1" fill="#D8D8D8"/>
      <circle cx="506.507" cy="35.5" r="1" fill="#D8D8D8"/>
      <circle cx="494.507" cy="90.5" r="1" fill="#D8D8D8"/>
      <circle cx="374.507" cy="114.5" r="1" fill="#D8D8D8"/>
      <circle cx="376.507" cy="81.5" r="1" fill="#D8D8D8"/>
      <circle cx="395.507" cy="52.5" r="1" fill="#D8D8D8"/>
      <circle cx="173.507" cy="105.5" r="1" fill="#D8D8D8"/>
      <circle cx="256.507" cy="114.5" r="1" fill="#D8D8D8"/>
      <circle cx="272.507" cy="155.5" r="1" fill="#D8D8D8"/>
      <circle cx="118.507" cy="206.5" r="1" fill="#D8D8D8"/>
      <circle cx="37.507" cy="346.5" r="1" fill="#D8D8D8"/>
      <circle cx="130.507" cy="262.5" r="1" fill="#D8D8D8"/>
      <circle cx="152.507" cy="228.5" r="1" fill="#D8D8D8"/>
      <circle cx="113.507" cy="242.5" r="1" fill="#D8D8D8"/>
      <circle cx="224.507" cy="170.5" r="1" fill="#D8D8D8"/>
      <circle cx="135.507" cy="290.5" r="1" fill="#D8D8D8"/>
      <circle cx="210.507" cy="189.5" r="1" fill="#D8D8D8"/>
      <circle cx="46.507" cy="296.5" r="1" fill="#D8D8D8"/>
      <circle cx="109.507" cy="303.5" r="1" fill="#D8D8D8"/>
      <circle cx="84.507" cy="346.5" r="1" fill="#D8D8D8"/>
      <circle cx="74.507" cy="324.5" r="1" fill="#D8D8D8"/>
      <circle cx="89.507" cy="293.5" r="1" fill="#D8D8D8"/>
      <circle cx="73.507" cy="180.5" r="1" fill="#D8D8D8"/>
      <circle cx="180.507" cy="162.5" r="1" fill="#D8D8D8"/>
      <circle cx="163.507" cy="150.5" r="1" fill="#D8D8D8"/>
      <circle cx="97.507" cy="153.5" r="1" fill="#D8D8D8"/>
      <circle cx="26.507" cy="323.5" r="1" fill="#D8D8D8"/>
      <circle cx="267.507" cy="76.5" r="1" fill="#D8D8D8"/>
      <circle cx="231.507" cy="98.5" r="1" fill="#D8D8D8"/>
      <circle cx="299.507" cy="73.5" r="1" fill="#D8D8D8"/>
      <circle cx="354.507" cy="40.5" r="1" fill="#D8D8D8"/>
      <circle cx="308.507" cy="52.5" r="1" fill="#D8D8D8"/>
      <path fill="#FFF" d="M486.744 57.308c-3.479 3.36-7.285 4.564-10.895 4.383-4.485-.226-8.657-2.575-11.514-5.533-2.553-2.644-3.266-6.555-2.41-10.722.878-4.264 3.398-8.801 7.341-12.609 4.213-4.068 8.722-6.988 13.068-7.725 3.71-.629 7.285.365 10.42 3.612 3.162 3.274 3.765 8.024 2.761 12.905-1.172 5.705-4.545 11.608-8.771 15.69Z"/>
      <circle cx="497.507" cy="1.5" r="1" fill="#D8D8D8"/>
    </g>
    <g transform="translate(-.36 81.28)">
      <circle cx="357.359" cy="263.72" r="250.5" fill="#FFD8CC" stroke="#000"/>
      <ellipse cx="357.359" cy="263.22" stroke="#000" rx="348.5" ry="107" transform="rotate(-29 357.36 263.22)"/>
      <ellipse cx="357.359" cy="263.22" stroke="#000" rx="348.5" ry="107" transform="rotate(-29 357.36 263.22)"/>
      <use xlink:href="#a" stroke="#000" stroke-dasharray="20" stroke-width="2" mask="url(#b)" transform="rotate(-2 357.36 263.22)"/>
      <g transform="translate(10.36 26.72)">
        <path fill="#FFD8CC" d="M591.422 184.239C595.076 201.248 597 218.899 597 237c0 138.071-111.929 250-250 250-111.988 0-206.778-73.634-238.595-175.128 73.123-24.4 147.021-20.629 221.696 11.313Z"/>
        <path fill="#FFBAA9" stroke="#000" d="M585.682 160.746C593.357 184.79 597.5 210.411 597.5 237c0 69.174-28.038 131.799-73.37 177.13C478.8 459.462 416.174 487.5 347 487.5c-46.349 0-89.758-12.588-126.995-34.531-38.55-22.718-70.486-55.463-92.22-94.65a133.61 133.61 0 0 1-1.238-2.278 226.31 226.31 0 0 0 1.993 1.649c36.81 30.118 82.697 49.412 132.034 55.808 47.738 6.188 98.708.301 147.818-19.54 50.492-20.4 92.152-52.778 122.416-91.82 31.24-40.3 50.338-87.699 54.473-136.35Z"/>
        <circle cx="523" cy="50" r="49.5" fill="#FFBAA9" stroke="#000"/>
        <circle cx="32.5" cy="289.5" r="32" fill="#F59F89" stroke="#000"/>
      </g>
    </g>
    <g stroke="#000">
      <path fill="#FFD8CC" d="m839.094 103.67-86.104 68.67 36.668-15.965-71.403 65.365c-2.44 2.66-5.12 4.978-7.953 6.818-8.003 5.197-17.358 6.655-26.013 4.811-8.655-1.844-16.61-6.99-21.812-15.003-5.203-8.011-6.67-17.372-4.834-26.028 1.835-8.657 6.972-16.61 14.976-21.807 2.83-1.838 6.035-3.343 9.452-4.489l88.767-38.647-29.5 27.004 97.756-50.73Z"/>
      <path fill="#FFF" d="m762.81 152.682-35.749 34.28 26.142-9.965-39.111 39.291c-2.361 3.226-5.135 6.047-8.152 8.201-.43.304-.749.52-1.07.73-6.611 4.292-14.38 5.432-21.596 3.804-7.222-1.628-13.89-6.027-18.295-12.809-4.404-6.781-5.71-14.662-4.26-21.923 1.448-7.254 5.649-13.888 12.26-18.18.32-.21.647-.412.978-.609 4.108-2.423 8.927-4.01 13.94-4.722l40.042-13.528-14.276 15.488 49.147-20.058Z"/>
      <path fill="#F59F89" d="M669.415 213.986a22.916 22.916 0 0 1-3.238-17.204c1.191-5.712 4.558-10.954 9.818-14.37 5.562-3.612 13.336-5.259 20.465-4.466 6.38.71 12.26 3.374 15.522 8.397 3.262 5.023 3.305 11.478 1.358 17.595-2.176 6.835-6.842 13.267-12.404 16.88-5.26 3.415-11.418 4.359-17.122 3.123a22.916 22.916 0 0 1-14.4-9.955Z"/>
      <path fill="#FFD8CC" d="m884.554 144.033 63.833-33.131-56.232 44.838 24.343-10.603-46.175 42.256c-1.596 1.74-3.35 3.258-5.203 4.462a22.471 22.471 0 0 1-16.964 3.144 22.471 22.471 0 0 1-14.219-9.772 22.471 22.471 0 0 1-3.144-16.964 22.471 22.471 0 0 1 9.772-14.219c1.85-1.201 3.947-2.185 6.182-2.935l57.394-25-19.587 17.924Z"/>
      <path fill="#FFF" d="m899.328 142.761-23.449 22.46 17.207-6.57-25.144 25.227c-1.542 2.104-3.353 3.945-5.322 5.35-.282.2-.49.341-.699.477-4.302 2.794-9.354 3.54-14.044 2.49-4.695-1.05-9.028-3.902-11.886-8.302-2.857-4.4-3.7-9.518-2.75-14.235.948-4.712 3.685-9.024 7.987-11.817.21-.136.422-.268.637-.396 2.684-1.584 5.832-2.621 9.105-3.088l25.66-8.69-9.449 10.236 32.147-13.142Z"/>
      <path fill="#F59F89" d="M838.682 182.12a14.719 14.719 0 0 1-2.06-11.112 14.719 14.719 0 0 1 6.401-9.313c3.628-2.355 8.69-3.44 13.326-2.942 4.128.443 7.934 2.14 10.035 5.376 2.102 3.236 2.104 7.404.83 11.355-1.431 4.438-4.48 8.621-8.108 10.977a14.719 14.719 0 0 1-11.11 2.06 14.719 14.719 0 0 1-9.314-6.401Z"/>
      <path fill="#FFD8CC" d="M872.77 43.557 837.843 75.42c-1.219 1.323-2.557 2.479-3.97 3.396a17.206 17.206 0 0 1-12.898 2.437c-4.28-.888-8.207-3.405-10.763-7.341-2.557-3.937-3.26-8.547-2.33-12.819a17.206 17.206 0 0 1 7.473-10.792c1.413-.917 3.013-1.67 4.717-2.246l43.313-18.947-15.183 13.848 48.642-25.304-42.902 34.142 18.828-8.236Z"/>
      <path fill="#FFF" d="m859.935 42.106-17.832 17.136 13.166-5-18.775 18.908c-1.165 1.6-2.535 3-4.027 4.066-.214.151-.37.258-.53.36-3.251 2.112-7.078 2.664-10.635 1.85-3.566-.815-6.861-3-9.043-6.36-2.182-3.359-2.837-7.258-2.132-10.846.704-3.581 2.764-6.853 6.016-8.965.158-.102.319-.202.481-.298 2.036-1.2 4.428-1.982 6.917-2.327l19.175-6.448-7.235 7.872 24.454-9.948Z"/>
      <path fill="#F59F89" d="M814.017 71.808a10.886 10.886 0 0 1-1.495-8.3 11.21 11.21 0 0 1 4.865-7.005c2.751-1.786 6.58-2.624 10.079-2.273 3.098.311 5.954 1.554 7.517 3.962 1.564 2.408 1.538 5.522.562 8.479-1.102 3.34-3.425 6.496-6.176 8.283a11.21 11.21 0 0 1-8.378 1.596 10.886 10.886 0 0 1-6.974-4.742Z"/>
    </g>
    <path fill="#FFF" stroke="#000" d="M32.996 17.885c.878 7.574 2.849 14.34 5.568 19.639 1.867 3.639 4.09 6.589 6.55 8.645 1.592 1.331 3.285 2.29 5.049 2.828-1.78.55-3.487 1.52-5.092 2.87-2.472 2.08-4.702 5.06-6.571 8.738-2.641 5.195-4.566 11.784-5.453 19.154l-.047.402-.048-.41c-.86-7.138-2.693-13.544-5.208-18.659l-.245-.49c-1.87-3.677-4.1-6.657-6.572-8.736-1.604-1.349-3.31-2.32-5.09-2.863 1.764-.544 3.457-1.504 5.05-2.835 2.46-2.057 4.683-5.007 6.55-8.647 2.716-5.299 4.685-12.066 5.559-19.636Zm75.995 40.781c1.24 13.655 4.65 25.855 9.503 35.203 3.057 5.887 6.69 10.647 10.712 13.941 2.833 2.322 5.862 3.918 9.022 4.68-3.188.765-6.242 2.383-9.098 4.74-4.044 3.337-7.693 8.16-10.755 14.125-4.758 9.267-8.106 21.297-9.345 34.752l-.031.335-.026-.308c-1.18-12.847-4.285-24.397-8.706-33.483l-.297-.602c-5.224-10.466-12.225-17.533-20.024-19.495 7.743-1.998 14.698-9.004 19.91-19.358 4.664-9.269 7.933-21.21 9.135-34.53ZM605.996 7.885c.878 7.574 2.849 14.34 5.568 19.639 1.867 3.639 4.09 6.589 6.55 8.645 1.592 1.331 3.285 2.29 5.049 2.828-1.78.55-3.487 1.52-5.092 2.87-2.472 2.08-4.702 5.06-6.571 8.738-2.641 5.195-4.566 11.784-5.453 19.154l-.047.402-.048-.41c-.86-7.138-2.693-13.544-5.208-18.659l-.245-.49c-1.87-3.677-4.1-6.657-6.572-8.736-1.604-1.349-3.31-2.32-5.09-2.863 1.764-.544 3.457-1.504 5.05-2.835 2.46-2.057 4.683-5.007 6.55-8.647 2.716-5.299 4.685-12.066 5.559-19.636Z"/>
  </g>
</svg>
