<?xml version="1.0" encoding="UTF-8"?>
<svg width="100px" height="100px" viewBox="0 0 100 100" version="1.1" xmlns="http://www.w3.org/2000/svg" xmlns:xlink="http://www.w3.org/1999/xlink">
    <title>Artboard</title>
    <g id="Artboard" stroke="none" stroke-width="1" fill="none" fill-rule="evenodd">
        <g id="Logo" transform="translate(-26.910299, -26.910299)" fill="#ECE7DB" fill-rule="nonzero">
            <path d="M113.111172,63.2061515 C131.877973,66.1682891 144.329244,71.3746515 144.329244,77.3026658 C144.329244,86.522702 114.208866,93.997018 77.0534965,93.997018 C72.1603932,93.997018 67.3892982,93.8673907 62.7929377,93.6212196 C63.7627005,92.0787316 64.3851782,90.2958442 64.5506928,88.3822363 C68.533548,88.6487542 72.7257061,88.7910386 77.0534965,88.7910386 C103.199867,88.7910386 124.395689,83.5976904 124.395689,77.1913705 C124.395689,74.3708994 120.287255,71.7855416 113.456715,69.7749711 C113.658017,68.9114701 113.76446,68.011525 113.76446,67.086719 C113.76446,65.7272047 113.534431,64.4214163 113.111172,63.2061515 L113.111172,63.2061515 Z M91.8580324,61.0138336 C90.958953,62.5077436 90.3815493,64.2171917 90.2216786,66.046321 C86.0413021,65.7503243 81.6230021,65.5917024 77.0534965,65.5917024 C50.9071253,65.5917024 29.7113037,70.7850509 29.7113037,77.1913705 C29.7113037,80.0982814 34.0754218,82.7554475 41.2859216,84.7909964 C41.1032863,85.6156934 41.0069847,86.4728502 41.0069847,87.3524997 C41.0069847,88.8191313 41.2746895,90.2232372 41.7639003,91.5186186 C22.5695112,88.578322 9.77774886,83.3111871 9.77774886,77.3026658 C9.77774886,68.0826299 39.898127,60.6083137 77.0534965,60.6083137 C82.1399227,60.6083137 87.0945098,60.7483864 91.8580324,61.0138353 L91.8580324,61.0138336 Z M111.124039,59.6490168 C108.961511,56.9908309 105.664286,55.2926991 101.97044,55.2926991 C99.3219739,55.2926991 96.8774025,56.165676 94.9087759,57.6395797 C89.3218291,57.1923541 83.4473972,56.9538287 77.3857224,56.9538287 C63.1556746,56.9538287 49.9575163,58.2683329 39.0881024,60.5114869 C45.4653358,45.7133784 60.1381095,35.3591443 77.2196095,35.3591443 C94.2723533,35.3591443 108.924474,45.6785462 115.318837,60.4367861 C113.955782,60.1594156 112.556675,59.8965748 111.124039,59.6490168 L111.124039,59.6490168 Z M60.4312862,96.346019 C65.8477241,96.7644083 71.5293354,96.9870512 77.3857224,96.9870512 C91.4911397,96.9870512 104.582664,95.6954718 115.397216,93.4881173 C109.044804,108.343497 94.3423992,118.747849 77.2196095,118.747849 C60.0680759,118.747849 45.3450606,108.308537 39.0100833,93.4132705 C40.3735385,93.6954954 41.7737624,93.9630954 43.208186,94.2153034 C45.3480619,97.2011037 48.8473452,99.1465196 52.8010047,99.1465196 C55.710817,99.1465196 58.3745092,98.0927545 60.4312862,96.346019 L60.4312862,96.346019 Z M52.8010047,96.8209382 C47.5717305,96.8209382 43.3325661,92.5817741 43.3325661,87.3524997 C43.3325661,82.1232256 47.5717305,77.8840612 52.8010047,77.8840612 C58.0302789,77.8840612 62.2694433,82.1232256 62.2694433,87.3524997 C62.2694433,92.5817741 58.0302789,96.8209382 52.8010047,96.8209382 Z M101.97044,76.5551575 C96.7411656,76.5551575 92.5020015,72.3159934 92.5020015,67.086719 C92.5020015,61.8574449 96.7411656,57.6182805 101.97044,57.6182805 C107.199714,57.6182805 111.438879,61.8574449 111.438879,67.086719 C111.438879,72.3159934 107.199714,76.5551575 101.97044,76.5551575 Z" id="Combined-Shape" transform="translate(77.053496, 77.053496) rotate(-45.000000) translate(-77.053496, -77.053496) "></path>
        </g>
    </g>
</svg>