<?xml version="1.0" encoding="UTF-8"?>
<svg width="591px" height="115px" viewBox="0 0 591 115" version="1.1" xmlns="http://www.w3.org/2000/svg" xmlns:xlink="http://www.w3.org/1999/xlink">
    <title>other</title>
    <defs>
        <circle id="path-1" cx="37.5" cy="37.5" r="37.5"></circle>
        <circle id="path-3" cx="37.5" cy="37.5" r="37.5"></circle>
    </defs>
    <g id="other" stroke="none" stroke-width="1" fill="none" fill-rule="evenodd">
        <g transform="translate(0.000000, -6.000000)">
            <g id="Group" transform="translate(234.500000, 8.949631)" stroke="#000000">
                <polygon id="Path" fill="#90BDEE" fill-rule="nonzero" points="9 5 28 5 28 113 9 113"></polygon>
                <polygon id="Path" fill="#FFF7F4" fill-rule="nonzero" points="9 23 28 23 28 45 9 45"></polygon>
                <path d="M9,49.5 L28,49.5 M9,51.5 L28,51.5" id="Shape" stroke-linecap="square"></path>
                <path d="M28,18 L36,18 L36,113 L28,113 L28,18 Z M0,18 L9,18 L9,113 L0,113 L0,18 Z M36,18 L44,18 L44,113 L36,113 L36,18 Z" id="Shape" fill="#CAE3FF" fill-rule="nonzero"></path>
                <polygon id="Path" fill="#FFFFFF" fill-rule="nonzero" points="44 15 63 15 63 113 44 113"></polygon>
                <polygon id="Path" fill="#5092DB" fill-rule="nonzero" points="63 0 89 0 89 113 63 113"></polygon>
                <path d="M52,29 L58,29 L58,72.944 L52,72.944 L52,29 Z M52,79.704 L58,79.704 L58,109 L52,109 L52,79.704 L52,79.704 Z" id="Shape" fill="#90BDEE" fill-rule="nonzero"></path>
                <path d="M63,100.439 L88,100.439 M63,9.561 L88,9.561" id="Shape" stroke-linecap="square"></path>
            </g>
            <polygon id="Path" stroke="#000000" fill="#FFFFFF" fill-rule="nonzero" points="431.497 9.78563066 607.765 34.5596307 590.647 156.362631 414.379 131.589631"></polygon>
            <polygon id="Path" stroke="#000000" fill="#E9F5FE" fill-rule="nonzero" points="439.271 17.9996307 596.956 40.1596307 581.646 149.089631 423.962 126.929631"></polygon>
            <line x1="489.5" y1="100.5" x2="532.5" y2="94.5" id="Line-17" stroke="#000000" stroke-width="2" stroke-linecap="square"></line>
            <line x1="475.5" y1="96.4496307" x2="460.5" y2="96.4496307" id="Path" stroke="#000000" stroke-width="2"></line>
            <g id="Group" opacity="0.554" transform="translate(95.000000, 15.949631)" fill-rule="nonzero">
                <path d="M0,102 L17,102 L17,106 L0,106 L0,102 Z M0,96 L17,96 L17,100 L0,100 L0,96 Z M0,90 L17,90 L17,94 L0,94 L0,90 Z" id="Shape" fill="#CAE3FF"></path>
                <path d="M0,84 L17,84 L17,88 L0,88 L0,84 Z M0,78 L17,78 L17,82 L0,82 L0,78 Z" id="Shape" fill="#B9D5F4"></path>
                <path d="M0,72 L17,72 L17,76 L0,76 L0,72 Z M0,66 L17,66 L17,70 L0,70 L0,66 Z M0,60 L17,60 L17,64 L0,64 L0,60 Z M19,42 L36,42 L36,46 L19,46 L19,42 Z M19,36 L36,36 L36,40 L19,40 L19,36 Z M19,30 L36,30 L36,34 L19,34 L19,30 Z M19,24 L36,24 L36,28 L19,28 L19,24 Z M38,60 L55,60 L55,64 L38,64 L38,60 Z M38,54 L55,54 L55,58 L38,58 L38,54 Z M38,48 L55,48 L55,52 L38,52 L38,48 Z M38,42 L55,42 L55,46 L38,46 L38,42 Z M57,42 L74,42 L74,46 L57,46 L57,42 Z M57,36 L74,36 L74,40 L57,40 L57,36 Z M57,30 L74,30 L74,34 L57,34 L57,30 Z M57,24 L74,24 L74,28 L57,28 L57,24 Z M57,18 L74,18 L74,22 L57,22 L57,18 Z M76,90 L93,90 L93,94 L76,94 L76,90 Z M76,84 L93,84 L93,88 L76,88 L76,84 Z" id="Shape" fill="#90BDEE"></path>
                <path d="M0,54 L17,54 L17,58 L0,58 L0,54 Z M0,48 L17,48 L17,52 L0,52 L0,48 Z M19,18 L36,18 L36,22 L19,22 L19,18 Z M19,12 L36,12 L36,16 L19,16 L19,12 Z M19,6 L36,6 L36,10 L19,10 L19,6 Z M38,36 L55,36 L55,40 L38,40 L38,36 Z M38,30 L55,30 L55,34 L38,34 L38,30 Z M57,12 L74,12 L74,16 L57,16 L57,12 Z M57,6 L74,6 L74,10 L57,10 L57,6 Z M57,0 L74,0 L74,4 L57,4 L57,0 Z M76,78 L93,78 L93,82 L76,82 L76,78 Z M76,72 L93,72 L93,76 L76,76 L76,72 Z" id="Shape" fill="#5092DB"></path>
                <path d="M19,102 L36,102 L36,106 L19,106 L19,102 Z M19,96 L36,96 L36,100 L19,100 L19,96 Z M19,90 L36,90 L36,94 L19,94 L19,90 Z M19,84 L36,84 L36,88 L19,88 L19,84 Z M19,78 L36,78 L36,82 L19,82 L19,78 Z M19,72 L36,72 L36,76 L19,76 L19,72 Z" id="Shape" fill="#CAE3FF"></path>
                <path d="M19,66 L36,66 L36,70 L19,70 L19,66 Z M19,60 L36,60 L36,64 L19,64 L19,60 Z M19,54 L36,54 L36,58 L19,58 L19,54 Z M19,48 L36,48 L36,52 L19,52 L19,48 Z" id="Shape" fill="#B9D5F4"></path>
                <path d="M38,102 L55,102 L55,106 L38,106 L38,102 Z M38,96 L55,96 L55,100 L38,100 L38,96 Z M38,90 L55,90 L55,94 L38,94 L38,90 Z M38,84 L55,84 L55,88 L38,88 L38,84 Z" id="Shape" fill="#CAE3FF"></path>
                <path d="M38,78 L55,78 L55,82 L38,82 L38,78 Z M38,72 L55,72 L55,76 L38,76 L38,72 Z M38,66 L55,66 L55,70 L38,70 L38,66 Z" id="Shape" fill="#B9D5F4"></path>
                <path d="M57,102 L74,102 L74,106 L57,106 L57,102 Z M57,96 L74,96 L74,100 L57,100 L57,96 Z M57,90 L74,90 L74,94 L57,94 L57,90 Z M57,84 L74,84 L74,88 L57,88 L57,84 Z M57,78 L74,78 L74,82 L57,82 L57,78 Z M57,72 L74,72 L74,76 L57,76 L57,72 Z M57,66 L74,66 L74,70 L57,70 L57,66 Z" id="Shape" fill="#CAE3FF"></path>
                <path d="M57,60 L74,60 L74,64 L57,64 L57,60 Z M57,54 L74,54 L74,58 L57,58 L57,54 Z M57,48 L74,48 L74,52 L57,52 L57,48 Z" id="Shape" fill="#B9D5F4"></path>
                <polygon id="Path" fill="#CAE3FF" points="76 102 93 102 93 106 76 106"></polygon>
                <polygon id="Path" fill="#B9D5F4" points="76 96 93 96 93 100 76 100"></polygon>
            </g>
            <g id="Group" transform="translate(156.678998, 15.574678)" stroke="#000000">
                <path d="M13.8210016,58.8749531 L77.8210016,58.8749531 L77.8210016,72.8749531 L13.8210016,72.8749531 L13.8210016,58.8749531 Z M73.7420016,72.8749531 L68.8890016,105.874953 L22.7530016,105.874953 L17.9000016,72.8749531 L73.7420016,72.8749531 Z" id="Shape" fill="#CAE3FF" fill-rule="nonzero"></path>
                <path d="M23.1870016,31.3749531 C32.2870016,33.9149531 37.3940016,37.9609531 38.5040016,43.5109531 C39.6140016,49.0609531 42.3860016,54.1819531 46.8210016,58.8749531" id="Path" stroke-linecap="square"></path>
                <path d="M32.8960016,48.8749531 C35.0960016,42.9809531 38.0710016,40.6109531 41.8200016,41.7649531 C45.5680016,42.9189531 47.2350016,48.6219531 46.8210016,58.8749531" id="Path" stroke-linecap="square"></path>
                <path d="M41.0590016,29.0599531 C37.8170016,36.3759531 38.0710016,40.6099531 41.8190016,41.7649531 C45.5690016,42.9189531 47.2350016,48.6219531 46.8210016,58.8749531 M85.5210016,56.6799531 C81.1020016,52.0489531 75.7550016,49.8819531 69.4780016,50.1779531 C63.2010016,50.4749531 55.6490016,53.3749531 46.8210016,58.8749531" id="Shape" stroke-linecap="square"></path>
                <path d="M38.5040016,17.0539531 C41.9540016,23.9939531 44.2340016,30.2389531 45.3440016,35.7889531 C46.4540016,41.3389531 46.9470016,49.0339531 46.8210016,58.8749531" id="Path" stroke-linecap="square"></path>
                <path d="M45.7410016,21.1919531 C44.3670016,25.3739531 44.2350016,30.2389531 45.3450016,35.7889531 C46.4550016,41.3389531 46.9470016,49.0339531 46.8210016,58.8749531 M64.9360016,29.0599531 C53.2280016,29.8399531 47.9290016,33.0039531 49.0390016,38.5539531 C50.1490016,44.1039531 49.4090016,50.8769531 46.8210016,58.8749531" id="Shape" stroke-linecap="square"></path>
                <path d="M73.5640016,51.0049531 C72.9910016,51.7009531 72.1190016,52.0629531 70.9740016,52.1359531 C69.7090016,52.2159531 68.1280016,51.9489531 66.2290016,51.3489531 C63.9890016,50.6409531 62.3320016,49.5069531 61.1600016,48.1039531 C59.8300016,46.5139531 59.1260016,44.5819531 58.8820016,42.5619531 C58.2480016,37.3179531 60.6840016,31.4389531 63.5990016,29.1619531 C66.4430016,26.9399531 72.2690016,26.4119531 77.0640016,28.2419531 C79.0300016,28.9919531 80.8280016,30.1439531 82.1770016,31.7579531 C83.3610016,33.1769531 84.1970016,34.9519531 84.4950016,37.1179531 C84.7380016,38.8759531 84.7090016,40.3019531 84.3900016,41.3919531 C84.1000016,42.3789531 83.5670016,43.0739531 82.7650016,43.4559531 C80.9950016,44.2999531 78.0950016,43.7119531 74.1010016,41.8819531 C73.7527385,41.7224275 73.4067052,41.5580784 73.0630016,41.3889531 C73.1830016,41.7389531 73.2990016,42.1039531 73.4140016,42.4819531 C74.6740016,46.6259531 74.8040016,49.5009531 73.5640016,51.0059531 L73.5640016,51.0049531 Z M1.31300156,41.1729531 C0.589001556,40.6369531 0.182001556,39.7849531 0.049001556,38.6449531 C-0.097998444,37.3869531 0.087001556,35.7939531 0.587001556,33.8649531 C1.17700156,31.5919531 2.22300156,29.8779531 3.56200156,28.6349531 C5.08100156,27.2229531 6.97200156,26.4189531 8.97700156,26.0689531 C14.1810016,25.1619531 20.1790016,27.2859531 22.6060016,30.0789531 C24.9730016,32.8019531 25.8060016,38.5929531 24.2300016,43.4759531 C23.5830016,45.4789531 22.5260016,47.3359531 20.9850016,48.7659531 C19.6310016,50.0239531 17.9020016,50.9499531 15.7550016,51.3619531 C14.0110016,51.6959531 12.5860016,51.7419531 11.4810016,51.4799531 C10.4800016,51.2429531 9.75700156,50.7469531 9.33400156,49.9659531 C8.39900156,48.2419531 8.83400156,45.3159531 10.4520016,41.2319531 C10.5980016,40.8639531 10.7440016,40.5099531 10.8900016,40.1699531 C10.5470016,40.3069531 10.1900016,40.4429531 9.81700156,40.5769531 C5.74500156,42.0519531 2.88100156,42.3319531 1.31300156,41.1729531 L1.31300156,41.1729531 Z M20.6370016,3.52495313 C20.8620016,2.65195313 21.5000016,1.95495313 22.5070016,1.40495313 C23.6190016,0.79795313 25.1650016,0.37195313 27.1400016,0.11295313 C29.4700016,-0.19204687 31.4500016,0.13595313 33.1050016,0.91195313 C34.9820016,1.79195313 36.4370016,3.24395313 37.5120016,4.97195313 C40.3020016,9.45695313 40.5790016,15.8139531 38.9000016,19.1099531 C37.2620016,22.3249531 32.2040016,25.2669531 27.0860016,25.6349531 C24.9860016,25.7849531 22.8700016,25.5009531 20.9660016,24.6079531 C19.2930016,23.8239531 17.7860016,22.5679531 16.6000016,20.7309531 C15.6370016,19.2399531 15.0600016,17.9359531 14.8890016,16.8129531 C14.7340016,15.7959531 14.9240016,14.9399531 15.4890016,14.2549531 C16.7370016,12.7419531 19.6130016,12.0489531 24.0060016,12.0199531 C24.4020016,12.0169531 24.7850016,12.0199531 25.1550016,12.0279531 C24.8904574,11.7515305 24.630423,11.4708268 24.3750016,11.1859531 C21.4820016,7.96295313 20.1500016,5.41195313 20.6370016,3.52395313 L20.6370016,3.52495313 Z" id="Shape" fill="#90BDEE" fill-rule="nonzero"></path>
                <path d="M69.0410016,27.2819531 C69.2060016,28.1669531 68.9230016,29.0679531 68.2420016,29.9919531 C67.4920016,31.0119531 66.2700016,32.0519531 64.5890016,33.1219531 C62.6070016,34.3819531 60.6730016,34.9219531 58.8460016,34.9179752 C56.7720016,34.9139531 54.8400016,34.2129531 53.1360016,33.1009531 C48.7110016,30.2159531 45.7740016,24.5709531 45.9030016,20.8739531 C46.0290016,17.2679531 49.3690016,12.4639531 53.8530016,9.96795313 C55.6910016,8.94395313 57.7300016,8.30795313 59.8330016,8.31193437 C61.6810016,8.31595313 63.5780016,8.81795313 65.4290016,9.98095313 C66.9320016,10.9249531 68.0050016,11.8629531 68.6350016,12.8089531 C69.2050016,13.6649531 69.3950016,14.5209531 69.1720016,15.3809531 C68.6800016,17.2789531 66.3670016,19.1229531 62.3980016,21.0059531 C62.0400016,21.1759531 61.6920016,21.3339531 61.3530016,21.4839531 C61.6980016,21.6179531 62.0520016,21.7619531 62.4160016,21.9169531 C66.4000016,23.6159531 68.6860016,25.3649531 69.0410016,27.2819531 L69.0410016,27.2819531 Z M25.2740016,69.6869531 C24.3810016,69.8049531 23.4960016,69.4749531 22.6080016,68.7469531 C21.6280016,67.9439531 20.6550016,66.6699531 19.6750016,64.9349531 C18.5200016,62.8899531 18.0820016,60.9309531 18.1810016,59.1049531 C18.2930016,57.0349531 19.0950016,55.1429531 20.2950016,53.4979531 C23.4080016,49.2309531 29.1980016,46.5929531 32.8830016,46.9149531 C36.4780016,47.2299531 41.1000016,50.8169531 43.3580016,55.4249531 C44.2850016,57.3149531 44.8140016,59.3849531 44.6990016,61.4839531 C44.5990016,63.3289531 43.9990016,65.1969531 42.7390016,66.9849531 C41.7180016,68.4359531 40.7250016,69.4599531 39.7480016,70.0389531 C38.8630016,70.5629531 37.9980016,70.7089531 37.1510016,70.4409531 C35.2810016,69.8509531 33.5610016,67.4429531 31.8890016,63.3809531 C31.7430715,63.0269255 31.602058,62.6708913 31.4660016,62.3129531 C31.3140016,62.6499531 31.1510016,62.9959531 30.9770016,63.3509531 C29.0720016,67.2409531 27.2070016,69.4309531 25.2740016,69.6869531 L25.2740016,69.6869531 Z" id="Shape" fill="#90BDEE" fill-rule="nonzero"></path>
                <path d="M43.0170016,48.3419531 C42.2750016,48.8519531 41.3370016,48.9609531 40.2150016,48.7149531 C38.9770016,48.4449531 37.5310016,47.7509531 35.8710016,46.6499531 C33.9130016,45.3519531 32.6330016,43.8049531 31.8930016,42.1339531 C31.0530016,40.2389531 30.9090016,38.1879531 31.2310016,36.1789531 C32.0670016,30.9629531 36.0290016,25.9839531 39.4590016,24.5979531 C42.8040016,23.2459531 48.5520016,24.3439531 52.6560016,27.4249531 C54.3390016,28.6879531 55.7500016,30.2909531 56.6010016,32.2149531 C57.3490016,33.9049531 57.6620016,35.8409531 57.3520016,38.0049531 C57.1010016,39.7629531 56.6810016,41.1249531 56.0720016,42.0849531 C55.5220016,42.9539531 54.8180016,43.4749531 53.9420016,43.6219531 C52.0080016,43.9439531 49.3820016,42.5809531 46.0480016,39.7199531 C45.7571675,39.4706182 45.4698065,39.2172605 45.1860016,38.9599531 C45.2040016,39.3299531 45.2160016,39.7119531 45.2220016,40.1079531 C45.2910016,44.4379531 44.6230016,47.2379531 43.0170016,48.3419531 L43.0170016,48.3419531 Z M87.9080016,75.1449531 C87.3000016,75.8089531 86.4100016,76.1249531 85.2620016,76.1379531 C83.9950016,76.1519531 82.4310016,75.8019531 80.5650016,75.1029531 C78.3650016,74.2789531 76.7700016,73.0589531 75.6730016,71.5979531 C74.4290016,69.9389531 73.8270016,67.9739531 73.6880016,65.9429531 C73.3300016,60.6729531 76.0700016,54.9309531 79.1000016,52.8089531 C82.0560016,50.7389531 87.9030016,50.5159531 92.5950016,52.5939531 C94.5190016,53.4469531 96.2550016,54.6909531 97.5160016,56.3739531 C98.6260016,57.8519531 99.3660016,59.6689531 99.5510016,61.8479531 C99.7010016,63.6159531 99.5980016,65.0379531 99.2220016,66.1099531 C98.8820016,67.0799531 98.3120016,67.7469531 97.4920016,68.0869531 C95.6800016,68.8369531 92.8150016,68.0979531 88.9220016,66.0609531 C88.5828285,65.8836282 88.2461295,65.7016107 87.9120016,65.5149531 C88.0120016,65.8709531 88.1100016,66.2409531 88.2050016,66.6249531 C89.2460016,70.8279531 89.2250016,73.7059531 87.9080016,75.1449531 L87.9080016,75.1449531 Z" id="Shape" fill="#90BDEE" fill-rule="nonzero"></path>
            </g>
            <g id="Group" opacity="0.554" transform="translate(0.000000, 15.949631)" fill-rule="nonzero">
                <path d="M0,102 L17,102 L17,106 L0,106 L0,102 Z M0,96 L17,96 L17,100 L0,100 L0,96 Z M0,90 L17,90 L17,94 L0,94 L0,90 Z" id="Shape" fill="#CAE3FF"></path>
                <path d="M0,84 L17,84 L17,88 L0,88 L0,84 Z M0,78 L17,78 L17,82 L0,82 L0,78 Z" id="Shape" fill="#B9D5F4"></path>
                <path d="M0,72 L17,72 L17,76 L0,76 L0,72 Z M0,66 L17,66 L17,70 L0,70 L0,66 Z M0,60 L17,60 L17,64 L0,64 L0,60 Z M19,42 L36,42 L36,46 L19,46 L19,42 Z M19,36 L36,36 L36,40 L19,40 L19,36 Z M19,30 L36,30 L36,34 L19,34 L19,30 Z M19,24 L36,24 L36,28 L19,28 L19,24 Z M38,60 L55,60 L55,64 L38,64 L38,60 Z M38,54 L55,54 L55,58 L38,58 L38,54 Z M38,48 L55,48 L55,52 L38,52 L38,48 Z M38,42 L55,42 L55,46 L38,46 L38,42 Z M57,42 L74,42 L74,46 L57,46 L57,42 Z M57,36 L74,36 L74,40 L57,40 L57,36 Z M57,30 L74,30 L74,34 L57,34 L57,30 Z M57,24 L74,24 L74,28 L57,28 L57,24 Z M57,18 L74,18 L74,22 L57,22 L57,18 Z M76,90 L93,90 L93,94 L76,94 L76,90 Z M76,84 L93,84 L93,88 L76,88 L76,84 Z" id="Shape" fill="#90BDEE"></path>
                <path d="M0,54 L17,54 L17,58 L0,58 L0,54 Z M0,48 L17,48 L17,52 L0,52 L0,48 Z M19,18 L36,18 L36,22 L19,22 L19,18 Z M19,12 L36,12 L36,16 L19,16 L19,12 Z M19,6 L36,6 L36,10 L19,10 L19,6 Z M38,36 L55,36 L55,40 L38,40 L38,36 Z M38,30 L55,30 L55,34 L38,34 L38,30 Z M57,12 L74,12 L74,16 L57,16 L57,12 Z M57,6 L74,6 L74,10 L57,10 L57,6 Z M57,0 L74,0 L74,4 L57,4 L57,0 Z M76,78 L93,78 L93,82 L76,82 L76,78 Z M76,72 L93,72 L93,76 L76,76 L76,72 Z" id="Shape" fill="#5092DB"></path>
                <path d="M19,102 L36,102 L36,106 L19,106 L19,102 Z M19,96 L36,96 L36,100 L19,100 L19,96 Z M19,90 L36,90 L36,94 L19,94 L19,90 Z M19,84 L36,84 L36,88 L19,88 L19,84 Z M19,78 L36,78 L36,82 L19,82 L19,78 Z M19,72 L36,72 L36,76 L19,76 L19,72 Z" id="Shape" fill="#CAE3FF"></path>
                <path d="M19,66 L36,66 L36,70 L19,70 L19,66 Z M19,60 L36,60 L36,64 L19,64 L19,60 Z M19,54 L36,54 L36,58 L19,58 L19,54 Z M19,48 L36,48 L36,52 L19,52 L19,48 Z" id="Shape" fill="#B9D5F4"></path>
                <path d="M38,102 L55,102 L55,106 L38,106 L38,102 Z M38,96 L55,96 L55,100 L38,100 L38,96 Z M38,90 L55,90 L55,94 L38,94 L38,90 Z M38,84 L55,84 L55,88 L38,88 L38,84 Z" id="Shape" fill="#CAE3FF"></path>
                <path d="M38,78 L55,78 L55,82 L38,82 L38,78 Z M38,72 L55,72 L55,76 L38,76 L38,72 Z M38,66 L55,66 L55,70 L38,70 L38,66 Z" id="Shape" fill="#B9D5F4"></path>
                <path d="M57,102 L74,102 L74,106 L57,106 L57,102 Z M57,96 L74,96 L74,100 L57,100 L57,96 Z M57,90 L74,90 L74,94 L57,94 L57,90 Z M57,84 L74,84 L74,88 L57,88 L57,84 Z M57,78 L74,78 L74,82 L57,82 L57,78 Z M57,72 L74,72 L74,76 L57,76 L57,72 Z M57,66 L74,66 L74,70 L57,70 L57,66 Z" id="Shape" fill="#CAE3FF"></path>
                <path d="M57,60 L74,60 L74,64 L57,64 L57,60 Z M57,54 L74,54 L74,58 L57,58 L57,54 Z M57,48 L74,48 L74,52 L57,52 L57,48 Z" id="Shape" fill="#B9D5F4"></path>
                <polygon id="Path" fill="#CAE3FF" points="76 102 93 102 93 106 76 106"></polygon>
                <polygon id="Path" fill="#B9D5F4" points="76 96 93 96 93 100 76 100"></polygon>
            </g>
            <path d="M292.034,64.9356307 C296.498,71.6166307 299.838,79.3186307 302.057,88.0386307 C304.207,96.4926307 305.524,107.300631 306.008,120.461631 C304.106,116.466631 302.387,113.464631 300.854,111.451631 C299.962053,110.276006 298.945093,109.200704 297.821,108.244631 C295.488903,106.265125 292.346168,105.529971 289.378,106.269631 C287.112,106.835631 284.82,107.803631 282.501,109.179631 C278.879,111.328631 273.411,115.533631 266.101,121.799631 C267.798,110.242631 270.821,99.6526307 275.175,90.0316307 C279.595,80.2656307 285.213,71.8996307 292.034,64.9356307 L292.034,64.9356307 Z" id="Path" stroke="#000000" fill="#CAE3FF" fill-rule="nonzero"></path>
            <polygon id="Path" fill="#5092DB" fill-rule="nonzero" points="291.67 73.1446307 292.872 89.9216307 298.248 92.0336307 293.117 94.1386307 293.329 100.393631 290.004 94.4736307 285.693 99.7246307 287.04 93.6076307 282.309 90.6396307 287.957 89.4916307"></polygon>
            <g id="Group" transform="translate(79.571000, 32.244631)" stroke="#000000">
                <polygon id="Path" fill="#FFFFFF" fill-rule="nonzero" points="63.934 25.174 82.004 31.046 79.841 37.703 61.771 31.832"></polygon>
                <polygon id="Path" fill="#5092DB" fill-rule="nonzero" points="79.46 29.168 82.313 30.095 79.532 38.655 76.679 37.727"></polygon>
                <polygon id="Path" fill="#FFFFFF" fill-rule="nonzero" points="31.265 12.457 65.503 23.58 62.103 34.042 27.866 22.917"></polygon>
                <polygon id="Path" fill="#FFFFFF" fill-rule="nonzero" points="15.715 5.301 33.785 11.173 29.15 25.439 11.08 19.567"></polygon>
                <polygon id="Path" fill="#5092DB" fill-rule="nonzero" points="5.871 -2.55351296e-15 18.235 4.017 12.364 22.087 -2.55351296e-15 18.07"></polygon>
                <path d="M44.929,28.205 L25.929,89.205 M44.929,28.205 L45.929,89.205 M44.929,28.205 L65.929,89.205" id="Shape" stroke-linecap="square"></path>
                <circle id="Oval" fill="#90BDEE" fill-rule="nonzero" cx="44.929" cy="28.205" r="4"></circle>
            </g>
            <g id="Group" transform="translate(369.500030, 47.449706) rotate(-17.000000) translate(-369.500030, -47.449706) translate(331.500030, 9.449706)">
                <circle id="Oval" stroke="#000000" fill="#ABCFF5" cx="38" cy="38" r="38"></circle>
                <g id="Clipped" transform="translate(0.500000, 0.500000)">
                    <mask id="mask-2" fill="white">
                        <use xlink:href="#path-1"></use>
                    </mask>
                    <g id="a"></g>
                    <path d="M-9,12 L88,12 L88,22 L-9,22 L-9,12 Z M-9,28 L88,28 L88,54 L-9,54 L-9,28 Z M-9,61 L88,61 L88,66 L-9,66 L-9,61 Z" id="Shape" fill="#90BDEE" fill-rule="nonzero" mask="url(#mask-2)"></path>
                </g>
                <g id="Clipped" transform="translate(0.500000, 0.500000)">
                    <mask id="mask-4" fill="white">
                        <use xlink:href="#path-3"></use>
                    </mask>
                    <g id="a"></g>
                    <ellipse id="Oval" fill="#80AFE2" fill-rule="nonzero" mask="url(#mask-4)" cx="27.5" cy="45" rx="15.5" ry="6"></ellipse>
                </g>
            </g>
            <polygon id="Path" stroke="#000000" fill="#CAE3FF" fill-rule="nonzero" points="323.5 37.4496307 331.5 37.4496307 331.5 121.449631 323.5 121.449631"></polygon>
            <g id="Group" transform="translate(327.500000, 67.449631)" fill-rule="nonzero" stroke="#000000">
                <polygon id="Path" fill="#90BDEE" points="75.12 0 76.878 8 32.122 8 33.881 0 75.119 0"></polygon>
                <rect id="Rectangle" fill="#CAE3FF" x="0" y="8" width="92" height="45" rx="1"></rect>
                <path d="M2,6 L10,6 L10,8 L2,8 L2,6 Z M84,6 L88,6 L88,8 L84,8 L84,6 Z" id="Shape" fill="#5092DB"></path>
                <polygon id="Path" fill="#FFFFFF" points="3 11 16 11 16 15 3 15"></polygon>
                <polygon id="Path" fill="#90BDEE" points="0 18 92 18 92 45 0 45"></polygon>
                <g transform="translate(31.000000, 4.000000)" id="Oval">
                    <circle fill="#FFFFFF" cx="23.5" cy="23.5" r="23.5"></circle>
                    <circle fill="#90BDEE" cx="23.5" cy="23.5" r="18.5"></circle>
                    <circle fill="#5092DB" cx="23.5" cy="23.5" r="5.5"></circle>
                </g>
            </g>
            <g id="Group" transform="translate(510.999963, 96.449589) rotate(-8.000000) translate(-510.999963, -96.449589) translate(439.499963, 80.449589)" stroke="#000000">
                <ellipse id="Oval" fill="#5092DB" fill-rule="nonzero" cx="71.5" cy="4.5" rx="7.5" ry="4.5"></ellipse>
                <polygon id="Path" fill="#80AFE2" fill-rule="nonzero" points="60 5 83 5 83 32 60 32"></polygon>
                <path d="M41.962,7 L50,7 L50,27 L41.962,27 L41.962,7 Z M33.57,7 L41.608,7 L41.608,27 L33.57,27 L33.57,7 Z M25.177,7 L33.215,7 L33.215,27 L25.177,27 L25.177,7 Z M16.785,7 L24.823,7 L24.823,27 L16.785,27 L16.785,7 Z M8.392,7 L16.43,7 L16.43,27 L8.392,27 L8.392,7 Z M0,7 L8.038,7 L8.038,27 L0,27 L0,7 Z" id="Shape" fill="#ABCFF5" fill-rule="nonzero"></path>
                <polygon id="Path" points="0 13.563 50 13.563 50 20.438 0 20.438"></polygon>
                <path d="M134.962,7 L143,7 L143,27 L134.962,27 L134.962,7 Z M126.57,7 L134.608,7 L134.608,27 L126.57,27 L126.57,7 Z M118.177,7 L126.215,7 L126.215,27 L118.177,27 L118.177,7 Z M109.785,7 L117.823,7 L117.823,27 L109.785,27 L109.785,7 Z M101.392,7 L109.43,7 L109.43,27 L101.392,27 L101.392,7 Z M93,7 L101.038,7 L101.038,27 L93,27 L93,7 Z" id="Shape" fill="#ABCFF5" fill-rule="nonzero"></path>
                <polygon id="Path" points="93 13.563 143 13.563 143 20.438 93 20.438"></polygon>
            </g>
            <path d="M444.015,32.8606307 C443.77,34.6036307 443.795,36.0806307 444.089,37.2946307 C444.383,38.5066307 444.858,39.5836307 445.513,40.5246307 C446.169,41.4646307 446.977,42.3246307 447.937,43.1066307 C448.898,43.8876307 449.925,44.6986307 451.019,45.5386307 C453.099,47.1236307 454.601,48.7186307 455.527,50.3226307 C456.453,51.9276307 456.787,53.6406307 456.531,55.4626307 C456.387,56.4926307 456.085,57.4196307 455.626,58.2436307 C455.197322,59.0305535 454.62632,59.7310824 453.942,60.3096307 C453.280514,60.861501 452.511101,61.2691978 451.683,61.5066307 C450.841,61.7516307 449.983,61.8136307 449.113,61.6906307 C447.607,61.4796307 446.269,60.7256307 445.098,59.4306307 C443.927,58.1346307 443.186,56.4346307 442.876,54.3306307 C442.797768,53.7825815 442.754016,53.2301619 442.745,52.6766307 L442.725,51.3106307 C442.718,50.9256307 442.671,50.6166307 442.583,50.3816307 C442.495,50.1476307 442.312,50.0106307 442.035,49.9716307 C441.44,49.8876307 441.057,50.4606307 440.885,51.6886307 C440.865695,51.8578178 440.851688,52.0275675 440.843,52.1976307 C440.817043,52.5469256 440.778351,52.8951572 440.727,53.2416307 C440.642089,53.8360357 440.538705,54.4276552 440.417,55.0156307 C440.288,55.6436307 440.177,56.2946307 440.082,56.9676307 C439.842,58.6716307 440.475,60.0626307 441.979,61.1426307 C443.484,62.2226307 445.543,62.9466307 448.157,63.3136307 C449.821,63.5476307 451.399,63.4556307 452.891,63.0396307 C454.340878,62.645071 455.695113,61.9591068 456.871,61.0236307 C458.031,60.0966307 459.001,58.9406307 459.781,57.5556307 C460.562,56.1706307 461.075,54.6066307 461.32,52.8636307 C461.554,51.1996307 461.542,49.7036307 461.284,48.3746307 C461.034417,47.0660776 460.542654,45.8156429 459.834,44.6876307 C459.124,43.5576307 458.214,42.4906307 457.102,41.4856307 C455.870967,40.3853192 454.579636,39.3543909 453.234,38.3976307 C451.472,37.1406307 450.215,35.9536307 449.463,34.8376307 C448.711,33.7226307 448.446,32.3726307 448.669,30.7876307 C448.936,28.8876307 449.651,27.4626307 450.815,26.5156307 C451.978,25.5676307 453.451,25.2196307 455.233,25.4696307 C456.619,25.6646307 457.63,26.2306307 458.266,27.1696307 C458.902,28.1066307 459.426,29.4116307 459.836,31.0856307 C460.127,32.1756307 460.304,32.9986307 460.368,33.5536307 C460.431,34.1076307 460.681,34.4156307 461.117,34.4766307 C461.632,34.5486307 461.947,34.1696307 462.065,33.3366307 C462.615,29.4166307 462.761,27.2346307 462.499,26.7946307 C462.272,26.3986307 461.546,25.8926307 460.319,25.2756307 C459.093,24.6596307 457.649,24.2346307 455.985,24.0006307 C454.361,23.7716307 452.87,23.8146307 451.513,24.1296307 C450.156,24.4436307 448.958,24.9926307 447.919,25.7756307 C446.88,26.5586307 446.024,27.5486307 445.351,28.7466307 C444.678,29.9446307 444.232,31.3166307 444.015,32.8606307 L444.015,32.8606307 Z M473.875,39.1176307 C473.992,38.2856307 473.852,37.8416307 473.456,37.7856307 C473.139,37.7416307 472.682,37.9806307 472.083,38.5016307 C471.485,39.0236307 470.556,39.5996307 469.296,40.2316307 C468.296,40.7366307 467.473,41.0556307 466.828,41.1866307 C466.184,41.3186307 465.828,41.6216307 465.761,42.0966307 C465.706,42.4936307 465.815,42.7206307 466.09,42.7796307 C466.364,42.8386307 466.663,42.9406307 466.986,43.0866307 C467.308,43.2336307 467.583,43.5046307 467.81,43.8996307 C468.038,44.2956307 468.076,45.0276307 467.926,46.0976307 L464.151,72.9536307 C464.04,73.7456307 463.871,74.3076307 463.641,74.6386307 C463.413,74.9706307 463.028,75.1986307 462.485,75.3246307 C461.858,75.4786307 461.326,75.5246307 460.89,75.4646307 C460.455,75.4026307 460.198,75.6496307 460.12,76.2046307 C460.03,76.8376307 460.343,77.2046307 461.056,77.3046307 C461.61,77.3826307 462.292,77.4176307 463.101,77.4106307 C464.024145,77.4114543 464.945975,77.4803075 465.859,77.6166307 C466.889,77.7606307 467.841,77.9556307 468.716,78.1996307 C469.536625,78.4324051 470.371794,78.6104631 471.216,78.7326307 C472.048,78.8496307 472.502,78.6306307 472.58,78.0766307 C472.63,77.7196307 472.585,77.4706307 472.443,77.3296307 C472.276027,77.1744624 472.073384,77.0628375 471.853,77.0046307 C471.601,76.9286307 471.289,76.8446307 470.919,76.7516307 C470.521115,76.6467731 470.145425,76.4709543 469.81,76.2326307 C469.363,75.9676307 469.104,75.6486307 469.036,75.2756307 C468.967,74.9026307 468.983,74.3596307 469.083,73.6456307 L470.328,65.2176307 L470.591,65.0726307 C472.03418,66.2007754 473.752303,66.9233052 475.568,67.1656307 C477.35,67.4156307 479.026,67.2786307 480.595,66.7516307 C482.163,66.2246307 483.575,65.3726307 484.831,64.1966307 C486.087,63.0196307 487.141,61.5616307 487.991,59.8236307 C488.841,58.0846307 489.422,56.1066307 489.734,53.8886307 C490.018,51.8686307 490.019,49.9896307 489.738,48.2536307 C489.457,46.5176307 488.961,45.0136307 488.251,43.7436307 C487.541,42.4716307 486.637,41.4356307 485.537,40.6356307 C484.475548,39.8501634 483.234613,39.3424454 481.927,39.1586307 C480.66,38.9806307 479.454,39.0836307 478.309,39.4686307 C477.165,39.8526307 475.994,40.5666307 474.797,41.6096307 L474.103,42.2396307 C473.877,42.4096307 473.705,42.4866307 473.586,42.4696307 C473.466,42.4526307 473.426,42.3056307 473.466,42.0296307 L473.876,39.1176307 L473.875,39.1176307 Z M471.197,59.0376307 L472.75,47.9876307 C473.028,46.0066307 473.602,44.5826307 474.471,43.7146307 C475.341,42.8476307 476.607,42.5306307 478.271,42.7646307 C480.528,43.0816307 482.263,44.3146307 483.476,46.4646307 C484.689,48.6146307 485.047,51.4526307 484.552,54.9776307 C484.318,56.6416307 483.914,58.1496307 483.34,59.5026307 C482.766,60.8566307 482.062,61.9896307 481.226,62.9026307 C480.391,63.8146307 479.459,64.4816307 478.431,64.9026307 C477.402,65.3226307 476.314,65.4526307 475.165,65.2916307 C473.66,65.0796307 472.555,64.4606307 471.851,63.4316307 C471.148,62.4046307 470.929,60.9396307 471.197,59.0386307 L471.197,59.0376307 Z M509.634,49.9596307 C509.780005,48.9774942 509.858523,47.9865052 509.869,46.9936307 C509.87,46.1246307 509.713,45.3756307 509.397,44.7456307 C509.082,44.1156307 508.559,43.5976307 507.828,43.1926307 C507.098,42.7866307 506.098,42.4946307 504.831,42.3166307 C503.286,42.0996307 501.813,42.1656307 500.411,42.5136307 C499.009,42.8616307 497.765,43.3736307 496.681,44.0496307 C495.596,44.7246307 494.717,45.5196307 494.043,46.4356307 C493.369,47.3506307 492.971,48.2436307 492.848,49.1156307 C492.804,49.4316307 492.876,49.7056307 493.067,49.9336307 C493.257,50.1626307 493.51,50.2986307 493.827,50.3436307 C495.015,50.5106307 495.925,50.2846307 496.557,49.6666307 C497.19,49.0486307 497.793,48.2756307 498.368,47.3466307 C499.101,46.1566307 499.813,45.2566307 500.505,44.6466307 C501.196,44.0366307 502.057,43.8046307 503.087,43.9496307 C504.117,44.0946307 504.707,44.5616307 504.859,45.3496307 C505.011,46.1396307 504.969,47.3656307 504.736,49.0296307 L504.143,53.2476307 C504.082,53.6826307 504.009,53.9856307 503.925,54.1556307 C503.84,54.3256307 503.628,54.4676307 503.289,54.5816307 L501.695,55.1446307 C500.276006,55.6167792 498.877443,56.1482464 497.503,56.7376307 C496.234,57.2856307 495.127,57.9076307 494.181,58.6026307 C493.235,59.2976307 492.474,60.1106307 491.9,61.0396307 C491.325,61.9686307 490.945,63.0866307 490.762,64.3936307 C490.55,65.8986307 490.771,67.1316307 491.423,68.0916307 C492.076,69.0516307 493.036,69.6216307 494.303,69.7986307 C495.382164,69.9593423 496.484672,69.7866394 497.463,69.3036307 C498.570106,68.7560685 499.646688,68.1488427 500.688,67.4846307 L502.086,66.5906307 L502.443,66.6406307 C502.689,68.0486307 503.102,69.1366307 503.68,69.9046307 C504.26,70.6726307 505.063,71.1296307 506.093,71.2746307 C506.569,71.3406307 507.116,71.2566307 507.735,71.0206307 C508.353471,70.7842935 508.944302,70.4811656 509.497,70.1166307 C510.020304,69.7770025 510.511062,69.389685 510.963,68.9596307 C511.383,68.5536307 511.616,68.1926307 511.66,67.8756307 C511.744,67.2816307 511.548,66.9516307 511.073,66.8846307 C510.716,66.8346307 510.332,66.9826307 509.92,67.3286307 C509.507,67.6746307 509.084,67.8166307 508.648,67.7556307 C507.974,67.6606307 507.603,67.2856307 507.534,66.6296307 C507.464,65.9736307 507.519,65.0116307 507.697,63.7436307 L509.634,49.9596307 L509.634,49.9596307 Z M503.668,57.0586307 L503.008,61.7526307 C502.898,62.5446307 502.668,63.2396307 502.322,63.8366307 C502.004184,64.3987879 501.595298,64.9043189 501.112,65.3326307 C500.652,65.7326307 500.166,66.0286307 499.654,66.2186307 C499.143,66.4086307 498.649,66.4716307 498.174,66.4046307 C497.501,66.3096307 496.998,65.9366307 496.665,65.2846307 C496.333,64.6316307 496.247,63.7306307 496.409,62.5816307 C496.799,59.8086307 498.245,57.9926307 500.749,57.1326307 L502.844,56.4576307 C503.144,56.3376307 503.352,56.2876307 503.471,56.3036307 C503.669,56.3316307 503.735,56.5836307 503.668,57.0586307 L503.668,57.0586307 Z M527.42,45.5516307 C525.678,45.3066307 524.026,45.4186307 522.466,45.8856307 C520.908726,46.3511744 519.472376,47.1522944 518.258,48.2326307 C517.014,49.3306307 515.96,50.7176307 515.098,52.3936307 C514.237,54.0696307 513.65,56.0176307 513.338,58.2356307 C513.038,60.3746307 513.044,62.3446307 513.356,64.1456307 C513.668,65.9466307 514.235,67.5206307 515.056,68.8676307 C515.876,70.2156307 516.914,71.3106307 518.168,72.1536307 C519.423,72.9956307 520.843,73.5286307 522.428,73.7516307 C523.616,73.9186307 524.753,73.8766307 525.838,73.6246307 C526.924,73.3736307 527.871,73.0316307 528.678,72.6006307 C529.486,72.1686307 530.138,71.6946307 530.635,71.1786307 C531.132,70.6626307 531.405,70.2266307 531.455,69.8706307 C531.528,69.3556307 531.307,69.0616307 530.792,68.9896307 C530.672,68.9726307 530.467,69.0746307 530.172,69.2966307 C529.879,69.5166307 529.502,69.7566307 529.042,70.0166307 C528.582,70.2746307 528.026,70.4886307 527.376,70.6606307 C526.726,70.8306307 526.024,70.8636307 525.272,70.7586307 C524.083,70.5916307 523.032,70.1706307 522.117,69.4966307 C521.201,68.8226307 520.448,67.9296307 519.857,66.8166307 C519.267,65.7036307 518.867,64.3846307 518.657,62.8606307 C518.447,61.3366307 518.472,59.6436307 518.734,57.7816307 C518.99,55.9596307 519.406,54.3616307 519.984,52.9896307 C520.56,51.6166307 521.216,50.4666307 521.952,49.5396307 C522.689,48.6136307 523.47,47.9356307 524.298,47.5066307 C525.126,47.0766307 525.896,46.9136307 526.609,47.0136307 C527.164,47.0916307 527.611,47.2856307 527.951,47.5956307 C528.291,47.9056307 528.589,48.3016307 528.845,48.7816307 C529.101,49.2616307 529.321,49.8486307 529.507,50.5416307 C529.692,51.2336307 529.91,51.9816307 530.161,52.7836307 C530.514,54.0046307 530.968,54.6536307 531.523,54.7326307 C531.998,54.7986307 532.444,54.4276307 532.861,53.6176307 C533.278,52.8076307 533.592,51.6506307 533.804,50.1446307 C533.876,49.6306307 533.754,49.1286307 533.439,48.6396307 C533.124,48.1516307 532.682,47.7056307 532.113,47.3016307 C531.543,46.8986307 530.857,46.5396307 530.053,46.2246307 C529.204959,45.8982816 528.321605,45.6724087 527.421,45.5516307 L527.42,45.5516307 Z M545.302,56.8506307 L541.44,56.3076307 C540.965,56.2406307 540.752,56.0296307 540.802,55.6726307 L540.819,55.5536307 L541.131,54.6286307 C541.676,53.0486307 542.539,51.7966307 543.719,50.8716307 C544.899,49.9476307 546.182,49.5816307 547.569,49.7776307 C548.836,49.9556307 549.818,50.5176307 550.513,51.4636307 C551.208,52.4096307 551.486,53.3776307 551.347,54.3676307 C551.163,55.6746307 550.595,56.4836307 549.642,56.7936307 C548.69,57.1036307 547.243,57.1236307 545.302,56.8506307 L545.302,56.8506307 Z M553.837,59.9286307 C554.55,60.0286307 555.076,60.0216307 555.415,59.9086307 C555.755,59.7936307 555.96,59.4786307 556.032,58.9646307 C556.212633,57.7442008 556.150786,56.5001277 555.85,55.3036307 C555.560466,54.1515841 555.042938,53.0692635 554.328,52.1206307 C553.613,51.1716307 552.697,50.3666307 551.578,49.7046307 C550.459,49.0426307 549.187,48.6106307 547.761,48.4106307 C546.097,48.1766307 544.515,48.2976307 543.014,48.7736307 C541.509515,49.2513506 540.126202,50.0489303 538.959,51.1116307 C537.757,52.1956307 536.744,53.5776307 535.922,55.2596307 C535.1,56.9416307 534.536,58.8716307 534.23,61.0496307 C533.924,63.2296307 533.906,65.2256307 534.176,67.0416307 C534.446,68.8566307 534.97,70.4446307 535.748,71.8066307 C536.526,73.1676307 537.532,74.2686307 538.768,75.1086307 C540.003,75.9486307 541.432,76.4826307 543.056,76.7116307 C544.601,76.9286307 546.024,76.8656307 547.324,76.5236307 C548.624,76.1806307 549.769,75.7256307 550.757,75.1576307 C551.747,74.5896307 552.528,73.9826307 553.104,73.3376307 C553.679,72.6906307 553.998,72.1496307 554.059,71.7136307 C554.12,71.2786307 553.992,71.0386307 553.675,70.9936307 C553.557,70.9766307 553.324,71.1256307 552.976,71.4406307 C552.629,71.7556307 552.158,72.0926307 551.562,72.4536307 C550.966,72.8136307 550.237,73.1156307 549.374,73.3576307 C548.512,73.6006307 547.527,73.6436307 546.418,73.4876307 C543.922,73.1376307 542.042,71.7826307 540.778,69.4236307 C539.514,67.0636307 539.141,64.0436307 539.659,60.3596307 L539.859,58.9336307 C539.915,58.5376307 539.991,58.2856307 540.087,58.1776307 C540.183,58.0696307 540.389,58.0376307 540.706,58.0826307 L553.836,59.9286307 L553.837,59.9286307 Z M567.448,51.6016307 C567.897,49.8466307 568.264,48.3836307 568.55,47.2116307 C568.836,46.0406307 569.023,45.1376307 569.112,44.5046307 C569.257,43.4746307 569.095,42.6136307 568.627,41.9216307 C568.159,41.2296307 567.469,40.8196307 566.558,40.6916307 C565.647,40.5636307 564.879,40.7786307 564.256,41.3376307 C563.632,41.8956307 563.236,42.7696307 563.069,43.9576307 C563.009,44.3936307 562.958,45.1846307 562.918,46.3296307 C562.878,47.4756307 562.824,49.0126307 562.754,50.9416307 L562.104,67.2096307 C562.122,67.6566307 562.141,68.0226307 562.162,68.3086307 C562.182,68.5946307 562.331,68.7566307 562.608,68.7956307 C562.886,68.8346307 563.083,68.7206307 563.201,68.4546307 C563.32,68.1886307 563.449,67.8436307 563.589,67.4186307 L567.449,51.6016307 L567.448,51.6016307 Z M562.108,72.3606307 C561.434,72.2656307 560.788,72.4776307 560.17,72.9966307 C559.552,73.5166307 559.178,74.2306307 559.05,75.1416307 C558.922,76.0526307 559.084,76.8436307 559.535,77.5116307 C559.986,78.1816307 560.549,78.5636307 561.222,78.6586307 C561.895,78.7526307 562.542,78.5406307 563.16,78.0216307 C563.778,77.5026307 564.15,76.7876307 564.279,75.8766307 C564.407,74.9666307 564.245,74.1756307 563.794,73.5066307 C563.343,72.8366307 562.781,72.4546307 562.107,72.3606307 L562.108,72.3606307 Z" id="Shape" stroke="#000000" fill="#ABCFF5" fill-rule="nonzero"></path>
            <g id="Group" transform="translate(493.227000, 16.674632)" fill-rule="nonzero" stroke="#000000">
                <polygon id="Path" fill="#5092DB" points="32.211 10.2689984 41.923 5.10399839 105.303 124.301998 95.59 129.466998"></polygon>
                <path d="M38.945,11.2179984 C61.333,-0.686001613 84.631,-3.10200161 98.056,3.90299839 C82.233,6.36999839 63.166,12.8939984 43.918,23.1279984 C25.98,32.6659984 10.801,43.8759984 0,54.8559984 C2.384,40.0769984 17.188,22.7859984 38.945,11.2179984 Z" id="Path" fill="#90BDEE"></path>
            </g>
            <path d="M544.852,108.619631 C545.322,108.700631 545.395,108.773631 545.442,108.863631 L546.669,111.193631 C546.89489,111.622259 547.313905,111.915384 547.794,111.980631 L550.424,112.339631 C550.617047,112.364362 550.777998,112.499287 550.836049,112.685053 C550.894101,112.870818 550.838615,113.07338 550.694,113.203631 L548.876,114.865631 C548.494498,115.214083 548.319186,115.734351 548.412,116.242631 L548.852,118.651631 C548.887175,118.837591 548.813902,119.027417 548.662904,119.141514 C548.511906,119.255611 548.309284,119.274256 548.14,119.189631 L545.663,117.969631 C545.244995,117.763661 544.755005,117.763661 544.337,117.969631 L541.86,119.189631 C541.690637,119.274822 541.487593,119.256461 541.33626,119.142271 C541.184926,119.028081 541.111554,118.83787 541.147,118.651631 L541.588,116.242631 C541.680814,115.734351 541.505502,115.214083 541.124,114.865631 L539.305,113.203631 C539.160385,113.07338 539.104899,112.870818 539.162951,112.685053 C539.221002,112.499287 539.381953,112.364362 539.575,112.339631 L542.206,111.980631 C542.686095,111.915384 543.10511,111.622259 543.331,111.193631 L544.558,108.863631 C544.619456,108.746065 544.72528,108.657879 544.852,108.618631 L544.852,108.619631 Z M444.852,71.6196307 C445.322,71.7006307 445.395,71.7736307 445.442,71.8636307 L446.669,74.1936307 C446.89489,74.6222591 447.313905,74.9153836 447.794,74.9806307 L450.424,75.3396307 C450.617047,75.364362 450.777998,75.4992869 450.836049,75.6850527 C450.894101,75.8708185 450.838615,76.0733797 450.694,76.2036307 L448.876,77.8656307 C448.494498,78.2140828 448.319186,78.7343508 448.412,79.2426307 L448.852,81.6516307 C448.887175,81.8375908 448.813902,82.0274174 448.662904,82.1415142 C448.511906,82.2556109 448.309284,82.2742558 448.14,82.1896307 L445.663,80.9696307 C445.244995,80.7636608 444.755005,80.7636608 444.337,80.9696307 L441.86,82.1896307 C441.690637,82.2748216 441.487593,82.2564612 441.33626,82.1422709 C441.184926,82.0280806 441.111554,81.8378696 441.147,81.6516307 L441.588,79.2426307 C441.680814,78.7343508 441.505502,78.2140828 441.124,77.8656307 L439.305,76.2036307 C439.160385,76.0733797 439.104899,75.8708185 439.162951,75.6850527 C439.221002,75.4992869 439.381953,75.364362 439.575,75.3396307 L442.206,74.9806307 C442.686095,74.9153836 443.10511,74.6222591 443.331,74.1936307 L444.558,71.8636307 C444.619456,71.7460653 444.72528,71.6578791 444.852,71.6186307 L444.852,71.6196307 Z M580.852,48.6196307 C581.322,48.7006307 581.395,48.7736307 581.442,48.8636307 L582.669,51.1936307 C582.89489,51.6222591 583.313905,51.9153836 583.794,51.9806307 L586.424,52.3396307 C586.617047,52.364362 586.777998,52.4992869 586.836049,52.6850527 C586.894101,52.8708185 586.838615,53.0733797 586.694,53.2036307 L584.876,54.8656307 C584.494498,55.2140828 584.319186,55.7343508 584.412,56.2426307 L584.852,58.6516307 C584.887175,58.8375908 584.813902,59.0274174 584.662904,59.1415142 C584.511906,59.2556109 584.309284,59.2742558 584.14,59.1896307 L581.663,57.9696307 C581.244995,57.7636608 580.755005,57.7636608 580.337,57.9696307 L577.86,59.1896307 C577.690637,59.2748216 577.487593,59.2564612 577.33626,59.1422709 C577.184926,59.0280806 577.111554,58.8378696 577.147,58.6516307 L577.588,56.2426307 C577.680814,55.7343508 577.505502,55.2140828 577.124,54.8656307 L575.305,53.2036307 C575.160385,53.0733797 575.104899,52.8708185 575.162951,52.6850527 C575.221002,52.4992869 575.381953,52.364362 575.575,52.3396307 L578.206,51.9806307 C578.686095,51.9153836 579.10511,51.6222591 579.331,51.1936307 L580.558,48.8636307 C580.619456,48.7460653 580.72528,48.6578791 580.852,48.6186307 L580.852,48.6196307 Z" id="Shape" stroke="#000000" fill="#FFFFFF" fill-rule="nonzero"></path>
        </g>
    </g>
</svg>