<svg xmlns="http://www.w3.org/2000/svg" viewBox="0 0 591 115">
  <g fill="none" fill-rule="evenodd">
    <g stroke="#000" transform="translate(98.5 -8.903)">
      <g stroke-linecap="square">
        <path d="m0 111.403 41 5-5.806-25.5L71.5 105.382l4.55-60.979 9.659 20.291 33.335-25.291-4.468-18.5L129.41 2.406"/>
        <path d="m119 39.403 37 8 24.519-17.5L184 57.32l19 20.083 29.495 19.5 38.982 4.056-14.282 23.444M86 64.403l21 19-13.782 25.383 16.432 16.367"/>
        <path d="m107 83.403 61-14-2.218 25.375 29.456 20.128-4.784 12.267M115 21.403l-23-5L79.779 5.542M181 29.403l10-13 17.727.707L221.094 0M209 17.403l11 13m-29-14-7-9m87 94 22 23"/>
      </g>
      <circle cx="156" cy="47.403" r="1" fill="#000"/>
      <circle cx="115" cy="21.403" r="1" fill="#000"/>
      <circle cx="92" cy="16.403" r="1" fill="#000"/>
      <circle cx="184" cy="57.403" r="1" fill="#000"/>
      <circle cx="191" cy="16.403" r="1" fill="#000"/>
      <circle cx="115" cy="21.403" r="1" fill="#000"/>
      <circle cx="203" cy="77.403" r="1" fill="#000"/>
      <circle cx="232" cy="96.403" r="1" fill="#000"/>
      <circle cx="271" cy="101.403" r="1" fill="#000"/>
      <circle cx="181" cy="29.403" r="1" fill="#000"/>
      <circle cx="209" cy="17.403" r="1" fill="#000"/>
      <circle cx="119" cy="39.403" r="1" fill="#000"/>
      <circle cx="76" cy="43.403" r="1" fill="#000"/>
      <circle cx="86" cy="64.403" r="1" fill="#000"/>
      <circle cx="107" cy="83.403" r="1" fill="#000"/>
      <circle cx="168" cy="69.403" r="1" fill="#000"/>
      <circle cx="166" cy="94.403" r="1" fill="#000"/>
      <circle cx="195" cy="115.403" r="1" fill="#000"/>
      <circle cx="93" cy="108.403" r="1" fill="#000"/>
      <circle cx="71" cy="105.403" r="1" fill="#000"/>
      <circle cx="35" cy="90.403" r="1" fill="#000"/>
      <circle cx="41" cy="116.403" r="1" fill="#000"/>
    </g>
    <path fill="#FFF" stroke="#000" d="M565 4.5c.55 0 .959.364 1.316.867.618.87 1.073 2.18 1.534 3.48.733 2.066 1.516 4.053 2.72 4.687 1.753.923 3.574 1.477 5.265 1.988 2.103.636 4.006 1.186 5.245 2.414.9.892 1.42 2.154 1.42 4.064 0 4.832-1.959 9.207-5.126 12.374A17.445 17.445 0 0 1 565 39.5a17.445 17.445 0 0 1-12.374-5.126A17.445 17.445 0 0 1 547.5 22c0-.851-.047-1.715-.116-2.584l-.054-.641c-.04-.461-.085-.921-.13-1.38l-.087-.896-.056-.594c-.323-3.553-.378-6.874 2.25-8.929C552.304 4.635 560.914 4.5 565 4.5Z"/>
    <g stroke="#000">
      <path fill="#EEDBA6" d="M496 35v19h95V35z"/>
      <path fill="#FFFDEE" d="M512 35v19h19V35z"/>
      <path stroke-linecap="square" d="M535 35v19m2-19v19"/>
      <path fill="#FDF5D0" d="M507 54v8h84v-8zm0-28v9h84v-9zm0 36v8h84v-8z"/>
      <path fill="#F4E7BA" d="M505 70v19h86V70z"/>
      <path fill="#F3D295" d="M491 89v26h100V89z"/>
      <path fill="#EEDBA6" d="M517 78v6h39v-6zm45 0v6h26v-6z"/>
      <path stroke-linecap="square" d="M581 89v25m-81-25v25"/>
    </g>
    <g stroke="#000" transform="rotate(-21 184.19 66.907)">
      <circle cx="50.5" cy="50.5" r="50" fill="#FFF"/>
      <path fill="#FDF5D0" d="M70.02 4.659c8.922 3.826 16.515 10.173 21.891 18.15a50.255 50.255 0 0 1 8.585 27.56l-48.343.13-.503-.203Z"/>
      <path fill="#F3D295" d="M85.18 14.714c9.303 9.016 15.147 21.648 15.316 35.656l-48.355.13Z"/>
    </g>
    <g stroke="#000">
      <path fill="#FFF" d="M373.5 12.5h114v99h-114z"/>
      <path fill="#F3D295" d="M381.5 21.5h98v31h-98zm0 42h13v16h-13zm17 0h13v16h-13zm17 0h13v16h-13zm17 0h13v16h-13zm17 0h13v16h-13zm17 0h13v16h-13zm-85 23h13v16h-13zm17 0h13v16h-13zm17 0h13v16h-13zm17 0h13v16h-13zm17 0h13v16h-13zm17 0h13v16h-13z"/>
      <path fill="#FDF5D0" d="M381.5 66.5h13v13h-13zm17 0h13v13h-13zm17 0h13v13h-13zm17 0h13v13h-13zm17 0h13v13h-13zm17 0h13v13h-13zm-85 23h13v13h-13zm17 0h13v13h-13zm17 0h13v13h-13zm17 0h13v13h-13zm17 0h13v13h-13zm17 0h13v13h-13z"/>
    </g>
    <g stroke="#000">
      <path fill="#FDF5D0" d="M337.12 16.554c5.423 1.973 11.059 6.07 17.379 10.653 5.337 3.87 11.155 8.086 17.727 11.695 9.083 4.989 17.655 8.204 25.715 9.653L367.203 64.19l13.77 32.137c-7.97-1.585-16.634-4.795-25.997-9.624-5.338-2.753-10.338-5.543-15.004-8.146-8.173-4.558-15.328-8.547-21.491-10.79-7.528-2.74-13.598-4.274-18.21-4.612-3.661-.269-6.414.224-8.296 1.417l17.79-48.877c.73-1.2 1.816-2.085 3.249-2.665 1.505-.608 3.385-.881 5.636-.833 4.624.1 10.78 1.558 18.47 4.357Z"/>
      <path stroke-linecap="square" d="m309.61 16.119-39.11 106.38"/>
    </g>
    <g stroke="#000" transform="rotate(-69 125.83 -49.163)">
      <path fill="#F4E7BA" d="M60.308 8.516 32.238 63.7l3.766 5.62c-.277.495-.685.64-1.188.765-1.073.267-2.556.43-4.193.43-1.637 0-3.12-.163-4.192-.43-.503-.125-.911-.27-1.188-.436l3.764-5.952L.939 8.516h59.369Z"/>
      <ellipse cx="30.5" cy="8.5" fill="#F3D295" rx="30" ry="8"/>
    </g>
    <g stroke="#000" transform="rotate(19 66.414 280.631)">
      <circle cx="29.5" cy="28.798" r="4" fill="#F3D295"/>
      <ellipse cx="29.5" cy="28.798" rx="29" ry="6"/>
      <ellipse cx="29.5" cy="28.798" rx="29" ry="6" transform="rotate(120 29.5 28.798)"/>
      <ellipse cx="29.5" cy="28.798" rx="29" ry="6" transform="rotate(60 29.5 28.798)"/>
      <circle cx="23.5" cy="48.798" r="3" fill="#F3D295"/>
      <circle cx="47.5" cy="24.798" r="3" fill="#F3D295"/>
      <circle cx="16.5" cy="16.798" r="3" fill="#F3D295"/>
    </g>
    <path fill="#F3D295" fill-rule="nonzero" d="M18.17 14.178 21.55 3.12l2.3.704-1.372 4.49 4.573 1.399 1.373-4.491 2.3.703-3.38 11.058-2.3-.703 1.54-5.043-4.572-1.398-1.542 5.043zm15.972 3.92c-.955.486-1.853.601-2.695.344-.717-.22-1.233-.617-1.547-1.192-.314-.576-.365-1.212-.152-1.91.277-.906.853-1.493 1.728-1.762.875-.27 1.987-.198 3.337.215l.59.18.228-.747c.26-.851-.095-1.426-1.066-1.723-.862-.263-1.808-.286-2.839-.067l.466-1.524c1.117-.072 2.166.041 3.147.341 2.147.657 2.96 1.839 2.437 3.547l-1.11 3.631c-.197.643-.088 1.027.325 1.154.075.022.175.042.3.059l-.326 1.256c-.51-.004-.946-.06-1.304-.17-.907-.277-1.38-.811-1.422-1.603l-.097-.03Zm.363-1.188.51-1.666-.523-.16c-1.43-.437-2.282-.208-2.556.689-.093.304-.067.59.076.86.144.27.367.452.671.545.518.158 1.126.069 1.822-.268Zm6.113 4.131-.622-9.16 2.331.713.484 6.618 4.088-5.22 1.599.489-5.669 7.237zm13.562 3.844c-1.146-.012-2.19-.162-3.13-.45-1.37-.419-2.332-1.138-2.887-2.157-.554-1.02-.626-2.201-.215-3.546.389-1.27 1.064-2.181 2.025-2.734.962-.553 2.038-.648 3.228-.284 1.2.367 1.961 1.014 2.283 1.94.321.926.231 2.208-.27 3.847l-5.088-1.556c-.328 1.61.292 2.655 1.86 3.134.743.227 1.632.311 2.669.252l-.476 1.554Zm-3.702-6.196 2.944.9c.427-1.4.19-2.238-.71-2.513-.917-.28-1.662.257-2.234 1.613Zm9.564 11.518 2.762-2.383-.532-9.132 2.375.726.356 6.105 4.09-4.746 1.68.514-8.475 9.606zm12.925.929c-1.28-.392-2.18-1.09-2.697-2.095-.518-1.005-.577-2.163-.176-3.473.405-1.325 1.105-2.255 2.099-2.79.994-.534 2.143-.602 3.448-.203 1.31.4 2.228 1.1 2.753 2.1.525.999.586 2.156.184 3.47-.41 1.345-1.114 2.282-2.109 2.811-.995.53-2.162.59-3.502.18Zm.46-1.371c1.27.388 2.202-.391 2.798-2.339.272-.891.32-1.648.142-2.268-.178-.621-.56-1.021-1.148-1.201-.583-.178-1.122-.06-1.616.355-.495.416-.88 1.074-1.156 1.976-.272.891-.322 1.65-.148 2.274.174.625.55 1.026 1.128 1.203Zm10.743 4.591.473-1.546c-1.071.936-2.179 1.23-3.325.879-.732-.224-1.239-.632-1.52-1.225-.282-.592-.3-1.29-.055-2.092l1.772-5.797 2.212.676-1.606 5.252c-.285.932-.116 1.492.507 1.683.697.213 1.52-.077 2.471-.87l1.579-5.163 2.211.676-2.508 8.204-2.211-.677Zm9.508 2.908 3.607-11.797 2.212.676-1.572 5.14c1.076-.935 2.184-1.228 3.324-.88.732.225 1.24.633 1.521 1.226.282.592.3 1.29.055 2.091l-1.773 5.798-2.211-.676 1.606-5.252c.285-.932.118-1.492-.5-1.68-.702-.215-1.528.074-2.479.867L95.89 37.94l-2.212-.676Zm16.558 4.759c-1.146-.012-2.189-.162-3.13-.45-1.37-.419-2.332-1.138-2.886-2.157-.555-1.019-.626-2.2-.215-3.546.388-1.27 1.063-2.181 2.024-2.734.962-.553 2.038-.648 3.228-.284 1.2.367 1.962 1.014 2.283 1.94.321.926.232 2.208-.27 3.847l-5.087-1.556c-.329 1.61.291 2.655 1.86 3.134.742.227 1.631.311 2.668.252l-.475 1.554Zm-3.702-6.196 2.944.9c.428-1.4.191-2.238-.71-2.513-.917-.28-1.661.257-2.234 1.613Zm9.937 7.441c-.954.487-1.853.602-2.695.344-.717-.219-1.232-.616-1.547-1.192-.314-.575-.365-1.211-.151-1.909.277-.906.853-1.494 1.727-1.763.875-.269 1.987-.197 3.337.216l.59.18.229-.747c.26-.852-.095-1.426-1.067-1.723-.861-.263-1.807-.286-2.838-.067l.466-1.524c1.117-.073 2.166.04 3.147.34 2.147.657 2.959 1.84 2.436 3.548l-1.11 3.63c-.196.643-.088 1.028.326 1.154.074.023.175.043.3.06l-.327 1.256c-.51-.004-.945-.06-1.304-.17-.906-.277-1.38-.812-1.421-1.603l-.098-.03Zm.364-1.188.509-1.666-.523-.16c-1.43-.437-2.281-.207-2.555.69-.093.303-.068.59.076.86.143.27.367.451.67.544.519.159 1.126.07 1.823-.268Zm4.088 3.513 2.508-8.203 2.211.676-.473 1.546c.926-.98 1.975-1.291 3.145-.934.14.043.272.1.397.17l-.603 1.973a2.678 2.678 0 0 0-.821-.439c-.882-.27-1.735-.043-2.56.68l-1.593 5.207-2.211-.676Zm11.863 3.627.473-1.547c-.921.982-1.992 1.287-3.212.914-.987-.302-1.65-.9-1.993-1.794-.342-.894-.32-1.974.067-3.24.42-1.374 1.073-2.372 1.958-2.995.885-.623 1.863-.77 2.934-.443.856.262 1.532.839 2.027 1.73l1.353-4.422 2.218.678-3.606 11.797-2.22-.678Zm1.852-6.06c-.35-.76-.829-1.233-1.436-1.419-.543-.166-1.057-.037-1.54.387-.484.424-.86 1.077-1.13 1.959-.513 1.678-.232 2.682.844 3.01.657.202 1.414-.027 2.269-.686l.993-3.25Zm-95.48-4.707c-.955.487-1.854.602-2.695.345-.718-.22-1.233-.617-1.548-1.192-.314-.576-.364-1.212-.151-1.91.277-.906.853-1.494 1.728-1.763.874-.269 1.987-.197 3.336.216l.59.18.229-.747c.26-.852-.095-1.426-1.066-1.723-.862-.263-1.808-.286-2.84-.067l.467-1.524c1.117-.073 2.166.041 3.147.341 2.147.656 2.959 1.839 2.437 3.547l-1.11 3.631c-.197.643-.088 1.027.325 1.154.075.022.175.042.3.059l-.326 1.256c-.511-.004-.946-.06-1.305-.17-.906-.277-1.38-.811-1.421-1.603l-.097-.03Zm.363-1.188.51-1.666-.524-.16c-1.43-.437-2.281-.207-2.555.69-.093.304-.068.59.076.86.143.27.367.452.67.545.519.158 1.126.069 1.823-.269Zm4.088 3.513 3.607-11.797 2.211.676-1.571 5.14c.92-.981 1.991-1.286 3.212-.913.986.302 1.651.9 1.996 1.795.344.895.323 1.975-.064 3.24-.418 1.37-1.072 2.367-1.96 2.992-.888.624-1.865.773-2.93.447-.917-.28-1.596-.858-2.036-1.733l-.665.704-1.8-.55Zm2.867-1.468c.355.762.837 1.236 1.444 1.422.543.166 1.057.036 1.541-.39.485-.427.86-1.079 1.129-1.955.513-1.679.23-2.683-.852-3.014-.652-.2-1.408.03-2.268.687l-.994 3.25Zm10.404 5.73c-1.28-.392-2.18-1.09-2.697-2.095-.518-1.005-.577-2.163-.176-3.473.405-1.325 1.104-2.255 2.098-2.79.994-.534 2.144-.602 3.449-.203 1.31.4 2.227 1.1 2.752 2.1.525.999.587 2.156.185 3.47-.411 1.345-1.114 2.282-2.11 2.811-.994.53-2.162.59-3.502.18Zm.46-1.371c1.27.388 2.202-.391 2.797-2.339.273-.891.32-1.648.143-2.268-.178-.621-.561-1.021-1.149-1.201-.582-.178-1.121-.06-1.616.356-.494.415-.88 1.073-1.155 1.975-.273.891-.322 1.65-.148 2.274.174.625.55 1.026 1.127 1.203Zm10.742 4.591.473-1.546c-1.07.936-2.178 1.23-3.324.879-.732-.224-1.24-.632-1.52-1.225-.283-.592-.3-1.29-.056-2.092l1.773-5.797 2.211.676-1.605 5.252c-.285.932-.116 1.492.506 1.683.698.213 1.521-.077 2.472-.87l1.578-5.163 2.212.676-2.508 8.204-2.212-.676Zm8.963 2.692c-.575-.007-1.014-.057-1.318-.15-1.918-.586-2.602-1.776-2.054-3.569l1.32-4.318-.919-.281.423-1.382.919.28.422-1.382 2.29.422-.5 1.637 1.755.536-.423 1.383-1.755-.537-1.232 4.027c-.307 1.006-.05 1.634.772 1.886.189.058.426.092.712.103l-.412 1.345Zm5.902 1.747.58-1.898c1.038.862 1.98 1.423 2.827 1.681.593.182 1.1.192 1.522.033.422-.16.702-.466.84-.92.11-.358.096-.694-.043-1.006-.139-.312-.455-.728-.95-1.25l-.613-.637c-.821-.86-1.357-1.609-1.61-2.244a2.907 2.907 0 0 1-.065-1.977c.278-.911.837-1.541 1.676-1.89.839-.347 1.809-.353 2.91-.016.881.27 1.836.7 2.864 1.292l-.541 1.77c-1.002-.768-1.83-1.253-2.488-1.454-.508-.156-.95-.167-1.326-.034-.375.133-.62.384-.732.752-.093.304-.067.603.077.898.144.295.461.7.952 1.214l.657.683c.883.924 1.45 1.699 1.7 2.325.249.627.263 1.3.043 2.023-.314 1.026-.941 1.714-1.881 2.064-.94.35-2.08.32-3.42-.09-.887-.271-1.88-.71-2.98-1.32Zm11.818 3.719 2.917-9.54-3.96-1.211.464-1.517 10.229 3.127-.464 1.517-3.96-1.21-2.917 9.54zm7.56 2.312 3.38-11.058 6.912 2.113-.464 1.517-4.61-1.41-.944 3.086 3.781 1.156-.452 1.48-3.781-1.157-1.041 3.407 4.96 1.517-.479 1.569zm8.935 2.731 3.38-11.058 3.048.932.283 8.591 5.12-6.94 2.674.819-3.38 11.057-2.123-.648 2.552-8.346-5.023 6.782-1.853-.567-.285-8.527-2.586 8.458zm14.336 4.383L126.16 64l2.219.678-.564 1.845-2.22-.678Zm3.176-2.452-2.22-.678.065-.21c.245-.801.86-1.498 1.848-2.09l.708-.42c.96-.573 1.535-1.17 1.725-1.793.283-.926-.158-1.568-1.324-1.924-.752-.23-1.681-.272-2.788-.126l.516-1.688c1.083.004 2.097.15 3.044.44 1.18.361 2.044.873 2.59 1.536.546.662.7 1.384.46 2.166-.219.718-.858 1.34-1.917 1.865l-.647.325c-.604.3-1.028.58-1.274.84s-.443.634-.592 1.122l-.194.635Z" opacity=".45"/>
    <g stroke="#000" transform="rotate(-36 225.86 -445.085)">
      <path fill="#FFF" d="M3.5 7.5h13V65a6.48 6.48 0 0 1-1.904 4.596A6.48 6.48 0 0 1 10 71.5a6.478 6.478 0 0 1-4.516-1.825 6.48 6.48 0 0 1-1.98-4.443L3.5 7.5Z"/>
      <path fill="#F3D295" d="M16.5 26.698V65a6.48 6.48 0 0 1-1.904 4.596A6.48 6.48 0 0 1 10 71.5a6.478 6.478 0 0 1-4.516-1.825 6.48 6.48 0 0 1-1.98-4.443L3.5 26.698c2.75.915 4.917 1.366 6.5 1.366 1.583 0 3.75-.45 6.5-1.366Z"/>
      <ellipse cx="10" cy="4.5" fill="#FFF" rx="9.5" ry="4"/>
      <ellipse cx="10" cy="5.5" fill="#FFF" rx="7.278" ry="3"/>
    </g>
    <g fill="#FFF" stroke="#000" transform="translate(111 82)">
      <ellipse cx="12.5" cy="7" rx="3" ry="2.5"/>
      <ellipse cx="3.5" cy="9" rx="3" ry="2.5"/>
      <ellipse cx="6.5" cy="2.5" rx="3" ry="2"/>
      <path stroke-linecap="square" d="m10.5 8.5 4-3m-10-4 4 2"/>
    </g>
    <g stroke="#000" transform="rotate(-10 269.376 -1138.225)">
      <rect width="44" height="75" x=".5" y=".5" fill="#FFF" rx="6"/>
      <path fill="#F4E7BA" d="M5.5 8.5h34v52h-34z"/>
      <circle cx="22.5" cy="68.5" r="4" fill="#FFF"/>
    </g>
    <path fill="#F3D295" fill-rule="nonzero" d="m288.007 92.932 3.188-11.115 6.947 1.992-.438 1.525-4.634-1.33-.89 3.103 3.8 1.09-.426 1.486-3.8-1.09-.982 3.425 4.987 1.43-.452 1.577zm9.924.334.37-1.291 8.893 2.55-.37 1.29-8.893-2.549Zm.849-2.959.372-1.299 8.892 2.55-.372 1.299-8.892-2.55Zm10.185 8.635 2.365-8.246 2.133.611-.446 1.555c.984-.975 2.077-1.29 3.278-.946.62.178 1.088.477 1.4.898.314.42.436.918.369 1.495 1.104-.94 2.201-1.254 3.293-.941 1.507.432 2.022 1.479 1.545 3.141l-1.703 5.94-2.133-.611 1.495-5.212c.28-.976.094-1.558-.557-1.744-.666-.191-1.452.103-2.358.884L316.145 101l-2.133-.611 1.494-5.212c.282-.982.095-1.566-.561-1.754-.656-.188-1.438.11-2.346.896l-1.5 5.234-2.134-.611Zm20.793 5.767c-.991-.02-1.88-.141-2.666-.367-1.317-.377-2.246-1.062-2.788-2.055-.541-.992-.621-2.154-.24-3.486.387-1.347 1.082-2.288 2.086-2.823 1.004-.536 2.2-.605 3.587-.207.67.192 1.413.521 2.228.988l-.461 1.607c-.827-.557-1.513-.913-2.058-1.07-.666-.19-1.275-.089-1.827.306-.552.394-.95 1.014-1.192 1.86-.248.866-.228 1.623.06 2.269.29.646.8 1.074 1.53 1.284.666.19 1.394.242 2.183.154l-.442 1.54Zm3.675-6.188.362-1.262a7.365 7.365 0 0 1 1.074-.57l.743-.323c1.34-.574 2.105-1.192 2.295-1.853.18-.626-.114-1.049-.88-1.268-.496-.142-1.124-.154-1.883-.036l.323-1.127a7.522 7.522 0 0 1 2.231.266c.776.223 1.345.567 1.707 1.034.362.467.463.98.302 1.541-.197.686-.886 1.266-2.067 1.74l-.645.262c-.716.288-1.17.575-1.36.862l2.989.857-.362 1.262-4.829-1.385Z" opacity=".452"/>
    <path fill="#F3D295" fill-rule="nonzero" d="M144.366 19V7.437h4.976c1.792 0 3.164.476 4.117 1.426.953.95 1.43 2.322 1.43 4.114 0 1.906-.505 3.386-1.516 4.441-1.01 1.055-2.424 1.582-4.242 1.582h-4.765Zm2.406-1.64h1.797c1.265 0 2.21-.35 2.832-1.051.622-.7.933-1.765.933-3.192 0-1.104-.25-2.023-.75-2.758-.343-.505-.757-.854-1.242-1.047-.484-.192-1.19-.289-2.117-.289h-1.453v8.336Zm13.616 1.835c-1.339 0-2.402-.405-3.191-1.215-.79-.81-1.184-1.9-1.184-3.27 0-1.384.397-2.478 1.191-3.28.795-.802 1.874-1.203 3.239-1.203 1.37 0 2.452.4 3.246 1.203.794.802 1.191 1.89 1.191 3.265 0 1.407-.398 2.508-1.195 3.305-.797.797-1.896 1.195-3.297 1.195Zm.04-1.445c1.327 0 1.991-1.018 1.991-3.055 0-.932-.176-1.669-.527-2.21-.352-.542-.835-.813-1.45-.813-.609 0-1.09.27-1.44.812-.352.542-.528 1.284-.528 2.227 0 .932.174 1.672.523 2.219.35.547.826.82 1.43.82Zm11.349 4.336L173.722 19l-3.18-8.578h2.485l2.125 5.734 2.523-5.734h1.758l-5.297 11.664zm12.631-2.891c-1.338 0-2.402-.405-3.191-1.215-.79-.81-1.184-1.9-1.184-3.27 0-1.384.397-2.478 1.192-3.28.794-.802 1.873-1.203 3.238-1.203 1.37 0 2.452.4 3.246 1.203.794.802 1.192 1.89 1.192 3.265 0 1.407-.399 2.508-1.196 3.305-.797.797-1.896 1.195-3.297 1.195Zm.04-1.445c1.328 0 1.992-1.018 1.992-3.055 0-.932-.176-1.669-.528-2.21-.351-.542-.834-.813-1.449-.813-.61 0-1.09.27-1.441.812-.352.542-.528 1.284-.528 2.227 0 .932.175 1.672.524 2.219.349.547.825.82 1.43.82ZM196.064 19v-1.617c-.75 1.208-1.724 1.812-2.922 1.812-.766 0-1.37-.242-1.813-.726-.443-.485-.664-1.146-.664-1.985v-6.062h2.313v5.492c0 .974.325 1.461.976 1.461.73 0 1.432-.518 2.11-1.555v-5.398h2.312V19h-2.312Zm11.459 0-2.383-8.578h2.148l1.688 6.008 1.797-6.008h2l1.617 6.04 1.82-6.04h1.61L215.273 19h-2.22l-1.561-5.883-1.75 5.883zm16.225-.922c-.77.745-1.596 1.117-2.477 1.117-.75 0-1.359-.229-1.828-.687-.469-.459-.703-1.052-.703-1.781 0-.948.379-1.679 1.137-2.192.758-.513 1.842-.77 3.254-.77h.617v-.78c0-.891-.508-1.337-1.524-1.337-.9 0-1.812.256-2.734.766V10.82c1.047-.396 2.083-.593 3.11-.593 2.244 0 3.367.893 3.367 2.68v3.796c0 .672.216 1.008.648 1.008.078 0 .18-.01.305-.031l.054 1.297c-.49.145-.921.218-1.296.218-.948 0-1.558-.372-1.829-1.117h-.101Zm0-1.242v-1.742h-.547c-1.495 0-2.242.468-2.242 1.406 0 .318.108.585.324.8.216.217.483.325.8.325.543 0 1.097-.263 1.665-.79ZM228.684 19v-8.578h2.313v1.617c.755-1.208 1.729-1.812 2.922-1.812.765 0 1.37.242 1.812.726.443.484.664 1.146.664 1.984V19h-2.312v-5.492c0-.974-.323-1.461-.969-1.461-.734 0-1.44.518-2.117 1.555V19h-2.313Zm14.663-.047c-.552.162-.987.242-1.304.242-2.006 0-3.008-.937-3.008-2.812v-4.516h-.961v-1.445h.96V8.977l2.313-.266v1.71h1.836v1.446h-1.836v4.211c0 1.052.43 1.578 1.29 1.578.197 0 .434-.036.71-.11v1.407Zm11.225 0c-.552.162-.987.242-1.305.242-2.005 0-3.008-.937-3.008-2.812v-4.516h-.96v-1.445h.96V8.977l2.313-.266v1.71h1.836v1.446h-1.836v4.211c0 1.052.43 1.578 1.289 1.578.198 0 .435-.036.71-.11v1.407Zm5.398.242c-1.34 0-2.403-.405-3.192-1.215-.79-.81-1.184-1.9-1.184-3.27 0-1.384.397-2.478 1.192-3.28.794-.802 1.873-1.203 3.238-1.203 1.37 0 2.452.4 3.246 1.203.794.802 1.191 1.89 1.191 3.265 0 1.407-.398 2.508-1.195 3.305-.797.797-1.896 1.195-3.297 1.195Zm.038-1.445c1.328 0 1.993-1.018 1.993-3.055 0-.932-.176-1.669-.528-2.21-.351-.542-.834-.813-1.449-.813-.61 0-1.09.27-1.441.812-.352.542-.528 1.284-.528 2.227 0 .932.175 1.672.524 2.219.349.547.825.82 1.43.82ZM271.327 19V6.664h2.312V19zm11.92-.29c-1.099.324-2.14.485-3.125.485-1.432 0-2.562-.406-3.39-1.218-.828-.813-1.242-1.922-1.242-3.329 0-1.328.378-2.397 1.136-3.207.758-.81 1.76-1.214 3.004-1.214 1.255 0 2.172.395 2.75 1.187.578.792.867 2.044.867 3.758h-5.32c.156 1.635 1.055 2.453 2.695 2.453.776 0 1.651-.18 2.625-.54v1.626Zm-5.351-4.843h3.078c0-1.463-.471-2.195-1.414-2.195-.958 0-1.513.732-1.664 2.195Zm11.678 4.211c-.77.745-1.596 1.117-2.476 1.117-.75 0-1.36-.229-1.828-.687-.469-.459-.703-1.052-.703-1.781 0-.948.379-1.679 1.136-2.192.758-.513 1.843-.77 3.254-.77h.617v-.78c0-.891-.507-1.337-1.523-1.337-.901 0-1.812.256-2.734.766V10.82c1.047-.396 2.083-.593 3.109-.593 2.245 0 3.367.893 3.367 2.68v3.796c0 .672.216 1.008.649 1.008.078 0 .18-.01.304-.031l.055 1.297c-.49.145-.922.218-1.297.218-.948 0-1.557-.372-1.828-1.117h-.102Zm0-1.242v-1.742h-.546c-1.495 0-2.243.468-2.243 1.406 0 .318.108.585.325.8.216.217.483.325.8.325.542 0 1.097-.263 1.664-.79ZM294.51 19v-8.578h2.313v1.617c.6-1.208 1.51-1.812 2.735-1.812.146 0 .289.015.43.046v2.063a2.678 2.678 0 0 0-.915-.18c-.921 0-1.671.466-2.25 1.399V19h-2.312Zm7.008 0v-8.578h2.312v1.617c.755-1.208 1.73-1.812 2.922-1.812.766 0 1.37.242 1.813.726.442.484.664 1.146.664 1.984V19h-2.313v-5.492c0-.974-.323-1.461-.969-1.461-.734 0-1.44.518-2.117 1.555V19h-2.312Zm10.975 0v-1.93h2.32V19h-2.32Zm2.32-3.273h-2.32v-.22c0-.838.386-1.684 1.156-2.538l.555-.61c.75-.828 1.125-1.567 1.125-2.218 0-.97-.61-1.454-1.828-1.454-.786 0-1.687.232-2.703.696V7.617a10.498 10.498 0 0 1 3.039-.469c1.234 0 2.21.237 2.926.711.716.474 1.074 1.12 1.074 1.938 0 .75-.43 1.531-1.29 2.344l-.523.5c-.49.463-.813.855-.972 1.175-.159.32-.238.736-.238 1.246v.665Z" opacity=".449"/>
  </g>
</svg>
