<?xml version="1.0" encoding="UTF-8"?>
<svg width="591px" height="115px" viewBox="0 0 591 115" version="1.1" xmlns="http://www.w3.org/2000/svg" xmlns:xlink="http://www.w3.org/1999/xlink">
    <title>publications</title>
    <defs>
        <linearGradient x1="53.591%" y1="41.041%" x2="26.731%" y2="51.238%" id="linearGradient-1">
            <stop stop-color="#FFBAA9" stop-opacity="0" offset="0%"></stop>
            <stop stop-color="#FFBAA9" stop-opacity="0.613" offset="19.769%"></stop>
            <stop stop-color="#FFBAA9" offset="100%"></stop>
        </linearGradient>
        <linearGradient x1="53.591%" y1="41.041%" x2="26.731%" y2="51.238%" id="linearGradient-2">
            <stop stop-color="#FFBAA9" stop-opacity="0" offset="0%"></stop>
            <stop stop-color="#FFBAA9" stop-opacity="0.613" offset="19.769%"></stop>
            <stop stop-color="#FFBAA9" offset="100%"></stop>
        </linearGradient>
        <linearGradient x1="53.591%" y1="41.041%" x2="26.731%" y2="51.238%" id="linearGradient-3">
            <stop stop-color="#FFBAA9" stop-opacity="0" offset="0%"></stop>
            <stop stop-color="#FFBAA9" stop-opacity="0.613" offset="19.769%"></stop>
            <stop stop-color="#FFBAA9" offset="100%"></stop>
        </linearGradient>
        <linearGradient x1="45.896%" y1="44.122%" x2="22.338%" y2="52.976%" id="linearGradient-4">
            <stop stop-color="#FFBAA9" stop-opacity="0" offset="0%"></stop>
            <stop stop-color="#FFBAA9" stop-opacity="0.613" offset="19.436%"></stop>
            <stop stop-color="#FFBAA9" offset="100%"></stop>
        </linearGradient>
        <linearGradient x1="45.896%" y1="44.122%" x2="22.338%" y2="52.976%" id="linearGradient-5">
            <stop stop-color="#FFBAA9" stop-opacity="0" offset="0%"></stop>
            <stop stop-color="#FFBAA9" stop-opacity="0.613" offset="19.436%"></stop>
            <stop stop-color="#FFBAA9" offset="100%"></stop>
        </linearGradient>
        <linearGradient x1="45.896%" y1="44.122%" x2="22.338%" y2="52.976%" id="linearGradient-6">
            <stop stop-color="#FFBAA9" stop-opacity="0" offset="0%"></stop>
            <stop stop-color="#FFBAA9" stop-opacity="0.613" offset="19.436%"></stop>
            <stop stop-color="#FFBAA9" offset="100%"></stop>
        </linearGradient>
    </defs>
    <g id="publications" stroke="none" stroke-width="1" fill="none" fill-rule="evenodd">
        <g transform="translate(5.935166, -116.000000)">
            <g id="Group" opacity="0.449521019" transform="translate(288.456096, 185.189872) rotate(-43.000000) translate(-288.456096, -185.189872) translate(127.456096, 128.189872)" fill-rule="nonzero" font-family="Apple-Chancery, Apple Chancery" font-size="21" font-weight="normal">
                <text id="Beginning-in-the-main-function," fill="url(#linearGradient-1)">
                    <tspan x="1.42108547e-14" y="23">Beginning in the main function,</tspan>
                </text>
                <text id="operation-begins-in-order-line-by-line." fill="url(#linearGradient-2)">
                    <tspan x="1.42108547e-14" y="50">operation begins in order line by line.</tspan>
                </text>
                <text id="Each-statement-is-executed-in-order," fill="url(#linearGradient-3)">
                    <tspan x="1.42108547e-14" y="77">Each statement is executed in order,</tspan>
                </text>
                <text id="and-where-multiple-statements…" fill="url(#linearGradient-1)">
                    <tspan x="1.42108547e-14" y="104">and where multiple statements…</tspan>
                </text>
            </g>
            <g id="Group" opacity="0.449521019" transform="translate(157.786761, 150.089283) rotate(-42.000000) translate(-157.786761, -150.089283) translate(-3.213239, 93.089283)" fill-rule="nonzero" font-family="Apple-Chancery, Apple Chancery" font-size="21" font-weight="normal">
                <text id="Beginning-in-the-main-function," fill="url(#linearGradient-4)">
                    <tspan x="8.8817842e-15" y="23">Beginning in the main function,</tspan>
                </text>
                <text id="operation-begins-in-order-line-by-line." fill="url(#linearGradient-5)">
                    <tspan x="8.8817842e-15" y="50">operation begins in order line by line.</tspan>
                </text>
                <text id="Each-statement-is-executed-in-order," fill="url(#linearGradient-6)">
                    <tspan x="8.8817842e-15" y="77">Each statement is executed in order,</tspan>
                </text>
                <text id="and-where-multiple-statements…" fill="url(#linearGradient-4)">
                    <tspan x="8.8817842e-15" y="104">and where multiple statements…</tspan>
                </text>
            </g>
            <g id="Group" opacity="0.903260731" transform="translate(316.423249, 122.846805)" fill="#F59F89" fill-rule="nonzero">
                <path d="M5.50711346,0.133 L5.50711346,2.092 C3.68811346,3.924 2.77911346,6.514 2.77911346,9.864 C2.77911346,13.22 3.68911346,15.814 5.50711346,17.647 L5.50711346,19.605 C3.84511346,18.71 2.51211346,17.373 1.50711346,15.595 C0.510889416,13.8498795 -0.00882829388,11.8734348 0.00011346234,9.864 C0.00011346234,7.82 0.494113462,5.924 1.48211346,4.174 C2.47011346,2.424 3.81211346,1.076 5.50711346,0.133 L5.50711346,0.133 Z M8.06911346,16.447 L8.06911346,1.271 L13.2261135,1.271 C14.7511135,1.271 15.9111135,1.558 16.7081135,2.133 C17.5041135,2.707 17.9021135,3.544 17.9021135,4.645 C17.9021135,6.47 16.6891135,7.762 14.2621135,8.521 C17.0991135,9.211 18.5171135,10.602 18.5171135,12.694 C18.5171135,13.904 18.1021135,14.832 17.2721135,15.478 C16.4411135,16.124 15.2501135,16.447 13.6981135,16.447 L8.06811346,16.447 L8.06911346,16.447 Z M11.0421135,7.587 L11.7911135,7.587 C12.6801135,7.587 13.3851135,7.369 13.9081135,6.931 C14.4311135,6.494 14.6931135,5.899 14.6931135,5.147 C14.6931135,4.45 14.4831135,3.977 14.0631135,3.727 C13.6421135,3.477 12.8471135,3.353 11.6781135,3.353 L11.0421135,3.353 L11.0421135,7.588 L11.0421135,7.587 Z M11.0421135,14.294 L11.7191135,14.294 C13.0451135,14.294 13.9591135,14.152 14.4621135,13.868 C14.9641135,13.584 15.2161135,13.067 15.2161135,12.315 C15.2161135,11.542 14.8791135,10.9 14.2061135,10.387 C13.5321135,9.874 12.6831135,9.617 11.6581135,9.617 L11.0421135,9.617 L11.0421135,14.294 L11.0421135,14.294 Z M27.9091135,16.447 L27.9091135,14.324 C26.9241135,15.91 25.6461135,16.704 24.0741135,16.704 C23.0691135,16.704 22.2761135,16.385 21.6941135,15.75 C21.1141135,15.114 20.8241135,14.246 20.8241135,13.145 L20.8241135,5.188 L23.8581135,5.188 L23.8581135,12.397 C23.8581135,13.675 24.2861135,14.314 25.1401135,14.314 C26.0971135,14.314 27.0201135,13.634 27.9091135,12.274 L27.9091135,5.187 L30.9441135,5.187 L30.9441135,16.447 L27.9091135,16.447 Z M40.1911135,16.385 C39.4671135,16.597 38.8961135,16.703 38.4791135,16.703 C35.8471135,16.703 34.5311135,15.473 34.5311135,13.012 L34.5311135,7.085 L33.2711135,7.085 L33.2711135,5.188 L34.5311135,5.188 L34.5311135,3.291 L37.5661135,2.943 L37.5661135,5.188 L39.9761135,5.188 L39.9761135,7.085 L37.5661135,7.085 L37.5661135,12.612 C37.5661135,13.992 38.1301135,14.683 39.2581135,14.683 C39.5181135,14.683 39.8291135,14.635 40.1911135,14.54 L40.1911135,16.385 L40.1911135,16.385 Z M48.3521135,16.385 C47.6281135,16.597 47.0571135,16.703 46.6401135,16.703 C44.0081135,16.703 42.6921135,15.473 42.6921135,13.012 L42.6921135,7.085 L41.4311135,7.085 L41.4311135,5.188 L42.6921135,5.188 L42.6921135,3.291 L45.7271135,2.943 L45.7271135,5.188 L48.1371135,5.188 L48.1371135,7.085 L45.7271135,7.085 L45.7271135,12.612 C45.7271135,13.992 46.2911135,14.683 47.4191135,14.683 C47.6791135,14.683 47.9891135,14.635 48.3521135,14.54 L48.3521135,16.385 L48.3521135,16.385 Z M51.0271135,16.447 L51.0271135,7.085 L49.4791135,7.085 L49.4791135,5.188 L51.0271135,5.188 L51.0271135,4.408 C51.0271135,2.994 51.3641135,1.905 52.0371135,1.143 C52.7101135,0.381 53.6691135,0 54.9131135,0 C55.6791135,0 56.4931135,0.14 57.3531135,0.42 L57.3531135,2.491 C56.5061135,2.115 55.8771135,1.927 55.4671135,1.927 C54.5311135,1.927 54.0621135,2.782 54.0621135,4.491 L54.0621135,5.188 L61.1481135,5.188 L61.1481135,16.447 L58.1131135,16.447 L58.1131135,7.085 L54.0631135,7.085 L54.0631135,16.447 L51.0271135,16.447 L51.0271135,16.447 Z M58.6151135,3.291 L58.6151135,0.759 L61.1481135,0.759 L61.1481135,3.291 L58.6151135,3.291 L58.6151135,3.291 Z M73.7591135,16.067 C72.3161135,16.491 70.9491135,16.703 69.6571135,16.703 C67.7771135,16.703 66.2941135,16.17 65.2071135,15.103 C64.1201135,14.037 63.5771135,12.581 63.5771135,10.736 C63.5771135,8.992 64.0741135,7.589 65.0681135,6.526 C66.0631135,5.463 67.3781135,4.932 69.0111135,4.932 C70.6591135,4.932 71.8611135,5.452 72.6211135,6.49 C73.3791135,7.53 73.7591135,9.174 73.7591135,11.423 L66.7761135,11.423 C66.9811135,13.569 68.1601135,14.643 70.3131135,14.643 C71.3321135,14.643 72.4801135,14.406 73.7591135,13.935 L73.7591135,16.068 L73.7591135,16.067 Z M66.7351135,9.71 L70.7751135,9.71 C70.7751135,7.79 70.1561135,6.829 68.9191135,6.829 C67.6611135,6.829 66.9331135,7.789 66.7351135,9.71 Z M76.5461135,16.447 L76.5461135,0.256 L79.5811135,0.256 L79.5811135,16.446 L76.5461135,16.447 Z M90.1111135,16.447 L90.1111135,14.324 C89.3311135,15.91 88.1051135,16.704 86.4301135,16.704 C85.0761135,16.704 84.0131135,16.208 83.2401135,15.217 C82.4681135,14.225 82.0821135,12.862 82.0821135,11.125 C82.0821135,9.239 82.5181135,7.735 83.3891135,6.614 C84.2611135,5.492 85.4321135,4.932 86.9011135,4.932 C88.0771135,4.932 89.1471135,5.397 90.1111135,6.326 L90.1111135,0.257 L93.1561135,0.257 L93.1561135,16.447 L90.1111135,16.447 Z M90.1111135,8.131 C89.3791135,7.311 88.5971135,6.901 87.7631135,6.901 C87.0181135,6.901 86.4231135,7.259 85.9791135,7.977 C85.5341135,8.695 85.3121135,9.659 85.3121135,10.869 C85.3121135,13.173 86.0501135,14.324 87.5271135,14.324 C88.4291135,14.324 89.2911135,13.747 90.1111135,12.592 L90.1111135,8.132 L90.1111135,8.131 Z M96.7131135,10.879 L96.7131135,8.982 L106.075113,8.982 L106.075113,10.879 L96.7131135,10.879 Z M107.991113,16.447 L113.897113,1.271 L117.055113,1.271 L122.962113,16.447 L119.722113,16.447 L118.142113,12.397 L111.867113,12.397 L110.287113,16.447 L107.991113,16.447 L107.991113,16.447 Z M112.646113,10.377 L117.363113,10.377 L115.005113,4.327 L112.646113,10.377 Z M131.850113,16.447 L131.850113,14.324 C131.071113,15.91 129.844113,16.704 128.170113,16.704 C126.816113,16.704 125.753113,16.208 124.980113,15.217 C124.208113,14.225 123.822113,12.862 123.822113,11.125 C123.822113,9.239 124.257113,7.735 125.129113,6.614 C126.001113,5.492 127.171113,4.932 128.641113,4.932 C129.817113,4.932 130.887113,5.397 131.851113,6.326 L131.851113,0.257 L134.896113,0.257 L134.896113,16.447 L131.850113,16.447 Z M131.850113,8.131 C131.119113,7.311 130.336113,6.901 129.502113,6.901 C128.757113,6.901 128.162113,7.259 127.718113,7.977 C127.274113,8.695 127.052113,9.659 127.052113,10.869 C127.052113,13.173 127.790113,14.324 129.266113,14.324 C130.169113,14.324 131.030113,13.747 131.850113,12.592 L131.850113,8.132 L131.850113,8.131 Z M145.415113,16.447 L145.415113,14.324 C144.635113,15.91 143.409113,16.704 141.734113,16.704 C140.380113,16.704 139.317113,16.208 138.544113,15.217 C137.772113,14.225 137.386113,12.862 137.386113,11.125 C137.386113,9.239 137.822113,7.735 138.694113,6.614 C139.565113,5.492 140.736113,4.932 142.206113,4.932 C143.381113,4.932 144.451113,5.397 145.415113,6.326 L145.415113,0.257 L148.460113,0.257 L148.460113,16.447 L145.415113,16.447 Z M145.415113,8.131 C144.684113,7.311 143.901113,6.901 143.067113,6.901 C142.322113,6.901 141.727113,7.259 141.283113,7.977 C140.838113,8.695 140.616113,9.659 140.616113,10.869 C140.616113,13.173 141.354113,14.324 142.831113,14.324 C143.733113,14.324 144.595113,13.747 145.415113,12.592 L145.415113,8.132 L145.415113,8.131 Z M151.894113,16.447 L151.894113,5.188 L154.929113,5.188 L154.929113,16.447 L151.894113,16.447 Z M151.894113,3.291 L151.894113,0.759 L154.929113,0.759 L154.929113,3.291 L151.894113,3.291 L151.894113,3.291 Z M158.076113,16.088 L158.076113,13.863 C159.580113,14.492 160.865113,14.806 161.931113,14.806 C163.175113,14.806 163.797113,14.383 163.797113,13.535 C163.797113,12.988 163.285113,12.509 162.259113,12.099 L161.234113,11.689 C160.120113,11.238 159.324113,10.753 158.844113,10.233 C158.366113,9.713 158.127113,9.071 158.127113,8.305 C158.127113,7.239 158.534113,6.41 159.347113,5.819 C160.161113,5.228 161.299113,4.932 162.762113,4.932 C163.678113,4.932 164.768113,5.065 166.032113,5.332 L166.032113,7.465 C164.816113,7.041 163.808113,6.829 163.008113,6.829 C161.750113,6.829 161.121113,7.219 161.121113,7.998 C161.121113,8.51 161.586113,8.945 162.516113,9.3 L163.398113,9.638 C164.717113,10.138 165.635113,10.643 166.151113,11.156 C166.667113,11.669 166.925113,12.328 166.925113,13.135 C166.925113,14.195 166.485113,15.055 165.607113,15.714 C164.729113,16.374 163.586113,16.704 162.177113,16.704 C160.787498,16.6983163 159.406077,16.4908168 158.076113,16.088 L158.076113,16.088 Z M174.624113,16.703 C172.867113,16.703 171.471113,16.172 170.436113,15.109 C169.400113,14.046 168.882113,12.615 168.882113,10.818 C168.882113,8.999 169.403113,7.564 170.446113,6.511 C171.488113,5.458 172.905113,4.931 174.696113,4.931 C176.494113,4.931 177.914113,5.458 178.956113,6.511 C179.999113,7.564 180.520113,8.992 180.520113,10.797 C180.520113,12.643 179.997113,14.089 178.951113,15.134 C177.906113,16.18 176.463113,16.704 174.624113,16.704 L174.624113,16.703 Z M174.676113,14.806 C176.419113,14.806 177.290113,13.47 177.290113,10.797 C177.290113,9.573 177.060113,8.607 176.598113,7.895 C176.137113,7.185 175.503113,6.829 174.696113,6.829 C173.896113,6.829 173.266113,7.184 172.804113,7.895 C172.343113,8.606 172.112113,9.58 172.112113,10.818 C172.112113,12.041 172.342113,13.012 172.799113,13.73 C173.257113,14.447 173.883113,14.806 174.676113,14.806 L174.676113,14.806 Z M182.959113,16.447 L182.959113,5.188 L185.994113,5.188 L185.994113,7.311 C186.986113,5.725 188.264113,4.931 189.829113,4.931 C190.834113,4.931 191.627113,5.25 192.209113,5.885 C192.789113,6.521 193.079113,7.389 193.079113,8.49 L193.079113,16.447 L190.045113,16.447 L190.045113,9.239 C190.045113,7.96 189.621113,7.321 188.773113,7.321 C187.809113,7.321 186.883113,8.001 185.994113,9.361 L185.994113,16.447 L182.959113,16.447 Z M196.719113,16.447 L195.457113,16.447 L195.457113,13.155 L198.749113,13.155 L198.749113,15.709 C198.749113,18.395 197.652113,19.739 195.457113,19.739 L195.457113,18.6 C196.298113,18.6 196.719113,17.992 196.719113,16.775 L196.719113,16.447 Z M207.421113,16.447 L207.421113,14.047 L207.585113,13.822 C208.399113,12.735 209.233113,11.819 210.087113,11.074 L211.327113,9.977 C213.372113,8.172 214.394113,6.59 214.394113,5.229 C214.394113,3.643 213.491113,2.85 211.687113,2.85 C210.572113,2.85 209.280113,3.226 207.811113,3.978 L207.811113,1.753 C209.356113,1.179 210.849113,0.892 212.291113,0.892 C213.905113,0.892 215.197113,1.272 216.168113,2.035 C217.138113,2.797 217.624113,3.818 217.624113,5.095 C217.624113,5.978 217.388113,6.781 216.916113,7.505 C216.444113,8.23 215.614113,9.071 214.424113,10.028 L213.399113,10.848 C211.970113,11.997 211.123113,13.063 210.856113,14.048 L217.562113,14.048 L217.562113,16.447 L207.421113,16.447 L207.421113,16.447 Z M226.277113,16.827 C224.554113,16.827 223.154113,16.088 222.077113,14.612 C221.001113,13.135 220.463113,11.218 220.463113,8.859 C220.463113,6.473 221.003113,4.549 222.083113,3.086 C223.163113,1.623 224.585113,0.892 226.348113,0.892 C228.098113,0.892 229.515113,1.622 230.598113,3.081 C231.682113,4.541 232.224113,6.453 232.224113,8.818 C232.224113,11.245 231.682113,13.186 230.599113,14.642 C229.515113,16.098 228.074113,16.826 226.277113,16.826 L226.277113,16.827 Z M226.307113,14.929 C228.105113,14.929 229.004113,12.906 229.004113,8.859 C229.004113,4.812 228.119113,2.789 226.348113,2.789 C224.578113,2.789 223.693113,4.809 223.693113,8.849 C223.693113,12.903 224.564113,14.929 226.307113,14.929 L226.307113,14.929 Z M234.427113,16.447 L234.427113,14.047 L234.591113,13.822 C235.405113,12.735 236.239113,11.819 237.093113,11.074 L238.333113,9.977 C240.378113,8.172 241.400113,6.59 241.400113,5.229 C241.400113,3.643 240.497113,2.85 238.693113,2.85 C237.578113,2.85 236.286113,3.226 234.817113,3.978 L234.817113,1.753 C236.362113,1.179 237.855113,0.892 239.297113,0.892 C240.911113,0.892 242.203113,1.272 243.174113,2.035 C244.144113,2.797 244.630113,3.818 244.630113,5.095 C244.630113,5.978 244.394113,6.781 243.922113,7.505 C243.451113,8.23 242.620113,9.071 241.431113,10.028 L240.405113,10.848 C238.976113,11.997 238.129113,13.063 237.862113,14.048 L244.568113,14.048 L244.568113,16.447 L234.428113,16.447 L234.427113,16.447 Z M247.930113,16.447 L247.930113,14.047 L248.094113,13.822 C248.908113,12.735 249.742113,11.819 250.596113,11.074 L251.836113,9.977 C253.881113,8.172 254.903113,6.59 254.903113,5.229 C254.903113,3.643 254.000113,2.85 252.196113,2.85 C251.081113,2.85 249.789113,3.226 248.320113,3.978 L248.320113,1.753 C249.865113,1.179 251.358113,0.892 252.800113,0.892 C254.414113,0.892 255.706113,1.272 256.677113,2.035 C257.647113,2.797 258.133113,3.818 258.133113,5.095 C258.133113,5.978 257.897113,6.781 257.425113,7.505 C256.954113,8.23 256.123113,9.071 254.934113,10.028 L253.908113,10.848 C252.479113,11.997 251.632113,13.063 251.365113,14.048 L258.071113,14.048 L258.071113,16.447 L247.931113,16.447 L247.930113,16.447 Z M260.941113,0.133 L260.941113,2.092 C262.759113,3.924 263.668113,6.514 263.668113,9.864 C263.668113,13.22 262.759113,15.814 260.941113,17.647 L260.941113,19.605 C262.602113,18.71 263.935113,17.373 264.940113,15.595 C265.936338,13.8498795 266.456055,11.8734348 266.447113,9.864 C266.447113,7.82 265.953113,5.924 264.966113,4.174 C263.978113,2.424 262.636113,1.076 260.941113,0.133 Z" id="Shape" opacity="0.447"></path>
            </g>
            <g id="Group" transform="translate(312.596363, 132.727805)" fill="#FCE6DE" fill-rule="nonzero" stroke="#000000">
                <polygon id="Path" points="31.03 7.321 35.456 17.54 28.366 38.132 5.68434189e-14 28.365 9.767 -3.55271368e-15"></polygon>
                <polygon id="Path" points="9.764 0.007 30.512 7.52 27.852 15.245 35.356 17.829 28.366 38.132 0 28.365"></polygon>
            </g>
            <g id="Group" transform="translate(31.720363, 175.996805)" fill="#FCE6DE" fill-rule="nonzero" stroke="#000000">
                <polygon id="Path" points="3.13 6.293 12.317 1.42108547e-14 33.884 3.03 29.708 32.739 0 28.563"></polygon>
                <polygon id="Path" points="0.008 28.565 3.425 6.765 11.515 7.902 12.62 0.042 33.884 3.031 29.708 32.739"></polygon>
            </g>
            <g id="Group" transform="translate(109.622363, 121.449805)" stroke="#000000">
                <g transform="translate(21.878000, 0.000000)" fill="#FFFFFF" fill-rule="nonzero" id="Path">
                    <polygon points="101.2 121.611 9.327 126.426 3.099 7.589 94.972 2.774"></polygon>
                    <polygon points="98.102 118.837 6.228 123.652 -2.84217094e-14 4.815 91.874 -2.66453526e-15"></polygon>
                </g>
                <polygon id="Path" fill="#FFFFFF" fill-rule="nonzero" points="98.102 125.289 6.228 130.104 -1.42108547e-14 11.267 91.874 6.452"></polygon>
                <path d="M49.12,107.828 L13.17,109.712 L11.6,79.753 L47.55,77.869 L49.12,107.828 Z M85.664,40.824 L49.714,42.708 L48.719,23.734 L84.669,21.85 L85.664,40.824 Z" id="Shape" fill="#FFD8CC" fill-rule="nonzero"></path>
                <path d="M47.327,72.874 L11.301,74.762 M88.58,95.747 L52.554,97.635 M88.841,100.74 L52.816,102.628 M89.103,105.733 L53.077,107.621 M88.37,91.752 L52.345,93.64 M88.108,86.759 L52.083,88.647 M87.847,81.766 L51.82,83.654 M87.637,77.771 L51.612,79.659 M87.376,72.778 L51.35,74.666 M87.114,67.784 L51.09,69.674 M86.904,63.79 L9.937,67.824 M86.642,58.797 L9.676,62.831 M86.38,53.804 L9.414,57.838 M86.171,49.81 L9.205,53.843 M85.91,44.816 L8.943,48.85 M84.444,16.854 L7.478,20.888 M45.946,41.904 L9.436,43.817 M45.737,37.909 L9.227,39.823 M45.475,32.916 L8.965,34.83 M45.213,27.924 L8.703,29.837 M45.004,23.929 L8.494,25.842" id="Shape" stroke-linecap="square"></path>
            </g>
            <polygon id="Path" stroke="#000000" fill="#FCE6DE" fill-rule="nonzero" points="73.6623628 127.793805 103.662363 127.793805 103.662363 157.793805 73.6623628 157.793805"></polygon>
            <path d="M42.1353628,158.082805 L53.3733628,130.266805 L81.1893628,141.504805 L69.9513628,169.320805 L42.1353628,158.082805 Z M193.135363,220.082805 L204.373363,192.266805 L232.189363,203.504805 L220.951363,231.320805 L193.135363,220.082805 Z" id="Shape" stroke="#000000" fill="#FCE6DE" fill-rule="nonzero"></path>
            <polygon id="Path" stroke="#000000" fill="#FCE6DE" fill-rule="nonzero" points="225.745363 239.803805 223.652363 209.876805 253.579363 207.783805 255.672363 237.710805"></polygon>
            <path d="M346.930363,196.979805 L346.930363,198.938805 C345.111363,200.770805 344.202363,203.360805 344.202363,206.710805 C344.202363,210.066805 345.112363,212.660805 346.930363,214.493805 L346.930363,216.451805 C345.268363,215.556805 343.935363,214.219805 342.930363,212.441805 C341.934139,210.696685 341.414421,208.72024 341.423363,206.710805 C341.423363,204.666805 341.917363,202.770805 342.905363,201.020805 C343.893363,199.270805 345.235363,197.922805 346.930363,196.979805 L346.930363,196.979805 Z M349.492363,213.293805 L349.492363,198.117805 L354.649363,198.117805 C356.174363,198.117805 357.334363,198.404805 358.131363,198.979805 C358.927363,199.553805 359.325363,200.390805 359.325363,201.491805 C359.325363,203.316805 358.112363,204.608805 355.685363,205.367805 C358.522363,206.057805 359.940363,207.448805 359.940363,209.540805 C359.940363,210.750805 359.525363,211.678805 358.695363,212.324805 C357.864363,212.970805 356.673363,213.293805 355.121363,213.293805 L349.491363,213.293805 L349.492363,213.293805 Z M352.465363,204.433805 L353.214363,204.433805 C354.103363,204.433805 354.808363,204.215805 355.331363,203.777805 C355.854363,203.340805 356.116363,202.745805 356.116363,201.993805 C356.116363,201.296805 355.906363,200.823805 355.486363,200.573805 C355.065363,200.323805 354.270363,200.199805 353.101363,200.199805 L352.465363,200.199805 L352.465363,204.434805 L352.465363,204.433805 Z M352.465363,211.140805 L353.142363,211.140805 C354.468363,211.140805 355.382363,210.998805 355.885363,210.714805 C356.387363,210.430805 356.639363,209.913805 356.639363,209.161805 C356.639363,208.388805 356.302363,207.746805 355.629363,207.233805 C354.955363,206.720805 354.106363,206.463805 353.081363,206.463805 L352.465363,206.463805 L352.465363,211.140805 L352.465363,211.140805 Z M369.332363,213.293805 L369.332363,211.170805 C368.347363,212.756805 367.069363,213.550805 365.497363,213.550805 C364.492363,213.550805 363.699363,213.231805 363.117363,212.596805 C362.537363,211.960805 362.247363,211.092805 362.247363,209.991805 L362.247363,202.034805 L365.281363,202.034805 L365.281363,209.243805 C365.281363,210.521805 365.709363,211.160805 366.563363,211.160805 C367.520363,211.160805 368.443363,210.480805 369.332363,209.120805 L369.332363,202.033805 L372.367363,202.033805 L372.367363,213.293805 L369.332363,213.293805 Z M381.614363,213.231805 C380.890363,213.443805 380.319363,213.549805 379.902363,213.549805 C377.270363,213.549805 375.954363,212.319805 375.954363,209.858805 L375.954363,203.931805 L374.694363,203.931805 L374.694363,202.034805 L375.954363,202.034805 L375.954363,200.137805 L378.989363,199.789805 L378.989363,202.034805 L381.399363,202.034805 L381.399363,203.931805 L378.989363,203.931805 L378.989363,209.458805 C378.989363,210.838805 379.553363,211.529805 380.681363,211.529805 C380.941363,211.529805 381.252363,211.481805 381.614363,211.386805 L381.614363,213.231805 L381.614363,213.231805 Z M389.775363,213.231805 C389.051363,213.443805 388.480363,213.549805 388.063363,213.549805 C385.431363,213.549805 384.115363,212.319805 384.115363,209.858805 L384.115363,203.931805 L382.854363,203.931805 L382.854363,202.034805 L384.115363,202.034805 L384.115363,200.137805 L387.150363,199.789805 L387.150363,202.034805 L389.560363,202.034805 L389.560363,203.931805 L387.150363,203.931805 L387.150363,209.458805 C387.150363,210.838805 387.714363,211.529805 388.842363,211.529805 C389.102363,211.529805 389.412363,211.481805 389.775363,211.386805 L389.775363,213.231805 L389.775363,213.231805 Z M392.450363,213.293805 L392.450363,203.931805 L390.902363,203.931805 L390.902363,202.034805 L392.450363,202.034805 L392.450363,201.254805 C392.450363,199.840805 392.787363,198.751805 393.460363,197.989805 C394.133363,197.227805 395.092363,196.846805 396.336363,196.846805 C397.102363,196.846805 397.916363,196.986805 398.776363,197.266805 L398.776363,199.337805 C397.929363,198.961805 397.300363,198.773805 396.890363,198.773805 C395.954363,198.773805 395.485363,199.628805 395.485363,201.337805 L395.485363,202.034805 L402.571363,202.034805 L402.571363,213.293805 L399.536363,213.293805 L399.536363,203.931805 L395.486363,203.931805 L395.486363,213.293805 L392.450363,213.293805 L392.450363,213.293805 Z M400.038363,200.137805 L400.038363,197.605805 L402.571363,197.605805 L402.571363,200.137805 L400.038363,200.137805 Z M415.182363,212.913805 C413.739363,213.337805 412.372363,213.549805 411.080363,213.549805 C409.200363,213.549805 407.717363,213.016805 406.630363,211.949805 C405.543363,210.883805 405.000363,209.427805 405.000363,207.582805 C405.000363,205.838805 405.497363,204.435805 406.491363,203.372805 C407.486363,202.309805 408.801363,201.778805 410.434363,201.778805 C412.082363,201.778805 413.284363,202.298805 414.044363,203.336805 C414.802363,204.376805 415.182363,206.020805 415.182363,208.269805 L408.199363,208.269805 C408.404363,210.415805 409.583363,211.489805 411.736363,211.489805 C412.755363,211.489805 413.903363,211.252805 415.182363,210.781805 L415.182363,212.914805 L415.182363,212.913805 Z M408.158363,206.556805 L412.198363,206.556805 C412.198363,204.636805 411.579363,203.675805 410.342363,203.675805 C409.084363,203.675805 408.356363,204.635805 408.158363,206.556805 Z M417.969363,213.293805 L417.969363,197.102805 L421.004363,197.102805 L421.004363,213.292805 L417.969363,213.293805 Z M431.534363,213.293805 L431.534363,211.170805 C430.754363,212.756805 429.528363,213.550805 427.853363,213.550805 C426.499363,213.550805 425.436363,213.054805 424.663363,212.063805 C423.891363,211.071805 423.505363,209.708805 423.505363,207.971805 C423.505363,206.085805 423.941363,204.581805 424.812363,203.460805 C425.684363,202.338805 426.855363,201.778805 428.324363,201.778805 C429.500363,201.778805 430.570363,202.243805 431.534363,203.172805 L431.534363,197.102805 L434.579363,197.102805 L434.579363,213.293805 L431.534363,213.293805 Z M431.534363,204.977805 C430.802363,204.157805 430.020363,203.747805 429.186363,203.747805 C428.441363,203.747805 427.846363,204.105805 427.402363,204.823805 C426.957363,205.541805 426.735363,206.505805 426.735363,207.715805 C426.735363,210.019805 427.473363,211.170805 428.950363,211.170805 C429.852363,211.170805 430.714363,210.593805 431.534363,209.438805 L431.534363,204.978805 L431.534363,204.977805 Z M438.136363,207.725805 L438.136363,205.828805 L447.498363,205.828805 L447.498363,207.725805 L438.136363,207.725805 Z M449.414363,213.293805 L455.320363,198.117805 L458.478363,198.117805 L464.385363,213.293805 L461.145363,213.293805 L459.565363,209.243805 L453.290363,209.243805 L451.710363,213.293805 L449.414363,213.293805 L449.414363,213.293805 Z M454.069363,207.223805 L458.786363,207.223805 L456.428363,201.173805 L454.069363,207.223805 Z M473.273363,213.293805 L473.273363,211.170805 C472.494363,212.756805 471.267363,213.550805 469.593363,213.550805 C468.239363,213.550805 467.176363,213.054805 466.403363,212.063805 C465.631363,211.071805 465.245363,209.708805 465.245363,207.971805 C465.245363,206.085805 465.680363,204.581805 466.552363,203.460805 C467.424363,202.338805 468.594363,201.778805 470.064363,201.778805 C471.240363,201.778805 472.310363,202.243805 473.274363,203.172805 L473.274363,197.102805 L476.319363,197.102805 L476.319363,213.293805 L473.273363,213.293805 Z M473.273363,204.977805 C472.542363,204.157805 471.759363,203.747805 470.925363,203.747805 C470.180363,203.747805 469.585363,204.105805 469.141363,204.823805 C468.697363,205.541805 468.475363,206.505805 468.475363,207.715805 C468.475363,210.019805 469.213363,211.170805 470.689363,211.170805 C471.592363,211.170805 472.453363,210.593805 473.273363,209.438805 L473.273363,204.978805 L473.273363,204.977805 Z M486.838363,213.293805 L486.838363,211.170805 C486.058363,212.756805 484.832363,213.550805 483.157363,213.550805 C481.803363,213.550805 480.740363,213.054805 479.967363,212.063805 C479.195363,211.071805 478.809363,209.708805 478.809363,207.971805 C478.809363,206.085805 479.245363,204.581805 480.117363,203.460805 C480.988363,202.338805 482.159363,201.778805 483.629363,201.778805 C484.804363,201.778805 485.874363,202.243805 486.838363,203.172805 L486.838363,197.102805 L489.883363,197.102805 L489.883363,213.293805 L486.838363,213.293805 Z M486.838363,204.977805 C486.107363,204.157805 485.324363,203.747805 484.490363,203.747805 C483.745363,203.747805 483.150363,204.105805 482.706363,204.823805 C482.261363,205.541805 482.039363,206.505805 482.039363,207.715805 C482.039363,210.019805 482.777363,211.170805 484.254363,211.170805 C485.156363,211.170805 486.018363,210.593805 486.838363,209.438805 L486.838363,204.978805 L486.838363,204.977805 Z M493.317363,213.293805 L493.317363,202.034805 L496.352363,202.034805 L496.352363,213.293805 L493.317363,213.293805 Z M493.317363,200.137805 L493.317363,197.605805 L496.352363,197.605805 L496.352363,200.137805 L493.317363,200.137805 Z M499.499363,212.934805 L499.499363,210.709805 C501.003363,211.338805 502.288363,211.652805 503.354363,211.652805 C504.598363,211.652805 505.220363,211.229805 505.220363,210.381805 C505.220363,209.834805 504.708363,209.355805 503.682363,208.945805 L502.657363,208.535805 C501.543363,208.084805 500.747363,207.599805 500.267363,207.079805 C499.789363,206.559805 499.550363,205.917805 499.550363,205.151805 C499.550363,204.085805 499.957363,203.256805 500.770363,202.665805 C501.584363,202.074805 502.722363,201.778805 504.185363,201.778805 C505.101363,201.778805 506.191363,201.911805 507.455363,202.178805 L507.455363,204.311805 C506.239363,203.887805 505.231363,203.675805 504.431363,203.675805 C503.173363,203.675805 502.544363,204.065805 502.544363,204.844805 C502.544363,205.356805 503.009363,205.791805 503.939363,206.146805 L504.821363,206.484805 C506.140363,206.984805 507.058363,207.489805 507.574363,208.002805 C508.090363,208.515805 508.348363,209.174805 508.348363,209.981805 C508.348363,211.041805 507.908363,211.901805 507.030363,212.560805 C506.152363,213.220805 505.009363,213.550805 503.600363,213.550805 C502.210747,213.545122 500.829326,213.337622 499.499363,212.934805 L499.499363,212.934805 Z M516.047363,213.549805 C514.290363,213.549805 512.894363,213.018805 511.859363,211.955805 C510.823363,210.892805 510.305363,209.461805 510.305363,207.664805 C510.305363,205.845805 510.826363,204.410805 511.869363,203.357805 C512.911363,202.304805 514.328363,201.777805 516.119363,201.777805 C517.917363,201.777805 519.337363,202.304805 520.379363,203.357805 C521.422363,204.410805 521.943363,205.838805 521.943363,207.643805 C521.943363,209.489805 521.420363,210.935805 520.374363,211.980805 C519.329363,213.026805 517.886363,213.550805 516.047363,213.550805 L516.047363,213.549805 Z M516.099363,211.652805 C517.842363,211.652805 518.713363,210.316805 518.713363,207.643805 C518.713363,206.419805 518.483363,205.453805 518.021363,204.741805 C517.560363,204.031805 516.926363,203.675805 516.119363,203.675805 C515.319363,203.675805 514.689363,204.030805 514.227363,204.741805 C513.766363,205.452805 513.535363,206.426805 513.535363,207.664805 C513.535363,208.887805 513.764363,209.858805 514.222363,210.576805 C514.680363,211.293805 515.306363,211.652805 516.099363,211.652805 L516.099363,211.652805 Z M524.382363,213.293805 L524.382363,202.034805 L527.417363,202.034805 L527.417363,204.157805 C528.409363,202.571805 529.687363,201.777805 531.252363,201.777805 C532.257363,201.777805 533.050363,202.096805 533.632363,202.731805 C534.212363,203.367805 534.502363,204.235805 534.502363,205.336805 L534.502363,213.293805 L531.468363,213.293805 L531.468363,206.085805 C531.468363,204.806805 531.044363,204.167805 530.196363,204.167805 C529.232363,204.167805 528.306363,204.847805 527.417363,206.207805 L527.417363,213.293805 L524.382363,213.293805 Z M538.142363,213.293805 L536.880363,213.293805 L536.880363,210.001805 L540.172363,210.001805 L540.172363,212.555805 C540.172363,215.241805 539.075363,216.585805 536.880363,216.585805 L536.880363,215.446805 C537.721363,215.446805 538.142363,214.838805 538.142363,213.621805 L538.142363,213.293805 Z M548.844363,213.293805 L548.844363,210.893805 L549.008363,210.668805 C549.822363,209.581805 550.656363,208.665805 551.510363,207.920805 L552.750363,206.823805 C554.795363,205.018805 555.817363,203.436805 555.817363,202.075805 C555.817363,200.489805 554.914363,199.696805 553.110363,199.696805 C551.995363,199.696805 550.703363,200.072805 549.234363,200.824805 L549.234363,198.599805 C550.779363,198.025805 552.272363,197.738805 553.714363,197.738805 C555.328363,197.738805 556.620363,198.118805 557.591363,198.881805 C558.561363,199.643805 559.047363,200.664805 559.047363,201.941805 C559.047363,202.824805 558.811363,203.627805 558.339363,204.351805 C557.867363,205.076805 557.037363,205.917805 555.847363,206.874805 L554.822363,207.694805 C553.393363,208.843805 552.546363,209.909805 552.279363,210.894805 L558.985363,210.894805 L558.985363,213.293805 L548.844363,213.293805 L548.844363,213.293805 Z M567.700363,213.673805 C565.977363,213.673805 564.577363,212.934805 563.500363,211.458805 C562.424363,209.981805 561.886363,208.064805 561.886363,205.705805 C561.886363,203.319805 562.426363,201.395805 563.506363,199.932805 C564.586363,198.469805 566.008363,197.738805 567.771363,197.738805 C569.521363,197.738805 570.938363,198.468805 572.021363,199.927805 C573.105363,201.387805 573.647363,203.299805 573.647363,205.664805 C573.647363,208.091805 573.105363,210.032805 572.022363,211.488805 C570.938363,212.944805 569.497363,213.672805 567.700363,213.672805 L567.700363,213.673805 Z M567.730363,211.775805 C569.528363,211.775805 570.427363,209.752805 570.427363,205.705805 C570.427363,201.658805 569.542363,199.635805 567.771363,199.635805 C566.001363,199.635805 565.116363,201.655805 565.116363,205.695805 C565.116363,209.749805 565.987363,211.775805 567.730363,211.775805 L567.730363,211.775805 Z M575.850363,213.293805 L575.850363,210.893805 L576.014363,210.668805 C576.828363,209.581805 577.662363,208.665805 578.516363,207.920805 L579.756363,206.823805 C581.801363,205.018805 582.823363,203.436805 582.823363,202.075805 C582.823363,200.489805 581.920363,199.696805 580.116363,199.696805 C579.001363,199.696805 577.709363,200.072805 576.240363,200.824805 L576.240363,198.599805 C577.785363,198.025805 579.278363,197.738805 580.720363,197.738805 C582.334363,197.738805 583.626363,198.118805 584.597363,198.881805 C585.567363,199.643805 586.053363,200.664805 586.053363,201.941805 C586.053363,202.824805 585.817363,203.627805 585.345363,204.351805 C584.874363,205.076805 584.043363,205.917805 582.854363,206.874805 L581.828363,207.694805 C580.399363,208.843805 579.552363,209.909805 579.285363,210.894805 L585.991363,210.894805 L585.991363,213.293805 L575.851363,213.293805 L575.850363,213.293805 Z M416.930363,159.979805 L416.930363,161.938805 C415.111363,163.770805 414.202363,166.360805 414.202363,169.710805 C414.202363,173.066805 415.112363,175.660805 416.930363,177.493805 L416.930363,179.451805 C415.268363,178.556805 413.935363,177.219805 412.930363,175.441805 C411.934139,173.696685 411.414421,171.72024 411.423363,169.710805 C411.423363,167.666805 411.917363,165.770805 412.905363,164.020805 C413.893363,162.270805 415.235363,160.922805 416.930363,159.979805 L416.930363,159.979805 Z M419.492363,176.293805 L419.492363,161.117805 L424.649363,161.117805 C426.174363,161.117805 427.334363,161.404805 428.131363,161.979805 C428.927363,162.553805 429.325363,163.390805 429.325363,164.491805 C429.325363,166.316805 428.112363,167.608805 425.685363,168.367805 C428.522363,169.057805 429.940363,170.448805 429.940363,172.540805 C429.940363,173.750805 429.525363,174.678805 428.695363,175.324805 C427.864363,175.970805 426.673363,176.293805 425.121363,176.293805 L419.491363,176.293805 L419.492363,176.293805 Z M422.465363,167.433805 L423.214363,167.433805 C424.103363,167.433805 424.808363,167.215805 425.331363,166.777805 C425.854363,166.340805 426.116363,165.745805 426.116363,164.993805 C426.116363,164.296805 425.906363,163.823805 425.486363,163.573805 C425.065363,163.323805 424.270363,163.199805 423.101363,163.199805 L422.465363,163.199805 L422.465363,167.434805 L422.465363,167.433805 Z M422.465363,174.140805 L423.142363,174.140805 C424.468363,174.140805 425.382363,173.998805 425.885363,173.714805 C426.387363,173.430805 426.639363,172.913805 426.639363,172.161805 C426.639363,171.388805 426.302363,170.746805 425.629363,170.233805 C424.955363,169.720805 424.106363,169.463805 423.081363,169.463805 L422.465363,169.463805 L422.465363,174.140805 L422.465363,174.140805 Z M439.332363,176.293805 L439.332363,174.170805 C438.347363,175.756805 437.069363,176.550805 435.497363,176.550805 C434.492363,176.550805 433.699363,176.231805 433.117363,175.596805 C432.537363,174.960805 432.247363,174.092805 432.247363,172.991805 L432.247363,165.034805 L435.281363,165.034805 L435.281363,172.243805 C435.281363,173.521805 435.709363,174.160805 436.563363,174.160805 C437.520363,174.160805 438.443363,173.480805 439.332363,172.120805 L439.332363,165.033805 L442.367363,165.033805 L442.367363,176.293805 L439.332363,176.293805 Z M451.614363,176.231805 C450.890363,176.443805 450.319363,176.549805 449.902363,176.549805 C447.270363,176.549805 445.954363,175.319805 445.954363,172.858805 L445.954363,166.931805 L444.694363,166.931805 L444.694363,165.034805 L445.954363,165.034805 L445.954363,163.137805 L448.989363,162.789805 L448.989363,165.034805 L451.399363,165.034805 L451.399363,166.931805 L448.989363,166.931805 L448.989363,172.458805 C448.989363,173.838805 449.553363,174.529805 450.681363,174.529805 C450.941363,174.529805 451.252363,174.481805 451.614363,174.386805 L451.614363,176.231805 L451.614363,176.231805 Z M459.775363,176.231805 C459.051363,176.443805 458.480363,176.549805 458.063363,176.549805 C455.431363,176.549805 454.115363,175.319805 454.115363,172.858805 L454.115363,166.931805 L452.854363,166.931805 L452.854363,165.034805 L454.115363,165.034805 L454.115363,163.137805 L457.150363,162.789805 L457.150363,165.034805 L459.560363,165.034805 L459.560363,166.931805 L457.150363,166.931805 L457.150363,172.458805 C457.150363,173.838805 457.714363,174.529805 458.842363,174.529805 C459.102363,174.529805 459.412363,174.481805 459.775363,174.386805 L459.775363,176.231805 L459.775363,176.231805 Z M462.450363,176.293805 L462.450363,166.931805 L460.902363,166.931805 L460.902363,165.034805 L462.450363,165.034805 L462.450363,164.254805 C462.450363,162.840805 462.787363,161.751805 463.460363,160.989805 C464.133363,160.227805 465.092363,159.846805 466.336363,159.846805 C467.102363,159.846805 467.916363,159.986805 468.776363,160.266805 L468.776363,162.337805 C467.929363,161.961805 467.300363,161.773805 466.890363,161.773805 C465.954363,161.773805 465.485363,162.628805 465.485363,164.337805 L465.485363,165.034805 L472.571363,165.034805 L472.571363,176.293805 L469.536363,176.293805 L469.536363,166.931805 L465.486363,166.931805 L465.486363,176.293805 L462.450363,176.293805 L462.450363,176.293805 Z M470.038363,163.137805 L470.038363,160.605805 L472.571363,160.605805 L472.571363,163.137805 L470.038363,163.137805 L470.038363,163.137805 Z M485.182363,175.913805 C483.739363,176.337805 482.372363,176.549805 481.080363,176.549805 C479.200363,176.549805 477.717363,176.016805 476.630363,174.949805 C475.543363,173.883805 475.000363,172.427805 475.000363,170.582805 C475.000363,168.838805 475.497363,167.435805 476.491363,166.372805 C477.486363,165.309805 478.801363,164.778805 480.434363,164.778805 C482.082363,164.778805 483.284363,165.298805 484.044363,166.336805 C484.802363,167.376805 485.182363,169.020805 485.182363,171.269805 L478.199363,171.269805 C478.404363,173.415805 479.583363,174.489805 481.736363,174.489805 C482.755363,174.489805 483.903363,174.252805 485.182363,173.781805 L485.182363,175.914805 L485.182363,175.913805 Z M478.158363,169.556805 L482.198363,169.556805 C482.198363,167.636805 481.579363,166.675805 480.342363,166.675805 C479.084363,166.675805 478.356363,167.635805 478.158363,169.556805 Z M487.969363,176.293805 L487.969363,160.102805 L491.004363,160.102805 L491.004363,176.292805 L487.969363,176.293805 Z M501.534363,176.293805 L501.534363,174.170805 C500.754363,175.756805 499.528363,176.550805 497.853363,176.550805 C496.499363,176.550805 495.436363,176.054805 494.663363,175.063805 C493.891363,174.071805 493.505363,172.708805 493.505363,170.971805 C493.505363,169.085805 493.941363,167.581805 494.812363,166.460805 C495.684363,165.338805 496.855363,164.778805 498.324363,164.778805 C499.500363,164.778805 500.570363,165.243805 501.534363,166.172805 L501.534363,160.102805 L504.579363,160.102805 L504.579363,176.293805 L501.534363,176.293805 Z M501.534363,167.977805 C500.802363,167.157805 500.020363,166.747805 499.186363,166.747805 C498.441363,166.747805 497.846363,167.105805 497.402363,167.823805 C496.957363,168.541805 496.735363,169.505805 496.735363,170.715805 C496.735363,173.019805 497.473363,174.170805 498.950363,174.170805 C499.852363,174.170805 500.714363,173.593805 501.534363,172.438805 L501.534363,167.978805 L501.534363,167.977805 Z M508.136363,170.725805 L508.136363,168.828805 L517.498363,168.828805 L517.498363,170.725805 L508.136363,170.725805 Z M519.414363,176.293805 L525.320363,161.117805 L528.478363,161.117805 L534.385363,176.293805 L531.145363,176.293805 L529.565363,172.243805 L523.290363,172.243805 L521.710363,176.293805 L519.414363,176.293805 L519.414363,176.293805 Z M524.069363,170.223805 L528.786363,170.223805 L526.428363,164.173805 L524.069363,170.223805 Z M543.273363,176.293805 L543.273363,174.170805 C542.494363,175.756805 541.267363,176.550805 539.593363,176.550805 C538.239363,176.550805 537.176363,176.054805 536.403363,175.063805 C535.631363,174.071805 535.245363,172.708805 535.245363,170.971805 C535.245363,169.085805 535.680363,167.581805 536.552363,166.460805 C537.424363,165.338805 538.594363,164.778805 540.064363,164.778805 C541.240363,164.778805 542.310363,165.243805 543.274363,166.172805 L543.274363,160.102805 L546.319363,160.102805 L546.319363,176.293805 L543.273363,176.293805 L543.273363,176.293805 Z M543.273363,167.977805 C542.542363,167.157805 541.759363,166.747805 540.925363,166.747805 C540.180363,166.747805 539.585363,167.105805 539.141363,167.823805 C538.697363,168.541805 538.475363,169.505805 538.475363,170.715805 C538.475363,173.019805 539.213363,174.170805 540.689363,174.170805 C541.592363,174.170805 542.453363,173.593805 543.273363,172.438805 L543.273363,167.978805 L543.273363,167.977805 Z M556.838363,176.293805 L556.838363,174.170805 C556.058363,175.756805 554.832363,176.550805 553.157363,176.550805 C551.803363,176.550805 550.740363,176.054805 549.967363,175.063805 C549.195363,174.071805 548.809363,172.708805 548.809363,170.971805 C548.809363,169.085805 549.245363,167.581805 550.117363,166.460805 C550.988363,165.338805 552.159363,164.778805 553.629363,164.778805 C554.804363,164.778805 555.874363,165.243805 556.838363,166.172805 L556.838363,160.102805 L559.883363,160.102805 L559.883363,176.293805 L556.838363,176.293805 L556.838363,176.293805 Z M556.838363,167.977805 C556.107363,167.157805 555.324363,166.747805 554.490363,166.747805 C553.745363,166.747805 553.150363,167.105805 552.706363,167.823805 C552.261363,168.541805 552.039363,169.505805 552.039363,170.715805 C552.039363,173.019805 552.777363,174.170805 554.254363,174.170805 C555.156363,174.170805 556.018363,173.593805 556.838363,172.438805 L556.838363,167.978805 L556.838363,167.977805 Z M563.317363,176.293805 L563.317363,165.034805 L566.352363,165.034805 L566.352363,176.293805 L563.317363,176.293805 Z M563.317363,163.137805 L563.317363,160.605805 L566.352363,160.605805 L566.352363,163.137805 L563.317363,163.137805 L563.317363,163.137805 Z M569.499363,175.934805 L569.499363,173.709805 C571.003363,174.338805 572.288363,174.652805 573.354363,174.652805 C574.598363,174.652805 575.220363,174.229805 575.220363,173.381805 C575.220363,172.834805 574.708363,172.355805 573.682363,171.945805 L572.657363,171.535805 C571.543363,171.084805 570.747363,170.599805 570.267363,170.079805 C569.789363,169.559805 569.550363,168.917805 569.550363,168.151805 C569.550363,167.085805 569.957363,166.256805 570.770363,165.665805 C571.584363,165.074805 572.722363,164.778805 574.185363,164.778805 C575.101363,164.778805 576.191363,164.911805 577.455363,165.178805 L577.455363,167.311805 C576.239363,166.887805 575.231363,166.675805 574.431363,166.675805 C573.173363,166.675805 572.544363,167.065805 572.544363,167.844805 C572.544363,168.356805 573.009363,168.791805 573.939363,169.146805 L574.821363,169.484805 C576.140363,169.984805 577.058363,170.489805 577.574363,171.002805 C578.090363,171.515805 578.348363,172.174805 578.348363,172.981805 C578.348363,174.041805 577.908363,174.901805 577.030363,175.560805 C576.152363,176.220805 575.009363,176.550805 573.600363,176.550805 C572.210747,176.545122 570.829326,176.337622 569.499363,175.934805 Z M586.047363,176.549805 C584.290363,176.549805 582.894363,176.018805 581.859363,174.955805 C580.823363,173.892805 580.305363,172.461805 580.305363,170.664805 C580.305363,168.845805 580.826363,167.410805 581.869363,166.357805 C582.911363,165.304805 584.328363,164.777805 586.119363,164.777805 C587.917363,164.777805 589.337363,165.304805 590.379363,166.357805 C591.422363,167.410805 591.943363,168.838805 591.943363,170.643805 C591.943363,172.489805 591.420363,173.935805 590.374363,174.980805 C589.329363,176.026805 587.886363,176.550805 586.047363,176.550805 L586.047363,176.549805 Z M586.099363,174.652805 C587.842363,174.652805 588.713363,173.316805 588.713363,170.643805 C588.713363,169.419805 588.483363,168.453805 588.021363,167.741805 C587.560363,167.031805 586.926363,166.675805 586.119363,166.675805 C585.319363,166.675805 584.689363,167.030805 584.227363,167.741805 C583.766363,168.452805 583.535363,169.426805 583.535363,170.664805 C583.535363,171.887805 583.764363,172.858805 584.222363,173.576805 C584.680363,174.293805 585.306363,174.652805 586.099363,174.652805 L586.099363,174.652805 Z" id="Shape" fill="#F59F89" fill-rule="nonzero" opacity="0.447"></path>
            <g id="Group" transform="translate(320.413363, 128.922805)" stroke="#000000">
                <g transform="translate(0.072000, 0.000000)" fill="#FFFFFF" fill-rule="nonzero" id="Path">
                    <polygon points="102.997 -5.32907052e-15 150.381 78.86 48.378 140.149 0.995 61.289"></polygon>
                    <polygon points="102.003 4.038 149.387 82.897 47.384 144.187 -5.68434189e-14 65.327"></polygon>
                </g>
                <polygon id="Path" fill="#FFFFFF" fill-rule="nonzero" points="102.003 5.071 149.387 83.93 47.384 145.22 -5.68434189e-14 66.36"></polygon>
                <path d="M109.582,56.515 L128.123,87.373 L102.408,102.825 L83.867,71.967 L109.582,56.515 Z M33.264,55.706 L51.806,86.564 L35.52,96.35 L16.978,65.492 L33.264,55.706 Z" id="Shape" fill="#FFD8CC" fill-rule="nonzero"></path>
                <path d="M79.561,74.509 L98.141,105.431 M80.389,27.347 L98.969,58.271 M84.675,24.772 L103.255,55.694 M88.961,22.197 L107.541,53.119 M76.961,29.407 L95.541,60.33 M72.675,31.983 L91.255,62.905 M68.389,34.558 L86.969,65.48 M64.961,36.618 L83.541,67.54 M60.675,39.193 L79.255,70.116 M56.389,41.768 L74.969,72.691 M52.961,43.829 L92.656,109.893 M48.675,46.405 L88.37,112.468 M44.389,48.98 L84.084,115.043 M40.96,51.04 L80.655,117.104 M36.675,53.615 L76.37,119.679 M12.674,68.036 L52.369,134.1 M52.865,90.268 L71.695,121.606 M49.436,92.328 L68.266,123.666 M45.15,94.903 L63.98,126.241 M40.864,97.478 L59.694,128.816 M37.436,99.539 L56.266,130.877" id="Shape" stroke-linecap="square"></path>
                <polygon id="Path" fill="#F59F89" fill-rule="nonzero" points="97.552 17.078 137.209 83.081 132.923 85.656 93.265 19.654"></polygon>
            </g>
            <g id="Group" transform="translate(495.662363, 130.793805)" stroke="#000000">
                <polygon id="Path" fill="#FFBAA9" fill-rule="nonzero" points="9 5 28 5 28 100 9 100"></polygon>
                <polygon id="Path" fill="#FFF7F4" fill-rule="nonzero" points="9 21 28 21 28 40 9 40"></polygon>
                <path d="M9,44 L28,44 M9,46 L28,46" id="Shape" stroke-linecap="square"></path>
                <path d="M28,16 L36,16 L36,100 L28,100 L28,16 Z M0,16 L9,16 L9,100 L0,100 L0,16 Z M36,16 L44,16 L44,100 L36,100 L36,16 Z" id="Shape" fill="#FCE6DE" fill-rule="nonzero"></path>
                <polygon id="Path" fill="#FFD8CC" fill-rule="nonzero" points="44 14 63 14 63 100 44 100"></polygon>
                <polygon id="Path" fill="#F59F89" fill-rule="nonzero" points="63 0 89 0 89 100 63 100"></polygon>
                <path d="M52,26 L58,26 L58,65 L52,65 L52,26 Z M52,71 L58,71 L58,97 L52,97 L52,71 Z" id="Shape" fill="#FFBAA9" fill-rule="nonzero"></path>
                <path d="M63,90 L88,90 M63,9 L88,9" id="Shape" stroke-linecap="square"></path>
            </g>
            <g id="Group" transform="translate(414.756387, 128.973323)" stroke="#000000">
                <polygon id="Path" fill="#F59F89" fill-rule="nonzero" points="80.9059756 44.8204825 80.9059756 101.820482 34.9059756 101.820482 34.9059756 98.8204825 77.9059756 98.8204825 77.9059756 44.8204825"></polygon>
                <g transform="translate(-0.000000, 0.000000)">
                    <polygon id="Path" fill="#FCE6DE" fill-rule="nonzero" points="51.9059756 50.8344825 68.7019756 98.8204825 35.1119756 98.8204825 51.9059756 50.8334825"></polygon>
                    <polygon id="Path" fill="#FCE6DE" fill-rule="nonzero" points="52.4059756 65.8624825 63.7059756 98.8204825 41.1059756 98.8204825 52.4059756 65.8624825"></polygon>
                    <path d="M35.4059756,98.3204825 L48.5959756,92.1964825 L63.4059756,85.3204825 M39.8599756,85.7534825 L67.9529756,97.8874825 M39.8579756,85.8764825 L57.9539756,70.7644825 M47.8639756,60.7784825 L57.9479756,70.8624825 M45.8579756,70.7644825 L63.9539756,85.8764825 M45.8639756,70.8624825 L55.9479756,60.7784825" id="Shape" stroke-linecap="square"></path>
                    <circle id="Oval" fill="#FCE6DE" fill-rule="nonzero" cx="50.9059756" cy="61.8204825" r="12"></circle>
                    <path d="M51.9859756,49.8204825 L52.7189756,52.7314825 C53.7783726,52.9417047 54.7925066,53.3367296 55.7149756,53.8984825 L56.0499756,54.1124825 L57.9559756,52.5394825 L60.1549756,54.0984825 L58.6149756,56.6764825 C59.2126346,57.5704026 59.6492217,58.5620308 59.9049756,59.6064825 L59.9949756,60.0064825 L62.4539756,60.2434825 L62.9059756,62.8994825 L59.9949756,63.6334825 C59.7846412,64.6925331 59.3896199,65.7063196 58.8279756,66.6284825 L58.6139756,66.9644825 L60.1869756,68.8704825 L58.6279756,71.0694825 L56.0499756,69.5284825 C55.1561254,70.1264933 54.1644934,70.5634205 53.1199756,70.8194825 L52.7199756,70.9094825 L52.4839756,73.3674825 L49.8269756,73.8204825 L49.0929756,70.9084825 C48.0339897,70.698458 47.0202068,70.3037766 46.0979756,69.7424825 L45.7619756,69.5284825 L43.8559756,71.1014825 L41.6579756,69.5414825 L43.1979756,66.9644825 C42.5999648,66.0706323 42.1630376,65.0790003 41.9069756,64.0344825 L41.8169756,63.6334825 L39.3589756,63.3974825 L38.9059756,60.7404825 L41.8179756,60.0074825 C42.0278879,58.9481502 42.4225729,57.9340198 42.9839756,57.0114825 L43.1989756,56.6764825 L41.6259756,54.7704825 L43.1839756,52.5714825 L45.7619756,54.1124825 C46.6557559,53.5141199 47.6473917,53.0768525 48.6919756,52.8204825 L49.0929756,52.7314825 L49.3289756,50.2724825 L51.9859756,49.8204825 L51.9859756,49.8204825 Z M50.8879756,56.4874772 C49.4781769,56.4854878 48.125722,57.0454718 47.1299756,58.0434825 C46.1315981,59.0390646 45.5712458,60.3915398 45.5729714,61.8014825 C45.5712009,63.2117278 46.1315397,64.5645304 47.1299756,65.5604825 C48.125722,66.5584932 49.4781769,67.1184772 50.8879756,67.1164878 C52.2977743,67.1184772 53.6502292,66.5584932 54.6459756,65.5604825 C55.644599,64.5646559 56.2049717,63.2117716 56.2029809,61.8014825 C56.2047054,60.3915398 55.6443531,59.0390646 54.6459756,58.0434825 C53.6502292,57.0454718 52.2977743,56.4854878 50.8879756,56.4874772 L50.8879756,56.4874772 Z" id="Shape" fill="#FFBAA9" fill-rule="nonzero"></path>
                    <g transform="translate(41.420112, 39.800592) rotate(15.000000) translate(-41.420112, -39.800592) translate(7.116725, 7.787552)">
                        <path d="M26.2367714,22.8794987 C33.5327714,17.1794987 41.0667714,13.2034987 47.3517714,11.3924987 C50.5057714,10.4824987 53.3397714,10.1194987 55.6617714,10.3704987 C57.7897714,10.6004987 59.4807714,11.3474987 60.5407714,12.7034987 C63.2027714,16.1114987 65.0607714,25.6914987 63.2887714,35.2884987 C62.0317714,42.0954987 58.9367714,48.9314987 52.9407714,53.6164987 C46.7707714,58.4364987 38.5377714,60.1984987 30.7707714,60.1984987 C20.3407714,60.1984987 10.6767714,57.0464987 8.06477138,53.7024987 C7.00477138,52.3464987 6.68877138,50.5254987 6.98077138,48.4044987 C7.29777138,46.0904987 8.33677138,43.4284987 9.98277138,40.5884987 C13.2607714,34.9284987 18.9407714,28.5794987 26.2367714,22.8794987 Z" id="Path" fill="#FCE6DE" fill-rule="nonzero"></path>
                        <ellipse id="Oval" fill="#FFBAA9" fill-rule="nonzero" transform="translate(34.303387, 33.203287) rotate(-38.000000) translate(-34.303387, -33.203287) " cx="34.303387" cy="33.2032867" rx="33.296" ry="13.101"></ellipse>
                        <line x1="13.4307714" y1="45.1404987" x2="12.0967714" y2="1.97049868" id="Path" stroke-linecap="square"></line>
                        <path d="M10.8317714,1.56149868 C11.8377714,0.775498682 12.9067714,0.261498682 13.8247714,0.0754986823 C14.2467714,-0.0105013177 14.6347714,-0.0265013177 14.9587714,0.0454986823 C15.2037714,0.0984986823 15.4117714,0.202498682 15.5487714,0.379498682 C15.9587714,0.902498682 16.0627714,2.04549868 15.8027714,3.18349868 C15.5857714,4.13049868 15.0987714,5.09649868 14.2397714,5.76749868 C13.3677714,6.44849868 12.2667714,6.70749868 11.2517714,6.70749868 C10.0637714,6.70749868 8.94877138,6.37249868 8.54277138,5.85349868 C8.40477138,5.67649868 8.35477138,5.45049868 8.36177138,5.19949868 C8.37177138,4.86649868 8.47977138,4.49549868 8.66577138,4.10649868 C9.06777138,3.26049868 9.82577138,2.34749868 10.8317714,1.56149868 L10.8317714,1.56149868 Z" id="Path" fill="#FFBAA9" fill-rule="nonzero"></path>
                        <path d="M44.3487714,41.1384987 L11.1777714,1.97149868 M48.3487714,18.1344987 L15.1777714,2.97649868" id="Shape" stroke-linecap="square"></path>
                    </g>
                </g>
            </g>
            <g id="Group" transform="translate(126.635363, 129.527347)" fill-rule="nonzero" stroke="#000000">
                <path d="M98.449,6.34245881 C109.874,6.94145881 126.249,9.54645881 147.575,14.1544588 L143.803,86.1364588 C122.271,81.6704588 105.892,79.1454588 94.665,78.5564588 C83.301,77.9614588 76.531,79.3864588 74.12,82.5664588 L71.897,82.4504588 L75.684,10.1834588 C79.675,7.00145881 87.282,5.75745881 98.449,6.34345881 L98.449,6.34245881 Z" id="Path" fill="#FFBAA9"></path>
                <path d="M94.882,6.15645881 C105.977,6.73645881 121.88,9.26645881 142.59,13.7414588 L138.927,83.6374588 C118.017,79.3014588 102.111,76.8494588 91.207,76.2774588 C81.257,75.7574588 74.932,76.8304588 72.062,79.3074588 L75.697,9.93545881 C76.647,8.41045881 78.67,7.37145881 81.694,6.73845881 C84.946,6.05645881 89.342,5.86545881 94.882,6.15545881 L94.882,6.15645881 Z" id="Path" fill="#FCE6DE"></path>
                <path d="M94.987,4.15845881 C106.082,4.74045881 121.985,7.27045881 142.695,11.7444588 L139.032,81.6404588 C118.122,77.3044588 102.215,74.8524588 91.312,74.2804588 C81.362,73.7604588 75.037,74.8334588 72.166,77.3104588 L75.802,7.93745881 C76.752,6.41245881 78.775,5.37445881 81.798,4.74045881 C85.051,4.05945881 89.447,3.86845881 94.987,4.15845881 Z" id="Path" fill="#FCE6DE"></path>
                <path d="M95.091,2.16145881 C106.187,2.74245881 122.089,5.27245881 142.799,9.74745881 L139.136,79.6434588 C118.226,75.3074588 102.32,72.8554588 91.416,72.2834588 C81.466,71.7624588 75.142,72.8364588 72.271,75.3134588 L75.907,5.94045881 C76.857,4.41545881 78.88,3.37645881 81.903,2.74345881 C85.155,2.06245881 89.552,1.87045881 95.091,2.16145881 L95.091,2.16145881 Z" id="Path" fill="#FCE6DE"></path>
                <path d="M53.446,3.98445881 C42.021,3.38545881 25.463,4.26445881 3.772,6.61845881 L-1.42108547e-14,78.5994588 C21.88,76.4094588 38.434,75.6094588 49.661,76.1984588 C61.025,76.7944588 67.609,78.9184588 69.674,82.3344588 L71.897,82.4504588 L75.684,10.1834588 C72.048,6.60145881 64.614,4.56945881 53.446,3.98345881 L53.446,3.98445881 Z" id="Path" fill="#FFBAA9"></path>
                <path d="M57.013,4.17145881 C45.918,3.58945881 29.838,4.44345881 8.773,6.72845881 L5.11,76.6244588 C26.359,74.4974588 42.435,73.7224588 53.338,74.2944588 C63.288,74.8144588 69.466,76.5444588 72.062,79.3084588 L75.697,9.93545881 C74.913,8.31945881 73.009,7.07545881 70.068,6.12845881 C66.905,5.11145881 62.553,4.46145881 57.013,4.17145881 L57.013,4.17145881 Z" id="Path" fill="#FCE6DE"></path>
                <path d="M57.117,2.17345881 C46.022,1.59245881 29.943,2.44645881 8.878,4.73145881 L5.215,74.6274588 C26.463,72.5004588 42.539,71.7244588 53.443,72.2964588 C63.393,72.8174588 69.571,74.5464588 72.166,77.3104588 L75.802,7.93745881 C75.017,6.32245881 73.114,5.07745881 70.173,4.13145881 C67.01,3.11345881 62.658,2.46445881 57.118,2.17345881 L57.117,2.17345881 Z" id="Path" fill="#FCE6DE"></path>
                <path d="M57.223,0.176458809 C46.127,-0.404541191 30.047,0.449458809 8.983,2.73445881 L5.32,72.6304588 C26.568,70.5034588 42.644,69.7274588 53.548,70.2994588 C63.498,70.8204588 69.675,72.5494588 72.271,75.3134588 L75.907,5.94045881 C75.122,4.32445881 73.218,3.08045881 70.277,2.13445881 C67.114,1.11645881 62.762,0.466458809 57.223,0.176458809 L57.223,0.176458809 Z" id="Path" fill="#FCE6DE"></path>
            </g>
            <g id="Group" transform="translate(56.459363, 133.456805)" stroke="#000000">
                <polygon id="Path" fill="#F59F89" fill-rule="nonzero" points="17.213 16 63.213 95.674 47.625 104.674 1.625 25"></polygon>
                <polygon id="Path" fill="#FFFFFF" fill-rule="nonzero" points="101.501 80.193 101.501 87.569 51.088 116.674 5.088 37 55.337 7.989 101.501 80.193"></polygon>
                <polygon id="Path" fill="#FFD8CC" fill-rule="nonzero" points="101.316 79.671 43.377 112.623 -1.42108547e-14 36.919 1.378 31.142 55.318 3.55271368e-15"></polygon>
                <polygon id="Path" fill="#FFD8CC" fill-rule="nonzero" points="55.318 -3.55271368e-15 101.318 79.674 47.624 110.674 1.624 31"></polygon>
                <path d="M101.203,83.337 L71.203,100.337 M101.203,85.337 L71.203,102.337" id="Shape" stroke-linecap="square"></path>
                <polygon id="Path" fill="#FFFFFF" fill-rule="nonzero" points="5.516 32.043 41.889 11.043 50.889 26.631 14.516 47.631"></polygon>
            </g>
            <g id="Group" transform="translate(153.662363, 176.793805)" stroke="#000000">
                <polygon id="Path" fill="#F59F89" fill-rule="nonzero" points="0 0 166 0 166 17 0 17"></polygon>
                <path d="M3,0 L3,5 M13,0 L13,5 M23,0 L23,5 M33,0 L33,5 M43,0 L43,5 M53,0 L53,5 M63,0 L63,5 M73,0 L73,5 M83,0 L83,5 M93,0 L93,5 M103,0 L103,5 M113,0 L113,5 M123,0 L123,5 M133,0 L133,5 M143,0 L143,5 M153,0 L153,5 M8,0.75 L8,3.25 M18,0.75 L18,3.25 M28,0.75 L28,3.25 M38,0.75 L38,3.25 M48,0.75 L48,3.25 M58,0.75 L58,3.25 M68,0.75 L68,3.25 M78,0.75 L78,3.25 M88,0.75 L88,3.25 M98,0.75 L98,3.25 M108,0.75 L108,3.25 M118,0.75 L118,3.25 M128,0.75 L128,3.25 M138,0.75 L138,3.25 M148,0.75 L148,3.25 M158,0.75 L158,3.25 M163,0 L163,5" id="Shape" stroke-linecap="square"></path>
            </g>
            <g id="Group" transform="translate(236.798363, 123.227624)" fill-rule="nonzero" stroke="#000000">
                <polygon id="Path" fill="#FFD8CC" points="8.718 36.6031812 65.568 5.09118124 67.508 8.58918124 10.658 40.1021812"></polygon>
                <path d="M7.749,34.8541812 L64.599,3.34218124 L65.569,5.09118124 L8.719,36.6031812 L7.749,34.8541812 Z M10.658,40.1021812 L67.508,8.58918124 L68.478,10.3391812 L11.628,41.8511812 L10.658,40.1021812 Z" id="Shape" fill="#FFD8CC"></path>
                <polygon id="Path" fill="#FFFFFF" points="64.599 3.34218124 66.349 2.37218124 70.227 9.36918124 68.477 10.3391812"></polygon>
                <path d="M66.348,2.37218124 L70.227,9.36918124 L74.163,7.18718124 C74.525,6.98718124 74.772,6.65718124 74.877,6.28918124 C74.9875814,5.90706318 74.9407733,5.49659219 74.747,5.14918124 L72.323,0.775181244 C72.1311488,0.42595286 71.807824,0.167760551 71.4248053,0.0579243019 C71.0417866,-0.0519119474 70.6307688,-0.00430317128 70.283,0.190181244 L70.284,0.190181244 L66.348,2.37218124 L66.348,2.37218124 Z" id="Path" fill="#FFBAA9"></path>
                <polygon id="Path" fill="#FFFFFF" points="6.982 35.5331812 10.645 42.1431812 0.001 43.7231812 6.981 35.5331812"></polygon>
                <polygon id="Path" fill="#FFBAA9" points="2.132 41.2221812 3.25 43.2401812 -2.84217094e-14 43.7221812"></polygon>
            </g>
            <g id="Group" transform="translate(12.006363, 138.320805)" fill-rule="nonzero" stroke="#000000">
                <polygon id="Path" fill="#FFFFFF" points="3.55271368e-15 9.326 7.552 0 29.312 17.621 21.76 26.947"></polygon>
                <polygon id="Path" fill="#FFBAA9" points="3.55271368e-15 9.325 7.552 0 24.65 13.845 17.098 23.17"></polygon>
            </g>
        </g>
    </g>
</svg>