<svg xmlns="http://www.w3.org/2000/svg" xmlns:xlink="http://www.w3.org/1999/xlink" viewBox="0 0 591 115">
  <defs>
    <path id="a" d="M8.276 7 .543 13.015c-.07-1.662-.057-2.88.043-3.652.126-.968.39-1.855.626-2.655.273-.924.505-1.74.505-2.44 0-1.005-.084-1.855-.243-2.559L8.276 7Z"/>
    <path id="b" d="M27.814 7 35.547.985c.07 1.662.057 2.88-.043 3.652-.125.968-.39 1.855-.626 2.655-.272.924-.504 1.74-.504 2.44 0 1.005.084 1.855.243 2.559L27.814 7Z"/>
  </defs>
  <g fill="none" fill-rule="evenodd">
    <path fill="#FFBAA9" fill-rule="nonzero" d="M209.012 41.53c-2.457 1.256-5.43 1.975-8.917 2.157-4.26.224-7.64-.802-10.141-3.076-2.502-2.275-3.865-5.56-4.09-9.855-.23-4.376.79-7.807 3.06-10.29 2.27-2.484 5.622-3.842 10.058-4.074a36.327 36.327 0 0 1 8.496.558l.221 4.23c-3.23-.945-5.915-1.362-8.057-1.25-2.738.144-4.805 1.124-6.2 2.94-1.395 1.815-2.01 4.32-1.842 7.515.165 3.137 1.092 5.54 2.781 7.212 1.69 1.672 3.956 2.433 6.8 2.284 2.551-.133 5.092-.912 7.622-2.335l.21 3.984Zm12.275.836c-3.007.157-5.445-.627-7.314-2.354-1.868-1.727-2.883-4.13-3.044-7.207-.163-3.113.6-5.617 2.29-7.513s4.069-2.924 7.135-3.085c3.078-.161 5.556.613 7.435 2.321 1.88 1.709 2.9 4.108 3.062 7.198.165 3.16-.6 5.681-2.297 7.566-1.696 1.884-4.119 2.909-7.267 3.074Zm-.082-3.252c2.984-.157 4.356-2.523 4.116-7.099-.11-2.094-.591-3.73-1.445-4.905-.854-1.176-1.971-1.728-3.352-1.655-1.37.071-2.417.737-3.143 1.995s-1.034 2.947-.923 5.065c.11 2.095.59 3.736 1.438 4.924.848 1.187 1.951 1.746 3.309 1.675Zm14.328 2.065-1.01-19.274 5.196-.273.19 3.634c1.555-2.804 3.672-4.276 6.352-4.417 1.72-.09 3.107.383 4.158 1.42 1.052 1.036 1.627 2.496 1.726 4.38l.714 13.622-5.196.272-.647-12.34c-.114-2.189-.897-3.245-2.348-3.169-1.65.087-3.175 1.334-4.574 3.743l.635 12.13-5.196.272Zm23.465 4.773.224-3.797c2.193.871 4.26 1.256 6.204 1.154 1.919-.1 3.284-.583 4.095-1.447.812-.864 1.17-2.215 1.073-4.052l-.138-2.633c-1.118 2.84-3.135 4.336-6.049 4.489-2.293.12-4.158-.642-5.594-2.286-1.435-1.644-2.23-3.929-2.383-6.854-.162-3.078.464-5.584 1.876-7.518 1.413-1.934 3.371-2.967 5.876-3.098 1.966-.103 3.827.598 5.584 2.101l.442-1.977 4.67-.244.77 14.71c.154 2.937.087 5.065-.202 6.383a6.748 6.748 0 0 1-1.906 3.426c-1.654 1.59-4.054 2.466-7.202 2.63-2.236.118-4.682-.211-7.34-.987Zm11.3-13.794-.373-7.11c-1.326-1.35-2.674-1.99-4.043-1.918-1.31.069-2.321.72-3.031 1.955-.71 1.234-1.012 2.857-.906 4.87.197 3.768 1.507 5.59 3.93 5.462 1.673-.088 3.147-1.174 4.423-3.26Zm11.362 6.604-1.01-19.275 5.196-.272.19 3.634c1.204-2.786 3.181-4.25 5.931-4.395a4.43 4.43 0 0 1 .971.055l.243 4.634c-.751-.23-1.443-.33-2.075-.296-2.071.108-3.701 1.244-4.89 3.407l.64 12.235-5.195.273Zm25.08-3.392c-1.645 1.764-3.456 2.698-5.433 2.802-1.686.088-3.082-.355-4.189-1.33-1.107-.974-1.704-2.28-1.79-3.919-.111-2.13.654-3.816 2.296-5.058 1.643-1.242 4.05-1.946 7.221-2.112l1.387-.073-.092-1.755c-.105-2.001-1.298-2.942-3.58-2.822-2.025.106-4.043.786-6.054 2.042l-.188-3.581c2.306-1.013 4.611-1.58 6.917-1.7 5.044-.265 7.67 1.61 7.881 5.624l.447 8.531c.08 1.51.604 2.24 1.576 2.188a4.27 4.27 0 0 0 .68-.106l.276 2.908c-1.083.385-2.045.6-2.888.644-2.13.112-3.543-.653-4.24-2.295l-.227.012Zm-.147-2.791-.205-3.915-1.228.065c-3.36.176-4.983 1.317-4.873 3.424.038.713.312 1.3.823 1.76.511.46 1.123.672 1.837.635 1.217-.064 2.433-.72 3.646-1.969Zm21.277 3.655c-1.221.428-2.189.66-2.903.698-4.505.236-6.869-1.752-7.09-5.965l-.531-10.147-2.16.114-.17-3.248 2.16-.113-.17-3.248 5.164-.869.202 3.845 4.125-.217.17 3.248-4.125.216.496 9.462c.124 2.364 1.151 3.495 3.082 3.394.445-.023.973-.133 1.585-.33l.165 3.16Zm15.96-.731-.19-3.633c-1.543 2.803-3.66 4.275-6.352 4.416-1.72.09-3.107-.383-4.158-1.419-1.052-1.036-1.627-2.496-1.726-4.38l-.714-13.622 5.196-.273.647 12.34c.114 2.19.903 3.245 2.366 3.169 1.638-.086 3.157-1.334 4.557-3.742l-.636-12.13 5.196-.272 1.01 19.274-5.196.272Zm11.092-.581-1.453-27.718 5.196-.272 1.452 27.718zm20.428-3.148c-1.645 1.765-3.456 2.699-5.434 2.802-1.685.089-3.081-.355-4.189-1.33-1.107-.974-1.703-2.28-1.79-3.919-.11-2.13.655-3.816 2.297-5.057 1.642-1.242 4.05-1.946 7.22-2.113l1.387-.072-.092-1.756c-.105-2-1.298-2.942-3.58-2.822-2.025.106-4.043.787-6.054 2.042l-.188-3.58c2.306-1.014 4.612-1.58 6.917-1.701 5.044-.264 7.671 1.61 7.881 5.624l.448 8.532c.079 1.51.604 2.239 1.575 2.188.176-.01.403-.045.681-.106l.276 2.907c-1.083.386-2.046.6-2.889.644-2.13.112-3.542-.653-4.239-2.295l-.228.012Zm-.147-2.79-.205-3.915-1.23.064c-3.358.176-4.982 1.317-4.872 3.424.038.714.312 1.3.823 1.761.511.46 1.124.672 1.838.634 1.217-.064 2.432-.72 3.646-1.969Zm21.277 3.655c-1.222.427-2.19.66-2.903.697-4.506.236-6.87-1.752-7.09-5.965l-.532-10.146-2.159.113-.17-3.248 2.16-.113-.171-3.247 5.165-.87.201 3.845 4.125-.216.17 3.247-4.125.217.496 9.461c.124 2.364 1.151 3.495 3.082 3.394.445-.023.973-.133 1.585-.33l.166 3.16Zm4.04-.107-1.01-19.274 5.196-.272 1.01 19.274-5.196.272Zm-1.18-22.521-.227-4.336 5.196-.273.227 4.336-5.196.273Zm20.387 21.955c-3.007.157-5.445-.627-7.314-2.354-1.868-1.727-2.883-4.13-3.044-7.207-.163-3.113.6-5.617 2.29-7.513s4.069-2.924 7.135-3.085c3.078-.161 5.556.613 7.435 2.321 1.88 1.71 2.9 4.108 3.062 7.198.166 3.16-.6 5.681-2.297 7.566-1.696 1.884-4.119 2.909-7.267 3.074Zm-.082-3.252c2.984-.157 4.356-2.523 4.116-7.099-.11-2.094-.591-3.73-1.445-4.905-.853-1.176-1.97-1.728-3.352-1.655-1.369.072-2.417.737-3.143 1.995-.726 1.259-1.033 2.947-.922 5.065.11 2.095.588 3.736 1.437 4.924.848 1.188 1.951 1.746 3.309 1.675Zm14.328 2.066-1.01-19.275 5.196-.272.19 3.633c1.555-2.804 3.673-4.276 6.353-4.416 1.72-.09 3.106.382 4.158 1.419 1.051 1.036 1.627 2.496 1.725 4.38l.714 13.622-5.196.272-.646-12.34c-.115-2.188-.898-3.245-2.35-3.169-1.65.087-3.174 1.334-4.573 3.743l.635 12.13-5.196.272Zm22.47-1.795-.2-3.809c2.632.942 4.86 1.365 6.685 1.27 2.13-.112 3.157-.894 3.081-2.345-.049-.936-.97-1.71-2.762-2.32l-1.792-.61c-1.948-.672-3.355-1.431-4.22-2.278-.866-.846-1.334-1.925-1.402-3.236-.096-1.825.526-3.28 1.866-4.366 1.34-1.085 3.261-1.693 5.765-1.825 1.569-.082 3.447.048 5.636.391l.191 3.652c-2.12-.617-3.866-.89-5.235-.817-2.153.113-3.195.836-3.125 2.17.046.878.88 1.58 2.504 2.104l1.54.5c2.303.736 3.92 1.52 4.85 2.352.929.83 1.43 1.937 1.502 3.318.095 1.814-.58 3.325-2.024 4.533-1.445 1.208-3.372 1.875-5.783 2.002-2.317.121-4.676-.107-7.077-.686Zm20.059-.435-.227-4.336 5.196-.272.227 4.336-5.196.272Zm.475-7.4-1.564-13.384-.272-5.196 5.196-.272.272 5.196-.156 13.474-3.476.182Z" opacity=".445"/>
    <g stroke="#000">
      <path fill="#FFF" d="m471.294 23.373 89.642-20.696 26.77 115.95-89.642 20.696z"/>
      <path fill="#FFD8CC" d="m522.563 32.062 35.077-8.098 6.749 29.231-35.077 8.099zm-24.353 72.333 35.078-8.099 4.274 18.513-35.078 8.099z"/>
      <path stroke-linecap="square" d="m530.4 66.174 35.15-8.115m-79.748-7.246 35.15-8.116m-36.275 3.243 35.15-8.114m-36.275 3.243 35.15-8.115m-32 21.756 35.15-8.115m-34.026 12.987 35.15-8.115m-34.025 12.987 35.15-8.115M489.85 68.351l35.151-8.115m-34.025 12.987 35.15-8.115M492.1 78.095l35.15-8.115m-34.249 12.012 75.097-17.337m-73.972 22.209 75.097-17.337M495.25 91.736l75.097-17.338M496.15 95.633l75.097-17.337m-73.972 22.209 75.097-17.337m-68.798 44.62 75.097-17.338m-41.534-14.016 35.623-8.224m-34.723 12.121 35.623-8.224m-34.498 13.096 35.623-8.224m-34.499 13.096 35.623-8.224m-34.723 12.122 35.623-8.225"/>
      <path fill="#F59F89" d="m480.664 28.394 75.027-17.322 1.8 7.795-75.027 17.322z"/>
    </g>
    <path fill="#FFF" stroke="#000" d="m492.677 15.097 91.874 4.814-6.228 118.837-91.874-4.815z"/>
    <path fill="#FFD8CC" stroke="#000" d="m539.565 37.581 35.95 1.884-1.57 29.96-35.95-1.885zm-43.347 62.818 35.95 1.884-.994 18.974-35.95-1.884z"/>
    <path stroke="#000" stroke-linecap="square" d="m537.695 72.531 36.025 1.888m-74.661-28.947 36.026 1.888m-35.765-6.881 36.026 1.888m-35.764-6.881 36.026 1.888M498.85 49.467l36.025 1.888m-36.287 3.105 36.026 1.888m-36.288 3.105 36.026 1.888m-36.235 2.106 36.026 1.889m-36.288 3.104 36.026 1.889m-36.287 3.105 36.025 1.888m-36.234 2.106 76.967 4.034m-77.228.959 76.966 4.034m-77.228.96 76.966 4.033m-77.175-.038 76.966 4.033m-77.229.959 76.967 4.034m-73.146-76.934 76.967 4.034m-41.348 75.94 36.51 1.914m-36.719 2.08 36.51 1.914m-36.771 3.08 36.51 1.913"/>
    <path fill="#000" d="m499.67 24.976 77.893 4.082-.314 5.992-77.893-4.082z"/>
    <g fill="#FFBAA9" stroke="#000">
      <path d="M368.005 78.5c-.09 8.177.957 14.012 3.089 17.524 2.149 3.54 6.937 7.25 14.406 11.092V118.5h-46v-11.38c7.124-3.556 11.831-7.266 14.156-11.096 2.306-3.8 3.434-9.635 3.34-17.524Z"/>
      <path d="M336.391 30.611c11.12 1.28 19.993 1.953 26.65 1.953 6.536 0 15.209-.649 26.02-1.948a44.018 44.018 0 0 1 1.684 5.189c4.196-.488 7.52-.653 10.278-.08 2.576.534 4.655 1.713 5.965 3.596 1.11 1.596 1.56 3.542 1.438 5.694-.13 2.3-.908 4.83-2.242 7.433-2.657 5.186-7.513 10.65-13.927 15.171-2.97 2.093-6.014 3.801-9 5.105-6.388 8.073-14.51 13.114-20.504 12.777-5.76-.324-13.492-4.91-19.6-12.126a54.782 54.782 0 0 1-10.41-5.756c-6.414-4.52-11.27-9.985-13.927-15.171-1.334-2.604-2.112-5.134-2.242-7.433-.121-2.152.328-4.098 1.438-5.694 1.336-1.92 3.472-3.108 6.12-3.627 2.834-.556 6.251-.347 9.941.574.524-.038.564-.2.606-.361a43.864 43.864 0 0 1 1.712-5.296Zm-3.295 10.727c-3.789-.22-6.775.8-8.339 3.048-.917 1.318-1.273 2.947-1.11 4.774.163 1.824.847 3.85 1.994 5.945 2.207 4.034 6.135 8.342 11.269 11.96.373.264.748.52 1.123.769l1.806 1.195-1.099-1.866-.29-.501c-3.164-5.54-5.23-12.005-5.23-18.981a49.02 49.02 0 0 1 .407-6.304 17.273 17.273 0 0 0-.531-.04Zm67.147 3.048c-1.498-2.153-4.297-3.18-7.878-3.069-.185.006-.367.015-.547.026l.067.534c.227 1.892.345 3.83.345 5.804 0 6.799-1.962 13.244-4.87 18.742a45.046 45.046 0 0 1-1.012 1.812 45.14 45.14 0 0 0 1.742-1.17c5.134-3.618 9.062-7.926 11.269-11.96 1.147-2.096 1.83-4.121 1.994-5.945.163-1.827-.193-3.456-1.11-4.774Z"/>
    </g>
    <g fill="#FFD8CC" stroke="#000" transform="translate(98 71)">
      <ellipse cx="55.5" cy="20.5" rx="55" ry="20"/>
      <ellipse cx="55.5" cy="22.5" rx="34" ry="12"/>
    </g>
    <g stroke="#000" stroke-linecap="square">
      <path stroke-width="3" d="m387.932 62.236 31.445-12.748"/>
      <path stroke-width="2" d="m421.135 48.726 22.178-8.992"/>
      <path d="m443.6 39.765 22.18-8.992"/>
    </g>
    <g transform="translate(375 55)">
      <path fill="#FFD8CC" stroke="#000" d="M.5 2.5h110v58H.5z"/>
      <circle cx="29.5" cy="31.5" r="19" fill="#FFBAA9" stroke="#000"/>
      <path stroke="#F59F89" stroke-linecap="square" d="m23.64 48.52 11.72-34.04M18.912 46.891l11.72-34.038m-2.265 37.294 11.72-34.038m-6.341 33.775 10.418-30.257M14.836 43.373l10.418-30.257m14.848 33.668 7.162-20.801M11.736 37.017l7.162-20.801M12.48 25.64l34.04 11.72M14.109 20.912l34.038 11.72m-37.294-2.265 34.038 11.72m-33.775-6.341 30.257 10.418M17.627 16.836l30.257 10.418M14.216 42.102l20.801 7.162M23.983 13.736l20.801 7.162"/>
      <circle cx="29.5" cy="31.5" r="19" stroke="#000"/>
      <path fill="#FFF" stroke="#000" d="M68.5 14.5h30v35h-30z"/>
      <path stroke="#000" stroke-linecap="square" d="M69.5 22.5h5"/>
      <path stroke="#F59F89" stroke-linecap="square" d="M69.5 24.5h28"/>
      <path fill="#F59F89" stroke="#000" d="M68.5 52.5h13v3h-13zm9-53h8v3h-8zm13 0h8v3h-8zm-5 53h13v3h-13z"/>
      <path stroke="#000" stroke-linecap="square" d="M69.5 17.5h5m-5 10h5m-5 5h5m-5 5h5m-5 5h5m-5 5h5"/>
    </g>
    <g stroke="#000">
      <path fill="#FFF" d="m163.822 58.879 67.116 10.615c-1.105 9.09-2.657 15.705-4.673 19.84-2.017 4.135-6.275 9.431-12.758 15.898l-49.685-46.353Z"/>
      <path fill="#FFF7F4" d="m163.822 58.879 56.802 8.984c-.938 7.687-2.252 13.285-3.961 16.788s-5.31 7.986-10.79 13.457l-42.051-39.23Z"/>
      <path fill="#FFD8CC" d="m163.822 58.879 45.217 7.151c-.751 6.112-1.8 10.567-3.162 13.36-1.362 2.794-4.228 6.363-8.581 10.717l-33.474-31.228Z"/>
      <path fill="#F59F89" d="m163.822 58.879 28.804 4.555c-.486 3.88-1.156 6.717-2.028 8.504-.872 1.787-2.694 4.062-5.453 6.834l-21.323-19.893Z"/>
    </g>
    <g stroke="#000">
      <path fill="#FFF" d="m166.5 28.709 19.881 64.977c-8.654 2.992-15.28 4.497-19.881 4.497-4.6 0-11.227-1.505-19.881-4.497L166.5 28.709Z"/>
      <path fill="#FFF7F4" d="M166.5 28.709 183.326 83.7c-7.32 2.526-12.928 3.799-16.826 3.799-3.898 0-9.505-1.273-16.826-3.8L166.5 28.71Z"/>
      <path fill="#FFD8CC" d="m166.5 28.709 13.394 43.775C174.072 74.49 169.608 75.5 166.5 75.5c-3.108 0-7.572-1.011-13.394-3.016L166.5 28.71Z"/>
      <path fill="#F59F89" d="m166.5 28.709 8.532 27.885c-3.7 1.265-6.544 1.906-8.532 1.906-1.988 0-4.832-.64-8.532-1.906L166.5 28.71Z"/>
    </g>
    <g stroke="#000" transform="translate(217 27)">
      <path fill="#FFF" d="M129.5 42.5V82c0 2.31-1.72 4.475-4.7 6.468-3.26 2.18-8.041 4.136-13.971 5.778C99.1 97.494 82.897 99.5 65 99.5c-17.703 0-33.75-1.963-45.446-5.149-5.923-1.613-10.726-3.537-14.049-5.683C2.46 86.702.65 84.565.51 82.283L.5 42.5h129Z"/>
      <path fill="#FFF" d="M.5 42.5h129V64c0 2.31-1.72 4.475-4.7 6.468-3.26 2.18-8.041 4.136-13.971 5.778C99.1 79.494 82.897 81.5 65 81.5c-17.703 0-33.75-1.963-45.446-5.149-5.923-1.613-10.726-3.537-14.049-5.683C2.46 68.702.65 66.565.51 64.283L.5 42.5Z"/>
      <path fill="#FFD8CC" stroke-linecap="square" d="M129.366 43.343.5 42v7.365c7.796 6.02 13.625 9.446 17.488 10.275 8.2 1.76 17.755.355 22.096 1.132 10.425 1.868 19.2 3.947 26.224 3.728 6.311-.197 13.832-1.318 22.56-3.362 3.493-.817 11.134-.778 17.11-2.638 3.526-1.098 8.805-3.286 15.837-6.566 1.48-.69 3.998-.896 7.551-.617v-7.974Z"/>
      <ellipse cx="65" cy="42" fill="#FFD8CC" rx="64.5" ry="17.5"/>
      <path fill="#F59F89" d="M22.5 21.5h4v22h-4z"/>
      <path fill="#FFD8CC" d="M24.5 11.005c1.978 3.485 3 5.865 3 7.15 0 .93-.34 1.773-.895 2.382-.539.592-1.282.963-2.105.963s-1.566-.37-2.105-.963a3.531 3.531 0 0 1-.895-2.382c0-1.285 1.022-3.666 3-7.15Z"/>
      <path fill="#FFF" d="M24.5 15.87c1.303 1.886 2 3.177 2 3.887 0 .476-.22.903-.566 1.214a2.14 2.14 0 0 1-1.434.529 2.14 2.14 0 0 1-1.434-.53c-.346-.31-.566-.737-.566-1.213 0-.71.697-2.002 2-3.886Z"/>
      <path fill="#F59F89" d="M42.5 11.5h4v22h-4z"/>
      <path fill="#FFD8CC" d="M44.5 1.005c1.978 3.485 3 5.865 3 7.15 0 .93-.34 1.773-.895 2.382-.539.592-1.282.963-2.105.963s-1.566-.37-2.105-.963a3.531 3.531 0 0 1-.895-2.382c0-1.285 1.022-3.666 3-7.15Z"/>
      <path fill="#FFF" d="M44.5 5.87c1.303 1.886 2 3.177 2 3.887 0 .476-.22.903-.566 1.214a2.14 2.14 0 0 1-1.434.529 2.14 2.14 0 0 1-1.434-.53c-.346-.31-.566-.737-.566-1.213 0-.71.697-2.002 2-3.886Z"/>
      <path fill="#F59F89" d="M59.5 26.5h4v22h-4z"/>
      <path fill="#FFD8CC" d="M61.5 16.005c1.978 3.485 3 5.865 3 7.15 0 .93-.34 1.773-.895 2.382-.539.592-1.282.963-2.105.963s-1.566-.37-2.105-.963a3.531 3.531 0 0 1-.895-2.382c0-1.285 1.022-3.666 3-7.15Z"/>
      <path fill="#FFF" d="M61.5 20.87c1.303 1.886 2 3.177 2 3.887 0 .476-.22.903-.566 1.214a2.14 2.14 0 0 1-1.434.529 2.14 2.14 0 0 1-1.434-.53c-.346-.31-.566-.737-.566-1.213 0-.71.697-2.002 2-3.886Z"/>
      <path fill="#F59F89" d="M83.5 11.5h4v22h-4z"/>
      <path fill="#FFD8CC" d="M85.5 1.005c1.978 3.485 3 5.865 3 7.15 0 .93-.34 1.773-.895 2.382-.539.592-1.282.963-2.105.963s-1.566-.37-2.105-.963a3.531 3.531 0 0 1-.895-2.382c0-1.285 1.022-3.666 3-7.15Z"/>
      <path fill="#FFF" d="M85.5 5.87c1.303 1.886 2 3.177 2 3.887 0 .476-.22.903-.566 1.214a2.14 2.14 0 0 1-1.434.529 2.14 2.14 0 0 1-1.434-.53c-.346-.31-.566-.737-.566-1.213 0-.71.697-2.002 2-3.886Z"/>
      <path fill="#F59F89" d="M100.5 20.5h4v22h-4z"/>
      <path fill="#FFD8CC" d="M102.5 10.005c1.978 3.485 3 5.865 3 7.15 0 .93-.34 1.773-.895 2.382-.539.592-1.282.963-2.105.963s-1.566-.37-2.105-.963a3.531 3.531 0 0 1-.895-2.382c0-1.285 1.022-3.666 3-7.15Z"/>
      <path fill="#FFF" d="M102.5 14.87c1.303 1.886 2 3.177 2 3.887 0 .476-.22.903-.566 1.214a2.14 2.14 0 0 1-1.434.529 2.14 2.14 0 0 1-1.434-.53c-.346-.31-.566-.737-.566-1.213 0-.71.697-2.002 2-3.886Z"/>
    </g>
    <g fill="#F59F89" stroke="#000" transform="translate(169.455 99.545)">
      <use xlink:href="#a"/>
      <ellipse cx="18.045" cy="6.955" rx="11" ry="5"/>
      <use xlink:href="#b"/>
    </g>
    <g fill="#F59F89" stroke="#000" transform="rotate(17 -252.036 363.587)">
      <use xlink:href="#a"/>
      <ellipse cx="18.045" cy="6.955" rx="11" ry="5"/>
      <use xlink:href="#b"/>
    </g>
    <g fill="#FFBAA9" stroke="#000" transform="rotate(-13 435.94 -480.26)">
      <path d="M5.344 7 .52 12.685c-.036-1.503-.024-2.618.038-3.344.083-.977.259-1.872.416-2.68.177-.905.33-1.706.33-2.394 0-.822-.04-1.542-.113-2.16L5.344 7Z"/>
      <ellipse cx="12.338" cy="6.759" rx="7.5" ry="5"/>
      <path d="m19.623 7.475 4.825-5.685c.036 1.504.024 2.618-.038 3.344-.084.977-.26 1.872-.417 2.68-.176.905-.329 1.707-.329 2.394 0 .822.04 1.542.112 2.161l-4.153-4.894Z"/>
    </g>
    <path fill="#FFF" stroke="#000" d="M2.5 23.5h80v90h-80z"/>
    <g stroke="#000" transform="rotate(12 -22.1 213.273)">
      <path fill="#FFBAA9" d="M31.03 24.032 19.763 81.989l-4.292-7.796-6.899 5.62L19.84 21.857l11.19 2.176Z"/>
      <path fill="#FFBAA9" d="M25.64 14.437 47.757 69.18l-7.845-4.201-2.725 8.472L15.07 18.708l10.57-4.27Z"/>
      <path fill="#FFBAA9" d="M25.5.5c1.723 0 3.317.63 4.544 1.686a6.954 6.954 0 0 1 2.346 4.24l.194 1.28 1.472-.521A6.954 6.954 0 0 1 38.772 5.8a6.954 6.954 0 0 1 4.406 2.021 6.954 6.954 0 0 1 2.021 4.406 6.954 6.954 0 0 1-1.34 4.657l-.768 1.042 1.41.672a6.954 6.954 0 0 1 4.313 2.357A6.954 6.954 0 0 1 50.5 25.5c0 1.723-.63 3.317-1.686 4.544a6.954 6.954 0 0 1-4.24 2.346l-1.28.194.521 1.472a6.954 6.954 0 0 1 1.384 4.716 6.954 6.954 0 0 1-2.021 4.406 6.954 6.954 0 0 1-4.406 2.021 6.954 6.954 0 0 1-4.657-1.34l-1.042-.768-.672 1.41a6.954 6.954 0 0 1-2.357 4.313A6.954 6.954 0 0 1 25.5 50.5a6.954 6.954 0 0 1-4.544-1.686 6.954 6.954 0 0 1-2.346-4.24l-.194-1.28-1.472.521a6.954 6.954 0 0 1-4.716 1.384 6.954 6.954 0 0 1-4.406-2.021 6.954 6.954 0 0 1-2.021-4.406 6.954 6.954 0 0 1 1.34-4.657l.768-1.042L6.5 32.4a6.954 6.954 0 0 1-4.313-2.357A6.954 6.954 0 0 1 .5 25.5c0-1.723.63-3.317 1.686-4.544a6.954 6.954 0 0 1 4.24-2.346l1.28-.194-.521-1.472A6.954 6.954 0 0 1 5.8 12.228a6.954 6.954 0 0 1 2.021-4.406 6.954 6.954 0 0 1 4.406-2.021 6.954 6.954 0 0 1 4.657 1.34l1.042.768.672-1.41a6.954 6.954 0 0 1 2.357-4.313A6.954 6.954 0 0 1 25.5.5Z"/>
      <circle cx="26.093" cy="25.885" r="14.5" fill="#FFD8CC"/>
    </g>
    <path fill="#FFBAA9" stroke="#000" d="M104.31 6.599c.464-.145.57-.108.657-.04l7.96 6.159a1.5 1.5 0 0 0 1.376.242l9.587-3.065a.498.498 0 0 1 .623.645l-3.399 9.474a1.5 1.5 0 0 0 .195 1.383l5.878 8.17a.498.498 0 0 1-.421.792l-10.06-.304a1.5 1.5 0 0 0-1.256.612l-5.954 8.115a.498.498 0 0 1-.883-.156l-2.82-9.662a1.5 1.5 0 0 0-.97-1.004l-9.557-3.155a.498.498 0 0 1-.125-.888l8.318-5.668a1.5 1.5 0 0 0 .655-1.232l.047-10.066a.498.498 0 0 1 .149-.352Zm32.148 27.199c.48.073.56.153.61.252l3.572 7.24a1.5 1.5 0 0 0 1.13.82l7.989 1.16a.498.498 0 0 1 .277.854l-5.781 5.635a1.5 1.5 0 0 0-.432 1.327l1.365 7.957a.498.498 0 0 1-.726.527l-7.145-3.756a1.5 1.5 0 0 0-1.396 0l-7.146 3.756a.498.498 0 0 1-.726-.527l1.365-7.957a1.5 1.5 0 0 0-.431-1.327l-5.781-5.635a.498.498 0 0 1 .277-.853l7.99-1.161a1.5 1.5 0 0 0 1.128-.82l3.573-7.24a.498.498 0 0 1 .288-.252Zm13.137-30.19c.448.188.506.285.53.392l.798 3.671a1.5 1.5 0 0 0 .897 1.07l3.477 1.423a.498.498 0 0 1 .062.895l-3.244 1.893a1.5 1.5 0 0 0-.74 1.184l-.28 3.747a.498.498 0 0 1-.831.335l-2.804-2.5a1.5 1.5 0 0 0-1.354-.338l-3.65.892a.498.498 0 0 1-.576-.687l1.512-3.44a1.5 1.5 0 0 0-.097-1.392l-1.976-3.195a.498.498 0 0 1 .475-.76l3.738.375a1.5 1.5 0 0 0 1.294-.523l2.428-2.866a.498.498 0 0 1 .34-.176Z"/>
  </g>
</svg>
