<?xml version="1.0" encoding="UTF-8"?>
<svg width="355px" height="308px" viewBox="0 0 355 308" version="1.1" xmlns="http://www.w3.org/2000/svg" xmlns:xlink="http://www.w3.org/1999/xlink">
    <title>highlight copy@1x</title>
    <g id="highlight-copy" stroke="none" stroke-width="1" fill="none" fill-rule="evenodd">
        <rect id="Rectangle" fill="#3338DD" x="81" y="146" width="274" height="162" rx="32"></rect>
        <polyline id="Path" stroke="#FF542F" stroke-width="3" stroke-linecap="round" stroke-linejoin="round" points="54.1411238 255.71618 54.2495894 255.934742 54.358055 256.152663 54.4665207 256.369922 54.5749863 256.586495 54.6834519 256.802361 54.7919175 257.017498 54.9003831 257.231884 55.0088487 257.445496 55.1173143 257.658314 55.2257799 257.870316 55.3342455 258.081479 55.4427111 258.291782 55.5511767 258.501205 55.6596424 258.709725 55.768108 258.917321 55.8765736 259.123972 55.9850392 259.329657 56.0935048 259.534355 56.2019704 259.738045 56.310436 259.940707 56.4189016 260.142319 56.5273672 260.342861 56.6358328 260.542312 56.7442984 260.740653 56.852764 260.937863 56.9612297 261.133922 57.0696953 261.328809 57.1781609 261.522506 57.2866265 261.714992 57.3950921 261.906247 57.5035577 262.096252 57.6120233 262.284988 57.7204889 262.472436 57.8289545 262.658576 57.9374201 262.843389 58.0458857 263.026856 58.1543513 263.20896 58.262817 263.38968 58.3712826 263.568999 58.4797482 263.746899 58.5882138 263.923361 58.6966794 264.098367 58.805145 264.271899 58.9136106 264.443941 59.0220762 264.614473 59.1305418 264.783479 59.2390074 264.950942 59.347473 265.116844 59.4559386 265.281168 59.5644043 265.443899 59.6728699 265.605018 59.7813355 265.76451 59.8898011 265.922359 59.9982667 266.078547 60.1067323 266.23306 60.2151979 266.385882 60.3236635 266.536997 60.4321291 266.686389 60.5405947 266.834044 60.6490603 266.979946 60.7575259 267.12408 60.8659916 267.266433 60.9744572 267.406988 61.0829228 267.545732 61.1913884 267.682651 61.299854 267.81773 61.4083196 267.950957 61.5167852 268.082316 61.6252508 268.211796 61.7337164 268.339382 61.842182 268.465062 61.9506476 268.588823 62.0591133 268.710652 62.1675789 268.830537 62.2760445 268.948466 62.3845101 269.064426 62.4929757 269.178406 62.6014413 269.290394 62.7099069 269.400378 62.8183725 269.508348 62.9268381 269.614293 63.0353037 269.718201 63.1437693 269.820062 63.2522349 269.919866 63.3607006 270.017602 63.4691662 270.113261 63.5776318 270.206832 63.6860974 270.298307 63.794563 270.387675 63.9030286 270.474928 64.0114942 270.560057 64.1199598 270.643053 64.2284254 270.723907 64.336891 270.802612 64.4453566 270.87916 64.5538222 270.953542 64.6622879 271.025751 64.7707535 271.095779 64.8792191 271.16362 64.9876847 271.229267 65.0961503 271.292712 65.2046159 271.35395 65.3130815 271.412974 65.4215471 271.469778 65.5300127 271.524356 65.6384783 271.576703 65.7469439 271.626814 65.8554095 271.674683 65.9638752 271.720305 66.0723408 271.763676 66.1808064 271.804791 66.289272 271.843646 66.3977376 271.880238 66.5062032 271.914561 66.6146688 271.946614 66.7231344 271.976393 66.8316 272.003894 66.9400656 272.029115 67.0485312 272.052053 67.1569968 272.072706 67.2654625 272.091072 67.3739281 272.107148 67.4823937 272.120934 67.5908593 272.132428 67.6993249 272.141629 67.8077905 272.148535 67.9162561 272.153146 68.0247217 272.155462 68.1331873 272.155483 68.2416529 272.153207 68.3501185 272.148636 68.4585841 272.141771 68.5670498 272.132611 68.6755154 272.121157 68.783981 272.107412 68.8924466 272.091376 69.0009122 272.07305 69.1093778 272.052438 69.2178434 272.02954 69.326309 272.004359 69.4347746 271.976899 69.5432402 271.94716 69.6517058 271.915148 69.7601715 271.880864 69.8686371 271.844312 69.9771027 271.805497 70.0855683 271.764422 70.1940339 271.721091 70.3024995 271.675508 70.4109651 271.627679 70.5194307 271.577608 70.6278963 271.525301 70.7363619 271.470762 70.8448275 271.413997 70.9532931 271.355013 71.0617588 271.293814 71.1702244 271.230407 71.27869 271.1648 71.3871556 271.096997 71.4956212 271.027007 71.6040868 270.954837 71.7125524 270.880493 71.821018 270.803984 71.9294836 270.725317 72.0379492 270.6445 72.1464148 270.561542 72.2548804 270.476451 72.3633461 270.389235 72.4718117 270.299904 72.5802773 270.208467 72.6887429 270.114932 72.7972085 270.019311 72.9056741 269.921611 73.0141397 269.821844 73.1226053 269.720019 73.2310709 269.616147 73.3395365 269.510238 73.4480021 269.402304 73.5564677 269.292355 73.6649334 269.180402 73.773399 269.066458 73.8818646 268.950532 73.9903302 268.832638 74.0987958 268.712788 74.2072614 268.590993 74.315727 268.467266 74.4241926 268.34162 74.5326582 268.214067 74.6411238 268.084621 74.7495894 267.953294 74.858055 267.820101 74.9665207 267.685054 75.0749863 267.548168 75.1834519 267.409456 75.2919175 267.268932 75.4003831 267.126612 75.5088487 266.982509 75.6173143 266.836638 75.7257799 266.689014 75.8342455 266.539652 75.9427111 266.388568 76.0511767 266.235776 76.1596424 266.081293 76.268108 265.925133 76.3765736 265.767314 76.4850392 265.607851 76.5935048 265.44676 76.7019704 265.284058 76.810436 265.119762 76.9189016 264.953887 77.0273672 264.786452 77.1358328 264.617473 77.2442984 264.446968 77.352764 264.274953 77.4612297 264.101447 77.5696953 263.926466 77.6781609 263.75003 77.7866265 263.572156 77.8950921 263.392861 78.0035577 263.212166 78.1120233 263.030087 78.2204889 262.846643 78.3289545 262.661853 78.4374201 262.475737 78.5458857 262.288312 78.6543513 262.099599 78.762817 261.909616 78.8712826 261.718382 78.9797482 261.525918 79.0882138 261.332243 79.1966794 261.137376 79.305145 260.941338 79.4136106 260.744148 79.5220762 260.545827 79.6305418 260.346395 79.7390074 260.145872 79.847473 259.944279 79.9559386 259.741636 80.0644043 259.537964 80.1728699 259.333283 80.2813355 259.127615 80.3898011 258.920981 80.4982667 258.713402 80.6067323 258.504898 80.7151979 258.295491 80.8236635 258.085203 80.9321291 257.874055 81.0405947 257.662068 81.1490603 257.449264 81.2575259 257.235665 81.3659916 257.021293 81.4744572 256.806169 81.5829228 256.590316 81.6913884 256.373755 81.799854 256.156509 81.9083196 255.938599 82.0167852 255.720048 82.1252508 255.500879 82.2337164 255.281113 82.342182 255.060773 82.4506476 254.839882 82.5591133 254.618462 82.6675789 254.396535 82.7760445 254.174124 82.8845101 253.951253 82.9929757 253.727943 83.1014413 253.504218 83.2099069 253.2801 83.3183725 253.055613 83.4268381 252.830778 83.5353037 252.605619 83.6437693 252.38016 83.7522349 252.154422 83.8607006 251.92843 83.9691662 251.702205 84.0776318 251.475772 84.1860974 251.249153 84.294563 251.022372 84.4030286 250.795451 84.5114942 250.568413 84.6199598 250.341283 84.7284254 250.114082 84.836891 249.886835 84.9453566 249.659564 85.0538222 249.432293 85.1622879 249.205045 85.2707535 248.977842 85.3792191 248.750709 85.4876847 248.523668 85.5961503 248.296743 85.7046159 248.069956 85.8130815 247.843331 85.9215471 247.61689 86.0300127 247.390658 86.1384783 247.164657 86.2469439 246.93891 86.3554095 246.71344 86.4638752 246.488271 86.5723408 246.263424 86.6808064 246.038924 86.789272 245.814793 86.8977376 245.591053 87.0062032 245.367728 87.1146688 245.144841 87.2231344 244.922414 87.3316 244.70047 87.4400656 244.479031 87.5485312 244.258121 87.6569968 244.037761 87.7654625 243.817975 87.8739281 243.598784 87.9823937 243.380211 88.0908593 243.162278 88.1993249 242.945008 88.3077905 242.728422 88.4162561 242.512544 88.5247217 242.297394 88.6331873 242.082994 88.7416529 241.869368 88.8501185 241.656536 88.9585841 241.44452 89.0670498 241.233341 89.1755154 241.023022 89.283981 240.813584 89.3924466 240.605048 89.5009122 240.397436 89.6093778 240.190768 89.7178434 239.985065 89.826309 239.78035 89.9347746 239.576642 90.0432402 239.373962 90.1517058 239.172331 90.2601715 238.97177 90.3686371 238.772299 90.4771027 238.573938 90.5855683 238.376708 90.6940339 238.180629 90.8024995 237.985721 90.9109651 237.792003 91.0194307 237.599495 91.1278963 237.408218 91.2363619 237.218191 91.3448275 237.029432 91.4532931 236.841961 91.5617588 236.655798 91.6702244 236.470962 91.77869 236.28747 91.8871556 236.105342 91.9956212 235.924597 92.1040868 235.745253 92.2125524 235.567328 92.321018 235.390841 92.4294836 235.215809 92.5379492 235.04225 92.6464148 234.870183 92.7548804 234.699623 92.8633461 234.53059 92.9718117 234.3631 93.0802773 234.19717 93.1887429 234.032818 93.2972085 233.870059 93.4056741 233.708911 93.5141397 233.54939 93.6226053 233.391513 93.7310709 233.235294 93.8395365 233.080751 93.9480021 232.9279 94.0564677 232.776755 94.1649334 232.627332 94.273399 232.479646 94.3818646 232.333713 94.4903302 232.189547 94.5987958 232.047163 94.7072614 231.906576 94.815727 231.7678 94.9241926 231.630849 95.0326582 231.495737 95.1411238 231.362478 95.2495894 231.231085 95.358055 231.101572 95.4665207 230.973952 95.5749863 230.848238 95.6834519 230.724443 95.7919175 230.60258 95.9003831 230.48266 96.0088487 230.364697 96.1173143 230.248702 96.2257799 230.134687 96.3342455 230.022664 96.4427111 229.912644 96.5511767 229.804638 96.6596424 229.698658 96.768108 229.594713 96.8765736 229.492816 96.9850392 229.392976 97.0935048 229.295203 97.2019704 229.199508 97.310436 229.105899 97.4189016 229.014388 97.5273672 228.924982 97.6358328 228.837692 97.7442984 228.752525 97.852764 228.669491 97.9612297 228.588599 98.0696953 228.509856 98.1781609 228.43327 98.2866265 228.35885 98.3950921 228.286602 98.5035577 228.216535 98.6120233 228.148655 98.7204889 228.08297 98.8289545 228.019486 98.9374201 227.958209 99.0458857 227.899146 99.1543513 227.842302 99.262817 227.787685 99.3712826 227.735298 99.4797482 227.685148 99.5882138 227.63724 99.6966794 227.591578 99.805145 227.548167 99.9136106 227.507012 100.022076 227.468117 100.130542 227.431485 100.239007 227.397121 100.347473 227.365028 100.455939 227.33521 100.564404 227.307668 100.67287 227.282407 100.781335 227.259429 100.889801 227.238735 100.998267 227.220329 101.106732 227.204212 101.215198 227.190385 101.323664 227.178851 101.432129 227.16961 101.540595 227.162663 101.64906 227.158011 101.757526 227.155654 101.865992 227.155594 101.974457 227.157828 102.082923 227.162359 102.191388 227.169184 102.299854 227.178303 102.40832 227.189716 102.516785 227.203421 102.625251 227.219417 102.733716 227.237702 102.842182 227.258274 102.950648 227.281131 103.059113 227.306272 103.167579 227.333692 103.276044 227.36339 103.38451 227.395363 103.492976 227.429606 103.601441 227.466118 103.709907 227.504893 103.818373 227.545929 103.926838 227.58922 104.035304 227.634762 104.143769 227.682552 104.252235 227.732583 104.360701 227.784851 104.469166 227.839351 104.577632 227.896076 104.686097 227.955022 104.794563 228.016181 104.903029 228.079549 105.011494 228.145118 105.11996 228.212881 105.228425 228.282833 105.336891 228.354965 105.445357 228.42927 105.553822 228.505741 105.662288 228.58437 105.770753 228.665149 105.879219 228.748069 105.987685 228.833123 106.09615 228.920301 106.204616 229.009595 106.313082 229.100995 106.421547 229.194492 106.530013 229.290077 106.638478 229.38774 106.746944 229.487471 106.85541 229.58926 106.963875 229.693095 107.072341 229.798968 107.180806 229.906867 107.289272 230.01678 107.397738 230.128698 107.506203 230.242607 107.614669 230.358498 107.723134 230.476357 107.8316 230.596173 107.940066 230.717934 108.048531 230.841626 108.156997 230.967239 108.265462 231.094758 108.373928 231.224171 108.482394 231.355464 108.590859 231.488625 108.699325 231.623639 108.80779 231.760493 108.916256 231.899173 109.024722 232.039665 109.133187 232.181953 109.241653 232.326025 109.350119 232.471865 109.458584 232.619458 109.56705 232.768789 109.675515 232.919843 109.783981 233.072605 109.892447 233.227059 110.000912 233.383188 110.109378 233.540978 110.217843 233.700413 110.326309 233.861475 110.434775 234.024148 110.54324 234.188417 110.651706 234.354263 110.760171 234.521671 110.868637 234.690623 110.977103 234.861102 111.085568 235.03309 111.194034 235.20657 111.302499 235.381524 111.410965 235.557935 111.519431 235.735784 111.627896 235.915054 111.736362 236.095725 111.844828 236.27778 111.953293 236.461199 112.061759 236.645965 112.170224 236.832058 112.27869 237.01946 112.387156 237.208151 112.495621 237.398112 112.604087 237.589323 112.712552 237.781766 112.821018 237.97542 112.929484 238.170266 113.037949 238.366283 113.146415 238.563453 113.25488 238.761754 113.363346 238.961167 113.471812 239.161671 113.580277 239.363245 113.688743 239.56587 113.797208 239.769524 113.905674 239.974187 114.01414 240.179837 114.122605 240.386455 114.231071 240.594018 114.339537 240.802505 114.448002 241.011896 114.556468 241.222169 114.664933 241.433302 114.773399 241.645274 114.881865 241.858064 114.99033 242.071649 115.098796 242.286008 115.207261 242.501118 115.315727 242.716959 115.424193 242.933507 115.532658 243.150742 115.641124 243.36864 115.749589 243.58718 115.858055 243.806338 115.966521 244.026094 116.074986 244.246424 116.183452 244.467306 116.291917 244.688717 116.400383 244.910635 116.508849 245.133037 116.617314 245.3559 116.72578 245.579202 116.834246 245.80292 116.942711 246.027032 117.051177 246.251513 117.159642 246.476342 117.268108 246.701495 117.376574 246.926949 117.485039 247.152682 117.593505 247.37867 117.70197 247.604891 117.810436 247.83132 117.918902 248.057936 118.027367 248.284715 118.135833 248.511634 118.244298 248.738669 118.352764 248.965798 118.46123 249.192998 118.569695 249.420244 118.678161 249.647515 118.786626 249.874786 118.895092 250.102035 119.003558 250.329239 119.112023 250.556373 119.220489 250.783416 119.328955 251.010344 119.43742 251.237134 119.545886 251.463762 119.654351 251.690205 119.762817 251.916441 119.871283 252.142447 119.979748 252.368198 120.088214 252.593673 120.196679 252.818848 120.305145 253.043701 120.413611 253.268207 120.522076 253.492346 120.630542 253.716092 120.739007 253.939424 120.847473 254.16232 120.955939 254.384755 121.064404 254.606708 121.17287 254.828156 121.281335 255.049076 121.389801 255.269445 121.498267 255.489242 121.606732 255.708444 121.715198 255.927028 121.823664 256.144972 121.932129 256.362254 122.040595 256.578852 122.14906 256.794743 122.257526 257.009906 122.365992 257.224319 122.474457 257.43796 122.582923 257.650806 122.691388 257.862837 122.799854 258.07403 122.90832 258.284364 123.016785 258.493818 123.125251 258.70237 123.233716 258.909999 123.342182 259.116684 123.450648 259.322404 123.559113 259.527137 123.667579 259.730863 123.776044 259.933561 123.88451 260.135211 123.992976 260.335791 124.101441 260.535281 124.209907 260.733662 124.318373 260.930912 124.426838 261.127012 124.535304 261.321941 124.643769 261.51568 124.752235 261.708209 124.860701 261.899508 124.969166 262.089558 125.077632 262.278339 125.186097 262.465833 125.294563 262.652019 125.403029 262.836879 125.511494 263.020395 125.61996 263.202547 125.728425 263.383316 125.836891 263.562685 125.945357 263.740635 126.053822 263.917148 126.162288 264.092206 126.270753 264.265791 126.379219 264.437885 126.487685 264.608471 126.59615 264.777532 126.704616 264.945049 126.813082 265.111007 126.921547 265.275387 127.030013 265.438174 127.138478 265.599351 127.246944 265.758901 127.35541 265.916808 127.463875 266.073055 127.572341 266.227628 127.680806 266.38051 127.789272 266.531685 127.897738 266.681139 128.006203 266.828855 128.114669 266.974819 128.223134 267.119016 128.3316 267.261432 128.440066 267.402051 128.548531 267.540859 128.656997 267.677842 128.765462 267.812987 128.873928 267.946279 128.982394 268.077705 129.090859 268.207252 129.199325 268.334905 129.30779 268.460653 129.416256 268.584482 129.524722 268.706379 129.633187 268.826333 129.741653 268.944331 129.850119 269.060361 129.958584 269.174411 130.06705 269.28647 130.175515 269.396525 130.283981 269.504567 130.392447 269.610583 130.500912 269.714563 130.609378 269.816497 130.717843 269.916373 130.826309 270.014183 130.934775 270.109915 131.04324 270.20356 131.151706 270.295109 131.260171 270.384552 131.368637 270.47188 131.477103 270.557084 131.585568 270.640156 131.694034 270.721086 131.802499 270.799867 131.910965 270.876491 132.019431 270.95095 132.127896 271.023236 132.236362 271.093341 132.344828 271.16126 132.453293 271.226984 132.561759 271.290507 132.670224 271.351823 132.77869 271.410926 132.887156 271.467808 132.995621 271.522465 133.104087 271.574891 133.212552 271.625081 133.321018 271.673029 133.429484 271.718731 133.537949 271.762181 133.646415 271.803376 133.75488 271.842311 133.863346 271.878983 133.971812 271.913387 134.080277 271.94552 134.188743 271.975379 134.297208 272.002961 134.405674 272.028262 134.51414 272.051281 134.622605 272.072015 134.731071 272.090462 134.839537 272.106619 134.948002 272.120486 135.056468 272.132061 135.164933 272.141343 135.273399 272.14833 135.381865 272.153023 135.49033 272.15542 135.598796 272.155521 135.707261 272.153327 135.815727 272.148837 135.924193 272.142053 136.032658 272.132974 136.141124 272.121601 136.249589 272.107937 136.358055 272.091981 136.466521 272.073737 136.574986 272.053205 136.683452 272.030388 136.791917 272.005288 136.900383 271.977908 137.008849 271.94825 137.117314 271.916318 137.22578 271.882114 137.334246 271.845643 137.442711 271.806908 137.551177 271.765912 137.659642 271.722661 137.768108 271.677158 137.876574 271.629408 137.985039 271.579416 138.093505 271.527188 138.20197 271.472728 138.310436 271.416042 138.418902 271.357135 138.527367 271.296015 138.635833 271.232686 138.744298 271.167156 138.852764 271.099431 138.96123 271.029518 139.069695 270.957425 139.178161 270.883158 139.286626 270.806725 139.395092 270.728134 139.503558 270.647393 139.612023 270.564511 139.720489 270.479495 139.828955 270.392354 139.93742 270.303098 140.045886 270.211735 140.154351 270.118274 140.262817 270.022726 140.371283 269.9251 140.479748 269.825405 140.588214 269.723653 140.696679 269.619853 140.805145 269.514016 140.913611 269.406153 141.022076 269.296275 141.130542 269.184393 141.239007 269.070519 141.347473 268.954663 141.455939 268.836839 141.564404 268.717057 141.67287 268.595331 141.781335 268.471672 141.889801 268.346093 141.998267 268.218608 142.106732 268.089228 142.215198 267.957968 142.323664 267.82484 142.432129 267.689859 142.540595 267.553037 142.64906 267.414389 142.757526 267.27393 142.865992 267.131673 142.974457 266.987632 143.082923 266.841824 143.191388 266.694262 143.299854 266.544961 143.40832 266.393937 143.516785 266.241205 143.625251 266.086782 143.733716 265.930681 143.842182 265.77292 143.950648 265.613515 144.059113 265.452481 144.167579 265.289836 144.276044 265.125596 144.38451 264.959777 144.492976 264.792397 144.601441 264.623472 144.709907 264.45302 144.818373 264.281058 144.926838 264.107604 145.035304 263.932676 145.143769 263.756291 145.252235 263.578467 145.360701 263.399223 145.469166 263.218576 145.577632 263.036546 145.686097 262.85315 145.794563 262.668408 145.903029 262.482338 146.011494 262.294959 146.11996 262.106291 146.228425 261.916352 146.336891 261.725163 146.445357 261.532742 146.553822 261.339109 146.662288 261.144284 146.770753 260.948287 146.879219 260.751137 146.987685 260.552856 147.09615 260.353463 147.204616 260.152978 147.313082 259.951422 147.421547 259.748816 147.530013 259.54518 147.638478 259.340535 147.746944 259.134902 147.85541 258.928301 147.963875 258.720755 148.072341 258.512283 148.180806 258.302908 148.289272 258.092651 148.397738 257.881532 148.506203 257.669575 148.614669 257.4568 148.723134 257.243229 148.8316 257.028883 148.940066 256.813786 149.048531 256.597958 149.156997 256.381421 149.265462 256.164199 149.373928 255.946312 149.482394 255.727784 149.590859 255.508636 149.699325 255.288891 149.80779 255.068571 149.916256 254.847698 150.024722 254.626296 150.133187 254.404387 150.241653 254.181994 150.350119 253.959138 150.458584 253.735844 150.56705 253.512133 150.675515 253.288028 150.783981 253.063553 150.892447 252.838731 151.000912 252.613583 151.109378 252.388134 151.217843 252.162406 151.326309 251.936422 151.434775 251.710205 151.54324 251.483779 151.651706 251.257166 151.760171 251.03039 151.868637 250.803473 151.977103 250.57644 152.085568 250.349312 152.194034 250.122114 152.302499 249.894868 152.410965 249.667598 152.519431 249.440326 152.627896 249.213076 152.736362 248.985872 152.844828 248.758736 152.953293 248.531691 153.061759 248.304761 153.170224 248.077969 153.27869 247.851338 153.387156 247.624891 153.495621 247.398651 153.604087 247.172641 153.712552 246.946885 153.821018 246.721405 153.929484 246.496224 154.037949 246.271366 154.146415 246.046853 154.25488 245.822708 154.363346 245.598954 154.471812 245.375615 154.580277 245.152711 154.688743 244.930268 154.797208 244.708306 154.905674 244.486849 155.01414 244.26592 155.122605 244.04554 155.231071 243.825733 155.339537 243.606521 155.448002 243.387925 155.556468 243.16997 155.664933 242.952676 155.773399 242.736066 155.881865 242.520162 155.99033 242.304985 156.098796 242.090559 156.207261 241.876905 156.315727 241.664044 156.424193 241.451999 156.532658 241.240791 156.641124 241.030441 156.749589 240.820972 156.858055 240.612403 156.966521 240.404758 157.074986 240.198056 157.183452 239.992319 157.291917 239.787568 157.400383 239.583824 157.508849 239.381108 157.617314 239.17944 157.72578 238.97884 157.834246 238.77933 157.942711 238.58093 158.051177 238.38366 158.159642 238.18754 158.268108 237.99259 158.376574 237.798829 158.485039 237.606279 158.593505 237.414958 158.70197 237.224886 158.810436 237.036082 158.918902 236.848565 159.027367 236.662356 159.135833 236.477472 159.244298 236.293932 159.352764 236.111756 159.46123 235.930962 159.569695 235.751568 159.678161 235.573593 159.786626 235.397054 159.895092 235.221971 160.003558 235.048359 160.112023 234.876239 160.220489 234.705626 160.328955 234.536538 160.43742 234.368994 160.545886 234.203008 160.654351 234.0386 160.762817 233.875785 160.871283 233.714579 160.979748 233.555001 161.088214 233.397065 161.196679 233.240787 161.305145 233.086185 161.413611 232.933273 161.522076 232.782068 161.630542 232.632583 161.739007 232.484836 161.847473 232.338841 161.955939 232.194613 162.064404 232.052166 162.17287 231.911515 162.281335 231.772674 162.389801 231.635658 162.498267 231.500481 162.606732 231.367156 162.715198 231.235697 162.823664 231.106117 162.932129 230.97843 163.040595 230.852649 163.14906 230.728786 163.257526 230.606854 163.365992 230.486866 163.474457 230.368833 163.582923 230.252768 163.691388 230.138683 163.799854 230.026589 163.90832 229.916498 164.016785 229.808421 164.125251 229.702369 164.233716 229.598353 164.342182 229.496383 164.450648 229.39647 164.559113 229.298624 164.667579 229.202855 164.776044 229.109172 164.88451 229.017586 164.992976 228.928106 165.101441 228.840741 165.209907 228.755499 165.318373 228.67239 165.426838 228.591421 165.535304 228.512602 165.643769 228.43594 165.752235 228.361443 165.860701 228.289119 165.969166 228.218974 166.077632 228.151017 166.186097 228.085254 166.294563 228.021692 166.403029 227.960337 166.511494 227.901195 166.61996 227.844274 166.728425 227.789577 166.836891 227.737112 166.945357 227.686882 167.053822 227.638895 167.162288 227.593153 167.270753 227.549663 167.379219 227.508428 167.487685 227.469453 167.59615 227.432741 167.704616 227.398297 167.813082 227.366124 167.921547 227.336225 168.030013 227.308603 168.138478 227.283261 168.246944 227.260202 168.35541 227.239428 168.463875 227.22094 168.572341 227.204742 168.680806 227.190835 168.789272 227.179219 168.897738 227.169897 169.006203 227.162869 169.114669 227.158136 169.223134 227.155699 169.3316 227.155557 169.440066 227.15771 169.548531 227.162159 169.656997 227.168904 169.765462 227.177942 169.873928 227.189274 169.982394 227.202898 170.090859 227.218813 170.199325 227.237017 170.30779 227.257508 170.416256 227.280285 170.524722 227.305344 170.633187 227.332684 170.741653 227.362302 170.850119 227.394194 170.958584 227.428357 171.06705 227.464789 171.175515 227.503484 171.283981 227.54444 171.392447 227.587651 171.500912 227.633114 171.609378 227.680824 171.717843 227.730777 171.826309 227.782966 171.934775 227.837386 172.04324 227.894033 172.151706 227.9529 172.260171 228.013982 172.368637 228.077271 172.477103 228.142763 172.585568 228.210449 172.694034 228.280323 172.802499 228.352378 172.910965 228.426607 173.019431 228.503001 173.127896 228.581554 173.236362 228.662257 173.344828 228.745102 173.453293 228.83008 173.561759 228.917183 173.670224 229.006403 173.77869 229.097728 173.887156 229.191152 173.995621 229.286663 174.104087 229.384253 174.212552 229.483911 174.321018 229.585627 174.429484 229.689391 174.537949 229.795191 174.646415 229.903019 174.75488 230.012861 174.863346 230.124708 174.971812 230.238547 175.080277 230.354368 175.188743 230.472158 175.297208 230.591905 175.405674 230.713597 175.51414 230.837222 175.622605 230.962766 175.731071 231.090218 175.839537 231.219565 175.948002 231.350792 176.056468 231.483887 176.164933 231.618836 176.273399 231.755625 176.381865 231.89424 176.49033 232.034668 176.598796 232.176894 176.707261 232.320903 176.815727 232.46668 176.924193 232.614211 177.032658 232.763481 177.141124 232.914475 177.249589 233.067177 177.358055 233.221571 177.466521 233.377641 177.574986 233.535373 177.683452 233.69475 177.791917 233.855754 177.900383 234.018371 178.008849 234.182584 178.117314 234.348375 178.22578 234.515728 178.334246 234.684625 178.442711 234.85505 178.551177 235.026985 178.659642 235.200413 178.768108 235.375316 178.876574 235.551675 178.985039 235.729474 179.093505 235.908693 179.20197 236.089315 179.310436 236.271321 179.418902 236.454693 179.527367 236.639412 179.635833 236.825458 179.744298 237.012814 179.852764 237.20146 179.96123 237.391376 180.069695 237.582544 180.178161 237.774943 180.286626 237.968555 180.395092 238.163359 180.503558 238.359335 180.612023 238.556464 180.720489 238.754726 180.828955 238.9541 180.93742 239.154565 181.045886 239.356102 181.154351 239.55869 181.262817 239.762308 181.371283 239.966936 181.479748 240.172552 181.588214 240.379135 181.696679 240.586665 181.805145 240.795121 181.913611 241.00448 182.022076 241.214722 182.130542 241.425825 182.239007 241.637768 182.347473 241.850529 182.455939 242.064086 182.564404 242.278418 182.67287 242.493502 182.781335 242.709318 182.889801 242.925842 182.998267 243.143052 183.106732 243.360927 183.215198 243.579445 183.323664 243.798582 183.432129 244.018317 183.540595 244.238627 183.64906 244.459489 183.757526 244.680882 183.865992 244.902783 183.974457 245.125168 184.082923 245.348015 184.191388 245.571302 184.299854 245.795006 184.40832 246.019104 184.516785 246.243572 184.625251 246.468389 184.733716 246.693531 184.842182 246.918975 184.950648 247.144699 185.059113 247.370678 185.167579 247.596891 185.276044 247.823314 185.38451 248.049923 185.492976 248.276697 185.601441 248.503611 185.709907 248.730643 185.818373 248.957769 185.926838 249.184966 186.035304 249.412212 186.143769 249.639482 186.252235 249.866753 186.360701 250.094004 186.469166 250.321209 186.577632 250.548347 186.686097 250.775393 186.794563 251.002325 186.903029 251.22912 187.011494 251.455754 187.11996 251.682205 187.228425 251.908449 187.336891 252.134463 187.445357 252.360224 187.553822 252.585709 187.662288 252.810895 187.770753 253.035759 187.879219 253.260278 187.987685 253.48443 188.09615 253.708191 188.204616 253.931538 188.313082 254.154449 188.421547 254.376901 188.530013 254.598871 188.638478 254.820337 188.746944 255.041276 188.85541 255.261666 188.963875 255.481483 189.072341 255.700706 189.180806 255.919313 189.289272 256.13728 189.397738 256.354586 189.506203 256.571208 189.614669 256.787125 189.723134 257.002314 189.8316 257.216754 189.940066 257.430422 190.048531 257.643297 190.156997 257.855356 190.265462 258.06658 190.373928 258.276945 190.482394 258.48643 190.590859 258.695014 190.699325 258.902677 190.80779 259.109395 190.916256 259.315149 191.024722 259.519918 191.133187 259.72368 191.241653 259.926415 191.350119 260.128101 191.458584 260.32872 191.56705 260.528249 191.675515 260.726669 191.783981 260.92396 191.892447 261.1201 192.000912 261.315071 192.109378 261.508853 192.217843 261.701425 192.326309 261.892768 192.434775 262.082862 192.54324 262.271689 192.651706 262.459228 192.760171 262.645461 192.868637 262.830368 192.977103 263.013932 193.085568 263.196132 193.194034 263.376951 193.302499 263.55637 193.410965 263.73437 193.519431 263.910934 193.627896 264.086044 193.736362 264.259681 193.844828 264.431828 193.953293 264.602468 194.061759 264.771583 194.170224 264.939155 194.27869 265.105168 194.387156 265.269604 194.495621 265.432448 194.604087 265.593682 194.712552 265.753289 194.821018 265.911254 194.929484 266.067561 195.037949 266.222193 195.146415 266.375135 195.25488 266.526371 195.363346 266.675886 195.471812 266.823664 195.580277 266.96969 195.688743 267.11395 195.797208 267.256428 195.905674 267.397111 196.01414 267.535984 196.122605 267.673032 196.231071 267.808242 196.339537 267.9416 196.448002 268.073092 196.556468 268.202705 196.664933 268.330425 196.773399 268.456241 196.881865 268.580138 196.99033 268.702104 197.098796 268.822127 197.207261 268.940194 197.315727 269.056294 197.424193 269.170414 197.532658 269.282543 197.641124 269.39267 197.749589 269.500782 197.858055 269.60687 197.966521 269.710923 198.074986 269.812929 198.183452 269.912878 198.291917 270.010761 198.400383 270.106567 198.508849 270.200286 198.617314 270.291909 198.72578 270.381427 198.834246 270.46883 198.942711 270.554109 199.051177 270.637256 199.159642 270.718262 199.268108 270.79712 199.376574 270.87382 199.485039 270.948355 199.593505 271.020718 199.70197 271.090901 199.810436 271.158897 199.918902 271.224699 200.027367 271.2883 200.135833 271.349694 200.244298 271.408874 200.352764 271.465836 200.46123 271.520571 200.569695 271.573076 200.678161 271.623345 200.786626 271.671372 200.895092 271.717154 201.003558 271.760684 201.112023 271.801959 201.220489 271.840974 201.328955 271.877725 201.43742 271.91221 201.545886 271.944423 201.654351 271.974362 201.762817 272.002025 201.871283 272.027407 201.979748 272.050506 202.088214 272.071321 202.196679 272.089849 202.305145 272.106087 202.413611 272.120035 202.522076 272.131691 202.630542 272.141054 202.739007 272.148122 202.847473 272.152896 202.955939 272.155374 203.064404 272.155557 203.17287 272.153444 203.281335 272.149035 203.389801 272.142331 203.498267 272.133334 203.606732 272.122042 203.715198 272.108459 203.823664 272.092584 203.932129 272.074421 204.040595 272.05397 204.14906 272.031234 204.257526 272.006214 204.365992 271.978915 204.474457 271.949337 204.582923 271.917485 204.691388 271.883362 204.799854 271.846971 204.90832 271.808315 205.016785 271.7674 205.125251 271.724228 205.233716 271.678805 205.342182 271.631134 205.450648 271.581222 205.559113 271.529072 205.667579 271.474691 205.776044 271.418083 205.88451 271.359255 205.992976 271.298213 206.101441 271.234962 206.209907 271.16951 206.318373 271.101862 206.426838 271.032027 206.535304 270.96001 206.643769 270.88582 206.752235 270.809463 206.860701 270.730949 206.969166 270.650284 207.077632 270.567477 207.186097 270.482536 207.294563 270.39547 207.403029 270.306288 207.511494 270.215 207.61996 270.121613 207.728425 270.026139 207.836891 269.928586 207.945357 269.828964 208.053822 269.727284 208.162288 269.623557 208.270753 269.517792 208.379219 269.41 208.487685 269.300193 208.59615 269.188382 208.704616 269.074578 208.813082 268.958792 208.921547 268.841037 209.030013 268.721324 209.138478 268.599666 209.246944 268.476076 209.35541 268.350565 209.463875 268.223146 209.572341 268.093833 209.680806 267.962639 209.789272 267.829577 209.897738 267.694661 210.006203 267.557904 210.114669 267.419321 210.223134 267.278925 210.3316 267.136731 210.440066 266.992754 210.548531 266.847007 210.656997 266.699507 210.765462 266.550267 210.873928 266.399304 210.982394 266.246633 211.090859 266.092268 211.199325 265.936227 211.30779 265.778525 211.416256 265.619177 211.524722 265.458201 211.633187 265.295612 211.741653 265.131428 211.850119 264.965665 211.958584 264.798339 212.06705 264.629469 212.175515 264.459071 212.283981 264.287162 212.392447 264.113761 212.500912 263.938884 212.609378 263.76255 212.717843 263.584777 212.826309 263.405582 212.934775 263.224985 213.04324 263.043003 213.151706 262.859655 213.260171 262.67496 213.368637 262.488937 213.477103 262.301604 213.585568 262.112981 213.694034 261.923087 213.802499 261.731941 213.910965 261.539564 214.019431 261.345973 214.127896 261.15119 214.236362 260.955234 214.344828 260.758125 214.453293 260.559883 214.561759 260.360529 214.670224 260.160083 214.77869 259.958564 214.887156 259.755995 214.995621 259.552395 215.104087 259.347785 215.212552 259.142186 215.321018 258.93562 215.429484 258.728106 215.537949 258.519667 215.646415 258.310324 215.75488 258.100097 215.863346 257.889009 215.971812 257.677081 216.080277 257.464334 216.188743 257.250791 216.297208 257.036472 216.405674 256.821401 216.51414 256.605598 216.622605 256.389087 216.731071 256.171888 216.839537 255.954025 216.948002 255.735518 217.056468 255.516392 217.164933 255.296668 217.273399 255.076368 217.381865 254.855514 217.49033 254.634131 217.598796 254.412239 217.707261 254.189862 217.815727 253.967023 217.924193 253.743743 218.032658 253.520047 218.141124 253.295956"></polyline>
        <path d="M325.513761,305.025088 L298.983486,305.025088 L298.983486,291.574588 L304.847706,291.574588 C305.66789,291.574588 306.333945,290.909413 306.333945,290.086213 L306.333945,277.311913 C306.333945,276.49055 305.669725,275.823538 304.847706,275.823538 L298.52844,275.823538 L283.383486,241.214225 C302.746789,237.173563 318.519266,222.37985 323.759633,203.2037 C323.880734,202.75535 323.788991,202.2776 323.506422,201.908263 C323.225688,201.540763 322.787156,201.323938 322.324771,201.323938 L300.176147,201.323938 L273.987156,175.0973 L273.987156,171.6869 C276.266055,171.036425 277.941284,168.936163 277.941284,166.448188 C277.941284,163.443875 275.499083,161 272.499083,161 C269.499083,161 267.058716,163.443875 267.058716,166.448188 C267.058716,168.938 268.73578,171.038263 271.016514,171.6869 L271.016514,175.095463 L244.825688,201.3221 L222.673394,201.3221 C222.209174,201.3221 221.772477,201.538925 221.491743,201.906425 C221.211009,202.275763 221.117431,202.753513 221.240367,203.201863 C226.513761,222.480913 242.218349,237.1607 261.616514,241.206875 L246.469725,275.8217 L240.148624,275.8217 C239.32844,275.8217 238.662385,276.486875 238.662385,277.310075 L238.662385,290.084375 C238.662385,290.905738 239.32844,291.57275 240.148624,291.57275 L246.014679,291.57275 L246.014679,305.02325 L219.486239,305.02325 C218.666055,305.02325 218,305.688425 218,306.511625 C218,307.334825 218.66422,308 219.486239,308 L325.513761,308 C326.333945,308 327,307.334825 327,306.511625 C327,305.688425 326.333945,305.025088 325.513761,305.025088 Z M273.000942,180 L281,201 L265,201 L273.000942,180 Z M283.327762,201 L276,181 L296,201 L283.327762,201 Z M270,166.5 C270,165.122866 271.12101,164 272.5,164 C273.877134,164 275,165.12101 275,166.5 C275,167.87899 273.87899,169 272.5,169 C271.12101,168.998144 270,167.877134 270,166.5 Z M269,181 L261.671061,201 L249,201 L269,181 Z M321,204 C320.803011,204.673228 320.58577,205.338583 320.363007,206 L225.635152,206 C225.412389,205.338583 225.19883,204.673228 225,204 L321,204 Z M227,209 L319,209 C312.484502,223.828408 298.866691,234.861472 282.661385,238 L281.896689,236.267896 C280.325121,232.709078 276.916084,230.500282 273.000917,230.500282 C269.08575,230.500282 265.678547,232.709078 264.106978,236.267896 L263.342283,237.998181 C247.0948,234.852375 233.519165,223.88663 227,209 Z M266.761958,238.044717 C267.863988,235.550995 270.253261,234 273,234 C275.746739,234 278.13416,235.549158 279.236189,238.044717 L296,276 L274.500242,276 L274.500242,246.948239 C276.800612,246.297703 278.493477,244.199081 278.493477,241.709035 C278.493477,238.702603 276.028265,236.258499 273,236.258499 C269.971735,236.258499 267.506523,238.702603 267.506523,241.709035 C267.506523,244.197243 269.199388,246.297703 271.499758,246.948239 L271.499758,276 L250,276 L266.761958,238.044717 Z M273,244.1 C271.62101,244.1 270.5,242.97899 270.5,241.6 C270.5,240.22101 271.62101,239.1 273,239.1 C274.377134,239.1 275.5,240.22101 275.5,241.6 C275.5,242.97899 274.377134,244.1 273,244.1 Z M242,279 L304,279 L304,289 L242,289 L242,279 Z M296,291 L296,296 L249,296 L249,291 L296,291 Z M249,305 L249,299 L296,299 L296,305 L249,305 L249,305 Z" id="Shape" fill="#FF542F" fill-rule="nonzero"></path>
        <g id="Group" transform="translate(-14.618253, -14.618253)">
            <path d="M118.944495,221.936644 L112.265813,226.831804 C108.702246,229.443732 103.696018,228.672275 101.08409,225.108707 C101.044835,225.05515 101.006249,225.001107 100.96834,224.946589 L96.2409834,218.148098 C94.2482642,215.282335 90.6275749,214.039351 87.2948512,215.076887 L79.3885834,217.538249 C75.1700082,218.851567 70.6855229,216.49639 69.3722053,212.277815 C69.3524674,212.214414 69.3335196,212.15077 69.3153664,212.086897 L67.0516177,204.121797 C66.0973812,200.764274 63.0764671,198.413002 59.5874322,198.312188 L51.3103448,198.073026 C46.8939101,197.945415 43.4171312,194.261739 43.5447418,189.845304 C43.5466597,189.778929 43.5494039,189.712581 43.5529737,189.646275 L43.9981448,181.377708 C44.1857974,177.892265 42.0920215,174.687502 38.8247663,173.459263 L31.0738103,170.545493 C26.9381052,168.990783 24.8457957,164.37779 26.400506,160.242085 C26.4238718,160.179929 26.4480106,160.118067 26.4729166,160.056512 L29.5787663,152.380506 C30.887973,149.144844 29.9482284,145.433877 27.2568108,143.211311 L20.8719223,137.938686 C17.4651148,135.125353 16.9840088,130.082932 19.7973419,126.676125 C19.8396235,126.624924 19.882541,126.574251 19.9260844,126.524119 L25.3560457,120.272488 C27.6449336,117.637242 27.9610561,113.82221 26.1371329,110.846167 L21.8102138,103.786058 C19.5014843,100.01897 20.6837171,95.0935472 24.4508047,92.7848177 C24.5074203,92.7501197 24.5644658,92.716128 24.6219278,92.6828505 L31.7875802,88.5330554 C34.8081127,86.7837951 36.3458457,83.2781171 35.5870672,79.8710973 L33.7870064,71.7885758 C32.8265415,67.4759562 35.5439999,63.2012767 39.8566195,62.2408118 C39.9214339,62.226377 39.9864256,62.2127497 40.0515793,62.1999331 L48.1764132,60.6016689 C51.6012688,59.9279537 54.193975,57.111524 54.5825667,53.642731 L55.5044286,45.413664 C55.9963097,41.0228516 59.9545148,37.8621433 64.3453272,38.3540244 C64.4113168,38.3614169 64.4772118,38.3696307 64.5429969,38.3786639 L72.7465604,39.5051273 C76.2046029,39.9799646 79.5713223,38.1579872 81.0651743,35.0033186 L84.6090608,27.5194531 C86.4999849,23.5262606 91.2700039,21.8220353 95.2631964,23.7129594 C95.3232102,23.7413781 95.3828678,23.7705429 95.4421554,23.8004471 L102.835465,27.5295683 C105.951962,29.1015022 109.727858,28.4714166 112.165089,25.9727295 L117.946965,20.0450586 C121.032021,16.8822103 126.096948,16.8191473 129.259796,19.9042033 C129.307331,19.9505687 129.354286,19.9975241 129.400652,20.0450586 L135.182528,25.9727295 C137.619758,28.4714166 141.395654,29.1015022 144.512151,27.5295683 L151.905461,23.8004471 C155.850335,21.8106867 160.661307,23.3956197 162.651068,27.3404941 C162.680972,27.3997817 162.710137,27.4594394 162.738555,27.5194531 L166.282442,35.0033186 C167.776294,38.1579872 171.143013,39.9799646 174.601056,39.5051273 L182.804619,38.3786639 C187.181824,37.7776128 191.217497,40.8387899 191.818548,45.2159943 C191.827581,45.2817794 191.835795,45.3476744 191.843188,45.413664 L192.765049,53.642731 C193.153641,57.111524 195.746347,59.9279537 199.171203,60.6016689 L207.296037,62.1999331 C211.631233,63.0527245 214.45428,67.2584196 213.601489,71.5936159 C213.588672,71.6587697 213.575045,71.7237614 213.56061,71.7885758 L211.760549,79.8710973 C211.001771,83.2781171 212.539503,86.7837951 215.560036,88.5330554 L222.725688,92.6828505 C226.549091,94.8970713 227.85359,99.791532 225.63937,103.614935 C225.606092,103.672397 225.5721,103.729442 225.537402,103.786058 L221.210483,110.846167 C219.38656,113.82221 219.702683,117.637242 221.99157,120.272488 L227.421532,126.524119 C230.318815,129.859824 229.963405,134.91266 226.6277,137.809943 C226.577567,137.853487 226.526895,137.896404 226.475694,137.938686 L220.090805,143.211311 C217.399388,145.433877 216.459643,149.144844 217.76885,152.380506 L220.8747,160.056512 C222.531899,164.152226 220.555092,168.815883 216.459378,170.473083 C216.397824,170.497989 216.335961,170.522127 216.273806,170.545493 L208.52285,173.459263 C205.255595,174.687502 203.161819,177.892265 203.349471,181.377708 L203.794642,189.646275 C204.032174,194.058163 200.648189,197.827263 196.236301,198.064794 C196.169994,198.068364 196.103646,198.071108 196.037271,198.073026 L187.760184,198.312188 C184.271149,198.413002 181.250235,200.764274 180.295999,204.121797 L178.03225,212.086897 C176.824373,216.336863 172.399917,218.802965 168.149951,217.595088 C168.086078,217.576935 168.022434,217.557987 167.959033,217.538249 L160.052765,215.076887 C156.720041,214.039351 153.099352,215.282335 151.106633,218.148098 L146.379276,224.946589 C143.856884,228.574084 138.871416,229.469946 135.243921,226.947554 C135.189403,226.909645 135.13536,226.871059 135.081803,226.831804 L128.403121,221.936644 C125.587861,219.873191 121.759755,219.873191 118.944495,221.936644 Z" id="Star" fill="#F6BE0C" transform="translate(123.673808, 123.673808) rotate(-8.000000) translate(-123.673808, -123.673808) "></path>
            <path d="M76.1564416,55.6182525 C76.5491428,55.6182525 76.924844,55.7729525 77.2019448,56.0500525 L118.483174,97.3328525 C119.059475,97.9091525 119.059475,98.8441525 118.483174,99.4221525 L110.025647,107.879653 L113.148557,111.002553 L125.788096,98.3630525 L122.790987,95.3659525 C122.440786,95.0174525 122.289485,94.5176525 122.386386,94.0331525 C122.483286,93.5486525 122.814787,93.1440525 123.272088,92.9553525 L133.030119,88.9246525 C133.582621,88.6968525 134.216723,88.8226525 134.638324,89.2459525 L145.270157,99.8777525 L150.492573,94.6536525 C151.068875,94.0773525 152.003878,94.0773525 152.58188,94.6536525 C153.159882,95.2299525 153.159882,96.1666525 152.58188,96.7429525 L147.359464,101.965353 L157.991297,112.595453 C158.412898,113.017053 158.538698,113.651153 158.310898,114.203653 L154.280185,123.961653 C154.089785,124.418953 153.686883,124.750453 153.202382,124.847353 C153.107182,124.867753 153.010281,124.876253 152.915081,124.876253 C152.52748,124.876253 152.150079,124.723253 151.869578,124.444453 L148.872468,121.447353 L136.232929,134.086853 L139.355839,137.209753 L147.815065,128.752253 C148.092166,128.475153 148.469567,128.318753 148.858868,128.318753 C149.249869,128.318753 149.627271,128.475153 149.904372,128.752253 L191.1856,170.033353 C191.761902,170.609653 191.761902,171.544653 191.189,172.124353 L172.128541,191.186453 C171.85144,191.461853 171.475739,191.618253 171.084738,191.618253 C170.693736,191.618253 170.316335,191.461853 170.040934,191.186453 L128.758006,149.903653 C128.181704,149.327353 128.181704,148.390653 128.758006,147.814353 L137.271632,139.300753 L134.148722,136.177853 L117.33057,152.995953 C117.041569,153.283253 116.662468,153.427753 116.285067,153.427753 C115.905966,153.427753 115.528564,153.283253 115.239563,152.995953 L112.210154,149.966553 L105.107532,157.070853 C104.818531,157.358153 104.44113,157.502653 104.062029,157.502653 C103.682927,157.502653 103.305526,157.358153 103.016525,157.070853 L90.1678853,144.220553 C89.5915835,143.644253 89.5915835,142.709253 90.1678853,142.131253 L97.2705074,135.026953 L94.241098,131.999253 C93.6647962,131.424653 93.6647962,130.487953 94.241098,129.909953 L111.05925,113.091853 L107.936341,109.968953 L99.4227141,118.482553 C99.1337132,118.769853 98.754612,118.914353 98.3772109,118.914353 C97.9998097,118.914353 97.6207085,118.769853 97.3317076,118.482553 L56.0504789,77.1997525 C55.4741771,76.6234525 55.4741771,75.6884525 56.0504789,75.1104525 L75.1109383,56.0500525 C75.3880392,55.7729525 75.7637403,55.6182525 76.1564416,55.6182525 Z M184.275079,167.301453 L167.303926,184.272553 L171.079638,188.048253 L188.05079,171.077153 L184.275079,167.301453 Z M178.41176,161.436453 L161.440607,178.407553 L165.216319,182.183253 L182.187472,165.212153 L178.41176,161.436453 Z M172.546742,155.573153 L155.575589,172.544253 L159.351301,176.319953 L176.322454,159.348853 L172.546742,155.573153 Z M166.681724,149.708153 L149.712271,166.679253 L153.487983,170.454953 L170.457436,153.485553 L166.681724,149.708153 Z M160.818406,143.843153 L143.847253,160.814253 L147.622964,164.589953 L164.594117,147.618853 L160.818406,143.843153 Z M154.951687,137.978153 L137.982234,154.949253 L141.757946,158.724953 L158.727399,141.753853 L154.951687,137.978153 Z M99.3581139,137.116253 L93.300995,143.173353 L104.060329,153.932653 L110.117447,147.875553 L99.3581139,137.116253 Z M148.858868,131.883653 L131.889415,148.854753 L135.892928,152.858253 L152.864081,135.888853 L148.858868,131.883653 Z M99.9854159,128.342553 L97.3742077,130.953753 L116.281667,149.859453 L118.892875,147.248253 L99.9854159,128.342553 Z M123.487989,104.838353 L102.074722,126.251553 L120.982181,145.158953 L142.395448,123.745753 L123.487989,104.838353 Z M121.319507,113.01787 C121.901268,112.437816 122.840641,112.437816 123.424112,113.019581 L134.149043,123.7446 C134.426235,124.023505 134.583652,124.401653 134.583652,124.7952 C134.583652,125.188747 134.426235,125.568606 134.149043,125.847511 L121.848225,138.146719 C121.557345,138.437602 121.175778,138.583043 120.795923,138.583043 C120.416067,138.583043 120.0345,138.437602 119.74362,138.146719 L109.01869,127.4217 C108.43864,126.841646 108.43864,125.900555 109.01869,125.318789 Z M122.370099,116.173093 L112.172175,126.3711 L120.794212,134.993208 L130.992135,124.793489 L122.370099,116.173093 Z M127.877403,100.448953 L125.578996,102.747353 L144.484755,121.654753 L146.783162,119.356353 L127.877403,100.448953 Z M133.24602,92.0305525 L126.444298,94.8389525 L152.393179,120.787753 L155.201588,113.987753 L133.24602,92.0305525 Z M111.343151,94.3697525 L94.3719984,111.340853 L98.3772109,115.346053 L115.346664,98.3732525 L111.343151,94.3697525 Z M105.479833,88.5047525 L88.5103801,105.475853 L92.2843919,109.251553 L109.255545,92.2804525 L105.479833,88.5047525 Z M99.6148147,82.6397525 L82.6436618,99.6108525 L86.4193736,103.386553 L103.390526,86.4154525 L99.6148147,82.6397525 Z M93.7497964,76.7764525 L76.7786435,93.7475525 L80.5543553,97.5232525 L97.5255082,80.5521525 L93.7497964,76.7764525 Z M87.8847781,70.9114525 L70.9136252,87.8825525 L74.689337,91.6582525 L91.6604899,74.6871525 L87.8847781,70.9114525 Z M82.0197598,65.0464525 L65.0486069,82.0175525 L68.8243187,85.7932525 L85.7954716,68.8221525 L82.0197598,65.0464525 Z M76.1564416,59.1814525 L59.1852886,76.1525525 L62.9610004,79.9282525 L79.9321533,62.9571525 L76.1564416,59.1814525 Z" id="Combined-Shape" fill="#3338DD" fill-rule="nonzero" transform="translate(123.618253, 123.618253) rotate(-254.000000) translate(-123.618253, -123.618253) "></path>
        </g>
    </g>
</svg>