<svg xmlns="http://www.w3.org/2000/svg" xmlns:xlink="http://www.w3.org/1999/xlink" viewBox="0 0 591 115">
  <defs>
    <path id="a" fill="#FFF" d="m6.703 75.092 59.918-3.14 1.675 31.956-59.918 3.14z"/>
    <path id="b" stroke-linecap="square" d="M6.5 15.5c.847 3.616 2.847 5.423 6 5.423s5.153-1.807 6-5.423m-9-5.577c-.212-2-.712-3-1.5-3s-1.288 1-1.5 3m12 0c-.212-2-.712-3-1.5-3s-1.288 1-1.5 3"/>
  </defs>
  <g fill="none" fill-rule="evenodd">
    <path fill="#5092DB" fill-rule="nonzero" d="M248.897 91V75.824h3.158v13.023h6.84V91zm16.589.256c-1.756 0-3.153-.531-4.188-1.594-1.036-1.063-1.554-2.494-1.554-4.291 0-1.819.521-3.254 1.564-4.307 1.042-1.053 2.46-1.58 4.25-1.58 1.798 0 3.218.527 4.26 1.58 1.043 1.053 1.564 2.481 1.564 4.286 0 1.846-.523 3.292-1.568 4.338-1.046 1.045-2.489 1.568-4.328 1.568Zm.052-1.897c1.743 0 2.614-1.336 2.614-4.009 0-1.224-.23-2.19-.692-2.902-.461-.71-1.095-1.066-1.902-1.066-.8 0-1.43.355-1.892 1.066-.461.711-.692 1.685-.692 2.923 0 1.223.23 2.194.687 2.912.458.717 1.084 1.076 1.877 1.076ZM276.6 91l-4.296-11.259h3.199l3.148 8.121 3.128-8.12h2.194L279.635 91zm18.497-.38c-1.442.424-2.81.636-4.102.636-1.88 0-3.363-.533-4.45-1.6-1.087-1.066-1.63-2.522-1.63-4.367 0-1.744.497-3.147 1.492-4.21.994-1.063 2.309-1.594 3.942-1.594 1.648 0 2.851.52 3.61 1.558.759 1.04 1.138 2.684 1.138 4.933h-6.983c.205 2.146 1.384 3.22 3.538 3.22 1.018 0 2.167-.237 3.445-.708v2.133Zm-7.024-6.357h4.04c0-1.92-.619-2.881-1.856-2.881-1.258 0-1.986.96-2.184 2.881ZM304.97 91v-2.123c-.78 1.586-2.006 2.38-3.681 2.38-1.354 0-2.417-.496-3.189-1.487-.772-.992-1.159-2.355-1.159-4.092 0-1.886.436-3.39 1.308-4.511.871-1.122 2.042-1.682 3.512-1.682 1.175 0 2.245.465 3.21 1.394v-6.07h3.045V91h-3.046Zm0-8.316c-.731-.82-1.514-1.23-2.348-1.23-.745 0-1.34.358-1.784 1.076-.445.718-.667 1.682-.667 2.892 0 2.304.739 3.455 2.215 3.455.902 0 1.764-.577 2.584-1.732v-4.46ZM318.02 91V79.741h3.036V91h-3.035Zm0-13.156v-2.532h3.036v2.532h-3.035Zm12.283 13.094c-.724.212-1.295.318-1.712.318-2.632 0-3.948-1.23-3.948-3.691v-5.927h-1.261v-1.897h1.261v-1.897l3.035-.348v2.245h2.41v1.897h-2.41v5.527c0 1.38.564 2.071 1.692 2.071.26 0 .571-.048.933-.143v1.845Zm1.414.062v-3.292h3.292V91zm-44.82-31V44.824h9.546v2.082h-6.388v4.614h5.25v2.092h-5.25V60zm18.671 0v-2.123c-.984 1.586-2.263 2.38-3.835 2.38-1.005 0-1.798-.319-2.379-.954-.581-.636-.871-1.504-.871-2.605v-7.957h3.035v7.209c0 1.278.427 1.917 1.281 1.917.957 0 1.88-.68 2.769-2.04V48.74h3.035V60h-3.035Zm6.479 0V48.741h3.035v2.123c.991-1.586 2.27-2.38 3.835-2.38 1.005 0 1.798.319 2.38.954.58.636.87 1.504.87 2.605V60h-3.034v-7.208c0-1.279-.424-1.918-1.272-1.918-.964 0-1.89.68-2.779 2.04V60h-3.035Zm13.319 0v-2.533h3.035V60h-3.035Zm.502-4.296-.502-7.845v-3.035h3.035v3.035l-.503 7.845h-2.03Zm-23.851-29.063c-1.9.492-3.54.738-4.922.738-2.618 0-4.63-.688-6.034-2.066-1.405-1.377-2.107-3.351-2.107-5.921 0-2.55.702-4.512 2.107-5.886 1.405-1.374 3.406-2.061 6.003-2.061 1.662 0 3.309.195 4.943.584V14.5c-1.894-.649-3.449-.974-4.666-.974-1.606 0-2.847.513-3.722 1.538-.875 1.026-1.312 2.478-1.312 4.358 0 1.819.468 3.246 1.404 4.281.937 1.036 2.229 1.554 3.876 1.554a6.26 6.26 0 0 0 1.272-.154v-4.994h3.158v6.532Zm3.188.359V15.741h3.035v2.123c.786-1.586 1.982-2.38 3.589-2.38.191 0 .38.021.564.062v2.707a3.515 3.515 0 0 0-1.2-.235c-1.21 0-2.194.611-2.953 1.835V27h-3.035Zm18.363-.38c-1.442.424-2.81.636-4.101.636-1.88 0-3.364-.533-4.45-1.6-1.088-1.066-1.631-2.522-1.631-4.367 0-1.744.497-3.147 1.492-4.21.995-1.063 2.309-1.594 3.943-1.594 1.647 0 2.85.52 3.609 1.558.759 1.04 1.138 2.684 1.138 4.933h-6.983c.205 2.146 1.384 3.22 3.538 3.22 1.018 0 2.167-.237 3.445-.708v2.133Zm-7.024-6.357h4.04c0-1.92-.618-2.881-1.856-2.881-1.258 0-1.986.96-2.184 2.881Zm15.328 5.527c-1.011.978-2.095 1.466-3.25 1.466-.985 0-1.784-.3-2.4-.902-.615-.602-.922-1.38-.922-2.338 0-1.244.497-2.203 1.492-2.876.994-.673 2.418-1.01 4.27-1.01h.81v-1.026c0-1.168-.666-1.753-2-1.753-1.182 0-2.378.335-3.588 1.005v-2.092c1.374-.52 2.734-.78 4.081-.78 2.946 0 4.42 1.173 4.42 3.518v4.983c0 .882.283 1.323.85 1.323.103 0 .236-.014.4-.04l.072 1.701c-.642.192-1.21.287-1.702.287-1.244 0-2.044-.488-2.4-1.466h-.133Zm0-1.63v-2.287h-.717c-1.962 0-2.943.615-2.943 1.846 0 .417.142.767.425 1.05.284.284.634.426 1.051.426.711 0 1.44-.345 2.184-1.035Zm12.283 2.778c-.724.212-1.295.318-1.712.318-2.632 0-3.948-1.23-3.948-3.691v-5.927h-1.261v-1.897h1.261v-1.897l3.035-.348v2.245h2.41v1.897h-2.41v5.527c0 1.38.564 2.071 1.692 2.071.26 0 .57-.048.933-.143v1.845Zm14.732 0c-.724.212-1.295.318-1.712.318-2.632 0-3.948-1.23-3.948-3.691v-5.927h-1.261v-1.897h1.261v-1.897l3.035-.348v2.245h2.41v1.897h-2.41v5.527c0 1.38.564 2.071 1.692 2.071.26 0 .571-.048.933-.143v1.845Zm7.873-1.148c-1.01.978-2.094 1.466-3.25 1.466-.984 0-1.784-.3-2.399-.902-.615-.602-.923-1.38-.923-2.338 0-1.244.497-2.203 1.492-2.876s2.418-1.01 4.27-1.01h.81v-1.026c0-1.168-.666-1.753-1.999-1.753-1.182 0-2.378.335-3.588 1.005v-2.092c1.374-.52 2.734-.78 4.08-.78 2.947 0 4.42 1.173 4.42 3.518v4.983c0 .882.284 1.323.851 1.323.103 0 .236-.014.4-.04l.072 1.701c-.643.192-1.21.287-1.702.287-1.244 0-2.044-.488-2.4-1.466h-.133Zm0-1.63v-2.287h-.717c-1.962 0-2.943.615-2.943 1.846 0 .417.142.767.426 1.05.284.284.634.426 1.05.426.712 0 1.44-.345 2.185-1.035Zm6.48 2.84V10.81h3.036V27zm6.48 0V10.81h3.035v10.18h.195l4.009-5.25h2.522l-3.701 4.82 4.86 6.44h-3.691l-4-5.63h-.194V27zm12.815 0v-2.533h3.035V27h-3.035Zm.503-4.296-.503-7.845v-3.035h3.035v3.035l-.502 7.845h-2.03Z" opacity=".453"/>
    <path fill="#5092DB" fill-rule="nonzero" d="m560.04 8.165 7.489 1.88V5.23l2.601.51v4.957l5.854 1.46V6.916l2.601.51v5.379l7.471 1.88v2.672l-7.47-1.863V20.1l7.47 1.863v2.69l-7.47-1.864v4.799l-2.602-.51v-4.94l-5.854-1.476v5.256l-2.601-.527v-5.38l-7.489-1.863v-2.69l7.489 1.882v-4.623l-7.489-1.864V8.165Zm10.09 5.203v4.623l5.854 1.46v-4.606l-5.854-1.477Zm-9.668 31.814c-.574-2.156-.861-4.154-.861-5.994 0-3.082.905-5.517 2.716-7.304 1.81-1.787 4.274-2.68 7.391-2.68 3.153 0 5.62.92 7.4 2.76 1.782 1.84 2.673 4.382 2.673 7.628 0 1.57-.252 3.381-.756 5.432h-3.762c.691-2.133 1.037-3.838 1.037-5.115 0-1.559-.597-2.813-1.793-3.762-1.195-.95-2.783-1.424-4.763-1.424-2.028 0-3.65.513-4.87 1.538-1.218 1.026-1.828 2.394-1.828 4.105 0 1.558.34 3.164 1.02 4.816h-3.604Zm-.861 12.426c0-3.012.911-5.406 2.733-7.181 1.823-1.775 4.275-2.663 7.357-2.663 3.117 0 5.578.893 7.383 2.68 1.804 1.788 2.707 4.216 2.707 7.287 0 3.082-.903 5.516-2.707 7.303-1.805 1.787-4.254 2.681-7.348 2.681-3.164 0-5.643-.896-7.436-2.69-1.793-1.792-2.689-4.265-2.689-7.417Zm3.252.087c0 2.989 2.29 4.483 6.873 4.483 2.098 0 3.756-.396 4.975-1.187 1.218-.79 1.828-1.878 1.828-3.26 0-1.371-.61-2.453-1.828-3.244-1.22-.79-2.89-1.186-5.01-1.186-2.098 0-3.762.393-4.992 1.178-1.23.785-1.846 1.857-1.846 3.216Zm-2.813 14.201h19.301V77.1h-3.638c2.718 1.7 4.078 3.891 4.078 6.575 0 1.722-.545 3.082-1.635 4.078-1.09.996-2.578 1.494-4.465 1.494h-13.64v-5.203h12.357c2.191 0 3.287-.727 3.287-2.18 0-1.652-1.166-3.24-3.498-4.764H560.04v-5.203Zm0 23.588h16.05v-2.655h3.251v2.655h1.389c5.004 0 7.506 2.373 7.506 7.119 0 1.535-.223 3.117-.668 4.746h-3.516c.621-1.477.932-2.8.932-3.973 0-1.793-1.354-2.69-4.06-2.69h-1.583v4.888h-3.252v-4.887H560.04v-5.203Zm.65 29.494c-.726-2.473-1.089-4.817-1.089-7.032 0-3.222.914-5.765 2.742-7.629 1.828-1.863 4.324-2.795 7.488-2.795 2.989 0 5.394.853 7.216 2.558 1.823 1.705 2.734 3.958 2.734 6.759 0 2.824-.891 4.887-2.672 6.187-1.781 1.301-4.6 1.952-8.455 1.952v-11.971c-3.68.351-5.52 2.373-5.52 6.064 0 1.746.404 3.715 1.213 5.907h-3.656Zm10.9-12.042v6.926c3.292 0 4.939-1.06 4.939-3.181 0-2.157-1.647-3.405-4.94-3.745Z" opacity=".445"/>
    <path fill="#9EC6F2" stroke="#000" d="M461.35 111.009c-30.176 2.64-58.007-.802-78.608-8.51-10.451-3.91-19.038-8.917-25.11-14.79-5.79-5.6-9.288-11.987-9.898-18.959-.61-6.971 1.725-13.868 6.455-20.39 4.96-6.838 12.547-13.26 22.16-18.925 18.95-11.169 45.76-19.39 75.936-22.03 30.175-2.64 58.006.8 78.607 8.509 10.452 3.91 19.039 8.917 25.11 14.79 5.791 5.6 9.289 11.987 9.899 18.959 1.044 11.932-6.524 23.63-19.965 33.607l37.953 15.298-57.177-4.046c-17.802 8.315-40.434 14.306-65.363 16.487Z"/>
    <path fill="#CAE3FF" stroke="#000" d="M398.362 107.363c20.96 1.834 40.292-.553 54.601-5.906 7.246-2.71 13.2-6.178 17.41-10.249 3.998-3.865 6.417-8.272 6.838-13.084.42-4.813-1.196-9.572-4.461-14.073-3.44-4.74-8.701-9.19-15.367-13.117-13.162-7.755-31.786-13.463-52.745-15.297-20.96-1.834-40.292.553-54.601 5.906-7.246 2.71-13.2 6.178-17.41 10.249-3.998 3.865-6.417 8.272-6.838 13.084-.722 8.26 4.54 16.347 13.847 23.247L313.865 98.51l38.778-2.744c12.414 5.851 28.256 10.07 45.72 11.597Z"/>
    <g stroke="#000">
      <path fill="#CAE3FF" d="M108.18 17.557c2.052 4.497 6.485 8.216 12.389 10.632 5.894 2.412 13.25 3.528 21.1 2.842 7.678-.672 14.59-2.96 19.928-6.24 5.362-3.293 9.133-7.59 10.549-12.252 9.346.708 19.828 1.809 31.442 3.3l45.88 22.538-16.88 34.05-25.086-8.276 10.542 120.501-123.1 10.77L84.278 73.5 55.534 87.913 36.63 57.027l43.243-30.369c10.247-3.733 19.683-6.767 28.309-9.101Z"/>
      <g fill-rule="nonzero">
        <path fill="#9EC6F2" d="M143.105 56.238c-18.415 1.611-16.555 9.626-16.555 9.626l.756 8.407 17.573-1.538.221 2.525-24.554 2.148s-11.903-.327-10.25 18.556c1.652 18.884 11.879 17.314 11.879 17.314l6.138-.537-.767-8.763s-1.245-10.423 9.207-11.338l17.43-1.525s9.807-.695 8.951-10.474l-1.414-16.17s.63-9.915-18.615-8.231Zm-9.195 6.502c1.748-.153 3.287 1.16 3.442 2.936.156 1.777-1.132 3.337-2.88 3.49-1.749.153-3.287-1.16-3.443-2.937-.155-1.777 1.132-3.336 2.88-3.49Z"/>
        <path fill="#CAE3FF" d="M150.17 128.899c18.416-1.612 16.556-9.627 16.556-9.627l-.756-8.406-17.573 1.537-.221-2.524 24.554-2.148s11.903.327 10.25-18.557c-1.652-18.883-11.879-17.314-11.879-17.314l-6.138.537.767 8.763s1.245 10.424-9.207 11.338l-17.43 1.525s-9.807.696-8.951 10.475l1.414 16.17s-.63 9.914 18.615 8.23Zm9.196-6.502c-1.748.153-3.287-1.16-3.442-2.937-.156-1.776 1.132-3.336 2.88-3.49 1.749-.152 3.287 1.16 3.443 2.937.155 1.777-1.132 3.337-2.88 3.49Z"/>
      </g>
    </g>
    <g stroke="#000">
      <path stroke-linecap="square" d="M438.585 117c8.166-4.617 13.153-9.342 14.96-14.177 1.806-4.834 1.806-13.45 0-25.845-.416-14.433.31-24.29 2.175-29.575 1.865-5.284 6.615-10.937 14.25-16.96 11.452-7.878 21.38-9.105 29.785-3.68 17.222 11.115 16.084 32.164 29.874 42.184 15.231 11.066 35.549-3.658 47.816 8.195 18.3 17.682-17.808 37.3-31.48 34.488-13.671-2.812-18.494-17.958-35.228-20.237-11.156-1.52-16.745-2.88-16.768-4.082"/>
      <path stroke-linecap="square" stroke-width="3" d="m501.5 89.5 4 1"/>
      <path fill="#5092DB" d="M408.614 57.659a2.492 2.492 0 0 1 1.111-1.558 2.492 2.492 0 0 1 1.876-.319l88.721 25.304a2.496 2.496 0 0 1 1.75 2.966l-2.541 11.01a2.493 2.493 0 0 1-1.058 1.523 2.493 2.493 0 0 1-1.816.375L405.96 80.838a2.492 2.492 0 0 1-1.612-1.03 2.492 2.492 0 0 1-.414-1.857Z"/>
      <path stroke-linecap="square" d="m438.5 63.5-5 22"/>
      <g transform="rotate(-77 236.024 -190.596)">
        <circle cx="22.538" cy="22.538" r="19" fill="#FFF"/>
        <path stroke-linecap="square" d="m5.52 16.678 34.038 11.72M7.147 11.95l34.039 11.721M3.891 21.406l34.039 11.72M4.154 26.784l30.257 10.419M10.666 7.874l30.256 10.418M7.254 33.14l20.802 7.162M17.021 4.774l20.802 7.163M28.399 5.52l-11.72 34.038M33.126 7.147l-11.72 34.039m2.265-37.295L11.951 37.93m6.341-33.776L7.874 34.411m29.329-23.745L26.784 40.922M11.937 7.254 4.774 28.056m35.528-11.035L33.14 37.823"/>
      </g>
    </g>
    <path stroke="#000" stroke-linecap="square" stroke-width="3" d="M346.064 54.202c18.901-9.802 26.394-20.573 25.432-27.42-.962-6.846-13.976-11.945-58.255-4.95-21.506 3.397-46.559 16.917-79.14 25.627-8.094 2.164-21.666 3.29-40.717 3.376 16.177 5.102 30.314 8 42.412 8.694 18.148 1.041 26.807-9.025 52.586-10.064 21.965-.886 38.781 14.54 57.682 4.737Z"/>
    <path stroke="#9EC6F2" stroke-linecap="square" d="M346.064 54.202c18.901-9.802 26.394-20.573 25.432-27.42-.962-6.846-13.976-11.945-58.255-4.95-21.506 3.397-46.559 16.917-79.14 25.627-8.094 2.164-21.666 3.29-40.717 3.376 16.177 5.102 30.314 8 42.412 8.694 18.148 1.041 26.807-9.025 52.586-10.064 21.965-.886 38.781 14.54 57.682 4.737Z"/>
    <g stroke="#000">
      <path fill="#FFF" d="m189.33 34.455 12.313 33.83-42.286 15.39-12.313-33.829z"/>
      <path stroke-linecap="square" d="m166.266 47.106 9.577 26.312m-13.335-24.943 9.576 26.311m-13.335-24.943 9.576 26.311"/>
      <path fill="#5092DB" d="m185.402 41.206 7.183 19.733-14.096 5.13-7.182-19.733z"/>
    </g>
    <path fill="#CAE3FF" stroke="#000" d="m192.916 47.913 6.894 1.215-.868 4.925-6.894-1.216z"/>
    <g stroke="#000">
      <use xlink:href="#a"/>
      <path fill="#FFF" d="m5.177 78.952 59.089-10.419 5.556 31.514-59.088 10.42z"/>
      <path fill="#FFF" d="m13.912 65.012 57.064 18.541-9.889 30.434L4.024 95.446z"/>
      <use xlink:href="#a"/>
      <path stroke-linecap="square" d="m13.899 97.746 48.933-2.564"/>
      <path fill="#E9F5FE" d="m12.01 80.822 19.973-1.047.576 10.985-19.973 1.047z"/>
    </g>
    <g stroke="#000">
      <path stroke-linecap="square" d="M221 29.97c-12.033-14.173-22.978-20.405-32.834-18.696-20.196 3.503-27.373 23.324-43.982 27.158-18.344 4.235-31.293-17.257-47.217-11.14-15.836 6.084-17.503 16.147-5 30.187m249.941 79.614c4.185-13.255 2.456-23.108-5.189-29.56-15.665-13.22-35.462-5.977-49.075-16.235-15.036-11.33-6.896-35.065-21.817-43.33-14.84-8.221-23.62-3.03-26.338 15.572"/>
      <g transform="rotate(-14 186.237 -267.702)">
        <path fill="#5092DB" d="M.5 24.5h40v52H.5z"/>
        <path fill="#FFF" d="M5.5 32.5h27v9h-27z"/>
        <path fill="#FFF" stroke-linecap="square" d="M35.5 2.5v22"/>
        <circle cx="35.5" cy="1.5" r="1" fill="#FFF"/>
        <circle cx="9" cy="51" r="3.5" fill="#CAE3FF"/>
        <path stroke-linecap="square" d="M15.5 49.5h4m6 0h7"/>
      </g>
    </g>
    <g stroke="#000">
      <path fill="#FFF" d="M219.5 5.5h60v77h-60z"/>
      <path fill="#CAE3FF" d="M225.5 13.5h48v47h-48z"/>
      <path fill="#FFF" d="m237.274 7.722 57.676 16.539-21.224 74.017-57.676-16.539z"/>
      <path fill="#CAE3FF" d="m240.837 17.066 46.14 13.23-12.955 45.18-46.14-13.23z"/>
      <g transform="rotate(16 -10.25 937.152)">
        <path fill="#AFCFF4" d="M2.5 25.5h23v5h-23z"/>
        <circle cx="13" cy="13" r="12.5" fill="#AFCFF4"/>
        <use xlink:href="#b" stroke-linecap="square"/>
      </g>
      <g transform="rotate(16 -17.538 859.94)">
        <circle cx="13" cy="13" r="12.5" fill="#AFCFF4"/>
        <use xlink:href="#b" stroke-linecap="square"/>
      </g>
    </g>
    <path fill="#9EC6F2" stroke="#000" d="M235.34 85.786c.48.074.56.154.608.252l2.25 4.56a1.5 1.5 0 0 0 1.13.82l5.032.732a.498.498 0 0 1 .277.853l-3.641 3.549a1.5 1.5 0 0 0-.431 1.328l.86 5.011a.498.498 0 0 1-.726.527l-4.501-2.366a1.5 1.5 0 0 0-1.396 0l-4.5 2.366a.498.498 0 0 1-.726-.527l.86-5.011a1.5 1.5 0 0 0-.432-1.328l-3.641-3.55a.498.498 0 0 1 .277-.852l5.032-.731a1.5 1.5 0 0 0 1.13-.821l2.25-4.56a.498.498 0 0 1 .287-.252Zm23 0c.48.074.56.154.608.252l2.25 4.56a1.5 1.5 0 0 0 1.13.82l5.032.732a.498.498 0 0 1 .277.853l-3.641 3.549a1.5 1.5 0 0 0-.431 1.328l.86 5.011a.498.498 0 0 1-.726.527l-4.501-2.366a1.5 1.5 0 0 0-1.396 0l-4.5 2.366a.498.498 0 0 1-.726-.527l.86-5.011a1.5 1.5 0 0 0-.432-1.328l-3.641-3.55a.498.498 0 0 1 .277-.852l5.032-.731a1.5 1.5 0 0 0 1.13-.821l2.25-4.56a.498.498 0 0 1 .287-.252Zm23 0c.48.074.56.154.608.252l2.25 4.56a1.5 1.5 0 0 0 1.13.82l5.032.732a.498.498 0 0 1 .277.853l-3.641 3.549a1.5 1.5 0 0 0-.431 1.328l.86 5.011a.498.498 0 0 1-.726.527l-4.501-2.366a1.5 1.5 0 0 0-1.396 0l-4.5 2.366a.498.498 0 0 1-.726-.527l.86-5.011a1.5 1.5 0 0 0-.432-1.328l-3.641-3.55a.498.498 0 0 1 .277-.852l5.032-.731a1.5 1.5 0 0 0 1.13-.821l2.25-4.56a.498.498 0 0 1 .287-.252Zm23 0c.48.074.56.154.608.252l2.25 4.56a1.5 1.5 0 0 0 1.13.82l5.032.732a.498.498 0 0 1 .277.853l-3.641 3.549a1.5 1.5 0 0 0-.431 1.328l.86 5.011a.498.498 0 0 1-.726.527l-4.501-2.366a1.5 1.5 0 0 0-1.396 0l-4.5 2.366a.498.498 0 0 1-.726-.527l.86-5.011a1.5 1.5 0 0 0-.432-1.328l-3.641-3.55a.498.498 0 0 1 .277-.852l5.032-.731a1.5 1.5 0 0 0 1.13-.821l2.25-4.56a.498.498 0 0 1 .287-.252Zm23 0c.48.074.56.154.608.252l2.25 4.56a1.5 1.5 0 0 0 1.13.82l5.032.732a.498.498 0 0 1 .277.853l-3.641 3.549a1.5 1.5 0 0 0-.431 1.328l.86 5.011a.498.498 0 0 1-.726.527l-4.501-2.366a1.5 1.5 0 0 0-1.396 0l-4.5 2.366a.498.498 0 0 1-.726-.527l.86-5.011a1.5 1.5 0 0 0-.432-1.328l-3.641-3.55a.498.498 0 0 1 .277-.852l5.032-.731a1.5 1.5 0 0 0 1.13-.821l2.25-4.56a.498.498 0 0 1 .287-.252Z"/>
  </g>
</svg>
