<?xml version="1.0" encoding="UTF-8"?>
<svg width="200px" height="200px" viewBox="0 0 200 200" version="1.1" xmlns="http://www.w3.org/2000/svg" xmlns:xlink="http://www.w3.org/1999/xlink">
    <title>Post Square@1x</title>
    <g id="Post-Square" stroke="none" stroke-width="1" fill="none" fill-rule="evenodd">
        <circle id="Oval" fill="#FF542F" cx="99.4438879" cy="100.897651" r="100"></circle>
        <path d="M95.8358821,132.696675 L91.8455013,138.521232 C90.5251384,140.4485 87.8924141,140.940493 85.9651469,139.62013 C84.7797979,138.808052 84.087728,137.449788 84.1274739,136.013493 L84.322777,128.95584 C84.3991634,126.195473 82.2233671,123.89583 79.4630001,123.819444 C78.8456619,123.802361 78.2305008,123.899793 77.6486563,124.106808 L70.9967813,126.473487 C68.7957661,127.256589 66.3766611,126.107143 65.5935591,123.906128 C65.111919,122.552412 65.35039,121.046765 66.2267781,119.90814 L70.533166,114.313176 C72.2174669,112.12489 71.808907,108.985539 69.6206219,107.301238 C69.1312261,106.924555 68.5762813,106.641797 67.9838787,106.467276 L61.2112998,104.472086 C58.9703453,103.811904 57.6888755,101.460069 58.3490569,99.2191142 C58.7550958,97.8408345 59.8330201,96.7629102 61.2112998,96.3568713 L67.9838787,94.3616809 C70.6327485,93.5813283 72.1474809,90.8013944 71.3671283,88.1525246 C71.1926075,87.560122 70.909849,87.0051772 70.533166,86.5157814 L66.2267781,80.9208165 C64.8018527,79.0695184 65.147496,76.4136146 66.9987941,74.9886892 C68.1374189,74.1123011 69.6430659,73.8738301 70.9967813,74.3554702 L77.6486563,76.7221493 C80.2503167,77.6477973 83.1097651,76.2891209 84.0354132,73.6874605 C84.2424284,73.105616 84.3398603,72.4904549 84.322777,71.8731167 L84.1274739,64.8154636 C84.0628507,62.4801819 85.9035832,60.5346746 88.2388649,60.4700515 C89.6751597,60.4303056 91.0334235,61.1223755 91.8455013,62.3077245 L95.8358821,68.1322821 C97.3965873,70.4103647 100.50854,70.991914 102.786622,69.4312088 C103.296101,69.0821672 103.736507,68.6417605 104.085549,68.1322821 L108.07593,62.3077245 C109.396293,60.3804574 112.029017,59.8884643 113.956284,61.2088272 C115.141633,62.020905 115.833703,63.3791688 115.793957,64.8154636 L115.598654,71.8731167 C115.522268,74.6334837 117.698064,76.9331267 120.458431,77.0095131 C121.075769,77.0265964 121.69093,76.9291645 122.272775,76.7221493 L128.92465,74.3554702 C131.125665,73.5723682 133.54477,74.721814 134.327872,76.9228292 C134.809512,78.2765446 134.571041,79.7821916 133.694653,80.9208165 L129.388265,86.5157814 C127.703964,88.7040665 128.112524,91.8434177 130.300809,93.5277186 C130.790205,93.9044016 131.34515,94.1871601 131.937553,94.3616809 L138.710131,96.3568713 C140.951086,97.0170528 142.232556,99.3688882 141.572374,101.609843 C141.166335,102.988122 140.088411,104.066047 138.710131,104.472086 L131.937553,106.467276 C129.288683,107.247629 127.77395,110.027563 128.554303,112.676432 C128.728824,113.268835 129.011582,113.82378 129.388265,114.313176 L133.694653,119.90814 C135.119579,121.759439 134.773935,124.415342 132.922637,125.840268 C131.784012,126.716656 130.278365,126.955127 128.92465,126.473487 L122.272775,124.106808 C119.671115,123.18116 116.811666,124.539836 115.886018,127.141496 C115.679003,127.723341 115.581571,128.338502 115.598654,128.95584 L115.793957,136.013493 C115.85858,138.348775 114.017848,140.294282 111.682566,140.358906 C110.246271,140.398651 108.888008,139.706581 108.07593,138.521232 L104.085549,132.696675 C102.524844,130.418592 99.4128915,129.837043 97.1348089,131.397748 C96.6253305,131.74679 96.1849237,132.187196 95.8358821,132.696675 Z" id="Star" fill="#F6BE0C"></path>
        <g id="SCIENCE,-TEACHING-AN" transform="translate(15.098356, 15.714266)" fill="#F6BE0C" fill-rule="nonzero">
            <path d="M28.3956065,126.884533 C29.0640068,127.750182 29.6058151,128.672938 30.0210315,129.6528 C30.436248,130.632663 30.6622227,131.514808 30.6989557,132.299237 L27.7019425,133.028401 C27.6480637,132.305978 27.4741038,131.554356 27.1800628,130.773535 C26.8860217,129.992713 26.5030952,129.296779 26.0312833,128.685733 C25.1348406,127.524745 24.3963723,127.168362 23.8158784,127.616583 C23.5103553,127.852489 23.4115413,128.192945 23.5194366,128.637949 C23.6273319,129.082954 23.8828939,129.734992 24.2861226,130.594064 C24.7342119,131.532288 25.0673452,132.347949 25.2855223,133.041045 C25.5036995,133.734141 25.543237,134.443254 25.4041348,135.168381 C25.2650326,135.893509 24.8237617,136.543092 24.0803221,137.11713 C23.4285395,137.620396 22.7027957,137.896293 21.9030907,137.944822 C21.1033857,137.99335 20.2775139,137.781669 19.4254753,137.30978 C18.5734367,136.837891 17.750309,136.087649 16.9560922,135.059055 C16.4135085,134.356351 15.9577151,133.60289 15.588712,132.79867 C15.2197089,131.994451 14.9874489,131.214693 14.8919318,130.459398 L17.8570399,129.657334 C18.0934516,131.100375 18.5812434,132.300549 19.3204155,133.257855 C19.7843639,133.858717 20.2116067,134.227827 20.6021439,134.365186 C20.9926811,134.502545 21.3305271,134.461135 21.615682,134.240956 C21.9008369,134.020778 21.9888866,133.692698 21.879831,133.256717 C21.7707754,132.820736 21.513473,132.182234 21.1079237,131.341209 C20.6519709,130.392801 20.3168718,129.574595 20.1026263,128.88659 C19.8883809,128.198586 19.8462974,127.49144 19.9763758,126.765152 C20.1064542,126.038863 20.5432132,125.3887 21.2866528,124.814663 C21.9282513,124.31926 22.6463571,124.04926 23.44097,124.004664 C24.2355829,123.960067 25.0634206,124.174294 25.924483,124.647343 C26.7855455,125.120393 27.6092533,125.866123 28.3956065,126.884533 Z" id="Path"></path>
            <path d="M19.3883514,111.184829 C19.9589593,112.480042 20.1974487,113.763395 20.1038197,115.034889 C20.0101907,116.306383 19.6044114,117.451771 18.886482,118.471054 C18.1685526,119.490336 17.1914183,120.272313 15.9550792,120.816984 C14.7187401,121.361655 13.4822386,121.554899 12.2455748,121.396716 C11.008911,121.238532 9.88987199,120.764905 8.88845779,119.975834 C7.8870436,119.186763 7.10103258,118.144621 6.53042475,116.849409 C6.03243973,115.719042 5.78390367,114.612349 5.78481406,113.529331 C5.78572946,112.446312 6.03069769,111.438554 6.51972127,110.506057 L9.51359582,111.844431 C8.90081324,113.07047 8.84600813,114.254561 9.34918049,115.396702 C9.64485909,116.067858 10.0553,116.60058 10.5805033,116.994869 C11.1057065,117.389157 11.6997266,117.612529 12.3625635,117.664984 C13.0254003,117.717439 13.7041712,117.59064 14.398876,117.284587 C15.0935809,116.978533 15.6452618,116.563255 16.0539188,116.038752 C16.4625758,115.514249 16.6986692,114.925169 16.7621988,114.271513 C16.8257284,113.617857 16.709654,112.955452 16.4139754,112.284296 C15.910803,111.142154 15.0000861,110.383426 13.6818248,110.008111 L14.7148833,106.895665 C15.733016,107.164183 16.6419643,107.663581 17.4417281,108.39386 C18.241492,109.124139 18.8903664,110.054462 19.3883514,111.184829 Z" id="Path"></path>
            <polygon id="Path" points="2.25065375 103.714653 1.39442036 99.9904128 14.5609248 96.9633251 15.4171582 100.687565"></polygon>
            <polygon id="Path" points="10.5443289 79.7517373 13.4958225 79.6606101 13.830551 90.502044 0.326985712 90.9189656 0 80.3283123 2.95149356 80.2371851 3.16174121 87.0468402 5.4380565 86.9765591 5.25282416 80.9771179 8.10786368 80.8889688 8.29309603 86.8884099 10.7623194 86.8121728"></polygon>
            <polygon id="Path" points="3.94927151 58.3259129 17.1362411 61.2625662 16.4524204 64.3332462 8.12932679 68.5895347 15.1560977 70.1543514 14.3422252 73.8090258 1.15525564 70.8723725 1.83907634 67.8016924 10.16217 63.545404 3.13539902 61.9805873"></polygon>
            <path d="M23.1959263,49.5362821 C22.5212853,50.7804798 21.6526634,51.7548354 20.5900608,52.459349 C19.5274583,53.1638625 18.3734276,53.5443678 17.1279689,53.6008649 C15.8825101,53.6573619 14.6659591,53.3636227 13.4783159,52.7196471 C12.2906726,52.0756716 11.3807767,51.2163879 10.748628,50.1417962 C10.1164793,49.0672044 9.80574996,47.8924626 9.81643996,46.6175707 C9.82712997,45.3426788 10.1697955,44.083134 10.8444366,42.8389364 C11.4332142,41.7530911 12.1560125,40.878962 13.0128314,40.216549 C13.8696504,39.5541361 14.8164023,39.1307612 15.8530873,38.9464243 L16.6280931,42.1329423 C15.2835495,42.3991685 14.3138223,43.0808596 13.7189115,44.1780158 C13.3693248,44.8227364 13.199456,45.4734277 13.2093053,46.1300897 C13.2191545,46.7867518 13.4062713,47.3931692 13.7706558,47.949342 C14.1350402,48.5055149 14.6509036,48.9645278 15.318246,49.3263807 C15.9855884,49.6882336 16.6517128,49.8701297 17.3166192,49.8720691 C17.9815256,49.8740084 18.5918263,49.6999745 19.1475215,49.3499675 C19.7032167,48.9999605 20.1558576,48.5025967 20.5054444,47.8578761 C21.1003551,46.76072 21.1425895,45.5761146 20.6321475,44.3040599 L23.7254654,43.2150623 C24.1365741,44.184436 24.2982892,45.2088548 24.2106106,46.2883186 C24.1229321,47.3677824 23.784704,48.4504369 23.1959263,49.5362821 Z" id="Path"></path>
            <polygon id="Path" points="34.1973616 29.9824563 36.3877208 31.9628464 29.1133466 40.0084795 19.0920954 30.9478711 26.1982012 23.088347 28.3885604 25.0687371 23.819425 30.1223109 25.5087216 31.6496706 29.5342205 27.1973719 31.6529993 29.1130434 27.6275004 33.5653421 29.4599578 35.2221391"></polygon>
            <path d="M39.76551,23.9719829 C40.2697856,23.5935726 40.806286,23.4403207 41.3750113,23.5122271 C41.9437366,23.5841335 42.4211657,23.8773701 42.8072986,24.3919371 C42.9849198,24.6286378 43.1316669,24.8885066 43.2475401,25.1715433 C43.3634132,25.4545801 43.4909119,25.9138871 43.6300361,26.5494646 L44.348767,29.533059 L42.5117631,30.9115536 L41.3491122,27.8508739 C40.9605602,27.933321 40.5880624,27.9031805 40.2316188,27.7604526 C39.8751753,27.6177247 39.5656683,27.371408 39.3030979,27.0215025 C38.9169649,26.5069356 38.7688587,25.9665738 38.858779,25.4004172 C38.9486994,24.8342607 39.2509431,24.3581159 39.76551,23.9719829 Z" id="Path"></path>
            <polygon id="Path" points="56.6909888 8.07405485 52.7563706 9.39205717 51.7939224 6.51887088 63.268367 2.67520828 64.2308152 5.54839457 60.3144976 6.86026666 63.6432198 16.7974651 60.019711 18.0112533"></polygon>
            <polygon id="Path" points="83.1520569 10.4720853 83.4627875 13.4085908 72.6764076 14.5499671 71.2547645 1.11497433 81.7916374 0 82.102368 2.93650557 75.327293 3.65341984 75.5669414 5.91817577 81.5359168 5.28656007 81.8364928 8.12710141 75.8675174 8.7587171 76.127475 11.2154015"></polygon>
            <path d="M98.7052808,12.7359426 L93.0695169,11.8009299 L91.5927306,14.2165995 L87.7467025,13.5785165 L95.8411618,1.22677382 L99.5539117,1.84274502 L103.245053,16.1498014 L99.3228663,15.4990831 L98.7052808,12.7359426 Z M98.0621644,9.77292816 L97.0561647,5.22373133 L94.6350107,9.20433936 L98.0621644,9.77292816 Z" id="Shape"></path>
            <path d="M113.710023,20.5806803 C112.41375,20.0124866 111.370146,19.2284186 110.57921,18.2284762 C109.788275,17.2285339 109.312563,16.1103792 109.152076,14.8740123 C108.991589,13.6376453 109.182529,12.400786 109.724896,11.1634342 C110.267262,9.92608248 111.047417,8.94749301 112.06536,8.2276658 C113.083304,7.50783858 114.227934,7.09992609 115.499251,7.00392832 C116.770569,6.90793054 118.054364,7.14402852 119.350637,7.71222225 C120.48193,8.20810041 121.413461,8.85524043 122.145228,9.65364231 C122.876996,10.4520442 123.378087,11.3600605 123.648501,12.3776911 L120.537985,13.4165466 C120.160215,12.0989868 119.399791,11.1896851 118.256714,10.6886416 C117.585009,10.3942139 116.922388,10.2793738 116.268852,10.3441211 C115.615315,10.4088685 115.026677,10.6460589 114.502936,11.0556925 C113.979195,11.465326 113.564945,12.0177796 113.260186,12.7130535 C112.955428,13.4083273 112.829894,14.0873332 112.883583,14.7500712 C112.937273,15.4128092 113.161751,16.0064121 113.557018,16.5308798 C113.952284,17.0553476 114.48577,17.4647953 115.157476,17.7592229 C116.300553,18.2602665 117.484539,18.2032554 118.709434,17.5881896 L120.053384,20.5795654 C119.1218,21.0703255 118.1145,21.3171709 117.031485,21.3201274 C115.94847,21.3230322 114.841316,21.0765585 113.710023,20.5806803 Z" id="Path"></path>
            <polygon id="Path" points="142.146952 23.0341895 133.792036 33.6509444 130.789011 31.2876968 134.047428 27.1471624 129.952394 23.9245521 126.693977 28.0650865 123.690952 25.7018389 132.045868 15.085084 135.048893 17.4483316 131.909832 21.4371981 136.004866 24.6598084 139.143927 20.6709419"></polygon>
            <polygon id="Path" points="148.459213 29.8300466 150.911982 32.7604091 140.552115 41.4318131 138.099346 38.5014507"></polygon>
            <polygon id="Path" points="162.062603 51.927161 150.115834 58.2354751 148.646898 55.4535848 152.228149 46.8185097 145.862228 50.1799399 144.113924 46.8689784 156.060692 40.5606643 157.529628 43.3425546 153.948378 51.9776297 160.314298 48.6161995"></polygon>
            <path d="M160.729354,71.8609148 L161.424166,75.1661746 L155.946878,76.3175771 C155.246631,75.675906 154.648476,74.8944426 154.152414,73.973187 C153.656352,73.0519314 153.305092,72.1002364 153.098633,71.118102 C152.807474,69.7330407 152.838182,68.4249451 153.190758,67.1938151 C153.543334,65.9626852 154.175995,64.9224871 155.088742,64.0732209 C156.001488,63.2239547 157.118914,62.6603592 158.441017,62.3824345 C159.763121,62.1045097 161.012892,62.1704876 162.190329,62.580368 C163.367765,62.9902484 164.367023,63.6939684 165.1881,64.6915279 C166.009177,65.6890874 166.567943,66.8929893 166.864396,68.3032335 C167.123792,69.5371972 167.14896,70.6889201 166.9399,71.7584022 C166.73084,72.8278844 166.304794,73.7720575 165.661762,74.5909217 L163.008357,72.6637549 C163.802562,71.5633024 164.068642,70.3897986 163.806599,69.1432435 C163.568377,68.0100115 163.03336,67.1692583 162.201545,66.6209839 C161.369731,66.0727094 160.380912,65.9190062 159.235088,66.1598743 C158.504783,66.3133947 157.886261,66.6077652 157.379522,67.0429859 C156.872783,67.4782066 156.518427,68.0128729 156.316455,68.6469849 C156.114484,69.2810969 156.090258,69.9633054 156.243778,70.6936104 C156.394652,71.411324 156.681063,72.0545281 157.103012,72.6232226 L160.729354,71.8609148 Z" id="Path"></path>
            <path d="M155.063883,101.567124 L156.220469,95.9726276 L153.864931,94.4017051 L154.654224,90.5838392 L166.677069,99.1592107 L165.915129,102.844774 L151.473611,105.968705 L152.278532,102.075237 L155.063883,101.567124 Z M158.049959,101.041384 L162.635297,100.215609 L158.753289,97.639325 L158.049959,101.041384 Z" id="Shape"></path>
            <polygon id="Path" points="156.278488 127.962897 144.130248 122.051861 145.506675 119.223057 154.589252 117.010214 148.115975 113.860476 149.754176 110.493678 161.902417 116.404714 160.52599 119.233519 151.443413 121.446362 157.91669 124.596099"></polygon>
            <path d="M150.244931,136.25958 L145.964308,141.001589 C144.972825,142.09994 143.888078,142.888764 142.710069,143.368063 C141.532059,143.847363 140.354566,143.980455 139.177588,143.767342 C138.000611,143.554229 136.905926,142.990728 135.893534,142.076838 C134.881141,141.162949 134.208914,140.131455 133.876853,138.982356 C133.544793,137.833257 133.557079,136.64833 133.913714,135.427573 C134.270348,134.206817 134.944408,133.047263 135.935891,131.948913 L140.216514,127.206904 L150.244931,136.25958 Z M138.302907,133.877621 C137.526964,134.737199 137.147601,135.647101 137.164818,136.607325 C137.182036,137.567549 137.620434,138.435633 138.480012,139.211576 C139.339591,139.98752 140.247866,140.335081 141.204838,140.25426 C142.161809,140.173439 143.028267,139.703239 143.804211,138.84366 L145.42076,137.052871 L139.919457,132.086832 L138.302907,133.877621 Z" id="Shape"></path>
            <polygon id="Path" points="120.175563 156.783928 123.93368 155.024693 125.218331 157.768992 114.258613 162.899412 112.973962 160.155112 116.7146 158.40406 112.271509 148.91263 115.732473 147.292497"></polygon>
            <polygon id="Path" points="93.5988432 157.42092 92.9566933 154.538688 103.543716 152.179941 106.481656 165.366624 96.1395294 167.670809 95.4973795 164.788577 102.147235 163.307015 101.651982 161.084117 95.7933277 162.389402 95.1721631 159.601361 101.030818 158.296076 100.493594 155.884796"></polygon>
            <path d="M80.3526045,154.297499 C81.7671568,154.344512 83.0271023,154.685701 84.132441,155.321067 C85.2377797,155.956433 86.0942017,156.818473 86.7017071,157.907186 C87.3092125,158.995899 87.5905275,160.215383 87.545652,161.565638 C87.5007766,162.915892 87.1391133,164.114007 86.460662,165.159981 C85.7822107,166.205956 84.8704423,167.00923 83.7253568,167.569804 C82.5802714,168.130378 81.3004525,168.387158 79.8859001,168.340146 C78.6513817,168.299117 77.5462948,168.043536 76.5706392,167.573402 C75.5949837,167.103268 74.7929133,166.445797 74.164428,165.600988 L76.667969,163.482777 C77.5073739,164.566324 78.5507654,165.128826 79.7981433,165.170282 C80.5311386,165.194643 81.189104,165.055588 81.7720393,164.753118 C82.3549746,164.450647 82.813695,164.012092 83.1482004,163.437453 C83.4827058,162.862813 83.6625663,162.196136 83.6877821,161.437422 C83.7129978,160.678708 83.5777989,160.00156 83.2821856,159.405979 C82.9865722,158.810397 82.5579825,158.342353 81.9964164,158.001845 C81.4348503,157.661337 80.7875696,157.478903 80.0545743,157.454542 C78.8071963,157.413086 77.7287593,157.905069 76.8192632,158.930491 L74.461888,156.650729 C75.1450785,155.849514 75.9890326,155.246748 76.9937503,154.842431 C77.9984681,154.438114 79.1180861,154.25647 80.3526045,154.297499 Z" id="Path"></path>
            <polygon id="Path" points="53.0470375 162.600296 56.8467233 149.635633 60.5138708 150.710401 59.0319934 155.766619 64.0326491 157.232213 65.5145266 152.175994 69.1816741 153.250762 65.3819883 166.215425 61.7148408 165.140657 63.142437 160.269648 58.1417813 158.804055 56.7141851 163.675064"></polygon>
            <polygon id="Path" points="48.4884181 152.787513 32.6262416 141.792908 33.8686321 140.000482 49.7308086 150.995087"></polygon>
        </g>
    </g>
</svg>