<svg xmlns="http://www.w3.org/2000/svg" xmlns:xlink="http://www.w3.org/1999/xlink" viewBox="0 0 591 115">
  <defs>
    <path id="a" d="m370.297 18.092-59.918-3.14-1.675 31.956 59.918 3.14z"/>
  </defs>
  <g fill="none" fill-rule="evenodd">
    <path fill="#9ED89D" fill-rule="nonzero" d="M400.017 23.641c-1.9.492-3.54.738-4.922.738-2.618 0-4.63-.688-6.034-2.066-1.405-1.377-2.107-3.351-2.107-5.921 0-2.55.702-4.512 2.107-5.886 1.405-1.374 3.406-2.061 6.003-2.061 1.662 0 3.309.195 4.943.584V11.5c-1.894-.649-3.449-.974-4.666-.974-1.606 0-2.847.513-3.722 1.538-.875 1.026-1.312 2.478-1.312 4.358 0 1.819.468 3.246 1.404 4.281.937 1.036 2.229 1.554 3.876 1.554a6.26 6.26 0 0 0 1.272-.154v-4.994h3.158v6.532Zm7.915.615c-1.757 0-3.153-.531-4.189-1.594-1.036-1.063-1.553-2.494-1.553-4.291 0-1.819.52-3.254 1.563-4.307 1.043-1.053 2.46-1.58 4.25-1.58 1.798 0 3.219.527 4.261 1.58 1.042 1.053 1.564 2.481 1.564 4.286 0 1.846-.523 3.292-1.57 4.337-1.045 1.046-2.487 1.57-4.326 1.57Zm.051-1.897c1.743 0 2.615-1.336 2.615-4.009 0-1.224-.231-2.19-.692-2.902-.462-.71-1.096-1.066-1.902-1.066-.8 0-1.43.355-1.892 1.066-.462.711-.692 1.685-.692 2.923 0 1.223.229 2.194.687 2.912.458.717 1.083 1.076 1.876 1.076Zm13.011 1.897c-1.757 0-3.153-.531-4.189-1.594-1.036-1.063-1.553-2.494-1.553-4.291 0-1.819.52-3.254 1.563-4.307 1.043-1.053 2.46-1.58 4.25-1.58 1.798 0 3.219.527 4.261 1.58 1.043 1.053 1.564 2.481 1.564 4.286 0 1.846-.523 3.292-1.569 4.337-1.046 1.046-2.488 1.57-4.327 1.57Zm.051-1.897c1.743 0 2.615-1.336 2.615-4.009 0-1.224-.23-2.19-.692-2.902-.462-.71-1.096-1.066-1.902-1.066-.8 0-1.43.355-1.892 1.066-.462.711-.692 1.685-.692 2.923 0 1.223.229 2.194.687 2.912.458.717 1.083 1.076 1.876 1.076ZM436.414 24v-2.123c-.779 1.586-2.006 2.38-3.68 2.38-1.354 0-2.417-.496-3.19-1.487-.772-.992-1.158-2.355-1.158-4.092 0-1.886.435-3.39 1.307-4.511.872-1.122 2.042-1.682 3.512-1.682 1.176 0 2.245.465 3.21 1.394V7.81h3.045V24h-3.046Zm0-8.316c-.731-.82-1.514-1.23-2.348-1.23-.745 0-1.34.358-1.784 1.076-.444.718-.666 1.682-.666 2.892 0 2.304.738 3.455 2.214 3.455.903 0 1.764-.577 2.584-1.732v-4.46Zm9.318 12.141v-2.03c.882.403 1.638.604 2.267.604.587 0 1.006-.182 1.256-.548.25-.366.374-.983.374-1.851V12.741h3.035v11.054c0 1.572-.35 2.717-1.051 3.435-.7.718-1.82 1.077-3.358 1.077-.684 0-1.525-.161-2.523-.482Zm3.897-16.98V8.311h3.035v2.532h-3.035Zm11.206 13.411c-1.757 0-3.153-.531-4.189-1.594-1.035-1.063-1.553-2.494-1.553-4.291 0-1.819.521-3.254 1.564-4.307 1.042-1.053 2.459-1.58 4.25-1.58 1.798 0 3.218.527 4.26 1.58 1.043 1.053 1.564 2.481 1.564 4.286 0 1.846-.523 3.292-1.569 4.337-1.046 1.046-2.488 1.57-4.327 1.57Zm.051-1.897c1.743 0 2.615-1.336 2.615-4.009 0-1.224-.23-2.19-.692-2.902-.461-.71-1.096-1.066-1.902-1.066-.8 0-1.43.355-1.892 1.066-.461.711-.692 1.685-.692 2.923 0 1.223.229 2.194.687 2.912.458.717 1.083 1.076 1.876 1.076ZM469.17 24V7.81h3.035v7.054c.78-1.586 2.007-2.38 3.681-2.38 1.354 0 2.419.496 3.195 1.488.775.99 1.163 2.355 1.163 4.091 0 1.88-.437 3.382-1.312 4.507-.875 1.124-2.044 1.686-3.507 1.686-1.258 0-2.331-.464-3.22-1.394L471.641 24h-2.47Zm3.035-2.943c.739.82 1.525 1.23 2.359 1.23.745 0 1.34-.36 1.784-1.081.444-.721.666-1.684.666-2.887 0-2.303-.741-3.455-2.225-3.455-.895 0-1.757.577-2.584 1.733v4.46ZM482.612 24v-2.533h3.035V24h-3.035Zm.502-4.296-.502-7.845V8.824h3.035v3.035l-.503 7.845h-2.03ZM30 22V8h3v14zm6 0V11.245h2.999v2.027c.98-1.515 2.242-2.272 3.79-2.272.992 0 1.776.304 2.35.911.574.607.861 1.437.861 2.488V22h-2.999v-6.886c0-1.221-.419-1.832-1.256-1.832-.953 0-1.868.65-2.746 1.95V22H36Zm24-.3c-.628.2-1.123.3-1.484.3-2.282 0-3.423-1.162-3.423-3.487v-5.6H54v-1.792h1.093V9.33L57.724 9v2.121h2.09v1.793h-2.09v5.22c0 1.305.49 1.958 1.467 1.958.225 0 .495-.046.809-.136V21.7Zm2 .3V7h2.999v6.536c.98-1.47 2.242-2.204 3.79-2.204.992 0 1.776.294 2.35.883.574.59.861 1.394.861 2.413V22h-2.999v-6.678c0-1.185-.419-1.777-1.256-1.777-.953 0-1.868.63-2.746 1.89V22H62Zm13 0V11.235h3V22h-3Zm0-12.578V7h3v2.422h-3Zm6 12.003v-2.08c1.36.589 2.521.882 3.486.882 1.124 0 1.687-.396 1.687-1.188 0-.51-.464-.958-1.39-1.341l-.928-.384c-1.007-.421-1.727-.875-2.16-1.36-.432-.486-.649-1.086-.649-1.802 0-.996.368-1.77 1.103-2.323.736-.553 1.765-.829 3.087-.829.829 0 1.814.125 2.958.374v1.993c-1.1-.396-2.012-.594-2.735-.594-1.137 0-1.706.364-1.706 1.092 0 .48.42.885 1.26 1.217l.798.316c1.193.466 2.023.94 2.49 1.418.466.48.699 1.096.699 1.85 0 .99-.397 1.793-1.191 2.41-.794.616-1.828.924-3.101.924A12.59 12.59 0 0 1 81 21.425Zm26-.019c-1.417.396-2.76.594-4.028.594-1.846 0-3.303-.498-4.37-1.495C97.533 19.51 97 18.148 97 16.423c0-1.629.488-2.94 1.465-3.933.977-.993 2.268-1.49 3.872-1.49 1.618 0 2.8.485 3.545 1.456.745.971 1.118 2.508 1.118 4.61h-6.858c.201 2.005 1.36 3.008 3.474 3.008 1 0 2.129-.22 3.384-.661v1.993Zm-6.898-5.94h3.967c0-1.796-.607-2.693-1.822-2.693-1.236 0-1.95.897-2.145 2.692ZM109 21.425v-2.08c1.36.589 2.521.882 3.486.882 1.124 0 1.687-.396 1.687-1.188 0-.51-.464-.958-1.39-1.341l-.928-.384c-1.007-.421-1.727-.875-2.16-1.36-.432-.486-.649-1.086-.649-1.802 0-.996.368-1.77 1.103-2.323.736-.553 1.765-.829 3.087-.829.829 0 1.814.125 2.958.374v1.993c-1.1-.396-2.012-.594-2.735-.594-1.137 0-1.706.364-1.706 1.092 0 .48.42.885 1.26 1.217l.798.316c1.193.466 2.023.94 2.49 1.418.466.48.699 1.096.699 1.85 0 .99-.397 1.793-1.191 2.41-.794.616-1.828.924-3.101.924a12.59 12.59 0 0 1-3.708-.575Zm11 0v-2.08c1.36.589 2.521.882 3.486.882 1.124 0 1.687-.396 1.687-1.188 0-.51-.464-.958-1.39-1.341l-.928-.384c-1.007-.421-1.727-.875-2.16-1.36-.432-.486-.649-1.086-.649-1.802 0-.996.368-1.77 1.103-2.323.736-.553 1.765-.829 3.087-.829.829 0 1.814.125 2.958.374v1.993c-1.1-.396-2.012-.594-2.735-.594-1.137 0-1.706.364-1.706 1.092 0 .48.42.885 1.26 1.217l.798.316c1.193.466 2.023.94 2.49 1.418.466.48.699 1.096.699 1.85 0 .99-.397 1.793-1.191 2.41-.794.616-1.828.924-3.101.924a12.59 12.59 0 0 1-3.708-.575Zm16.082-.795c-.937.913-1.94 1.37-3.008 1.37-.91 0-1.65-.281-2.22-.843-.57-.562-.854-1.29-.854-2.185 0-1.162.46-2.058 1.38-2.688.92-.629 2.238-.943 3.952-.943h.75v-.959c0-1.092-.617-1.638-1.85-1.638-1.095 0-2.202.313-3.321.939v-1.955c1.271-.485 2.53-.728 3.776-.728 2.726 0 4.09 1.096 4.09 3.287v4.656c0 .824.262 1.236.787 1.236.094 0 .218-.012.37-.038l.066 1.59c-.595.18-1.12.269-1.575.269-1.151 0-1.891-.457-2.22-1.37h-.123Zm0-1.524V16.97h-.665c-1.815 0-2.723.574-2.723 1.724 0 .39.132.717.394.982.263.265.587.398.973.398.658 0 1.331-.323 2.02-.968ZM142.527 26l2.407-3.704L141 12h3.074l2.629 6.883L149.825 12H152l-6.554 14zM160 22V8h3v14zm14.007 0L171 11h2.711l2.129 7.704L178.108 11h2.524l2.04 7.744L184.969 11H187l-3.214 11h-2.8l-1.971-7.544L176.807 22zM189 22V11.235h3V22h-3Zm0-12.578V7h3v2.422h-3ZM195 22V7h3v15zm6 0V7h3v15zm7 0v-2h2.098v2H208Zm6.446 0v-2h2.098v2h-2.098Zm6.456 0v-2H223v2h-2.098Z" opacity=".449"/>
    <g stroke="#000">
      <path fill="#9ED89D" d="m34.128 64.272 160.344-42.964 4.4 16.42L38.528 80.692z"/>
      <path stroke-linecap="square" d="m37.026 63.495 1.294 4.83m8.365-7.418 1.294 4.83m8.365-7.418 1.295 4.83m8.365-7.419 1.294 4.83m8.365-7.418 1.294 4.83m8.365-7.418 1.294 4.83m8.366-7.418 1.294 4.83m8.364-7.418 1.295 4.83m8.365-7.418 1.294 4.83m8.366-7.419 1.293 4.83m8.366-7.418 1.294 4.83m8.365-7.418 1.294 4.83m8.365-7.418 1.294 4.83m8.365-7.418 1.294 4.83m8.366-7.419 1.294 4.83m8.365-7.418 1.294 4.83M42.05 62.926l.647 2.414m9.012-5.003.647 2.415m9.012-5.002.647 2.414m9.012-5.004.648 2.416m9.012-5.003.647 2.415m9.012-5.003.647 2.414m9.012-5.003.647 2.415m9.013-5.003.647 2.415m9.012-5.003.647 2.415m9.012-5.003.647 2.415m9.012-5.003.647 2.414m9.013-5.003.647 2.415m9.011-5.003.648 2.415m9.012-5.003.647 2.415m9.013-5.004.646 2.416m9.013-5.003.647 2.414m3.988-4.433 1.294 4.83"/>
    </g>
    <path fill="#FFF" stroke="#000" d="M6.5 66.5h294v45H6.5z"/>
    <path fill="#9ED89D" fill-rule="nonzero" d="M31.234 98.64v-1.68c-1.141 0-2.526-.253-4.152-.759v-2.235c1.524.69 2.908 1.07 4.152 1.138v-4.87l-.523-.36c-1.257-.847-2.105-1.563-2.543-2.148-.437-.584-.656-1.293-.656-2.127 0-1.019.333-1.867 1-2.543.666-.677 1.574-1.084 2.722-1.22v-1.662h1.651v1.661c1.073.055 2.16.27 3.261.646v2.062c-1.121-.527-2.208-.838-3.26-.934v4.594l.46.308c1.293.827 2.166 1.534 2.62 2.122.455.588.682 1.306.682 2.154 0 1.107-.336 2.035-1.01 2.784-.673.748-1.59 1.215-2.753 1.4v1.67h-1.65Zm1.333-3.66c.978-.308 1.467-.91 1.467-1.805 0-.683-.49-1.374-1.467-2.071v3.876Zm-1.015-7.64v-3.65c-.943.315-1.415.875-1.415 1.682 0 .711.472 1.367 1.415 1.969ZM46.972 97V81.824h3.158v6.162h6.275v-6.162h3.159V97h-3.16v-6.922H50.13V97zm25.202-.38c-1.442.424-2.81.636-4.101.636-1.88 0-3.364-.533-4.45-1.6-1.088-1.066-1.631-2.522-1.631-4.367 0-1.744.497-3.147 1.492-4.21.995-1.063 2.309-1.594 3.943-1.594 1.647 0 2.85.52 3.609 1.558.759 1.04 1.138 2.684 1.138 4.933h-6.983c.205 2.146 1.384 3.22 3.538 3.22 1.018 0 2.167-.237 3.445-.708v2.133Zm-7.024-6.357h4.04c0-1.92-.618-2.881-1.856-2.881-1.258 0-1.986.96-2.184 2.881ZM74.962 97V80.81h3.035V97zm6.478 0V80.81h3.037V97zm11.207.256c-1.757 0-3.153-.531-4.189-1.594-1.035-1.063-1.553-2.494-1.553-4.291 0-1.819.521-3.254 1.564-4.307 1.042-1.053 2.459-1.58 4.25-1.58 1.798 0 3.218.527 4.26 1.58 1.043 1.053 1.564 2.481 1.564 4.286 0 1.846-.523 3.292-1.569 4.338-1.046 1.045-2.488 1.568-4.327 1.568Zm.051-1.897c1.744 0 2.615-1.336 2.615-4.009 0-1.224-.23-2.19-.692-2.902-.461-.71-1.096-1.066-1.902-1.066-.8 0-1.43.355-1.892 1.066-.461.711-.692 1.685-.692 2.923 0 1.223.229 2.194.687 2.912.458.717 1.083 1.076 1.876 1.076ZM109.656 97l-3.784-15.176h2.984l2.769 11.105 2.615-11.105h2.635l2.48 11.043 2.913-11.043h2.184L120.474 97h-3.015l-2.338-10.408L112.67 97zm21.254.256c-1.756 0-3.153-.531-4.188-1.594-1.036-1.063-1.554-2.494-1.554-4.291 0-1.819.522-3.254 1.564-4.307 1.043-1.053 2.46-1.58 4.25-1.58 1.798 0 3.218.527 4.26 1.58 1.043 1.053 1.565 2.481 1.565 4.286 0 1.846-.523 3.292-1.57 4.338-1.045 1.045-2.488 1.568-4.326 1.568Zm.052-1.897c1.743 0 2.615-1.336 2.615-4.009 0-1.224-.231-2.19-.693-2.902-.461-.71-1.095-1.066-1.902-1.066-.8 0-1.43.355-1.892 1.066-.46.711-.692 1.685-.692 2.923 0 1.223.23 2.194.687 2.912.458.717 1.084 1.076 1.877 1.076ZM139.246 97V85.741h3.035v2.123c.786-1.586 1.982-2.38 3.589-2.38a2.6 2.6 0 0 1 .564.062v2.707a3.515 3.515 0 0 0-1.2-.235c-1.21 0-2.194.611-2.953 1.835V97h-3.035Zm9.196 0V80.81h3.036V97zm13.565 0v-2.123c-.78 1.586-2.007 2.38-3.682 2.38-1.353 0-2.416-.496-3.189-1.487-.772-.992-1.158-2.355-1.158-4.092 0-1.886.436-3.39 1.307-4.511.872-1.122 2.042-1.682 3.512-1.682 1.176 0 2.246.465 3.21 1.394v-6.07h3.045V97h-3.045Zm0-8.316c-.732-.82-1.515-1.23-2.349-1.23-.745 0-1.34.359-1.784 1.076-.444.718-.666 1.682-.666 2.892 0 2.304.738 3.455 2.215 3.455.902 0 1.763-.577 2.584-1.732v-4.46ZM168.363 97v-2.533h3.035V97h-3.035Zm.502-4.296-.502-7.845v-3.035h3.035v3.035l-.503 7.845h-2.03Z"/>
    <g fill="#FFF" stroke="#000">
      <path d="m508.965 7.758 70.31 9.882-11.552 82.192-70.31-9.881z"/>
      <path d="m515.538 3.59 67.898 20.759-24.267 79.373-67.898-20.758z"/>
      <path d="m499.93 14.567 70.309 9.882-11.552 82.192-70.309-9.882z"/>
      <path d="m491.48 16.323 70.73 6.188-7.234 82.684-70.73-6.188z"/>
    </g>
    <path fill="#9ED89D" fill-rule="nonzero" d="m521.599 44.596 7.206-14.604 3.146.276 4.561 15.632-3.228-.282-1.22-4.173-6.251-.546-1.926 3.897-2.288-.2Zm5.166-5.642 4.7.411-1.823-6.232-2.877 5.821Zm17.091 7.589.452-5.17-5.17-.451.155-1.768 5.17.453.45-5.159 1.768.155-.451 5.158 5.158.451-.155 1.768-5.158-.452-.452 5.17z"/>
    <g stroke="#000">
      <path fill="#F2F9F2" d="M219.5 3.5h92v78h-92z"/>
      <path fill="#F2F9F2" d="M219.5 3.5h46v78h-46z"/>
      <path fill="#DDF5DD" d="M219.5 3.5h22v78h-22z"/>
      <path fill="#F2F9F2" d="M289.5 3.5h22v78h-22z"/>
      <path d="M219.5 3.5h92v10h-92zm0 10h92v10h-92zm0 10h92v10h-92zm0 10h92v10h-92zm0 10h92v10h-92zm0 10h92v10h-92zm0 10h92v10h-92z"/>
    </g>
    <g fill="#FFF" stroke="#000">
      <use xlink:href="#a"/>
      <path d="m371.823 21.952-59.089-10.419-5.556 31.514 59.088 10.42z"/>
      <path d="m363.088 8.012-57.064 18.541 9.889 30.434 57.063-18.541z"/>
      <use xlink:href="#a"/>
    </g>
    <path fill="#9ED89D" stroke="#000" d="m319.277 29.782 16.629-3.534 14.97 70.426-16.63 3.535z"/>
    <g stroke="#000">
      <path fill="#B0E6AF" d="M371.91 29.464c11.19-2.379 27.682-4.1 49.474-5.169L436.371 94.8c-21.954 1.26-38.43 3.06-49.426 5.397-11.13 2.366-17.301 5.494-18.806 9.19l-2.178.463-15.046-70.785c3.032-4.106 10.057-7.276 20.996-9.601Z"/>
      <path fill="#DDF5DD" d="M368.416 30.207c10.868-2.31 26.884-3.983 48.046-5.02l14.552 68.462c-21.319 1.223-37.318 2.972-47.998 5.242-9.746 2.071-15.577 4.745-17.709 7.881l-14.443-67.95c.522-1.718 2.208-3.245 4.964-4.64 2.965-1.5 7.162-2.822 12.588-3.975Z"/>
      <path fill="#DDF5DD" d="M368 28.25c10.868-2.31 26.884-3.982 48.046-5.02l14.552 68.462c-21.319 1.224-37.318 2.972-47.998 5.243-9.746 2.071-15.577 4.745-17.709 7.881l-14.443-67.95c.522-1.719 2.208-3.246 4.964-4.64 2.965-1.5 7.163-2.822 12.588-3.976Z"/>
      <path fill="#DDF5DD" d="M367.585 26.294c10.868-2.31 26.883-3.982 48.046-5.02l14.552 68.462c-21.32 1.223-37.319 2.972-47.999 5.242-9.746 2.072-15.577 4.746-17.709 7.882l-14.443-67.95c.522-1.719 2.208-3.246 4.965-4.64 2.965-1.5 7.162-2.823 12.588-3.976Z"/>
      <path fill="#B0E6AF" d="M327.83 38.833c-11.19 2.379-26.956 7.514-47.299 15.401l14.986 70.505c20.569-7.779 36.351-12.835 47.348-15.172 11.13-2.366 18.04-2.019 20.919.746l2.177-.463-15.046-70.785c-4.439-2.518-12.146-2.557-23.085-.232Z"/>
      <path fill="#DDF5DD" d="M331.324 38.09c-10.868 2.31-26.178 7.297-45.934 14.956l14.553 68.463c19.973-7.554 35.3-12.464 45.98-14.734 9.747-2.072 16.161-2 19.384-.003l-14.443-67.95c-1.176-1.357-3.338-2.067-6.423-2.22-3.318-.164-7.69.335-13.117 1.489Z"/>
      <path fill="#DDF5DD" d="M330.909 36.134c-10.868 2.31-26.18 7.297-45.934 14.956l14.552 68.463c19.973-7.554 35.3-12.464 45.98-14.734 9.747-2.072 16.161-2 19.384-.003l-14.443-67.95c-1.176-1.358-3.337-2.067-6.423-2.22-3.318-.164-7.69.335-13.116 1.488Z"/>
      <path fill="#DDF5DD" d="M330.493 34.178c-10.868 2.31-26.18 7.297-45.934 14.956l14.552 68.462c19.974-7.553 35.301-12.464 45.981-14.734 9.746-2.071 16.16-2 19.383-.002l-14.443-67.95c-1.176-1.358-3.337-2.067-6.422-2.22-3.32-.164-7.691.335-13.117 1.488Z"/>
    </g>
    <g fill="#9ED89D" stroke="#000" transform="translate(380 28)">
      <path d="M40.5 21.5h77v56.613C100.515 81.703 87.682 83.5 79 83.5c-8.682 0-21.515-1.798-38.5-5.387V21.5Z"/>
      <path d="M79 .533 156.55 29 79 57.467 1.45 29 79 .533Z"/>
      <path stroke-linecap="square" d="m84.675 28.643 52.65 7.714m.175 26.976V36.667m-.167 29.983-2.666 11.7m2.833-12.668v13.636m.167-12.668 2.666 11.7"/>
      <circle cx="137" cy="66" r="1.5"/>
    </g>
    <path fill="#D0F1D0" stroke="#000" d="m215.279 16.886 192.978 87.79-3.377 7.242L213.584 20.52l1.695-3.633Z"/>
    <g fill="#DDF5DD" stroke="#000">
      <path d="m140.697 48.879 9.779 5.328 7.09 20.592-28.365 9.767-9.767-28.365 21.263-7.322Z"/>
      <path d="m119.436 56.208 20.975-6.853 2.66 7.725 7.504-2.584 6.991 20.303-28.365 9.767-9.765-28.358Z"/>
    </g>
    <path fill="#DDF5DD" stroke="#000" d="m205.547 43.266-3.136 29.836-29.835-3.136 3.135-29.836 29.836 3.136Zm-93.479-7.602L94.014 59.623l-23.96-18.055L88.11 17.61l23.96 18.055Z"/>
    <g stroke="#000">
      <path fill="#9ED89D" d="M36.05 35.286c6.442-1.508 10.501-1.968 12.4-1.28 2.536.92 4.242 2.674 5.37 4.723 1.565 2.84 2.03 6.243 2.03 8.843 0 4.077-1.776 9.033-4.668 12.744-2.439 3.13-5.681 5.39-9.353 5.39-.58 0-.84-.145-1.148-.313-.583-.317-1.297-.722-3.648-.722-2.23 0-3.006.364-3.675.67-.422.194-.792.365-1.595.365-4.443 0-8.183-1.954-10.845-5.1-2.807-3.32-4.418-7.956-4.418-13.034 0-2.761.695-6.012 2.596-8.718 1.484-2.114 3.707-3.89 6.904-4.838 1.642-.488 4.996-.037 10.05 1.27Z"/>
      <path stroke-linecap="square" d="M41.5 27.5c-2.225 2.43-3.675 4.263-4.35 5.5-.675 1.237-1.225 3.07-1.65 5.5"/>
    </g>
  </g>
</svg>
